%TF.GenerationSoftware,KiCad,Pcbnew,9.0.0*%
%TF.CreationDate,2026-02-03T13:11:21-06:00*%
%TF.ProjectId,FiltSure Prototype Three,46696c74-5375-4726-9520-50726f746f74,rev?*%
%TF.SameCoordinates,Original*%
%TF.FileFunction,Copper,L2,Bot*%
%TF.FilePolarity,Positive*%
%FSLAX46Y46*%
G04 Gerber Fmt 4.6, Leading zero omitted, Abs format (unit mm)*
G04 Created by KiCad (PCBNEW 9.0.0) date 2026-02-03 13:11:21*
%MOMM*%
%LPD*%
G01*
G04 APERTURE LIST*
G04 Aperture macros list*
%AMRoundRect*
0 Rectangle with rounded corners*
0 $1 Rounding radius*
0 $2 $3 $4 $5 $6 $7 $8 $9 X,Y pos of 4 corners*
0 Add a 4 corners polygon primitive as box body*
4,1,4,$2,$3,$4,$5,$6,$7,$8,$9,$2,$3,0*
0 Add four circle primitives for the rounded corners*
1,1,$1+$1,$2,$3*
1,1,$1+$1,$4,$5*
1,1,$1+$1,$6,$7*
1,1,$1+$1,$8,$9*
0 Add four rect primitives between the rounded corners*
20,1,$1+$1,$2,$3,$4,$5,0*
20,1,$1+$1,$4,$5,$6,$7,0*
20,1,$1+$1,$6,$7,$8,$9,0*
20,1,$1+$1,$8,$9,$2,$3,0*%
G04 Aperture macros list end*
%TA.AperFunction,ComponentPad*%
%ADD10R,1.700000X1.700000*%
%TD*%
%TA.AperFunction,ComponentPad*%
%ADD11O,1.700000X1.700000*%
%TD*%
%TA.AperFunction,ComponentPad*%
%ADD12R,1.524000X1.524000*%
%TD*%
%TA.AperFunction,ComponentPad*%
%ADD13C,1.524000*%
%TD*%
%TA.AperFunction,SMDPad,CuDef*%
%ADD14RoundRect,0.225000X-0.335876X-0.017678X-0.017678X-0.335876X0.335876X0.017678X0.017678X0.335876X0*%
%TD*%
%TA.AperFunction,SMDPad,CuDef*%
%ADD15RoundRect,0.056250X-0.188750X-0.168750X0.188750X-0.168750X0.188750X0.168750X-0.188750X0.168750X0*%
%TD*%
%TA.AperFunction,SMDPad,CuDef*%
%ADD16RoundRect,0.225000X0.250000X-0.225000X0.250000X0.225000X-0.250000X0.225000X-0.250000X-0.225000X0*%
%TD*%
%TA.AperFunction,SMDPad,CuDef*%
%ADD17RoundRect,0.225000X0.225000X0.250000X-0.225000X0.250000X-0.225000X-0.250000X0.225000X-0.250000X0*%
%TD*%
%TA.AperFunction,SMDPad,CuDef*%
%ADD18RoundRect,0.200000X0.275000X-0.200000X0.275000X0.200000X-0.275000X0.200000X-0.275000X-0.200000X0*%
%TD*%
%TA.AperFunction,SMDPad,CuDef*%
%ADD19RoundRect,0.225000X-0.250000X0.225000X-0.250000X-0.225000X0.250000X-0.225000X0.250000X0.225000X0*%
%TD*%
%TA.AperFunction,SMDPad,CuDef*%
%ADD20RoundRect,0.225000X-0.225000X-0.250000X0.225000X-0.250000X0.225000X0.250000X-0.225000X0.250000X0*%
%TD*%
%TA.AperFunction,SMDPad,CuDef*%
%ADD21RoundRect,0.200000X-0.200000X-0.275000X0.200000X-0.275000X0.200000X0.275000X-0.200000X0.275000X0*%
%TD*%
%TA.AperFunction,ComponentPad*%
%ADD22C,1.508000*%
%TD*%
%TA.AperFunction,ComponentPad*%
%ADD23R,1.508000X1.508000*%
%TD*%
%TA.AperFunction,SMDPad,CuDef*%
%ADD24RoundRect,0.225000X0.017678X-0.335876X0.335876X-0.017678X-0.017678X0.335876X-0.335876X0.017678X0*%
%TD*%
%TA.AperFunction,SMDPad,CuDef*%
%ADD25RoundRect,0.045000X-0.255000X0.630000X-0.255000X-0.630000X0.255000X-0.630000X0.255000X0.630000X0*%
%TD*%
%TA.AperFunction,ViaPad*%
%ADD26C,1.000000*%
%TD*%
%TA.AperFunction,ViaPad*%
%ADD27C,0.700000*%
%TD*%
%TA.AperFunction,ViaPad*%
%ADD28C,0.600000*%
%TD*%
%TA.AperFunction,Conductor*%
%ADD29C,0.200000*%
%TD*%
%TA.AperFunction,Conductor*%
%ADD30C,0.350000*%
%TD*%
%TA.AperFunction,Conductor*%
%ADD31C,0.400000*%
%TD*%
%TA.AperFunction,Conductor*%
%ADD32C,0.500000*%
%TD*%
G04 APERTURE END LIST*
D10*
%TO.P,J1,1,Pin_1*%
%TO.N,VCC*%
X95351600Y-76851600D03*
D11*
%TO.P,J1,2,Pin_2*%
%TO.N,GND*%
X95351600Y-79391600D03*
%TD*%
D10*
%TO.P,J2,1,Pin_1*%
%TO.N,GND*%
X140060600Y-120544600D03*
D11*
%TO.P,J2,2,Pin_2*%
%TO.N,Net-(J2-Pin_2)*%
X137520600Y-120544600D03*
%TD*%
D12*
%TO.P,U2,J1_1,ESP_3V3*%
%TO.N,unconnected-(U2-ESP_3V3-PadJ1_1)*%
X138980600Y-90064600D03*
D13*
%TO.P,U2,J1_2,CHIP_PU*%
%TO.N,/Reset*%
X136440600Y-90064600D03*
%TO.P,U2,J1_3,GPIO4*%
%TO.N,/Diag_Pin*%
X133900600Y-90064600D03*
%TO.P,U2,J1_4,GPIO5*%
%TO.N,/Speed_Pin*%
X131360600Y-90064600D03*
%TO.P,U2,J1_5,GPIO6*%
%TO.N,/SCK*%
X128820600Y-90064600D03*
%TO.P,U2,J1_6,GPIO7*%
%TO.N,/MOSI*%
X126280600Y-90064600D03*
%TO.P,U2,J1_7,GPIO0*%
%TO.N,/Batt_Pin*%
X123740600Y-90064600D03*
%TO.P,U2,J1_8,GPIO1*%
%TO.N,unconnected-(U2-GPIO1-PadJ1_8)*%
X121200600Y-90064600D03*
%TO.P,U2,J1_9,GPIO8*%
%TO.N,unconnected-(U2-GPIO8-PadJ1_9)*%
X118660600Y-90064600D03*
%TO.P,U2,J1_10,GPIO10*%
%TO.N,unconnected-(U2-GPIO10-PadJ1_10)*%
X116120600Y-90064600D03*
%TO.P,U2,J1_11,GPIO11*%
%TO.N,unconnected-(U2-GPIO11-PadJ1_11)*%
X113580600Y-90064600D03*
%TO.P,U2,J1_12,GPIO2*%
%TO.N,/CS_VREG*%
X111040600Y-90064600D03*
%TO.P,U2,J1_13,GPIO3*%
%TO.N,unconnected-(U2-GPIO3-PadJ1_13)*%
X108500600Y-90064600D03*
%TO.P,U2,J1_14,VCC_5V*%
%TO.N,+5V*%
X105960600Y-90064600D03*
%TO.P,U2,J1_15,GND_J1_15*%
%TO.N,GND*%
X103420600Y-90064600D03*
%TO.P,U2,J1_16,NC_J1_16*%
%TO.N,unconnected-(U2-NC_J1_16-PadJ1_16)*%
X100880600Y-90064600D03*
%TO.P,U2,J3_1,GND_J3_1*%
%TO.N,GND*%
X138980600Y-112924600D03*
%TO.P,U2,J3_2,UART_TXD*%
%TO.N,unconnected-(U2-UART_TXD-PadJ3_2)*%
X136440600Y-112924600D03*
%TO.P,U2,J3_3,UART_RXD*%
%TO.N,unconnected-(U2-UART_RXD-PadJ3_3)*%
X133900600Y-112924600D03*
%TO.P,U2,J3_4,GPIO15*%
%TO.N,/CS_BME*%
X131360600Y-112924600D03*
%TO.P,U2,J3_5,GPIO23*%
%TO.N,/CS_RFID*%
X128820600Y-112924600D03*
%TO.P,U2,J3_6,GPIO22*%
%TO.N,/CS_LoRa*%
X126280600Y-112924600D03*
%TO.P,U2,J3_7,GPIO21*%
%TO.N,/RST_LoRa*%
X123740600Y-112924600D03*
%TO.P,U2,J3_8,GPIO20*%
%TO.N,/RFID_RST*%
X121200600Y-112924600D03*
%TO.P,U2,J3_9,GPIO19*%
%TO.N,/IRQ_LoRa*%
X118660600Y-112924600D03*
%TO.P,U2,J3_10,GPIO18*%
%TO.N,/MISO*%
X116120600Y-112924600D03*
%TO.P,U2,J3_11,GPIO9*%
%TO.N,unconnected-(U2-GPIO9-PadJ3_11)*%
X113580600Y-112924600D03*
%TO.P,U2,J3_12,GND_J3_12*%
%TO.N,GND*%
X111040600Y-112924600D03*
%TO.P,U2,J3_13,GPIO13*%
%TO.N,unconnected-(U2-GPIO13-PadJ3_13)*%
X108500600Y-112924600D03*
%TO.P,U2,J3_14,GPIO12*%
%TO.N,unconnected-(U2-GPIO12-PadJ3_14)*%
X105960600Y-112924600D03*
%TO.P,U2,J3_15,GND_J3_15*%
%TO.N,GND*%
X103420600Y-112924600D03*
%TO.P,U2,J3_16,NC_J3_16*%
%TO.N,unconnected-(U2-NC_J3_16-PadJ3_16)*%
X100880600Y-112924600D03*
%TD*%
D14*
%TO.P,R5,1*%
%TO.N,VCC*%
X101661592Y-77070592D03*
%TO.P,R5,2*%
%TO.N,/Batt_Pin*%
X102757608Y-78166608D03*
%TD*%
D15*
%TO.P,U5,1,GND*%
%TO.N,GND*%
X119643600Y-102682600D03*
%TO.P,U5,2,CSB*%
%TO.N,/CS_BME*%
X119643600Y-102032600D03*
%TO.P,U5,3,SDI*%
%TO.N,/MOSI*%
X119643600Y-101382600D03*
%TO.P,U5,4,SCK*%
%TO.N,/SCK*%
X119643600Y-100732600D03*
%TO.P,U5,5,SDO*%
%TO.N,/MISO*%
X117703600Y-100732600D03*
%TO.P,U5,6,VDDIO*%
%TO.N,+3.3V*%
X117703600Y-101382600D03*
%TO.P,U5,7,GND*%
%TO.N,GND*%
X117703600Y-102032600D03*
%TO.P,U5,8,VDD*%
%TO.N,+3.3V*%
X117703600Y-102682600D03*
%TD*%
D16*
%TO.P,R4,1*%
%TO.N,+3.3V*%
X122529600Y-103793600D03*
%TO.P,R4,2*%
%TO.N,/CS_BME*%
X122529600Y-102243600D03*
%TD*%
D17*
%TO.P,R6,1*%
%TO.N,/Speed_Pin*%
X129908600Y-120798600D03*
%TO.P,R6,2*%
%TO.N,GND*%
X128358600Y-120798600D03*
%TD*%
D18*
%TO.P,R12,1*%
%TO.N,+3.3V*%
X128879600Y-101557600D03*
%TO.P,R12,2*%
%TO.N,/SCK*%
X128879600Y-99907600D03*
%TD*%
D19*
%TO.P,R5,1*%
%TO.N,+3.3V*%
X115163600Y-103767600D03*
%TO.P,R5,2*%
%TO.N,GND*%
X115163600Y-105317600D03*
%TD*%
D17*
%TO.P,C7,1*%
%TO.N,Net-(J2-Pin_2)*%
X133312200Y-118305600D03*
%TO.P,C7,2*%
%TO.N,GND*%
X131762200Y-118305600D03*
%TD*%
D19*
%TO.P,C4,1*%
%TO.N,+3.3V*%
X113131600Y-103767600D03*
%TO.P,C4,2*%
%TO.N,GND*%
X113131600Y-105317600D03*
%TD*%
D20*
%TO.P,Green1,1,K*%
%TO.N,GND*%
X113118600Y-95144600D03*
%TO.P,Green1,2,A*%
%TO.N,Net-(Green1-A)*%
X114668600Y-95144600D03*
%TD*%
D17*
%TO.P,R4,1*%
%TO.N,Net-(J2-Pin_2)*%
X133312200Y-120591600D03*
%TO.P,R4,2*%
%TO.N,/Speed_Pin*%
X131762200Y-120591600D03*
%TD*%
D21*
%TO.P,R3,1*%
%TO.N,+3.3V*%
X113068600Y-96922600D03*
%TO.P,R3,2*%
%TO.N,Net-(Green1-A)*%
X114718600Y-96922600D03*
%TD*%
D17*
%TO.P,C5,1*%
%TO.N,+3.3V*%
X103746600Y-97684600D03*
%TO.P,C5,2*%
%TO.N,GND*%
X102196600Y-97684600D03*
%TD*%
D18*
%TO.P,R11,1*%
%TO.N,+3.3V*%
X126085600Y-102827600D03*
%TO.P,R11,2*%
%TO.N,/MOSI*%
X126085600Y-101177600D03*
%TD*%
D11*
%TO.P,U4,2,MISO*%
%TO.N,/MOSI*%
X136499600Y-86508600D03*
%TO.P,U4,3,MOSI*%
%TO.N,/MISO*%
X133959600Y-86508600D03*
%TO.P,U4,4,SCK*%
%TO.N,/SCK*%
X131419600Y-86508600D03*
%TO.P,U4,5,NSS*%
%TO.N,/CS_LoRa*%
X139039600Y-86508600D03*
D10*
%TO.P,U4,6,RESET*%
%TO.N,/RST_LoRa*%
X141579600Y-86508600D03*
D11*
%TO.P,U4,7,DIO5*%
%TO.N,unconnected-(U4-DIO5-Pad7)*%
X126339600Y-86508600D03*
%TO.P,U4,8,GND@1*%
%TO.N,GND*%
X123799600Y-86508600D03*
%TO.P,U4,13,3_3V*%
%TO.N,+3.3V*%
X121259600Y-86508600D03*
%TO.P,U4,14,DIO0*%
%TO.N,/IRQ_LoRa*%
X128879600Y-86508600D03*
%TD*%
D22*
%TO.P,M1,1,SDA*%
%TO.N,/CS_RFID*%
X151231600Y-110384600D03*
%TO.P,M1,2,SCK*%
%TO.N,/SCK*%
X151231600Y-107844600D03*
%TO.P,M1,3,MOSI*%
%TO.N,/MOSI*%
X151231600Y-105304600D03*
%TO.P,M1,4,MISO*%
%TO.N,/MISO*%
X151231600Y-102764600D03*
%TO.P,M1,5,IRQ*%
%TO.N,unconnected-(M1-IRQ-Pad5)*%
X151231600Y-100224600D03*
%TO.P,M1,6,GND*%
%TO.N,GND*%
X151231600Y-97684600D03*
%TO.P,M1,7,RST*%
%TO.N,/RFID_RST*%
X151231600Y-95144600D03*
D23*
%TO.P,M1,8,3V3*%
%TO.N,+3.3V*%
X151231600Y-92604600D03*
%TD*%
D24*
%TO.P,R7,1*%
%TO.N,/Batt_Pin*%
X110297592Y-85532608D03*
%TO.P,R7,2*%
%TO.N,GND*%
X111393608Y-84436592D03*
%TD*%
D21*
%TO.P,R10,1*%
%TO.N,+3.3V*%
X115862600Y-99208600D03*
%TO.P,R10,2*%
%TO.N,/MISO*%
X117512600Y-99208600D03*
%TD*%
D25*
%TO.P,U3,1,VIN*%
%TO.N,+5V*%
X106151600Y-94721600D03*
%TO.P,U3,2,GND*%
%TO.N,GND*%
X107101600Y-94721600D03*
%TO.P,U3,3,EN*%
%TO.N,/CS_VREG*%
X108051600Y-94721600D03*
%TO.P,U3,4*%
%TO.N,N/C*%
X108051600Y-97091600D03*
%TO.P,U3,5,VOUT*%
%TO.N,+3.3V*%
X106151600Y-97091600D03*
%TD*%
D17*
%TO.P,C6,1*%
%TO.N,+5V*%
X103746600Y-94636600D03*
%TO.P,C6,2*%
%TO.N,GND*%
X102196600Y-94636600D03*
%TD*%
D26*
%TO.N,GND*%
X117703600Y-109876600D03*
X113639600Y-109876600D03*
X125577600Y-107082600D03*
X117703600Y-107082600D03*
X108813600Y-92350600D03*
X147929600Y-98446600D03*
X124561600Y-96668600D03*
X148125914Y-88286600D03*
X142341600Y-95144600D03*
X108559600Y-109876600D03*
X127609600Y-97938600D03*
X122529600Y-111146600D03*
X132961759Y-104420041D03*
X103733600Y-109876600D03*
X129387600Y-106574600D03*
X139293600Y-108098600D03*
X127609600Y-92096600D03*
X124852352Y-92946759D03*
X132943600Y-106574600D03*
X121513600Y-107082600D03*
X125069600Y-111146600D03*
X146913600Y-108098600D03*
X142341600Y-89556600D03*
X130403600Y-96668600D03*
X142084125Y-102578025D03*
X134721600Y-102256600D03*
D27*
X118719600Y-102002600D03*
D26*
X130403600Y-92946759D03*
X127609600Y-95398600D03*
D27*
X101447600Y-81936600D03*
D26*
%TO.N,+3.3V*%
X111353600Y-103018600D03*
X107797600Y-103018600D03*
X107797600Y-101240600D03*
X109575600Y-99462600D03*
X111353600Y-99462600D03*
X106019600Y-99462600D03*
X107797600Y-99462600D03*
X109575600Y-103018600D03*
X111353600Y-101240600D03*
X106019600Y-103018600D03*
X106019600Y-101240600D03*
X109575600Y-101240600D03*
D27*
%TO.N,/CS_BME*%
X122529600Y-102243600D03*
D26*
%TO.N,/SCK*%
X124307600Y-99970600D03*
D28*
X145643600Y-102256600D03*
D27*
X128879600Y-99907600D03*
D28*
%TO.N,/MISO*%
X153009600Y-89048600D03*
X119481600Y-99208600D03*
%TO.N,/MOSI*%
X129387600Y-104796600D03*
D27*
X149453600Y-84476600D03*
X126085600Y-101098600D03*
%TO.N,/CS_RFID*%
X138277600Y-110892600D03*
D28*
%TO.N,/Speed_Pin*%
X129908600Y-117763600D03*
X131419600Y-107336600D03*
%TD*%
D29*
%TO.N,GND*%
X117733600Y-102002600D02*
X117703600Y-102032600D01*
X118719600Y-102002600D02*
X118719600Y-102346600D01*
X118719600Y-102346600D02*
X119055600Y-102682600D01*
X108051600Y-92350600D02*
X108813600Y-92350600D01*
X107101600Y-93300600D02*
X108051600Y-92350600D01*
X107101600Y-94721600D02*
X107101600Y-93300600D01*
X118719600Y-102002600D02*
X117733600Y-102002600D01*
X119055600Y-102682600D02*
X119643600Y-102682600D01*
%TO.N,VCC*%
X101942600Y-76856600D02*
X95356600Y-76856600D01*
X95356600Y-76856600D02*
X95351600Y-76851600D01*
%TO.N,+3.3V*%
X116321600Y-101382600D02*
X115862600Y-100923600D01*
X113131600Y-96985600D02*
X113068600Y-96922600D01*
X117703600Y-101382600D02*
X116321600Y-101382600D01*
X115862600Y-100923600D02*
X115862600Y-99208600D01*
%TO.N,/CS_BME*%
X122318600Y-102032600D02*
X122529600Y-102243600D01*
X119643600Y-102032600D02*
X122318600Y-102032600D01*
%TO.N,Net-(Green1-A)*%
X114718600Y-95194600D02*
X114668600Y-95144600D01*
X114718600Y-96922600D02*
X114718600Y-95194600D01*
%TO.N,/RFID_RST*%
X121200600Y-112924600D02*
X121200600Y-114897600D01*
X122021600Y-115718600D02*
X148945600Y-115718600D01*
X153009600Y-96922600D02*
X151231600Y-95144600D01*
X121200600Y-114897600D02*
X122021600Y-115718600D01*
X148945600Y-115718600D02*
X153009600Y-111654600D01*
X153009600Y-111654600D02*
X153009600Y-96922600D01*
%TO.N,/SCK*%
X151231600Y-107844600D02*
X145643600Y-102256600D01*
X128879600Y-90123600D02*
X128820600Y-90064600D01*
X119643600Y-100732600D02*
X123545600Y-100732600D01*
X123545600Y-100732600D02*
X124307600Y-99970600D01*
X128879600Y-99907600D02*
X128879600Y-90123600D01*
%TO.N,/MISO*%
X119481600Y-99208600D02*
X117512600Y-99208600D01*
X117703600Y-100732600D02*
X117703600Y-99399600D01*
X117703600Y-99399600D02*
X117512600Y-99208600D01*
X150215600Y-83714600D02*
X136753600Y-83714600D01*
X136753600Y-83714600D02*
X133959600Y-86508600D01*
X153009600Y-86508600D02*
X150215600Y-83714600D01*
X153009600Y-89048600D02*
X153009600Y-86508600D01*
%TO.N,/MOSI*%
X126280600Y-90064600D02*
X126280600Y-100903600D01*
X129387600Y-104796600D02*
X126085600Y-101494600D01*
X119643600Y-101382600D02*
X125880600Y-101382600D01*
X125880600Y-101382600D02*
X126085600Y-101177600D01*
X126085600Y-101494600D02*
X126085600Y-101177600D01*
X126280600Y-100903600D02*
X126085600Y-101098600D01*
X138531600Y-84476600D02*
X149453600Y-84476600D01*
X126085600Y-101177600D02*
X126085600Y-101098600D01*
X136499600Y-86508600D02*
X138531600Y-84476600D01*
%TO.N,/CS_LoRa*%
X126280600Y-112924600D02*
X128820600Y-110384600D01*
X132689600Y-110384600D02*
X141325600Y-101748600D01*
X141325600Y-101748600D02*
X141325600Y-88794600D01*
X128820600Y-110384600D02*
X132689600Y-110384600D01*
X141325600Y-88794600D02*
X139039600Y-86508600D01*
%TO.N,/CS_RFID*%
X130852600Y-110892600D02*
X138277600Y-110892600D01*
X128820600Y-112924600D02*
X130852600Y-110892600D01*
D30*
%TO.N,/CS_VREG*%
X107985600Y-94467600D02*
X108982600Y-94467600D01*
X108982600Y-94467600D02*
X111040600Y-92409600D01*
X111040600Y-92409600D02*
X111040600Y-90064600D01*
D29*
%TO.N,Net-(J2-Pin_2)*%
X133312200Y-118165600D02*
X133299800Y-118153200D01*
X137617200Y-120591600D02*
X137871200Y-120845600D01*
X133312200Y-120591600D02*
X137617200Y-120591600D01*
X133312200Y-120591600D02*
X133312200Y-118165600D01*
D31*
%TO.N,/Speed_Pin*%
X129882800Y-120722400D02*
X129908200Y-120747800D01*
D29*
X129908600Y-120798600D02*
X129908600Y-117763600D01*
D31*
X131360600Y-90005600D02*
X131360600Y-90064600D01*
X129895600Y-120557600D02*
X129890615Y-120552615D01*
D29*
X129895600Y-117750600D02*
X129908600Y-117763600D01*
X131360600Y-107277600D02*
X131419600Y-107336600D01*
D31*
X131762200Y-120591600D02*
X131631400Y-120722400D01*
X131631400Y-120722400D02*
X129882800Y-120722400D01*
D29*
X129882600Y-120722400D02*
X129882800Y-120722400D01*
X131360600Y-90064600D02*
X131360600Y-107277600D01*
%TO.N,/RST_LoRa*%
X141071600Y-114956600D02*
X143357600Y-112670600D01*
X143357600Y-112670600D02*
X143357600Y-88286600D01*
X123740600Y-112924600D02*
X125772600Y-114956600D01*
X143357600Y-88286600D02*
X141579600Y-86508600D01*
X125772600Y-114956600D02*
X141071600Y-114956600D01*
D32*
%TO.N,/Batt_Pin*%
X122783600Y-87778600D02*
X123418600Y-88413600D01*
X102931594Y-78166610D02*
X102757607Y-78166610D01*
X110297592Y-85532608D02*
X102931594Y-78166610D01*
X110297592Y-85532608D02*
X112543584Y-87778600D01*
X123740600Y-90064600D02*
X123740600Y-88735600D01*
X123740600Y-88735600D02*
X123418600Y-88413600D01*
X112543584Y-87778600D02*
X122783600Y-87778600D01*
D29*
%TO.N,/IRQ_LoRa*%
X132221414Y-109622600D02*
X140563600Y-101280414D01*
X140563600Y-101280414D02*
X140563600Y-88794600D01*
X140563600Y-88794600D02*
X140055600Y-88286600D01*
X121962600Y-109622600D02*
X132221414Y-109622600D01*
X118660600Y-112924600D02*
X121962600Y-109622600D01*
X130657600Y-88286600D02*
X128879600Y-86508600D01*
X140055600Y-88286600D02*
X130657600Y-88286600D01*
%TD*%
%TA.AperFunction,Conductor*%
%TO.N,GND*%
G36*
X138507219Y-113120681D02*
G01*
X138574098Y-113236520D01*
X138668680Y-113331102D01*
X138784519Y-113397981D01*
X138844657Y-113414094D01*
X138281882Y-113976869D01*
X138319164Y-114003956D01*
X138319166Y-114003957D01*
X138457299Y-114074340D01*
X138514616Y-114125949D01*
X138538450Y-114199302D01*
X138522414Y-114274745D01*
X138470805Y-114332062D01*
X138397452Y-114355896D01*
X138389654Y-114356100D01*
X137032649Y-114356100D01*
X136958149Y-114336138D01*
X136903611Y-114281600D01*
X136883649Y-114207100D01*
X136903611Y-114132600D01*
X136958149Y-114078062D01*
X136965004Y-114074340D01*
X136998892Y-114057073D01*
X137102294Y-114004387D01*
X137263064Y-113887581D01*
X137403581Y-113747064D01*
X137520387Y-113586294D01*
X137578121Y-113472984D01*
X137629730Y-113415668D01*
X137703083Y-113391834D01*
X137778526Y-113407870D01*
X137835843Y-113459479D01*
X137843641Y-113472985D01*
X137901242Y-113586033D01*
X137901243Y-113586035D01*
X137928329Y-113623315D01*
X137928330Y-113623315D01*
X138491104Y-113060541D01*
X138507219Y-113120681D01*
G37*
%TD.AperFunction*%
%TA.AperFunction,Conductor*%
G36*
X142093645Y-87879061D02*
G01*
X142124504Y-87902740D01*
X142713459Y-88491694D01*
X142752023Y-88558489D01*
X142757100Y-88597053D01*
X142757100Y-112360147D01*
X142737138Y-112434647D01*
X142713459Y-112465506D01*
X140866506Y-114312459D01*
X140799711Y-114351023D01*
X140761147Y-114356100D01*
X139571546Y-114356100D01*
X139497046Y-114336138D01*
X139442508Y-114281600D01*
X139422546Y-114207100D01*
X139442508Y-114132600D01*
X139497046Y-114078062D01*
X139503902Y-114074340D01*
X139642023Y-114003963D01*
X139642035Y-114003956D01*
X139679315Y-113976869D01*
X139679316Y-113976869D01*
X139116542Y-113414095D01*
X139176681Y-113397981D01*
X139292520Y-113331102D01*
X139387102Y-113236520D01*
X139453981Y-113120681D01*
X139470095Y-113060542D01*
X140032869Y-113623316D01*
X140032869Y-113623315D01*
X140059956Y-113586035D01*
X140059963Y-113586023D01*
X140150135Y-113409050D01*
X140150144Y-113409030D01*
X140211524Y-113220121D01*
X140242600Y-113023917D01*
X140242600Y-112825282D01*
X140211524Y-112629078D01*
X140150144Y-112440169D01*
X140150138Y-112440154D01*
X140059957Y-112263166D01*
X140059956Y-112263164D01*
X140032869Y-112225883D01*
X139470094Y-112788657D01*
X139453981Y-112728519D01*
X139387102Y-112612680D01*
X139292520Y-112518098D01*
X139176681Y-112451219D01*
X139116540Y-112435104D01*
X139679315Y-111872330D01*
X139679315Y-111872329D01*
X139642035Y-111845243D01*
X139642033Y-111845242D01*
X139465045Y-111755061D01*
X139465030Y-111755055D01*
X139276121Y-111693675D01*
X139079917Y-111662600D01*
X139064749Y-111662600D01*
X138990249Y-111642638D01*
X138935711Y-111588100D01*
X138915749Y-111513600D01*
X138935711Y-111439100D01*
X138940860Y-111430820D01*
X139031300Y-111295467D01*
X139031303Y-111295463D01*
X139095416Y-111140682D01*
X139128100Y-110976367D01*
X139128100Y-110808833D01*
X139095416Y-110644518D01*
X139031303Y-110489737D01*
X138938226Y-110350438D01*
X138819762Y-110231974D01*
X138819758Y-110231971D01*
X138680470Y-110138901D01*
X138680458Y-110138894D01*
X138557736Y-110088061D01*
X138525682Y-110074784D01*
X138525680Y-110074783D01*
X138525679Y-110074783D01*
X138361367Y-110042100D01*
X138193833Y-110042100D01*
X138029520Y-110074783D01*
X137874741Y-110138894D01*
X137874729Y-110138901D01*
X137735441Y-110231971D01*
X137735434Y-110231977D01*
X137718953Y-110248459D01*
X137652158Y-110287023D01*
X137613594Y-110292100D01*
X133991053Y-110292100D01*
X133916553Y-110272138D01*
X133862015Y-110217600D01*
X133842053Y-110143100D01*
X133862015Y-110068600D01*
X133885694Y-110037741D01*
X135817099Y-108106336D01*
X141682048Y-102241385D01*
X141682053Y-102241382D01*
X141694314Y-102229120D01*
X141694316Y-102229120D01*
X141806120Y-102117316D01*
X141885177Y-101980384D01*
X141926100Y-101827657D01*
X141926100Y-88715543D01*
X141911669Y-88661683D01*
X141885177Y-88562815D01*
X141885176Y-88562814D01*
X141885176Y-88562812D01*
X141848274Y-88498897D01*
X141848273Y-88498895D01*
X141841704Y-88487518D01*
X141806120Y-88425884D01*
X141694316Y-88314080D01*
X141694313Y-88314078D01*
X141493693Y-88113458D01*
X141455129Y-88046663D01*
X141455129Y-87969535D01*
X141493693Y-87902740D01*
X141560488Y-87864176D01*
X141599052Y-87859099D01*
X142019145Y-87859099D01*
X142093645Y-87879061D01*
G37*
%TD.AperFunction*%
%TA.AperFunction,Conductor*%
G36*
X137688094Y-111513062D02*
G01*
X137718953Y-111536741D01*
X137735438Y-111553226D01*
X137735441Y-111553228D01*
X137874729Y-111646298D01*
X137874733Y-111646300D01*
X137874737Y-111646303D01*
X137874738Y-111646303D01*
X137874741Y-111646305D01*
X137912874Y-111662100D01*
X138029518Y-111710416D01*
X138160678Y-111736505D01*
X138229852Y-111770618D01*
X138272702Y-111834747D01*
X138276760Y-111867207D01*
X138844657Y-112435104D01*
X138784519Y-112451219D01*
X138668680Y-112518098D01*
X138574098Y-112612680D01*
X138507219Y-112728519D01*
X138491104Y-112788657D01*
X137928330Y-112225883D01*
X137928328Y-112225883D01*
X137901247Y-112263157D01*
X137901242Y-112263166D01*
X137843641Y-112376214D01*
X137792032Y-112433531D01*
X137718679Y-112457365D01*
X137643236Y-112441329D01*
X137585919Y-112389720D01*
X137578121Y-112376214D01*
X137560488Y-112341609D01*
X137520387Y-112262906D01*
X137403581Y-112102136D01*
X137263064Y-111961619D01*
X137102294Y-111844813D01*
X136965003Y-111774859D01*
X136907687Y-111723251D01*
X136883853Y-111649898D01*
X136899889Y-111574455D01*
X136951498Y-111517138D01*
X137024851Y-111493304D01*
X137032649Y-111493100D01*
X137613594Y-111493100D01*
X137688094Y-111513062D01*
G37*
%TD.AperFunction*%
%TA.AperFunction,Conductor*%
G36*
X127847647Y-110243062D02*
G01*
X127902185Y-110297600D01*
X127922147Y-110372100D01*
X127902185Y-110446600D01*
X127878506Y-110477459D01*
X126704627Y-111651336D01*
X126637832Y-111689900D01*
X126575960Y-111693143D01*
X126511855Y-111682990D01*
X126379961Y-111662100D01*
X126181239Y-111662100D01*
X126102729Y-111674534D01*
X125984958Y-111693187D01*
X125984958Y-111693188D01*
X125795965Y-111754595D01*
X125618904Y-111844814D01*
X125458139Y-111961616D01*
X125317616Y-112102139D01*
X125200814Y-112262904D01*
X125143360Y-112375663D01*
X125091751Y-112432980D01*
X125018397Y-112456814D01*
X124942955Y-112440778D01*
X124885638Y-112389169D01*
X124877840Y-112375663D01*
X124868887Y-112358092D01*
X124820387Y-112262906D01*
X124703581Y-112102136D01*
X124563064Y-111961619D01*
X124402294Y-111844813D01*
X124344764Y-111815500D01*
X124225234Y-111754595D01*
X124036241Y-111693188D01*
X124036241Y-111693187D01*
X123927194Y-111675916D01*
X123839961Y-111662100D01*
X123641239Y-111662100D01*
X123562729Y-111674534D01*
X123444958Y-111693187D01*
X123444958Y-111693188D01*
X123255965Y-111754595D01*
X123078904Y-111844814D01*
X122918139Y-111961616D01*
X122777616Y-112102139D01*
X122660814Y-112262904D01*
X122603360Y-112375663D01*
X122551751Y-112432980D01*
X122478397Y-112456814D01*
X122402955Y-112440778D01*
X122345638Y-112389169D01*
X122337840Y-112375663D01*
X122328887Y-112358092D01*
X122280387Y-112262906D01*
X122163581Y-112102136D01*
X122023064Y-111961619D01*
X121862294Y-111844813D01*
X121804764Y-111815500D01*
X121685234Y-111754595D01*
X121496241Y-111693188D01*
X121496241Y-111693187D01*
X121387194Y-111675916D01*
X121299961Y-111662100D01*
X121132052Y-111662100D01*
X121057552Y-111642138D01*
X121003014Y-111587600D01*
X120983052Y-111513100D01*
X121003014Y-111438600D01*
X121026693Y-111407741D01*
X121429373Y-111005062D01*
X122167694Y-110266741D01*
X122234489Y-110228177D01*
X122273053Y-110223100D01*
X127773147Y-110223100D01*
X127847647Y-110243062D01*
G37*
%TD.AperFunction*%
%TA.AperFunction,Conductor*%
G36*
X118899087Y-99810395D02*
G01*
X118903998Y-99809419D01*
X118936050Y-99820299D01*
X118968752Y-99829062D01*
X118977026Y-99834207D01*
X119033676Y-99872060D01*
X119102416Y-99917991D01*
X119102418Y-99917992D01*
X119102421Y-99917994D01*
X119199246Y-99958100D01*
X119254865Y-99981138D01*
X119254347Y-99982386D01*
X119313078Y-100018905D01*
X119349438Y-100086924D01*
X119346916Y-100164011D01*
X119306189Y-100229510D01*
X119278835Y-100249798D01*
X119274885Y-100252078D01*
X119163080Y-100363883D01*
X119115463Y-100446359D01*
X119084023Y-100500816D01*
X119071762Y-100546575D01*
X119043100Y-100653541D01*
X119043100Y-100811658D01*
X119084023Y-100964384D01*
X119094831Y-100983105D01*
X119114790Y-101057606D01*
X119094831Y-101132095D01*
X119084023Y-101150815D01*
X119043100Y-101303541D01*
X119043100Y-101461658D01*
X119084023Y-101614384D01*
X119094831Y-101633105D01*
X119114790Y-101707606D01*
X119094831Y-101782095D01*
X119084023Y-101800815D01*
X119043100Y-101953541D01*
X119043100Y-102086132D01*
X119023138Y-102160632D01*
X119012824Y-102176163D01*
X118965431Y-102238659D01*
X118965429Y-102238663D01*
X118909335Y-102380910D01*
X118909334Y-102380914D01*
X118900125Y-102457599D01*
X118900126Y-102457600D01*
X119157646Y-102457600D01*
X119232146Y-102477562D01*
X119263005Y-102501241D01*
X119274884Y-102513120D01*
X119411816Y-102592177D01*
X119495788Y-102614677D01*
X119562582Y-102653242D01*
X119601146Y-102720037D01*
X119601146Y-102797165D01*
X119562581Y-102863959D01*
X119495786Y-102902523D01*
X119457223Y-102907600D01*
X118881850Y-102907600D01*
X118861557Y-102920992D01*
X118784567Y-102925596D01*
X118725074Y-102898830D01*
X118708870Y-102886678D01*
X118696949Y-102877737D01*
X118676147Y-102863320D01*
X118665811Y-102856157D01*
X118650173Y-102846166D01*
X118617502Y-102826976D01*
X118617501Y-102826975D01*
X118617500Y-102826975D01*
X118482381Y-102777534D01*
X118482378Y-102777533D01*
X118482374Y-102777532D01*
X118471764Y-102775293D01*
X118449174Y-102763823D01*
X118424869Y-102756663D01*
X118415329Y-102746639D01*
X118402992Y-102740376D01*
X118371696Y-102700797D01*
X118350886Y-102662604D01*
X118332771Y-102587636D01*
X118354568Y-102513651D01*
X118363004Y-102501282D01*
X118381770Y-102476536D01*
X118437864Y-102334289D01*
X118437865Y-102334285D01*
X118447075Y-102257600D01*
X117919767Y-102257600D01*
X117910963Y-102255241D01*
X117901938Y-102256530D01*
X117874168Y-102245382D01*
X117845267Y-102237638D01*
X117830362Y-102227796D01*
X117822520Y-102221914D01*
X117774900Y-102161243D01*
X117763995Y-102084889D01*
X117792729Y-102013313D01*
X117853400Y-101965693D01*
X117873352Y-101958798D01*
X117935384Y-101942177D01*
X118072316Y-101863120D01*
X118084195Y-101851241D01*
X118150990Y-101812677D01*
X118189554Y-101807600D01*
X118447073Y-101807600D01*
X118447073Y-101807599D01*
X118437865Y-101730912D01*
X118381770Y-101588665D01*
X118381770Y-101588664D01*
X118334375Y-101526163D01*
X118305266Y-101454739D01*
X118304100Y-101436133D01*
X118304100Y-101303543D01*
X118304099Y-101303541D01*
X118263177Y-101150816D01*
X118252370Y-101132098D01*
X118232409Y-101057600D01*
X118252371Y-100983100D01*
X118263177Y-100964384D01*
X118304100Y-100811657D01*
X118304100Y-99958100D01*
X118324062Y-99883600D01*
X118378600Y-99829062D01*
X118453100Y-99809100D01*
X118894252Y-99809100D01*
X118899087Y-99810395D01*
G37*
%TD.AperFunction*%
%TA.AperFunction,Conductor*%
G36*
X127618245Y-90548421D02*
G01*
X127675562Y-90600030D01*
X127683357Y-90613531D01*
X127740813Y-90726294D01*
X127857619Y-90887064D01*
X127998136Y-91027581D01*
X128158906Y-91144387D01*
X128158908Y-91144388D01*
X128197744Y-91164176D01*
X128255062Y-91215784D01*
X128278896Y-91289138D01*
X128279100Y-91296936D01*
X128279100Y-99001784D01*
X128259138Y-99076284D01*
X128207186Y-99129294D01*
X128169414Y-99152128D01*
X128049127Y-99272415D01*
X127961124Y-99417991D01*
X127961121Y-99417996D01*
X127914661Y-99567096D01*
X127910514Y-99580404D01*
X127904100Y-99650984D01*
X127904100Y-100164216D01*
X127910514Y-100234796D01*
X127961122Y-100397206D01*
X128015410Y-100487010D01*
X128026781Y-100505819D01*
X128027927Y-100509776D01*
X128030740Y-100512785D01*
X128038586Y-100546575D01*
X128048239Y-100579902D01*
X128047253Y-100583901D01*
X128048185Y-100587915D01*
X128038084Y-100621099D01*
X128029781Y-100654789D01*
X128026926Y-100657761D01*
X128025727Y-100661701D01*
X128000389Y-100685388D01*
X127976352Y-100710414D01*
X127972394Y-100711560D01*
X127969386Y-100714373D01*
X127952399Y-100717351D01*
X127902269Y-100731872D01*
X127894256Y-100731818D01*
X127876937Y-100731235D01*
X127870194Y-100729255D01*
X127818086Y-100729254D01*
X127815588Y-100729170D01*
X127814892Y-100728958D01*
X127805203Y-100728456D01*
X127792142Y-100727099D01*
X127791749Y-100726948D01*
X127736052Y-100729137D01*
X127733122Y-100729253D01*
X127726313Y-100729253D01*
X127723749Y-100729621D01*
X127721854Y-100729695D01*
X127721164Y-100729723D01*
X127717380Y-100730420D01*
X127711628Y-100731362D01*
X127683498Y-100735408D01*
X127683491Y-100735409D01*
X127656814Y-100739244D01*
X127656093Y-100739504D01*
X127643433Y-100743221D01*
X127628438Y-100746793D01*
X127579699Y-100755766D01*
X127579695Y-100755767D01*
X127562634Y-100764382D01*
X127537463Y-100774337D01*
X127519114Y-100779725D01*
X127477416Y-100806520D01*
X127464039Y-100814169D01*
X127452236Y-100820130D01*
X127451849Y-100820210D01*
X127421847Y-100841201D01*
X127421838Y-100841207D01*
X127406171Y-100852166D01*
X127401335Y-100855410D01*
X127398084Y-100857499D01*
X127395972Y-100859080D01*
X127393988Y-100860690D01*
X127391112Y-100863388D01*
X127386783Y-100867289D01*
X127376787Y-100875949D01*
X127346638Y-100902073D01*
X127333742Y-100917184D01*
X127304871Y-100944257D01*
X127236872Y-100980655D01*
X127159784Y-100978178D01*
X127094262Y-100937488D01*
X127057864Y-100869489D01*
X127055196Y-100852969D01*
X127054686Y-100850406D01*
X127054686Y-100850404D01*
X127004078Y-100687994D01*
X126916072Y-100542415D01*
X126916071Y-100542414D01*
X126912810Y-100538251D01*
X126882578Y-100467295D01*
X126881100Y-100446359D01*
X126881100Y-91264766D01*
X126901062Y-91190266D01*
X126942517Y-91144224D01*
X127103064Y-91027581D01*
X127243581Y-90887064D01*
X127360387Y-90726294D01*
X127417840Y-90613535D01*
X127469449Y-90556219D01*
X127542802Y-90532385D01*
X127618245Y-90548421D01*
G37*
%TD.AperFunction*%
%TA.AperFunction,Conductor*%
G36*
X125078245Y-90548421D02*
G01*
X125135562Y-90600030D01*
X125143357Y-90613531D01*
X125200813Y-90726294D01*
X125317619Y-90887064D01*
X125458136Y-91027581D01*
X125618681Y-91144223D01*
X125667218Y-91204162D01*
X125680100Y-91264766D01*
X125680100Y-100174906D01*
X125677199Y-100185731D01*
X125678473Y-100196867D01*
X125667358Y-100222457D01*
X125660138Y-100249406D01*
X125652212Y-100257331D01*
X125647748Y-100267611D01*
X125629280Y-100280263D01*
X125605600Y-100303944D01*
X125585767Y-100313515D01*
X125580656Y-100315530D01*
X125520994Y-100334122D01*
X125497486Y-100348332D01*
X125485805Y-100352940D01*
X125459533Y-100355944D01*
X125434132Y-100363301D01*
X125421798Y-100360260D01*
X125409177Y-100361704D01*
X125384921Y-100351169D01*
X125359246Y-100344840D01*
X125350084Y-100336039D01*
X125338433Y-100330979D01*
X125322695Y-100309730D01*
X125303623Y-100291409D01*
X125300088Y-100279205D01*
X125292529Y-100268998D01*
X125289524Y-100242726D01*
X125282168Y-100217325D01*
X125284107Y-100195368D01*
X125283765Y-100192370D01*
X125284528Y-100190612D01*
X125285000Y-100185269D01*
X125308100Y-100069141D01*
X125308100Y-99872059D01*
X125269651Y-99678765D01*
X125194232Y-99496686D01*
X125084739Y-99332818D01*
X124945382Y-99193461D01*
X124850044Y-99129758D01*
X124781515Y-99083968D01*
X124781512Y-99083967D01*
X124599436Y-99008549D01*
X124599434Y-99008548D01*
X124444589Y-98977747D01*
X124406141Y-98970100D01*
X124209059Y-98970100D01*
X124176989Y-98976478D01*
X124015765Y-99008548D01*
X124015763Y-99008549D01*
X123833687Y-99083967D01*
X123833684Y-99083968D01*
X123669819Y-99193460D01*
X123669814Y-99193464D01*
X123530464Y-99332814D01*
X123530460Y-99332819D01*
X123420968Y-99496684D01*
X123420967Y-99496687D01*
X123345549Y-99678763D01*
X123345548Y-99678765D01*
X123319623Y-99809100D01*
X123309656Y-99859212D01*
X123307100Y-99872060D01*
X123307100Y-99983100D01*
X123287138Y-100057600D01*
X123232600Y-100112138D01*
X123158100Y-100132100D01*
X120031534Y-100132100D01*
X119957034Y-100112138D01*
X119902496Y-100057600D01*
X119882534Y-99983100D01*
X119902496Y-99908600D01*
X119948753Y-99859212D01*
X119986167Y-99834212D01*
X119991889Y-99830389D01*
X120103389Y-99718889D01*
X120190994Y-99587779D01*
X120251337Y-99442097D01*
X120282100Y-99287442D01*
X120282100Y-99129758D01*
X120251337Y-98975103D01*
X120214708Y-98886673D01*
X120190995Y-98829423D01*
X120190994Y-98829421D01*
X120103389Y-98698311D01*
X119991889Y-98586811D01*
X119860779Y-98499206D01*
X119860778Y-98499205D01*
X119860776Y-98499204D01*
X119715098Y-98438863D01*
X119715094Y-98438862D01*
X119560442Y-98408100D01*
X119402758Y-98408100D01*
X119248105Y-98438862D01*
X119248101Y-98438863D01*
X119102422Y-98499205D01*
X119102416Y-98499208D01*
X119006641Y-98563204D01*
X118980025Y-98580989D01*
X118977033Y-98582988D01*
X118903998Y-98607781D01*
X118894252Y-98608100D01*
X118418415Y-98608100D01*
X118343915Y-98588138D01*
X118290904Y-98536184D01*
X118268072Y-98498415D01*
X118147785Y-98378128D01*
X118147784Y-98378127D01*
X118099258Y-98348792D01*
X118002206Y-98290122D01*
X117839796Y-98239514D01*
X117769216Y-98233100D01*
X117255984Y-98233100D01*
X117194226Y-98238712D01*
X117185403Y-98239514D01*
X117022996Y-98290121D01*
X117022991Y-98290124D01*
X116877415Y-98378127D01*
X116792959Y-98462584D01*
X116726164Y-98501148D01*
X116649036Y-98501148D01*
X116582241Y-98462584D01*
X116497784Y-98378127D01*
X116449258Y-98348792D01*
X116352206Y-98290122D01*
X116189796Y-98239514D01*
X116119216Y-98233100D01*
X116119209Y-98233100D01*
X115850708Y-98233100D01*
X115776208Y-98213138D01*
X115721670Y-98158600D01*
X115707744Y-98126079D01*
X115686902Y-98055099D01*
X115686898Y-98055090D01*
X115609116Y-97934061D01*
X115609112Y-97934056D01*
X115563358Y-97881253D01*
X115563356Y-97881251D01*
X115501092Y-97827298D01*
X115457861Y-97763424D01*
X115452360Y-97686492D01*
X115471156Y-97637608D01*
X115474072Y-97632785D01*
X115562078Y-97487206D01*
X115612686Y-97324796D01*
X115619100Y-97254216D01*
X115619100Y-96590984D01*
X115612686Y-96520404D01*
X115562078Y-96357994D01*
X115474072Y-96212415D01*
X115393293Y-96131636D01*
X115354729Y-96064841D01*
X115354729Y-95987713D01*
X115393291Y-95920920D01*
X115466568Y-95847644D01*
X115555603Y-95703297D01*
X115608949Y-95542308D01*
X115619100Y-95442945D01*
X115619099Y-94846256D01*
X115608949Y-94746892D01*
X115555603Y-94585903D01*
X115466568Y-94441556D01*
X115346644Y-94321632D01*
X115263849Y-94270563D01*
X115202299Y-94232598D01*
X115202298Y-94232597D01*
X115202297Y-94232597D01*
X115041308Y-94179251D01*
X114941945Y-94169100D01*
X114941940Y-94169100D01*
X114395260Y-94169100D01*
X114295891Y-94179251D01*
X114134900Y-94232598D01*
X113990553Y-94321633D01*
X113985604Y-94325547D01*
X113914782Y-94356093D01*
X113838176Y-94347135D01*
X113800782Y-94325546D01*
X113796329Y-94322025D01*
X113652085Y-94233053D01*
X113491203Y-94179743D01*
X113491203Y-94179742D01*
X113391925Y-94169600D01*
X113368600Y-94169600D01*
X113368600Y-94995600D01*
X113348638Y-95070100D01*
X113294100Y-95124638D01*
X113219600Y-95144600D01*
X113118600Y-95144600D01*
X113118600Y-95245600D01*
X113098638Y-95320100D01*
X113044100Y-95374638D01*
X112969600Y-95394600D01*
X112168601Y-95394600D01*
X112168601Y-95442909D01*
X112178744Y-95542206D01*
X112178744Y-95542209D01*
X112232053Y-95703085D01*
X112321027Y-95847332D01*
X112385181Y-95911486D01*
X112423745Y-95978281D01*
X112423745Y-96055409D01*
X112385181Y-96122204D01*
X112318386Y-96160768D01*
X112241258Y-96160768D01*
X112230886Y-96157580D01*
X112208369Y-96149750D01*
X112064662Y-96142696D01*
X112064661Y-96142696D01*
X112064660Y-96142696D01*
X111995097Y-96149237D01*
X111995094Y-96149237D01*
X111995090Y-96149238D01*
X111855236Y-96182950D01*
X111855231Y-96182952D01*
X111744973Y-96246394D01*
X111730524Y-96254709D01*
X111703654Y-96275776D01*
X111678154Y-96295769D01*
X111676325Y-96297137D01*
X111675530Y-96297826D01*
X111576094Y-96401810D01*
X111198105Y-96930996D01*
X111198102Y-96930997D01*
X111198103Y-96930998D01*
X111177126Y-96960366D01*
X110884027Y-97370705D01*
X110824482Y-97419725D01*
X110762782Y-97433100D01*
X109722100Y-97433100D01*
X109647600Y-97413138D01*
X109593062Y-97358600D01*
X109573100Y-97284100D01*
X109573100Y-96055600D01*
X109573099Y-96055594D01*
X109555878Y-95924783D01*
X109555877Y-95924782D01*
X109555876Y-95924768D01*
X109535914Y-95850268D01*
X109491305Y-95738840D01*
X109472794Y-95714113D01*
X109405082Y-95623661D01*
X109405077Y-95623655D01*
X109350543Y-95569121D01*
X109350533Y-95569112D01*
X109256201Y-95494928D01*
X109256198Y-95494926D01*
X109256195Y-95494924D01*
X109134810Y-95442944D01*
X109123935Y-95438287D01*
X109123923Y-95438283D01*
X109077036Y-95425720D01*
X109010241Y-95387156D01*
X108971676Y-95320362D01*
X108971676Y-95243234D01*
X109010240Y-95176439D01*
X109077034Y-95137874D01*
X109086517Y-95135663D01*
X109152440Y-95122550D01*
X109179632Y-95117142D01*
X109179632Y-95117141D01*
X109179636Y-95117141D01*
X109302569Y-95066220D01*
X109413206Y-94992295D01*
X109559227Y-94846274D01*
X112168600Y-94846274D01*
X112168600Y-94894600D01*
X112868600Y-94894600D01*
X112868600Y-94169599D01*
X112845291Y-94169600D01*
X112845290Y-94169600D01*
X112745993Y-94179744D01*
X112745990Y-94179744D01*
X112585114Y-94233053D01*
X112440867Y-94322027D01*
X112321027Y-94441867D01*
X112232053Y-94586114D01*
X112178743Y-94746996D01*
X112178742Y-94746996D01*
X112168600Y-94846274D01*
X109559227Y-94846274D01*
X111565295Y-92840206D01*
X111639220Y-92729569D01*
X111654134Y-92693562D01*
X111690141Y-92606636D01*
X111716100Y-92476131D01*
X111716100Y-92343069D01*
X111716100Y-91210275D01*
X111736062Y-91135775D01*
X111777521Y-91089731D01*
X111806148Y-91068933D01*
X111863064Y-91027581D01*
X112003581Y-90887064D01*
X112120387Y-90726294D01*
X112177840Y-90613535D01*
X112229449Y-90556219D01*
X112302802Y-90532385D01*
X112378245Y-90548421D01*
X112435562Y-90600030D01*
X112443357Y-90613531D01*
X112500813Y-90726294D01*
X112617619Y-90887064D01*
X112758136Y-91027581D01*
X112918906Y-91144387D01*
X113033964Y-91203012D01*
X113095965Y-91234604D01*
X113095967Y-91234604D01*
X113095968Y-91234605D01*
X113206125Y-91270397D01*
X113284958Y-91296011D01*
X113284958Y-91296012D01*
X113284963Y-91296012D01*
X113284964Y-91296013D01*
X113481239Y-91327100D01*
X113481243Y-91327100D01*
X113679957Y-91327100D01*
X113679961Y-91327100D01*
X113876236Y-91296013D01*
X113876237Y-91296012D01*
X113876241Y-91296012D01*
X113876241Y-91296011D01*
X114065232Y-91234605D01*
X114242294Y-91144387D01*
X114403064Y-91027581D01*
X114543581Y-90887064D01*
X114660387Y-90726294D01*
X114717840Y-90613535D01*
X114769449Y-90556219D01*
X114842802Y-90532385D01*
X114918245Y-90548421D01*
X114975562Y-90600030D01*
X114983357Y-90613531D01*
X115040813Y-90726294D01*
X115157619Y-90887064D01*
X115298136Y-91027581D01*
X115458906Y-91144387D01*
X115573964Y-91203012D01*
X115635965Y-91234604D01*
X115635967Y-91234604D01*
X115635968Y-91234605D01*
X115746125Y-91270397D01*
X115824958Y-91296011D01*
X115824958Y-91296012D01*
X115824963Y-91296012D01*
X115824964Y-91296013D01*
X116021239Y-91327100D01*
X116021243Y-91327100D01*
X116219957Y-91327100D01*
X116219961Y-91327100D01*
X116416236Y-91296013D01*
X116416237Y-91296012D01*
X116416241Y-91296012D01*
X116416241Y-91296011D01*
X116605232Y-91234605D01*
X116782294Y-91144387D01*
X116943064Y-91027581D01*
X117083581Y-90887064D01*
X117200387Y-90726294D01*
X117257840Y-90613535D01*
X117309449Y-90556219D01*
X117382802Y-90532385D01*
X117458245Y-90548421D01*
X117515562Y-90600030D01*
X117523357Y-90613531D01*
X117580813Y-90726294D01*
X117697619Y-90887064D01*
X117838136Y-91027581D01*
X117998906Y-91144387D01*
X118113964Y-91203012D01*
X118175965Y-91234604D01*
X118175967Y-91234604D01*
X118175968Y-91234605D01*
X118286125Y-91270397D01*
X118364958Y-91296011D01*
X118364958Y-91296012D01*
X118364963Y-91296012D01*
X118364964Y-91296013D01*
X118561239Y-91327100D01*
X118561243Y-91327100D01*
X118759957Y-91327100D01*
X118759961Y-91327100D01*
X118956236Y-91296013D01*
X118956237Y-91296012D01*
X118956241Y-91296012D01*
X118956241Y-91296011D01*
X119145232Y-91234605D01*
X119322294Y-91144387D01*
X119483064Y-91027581D01*
X119623581Y-90887064D01*
X119740387Y-90726294D01*
X119797840Y-90613535D01*
X119849449Y-90556219D01*
X119922802Y-90532385D01*
X119998245Y-90548421D01*
X120055562Y-90600030D01*
X120063357Y-90613531D01*
X120120813Y-90726294D01*
X120237619Y-90887064D01*
X120378136Y-91027581D01*
X120538906Y-91144387D01*
X120653964Y-91203012D01*
X120715965Y-91234604D01*
X120715967Y-91234604D01*
X120715968Y-91234605D01*
X120826125Y-91270397D01*
X120904958Y-91296011D01*
X120904958Y-91296012D01*
X120904963Y-91296012D01*
X120904964Y-91296013D01*
X121101239Y-91327100D01*
X121101243Y-91327100D01*
X121299957Y-91327100D01*
X121299961Y-91327100D01*
X121496236Y-91296013D01*
X121496237Y-91296012D01*
X121496241Y-91296012D01*
X121496241Y-91296011D01*
X121685232Y-91234605D01*
X121862294Y-91144387D01*
X122023064Y-91027581D01*
X122163581Y-90887064D01*
X122280387Y-90726294D01*
X122337840Y-90613535D01*
X122389449Y-90556219D01*
X122462802Y-90532385D01*
X122538245Y-90548421D01*
X122595562Y-90600030D01*
X122603357Y-90613531D01*
X122660813Y-90726294D01*
X122777619Y-90887064D01*
X122918136Y-91027581D01*
X123078906Y-91144387D01*
X123193964Y-91203012D01*
X123255965Y-91234604D01*
X123255967Y-91234604D01*
X123255968Y-91234605D01*
X123366125Y-91270397D01*
X123444958Y-91296011D01*
X123444958Y-91296012D01*
X123444963Y-91296012D01*
X123444964Y-91296013D01*
X123641239Y-91327100D01*
X123641243Y-91327100D01*
X123839957Y-91327100D01*
X123839961Y-91327100D01*
X124036236Y-91296013D01*
X124036237Y-91296012D01*
X124036241Y-91296012D01*
X124036241Y-91296011D01*
X124225232Y-91234605D01*
X124402294Y-91144387D01*
X124563064Y-91027581D01*
X124703581Y-90887064D01*
X124820387Y-90726294D01*
X124877840Y-90613535D01*
X124929449Y-90556219D01*
X125002802Y-90532385D01*
X125078245Y-90548421D01*
G37*
%TD.AperFunction*%
%TA.AperFunction,Conductor*%
G36*
X152287776Y-98387223D02*
G01*
X152324244Y-98393982D01*
X152382894Y-98444072D01*
X152408641Y-98516776D01*
X152409100Y-98528468D01*
X152409100Y-99268251D01*
X152389138Y-99342751D01*
X152334600Y-99397289D01*
X152260100Y-99417251D01*
X152185600Y-99397289D01*
X152154741Y-99373610D01*
X152048853Y-99267722D01*
X152048852Y-99267721D01*
X151889751Y-99152128D01*
X151889103Y-99151657D01*
X151889097Y-99151653D01*
X151762363Y-99087078D01*
X151705046Y-99035469D01*
X151681213Y-98962116D01*
X151697250Y-98886673D01*
X151748859Y-98829356D01*
X151762365Y-98821559D01*
X151888830Y-98757121D01*
X151888833Y-98757120D01*
X151924587Y-98731141D01*
X151361009Y-98167562D01*
X151424593Y-98150525D01*
X151538607Y-98084699D01*
X151631699Y-97991607D01*
X151697525Y-97877593D01*
X151714562Y-97814008D01*
X152287776Y-98387223D01*
G37*
%TD.AperFunction*%
%TA.AperFunction,Conductor*%
G36*
X109838245Y-90548421D02*
G01*
X109895562Y-90600030D01*
X109903357Y-90613531D01*
X109960813Y-90726294D01*
X110077619Y-90887064D01*
X110218134Y-91027579D01*
X110218142Y-91027586D01*
X110303679Y-91089731D01*
X110352218Y-91149670D01*
X110365100Y-91210275D01*
X110365100Y-92068081D01*
X110345138Y-92142581D01*
X110321459Y-92173440D01*
X108746440Y-93748459D01*
X108679645Y-93787023D01*
X108641081Y-93792100D01*
X107919069Y-93792100D01*
X107918747Y-93792164D01*
X107918547Y-93792150D01*
X107911785Y-93792817D01*
X107911674Y-93791700D01*
X107841784Y-93787115D01*
X107777657Y-93744261D01*
X107770962Y-93736055D01*
X107745595Y-93702603D01*
X107745594Y-93702602D01*
X107626220Y-93612079D01*
X107626220Y-93612078D01*
X107486852Y-93557119D01*
X107486846Y-93557117D01*
X107399267Y-93546600D01*
X107351600Y-93546600D01*
X107351600Y-94203408D01*
X107340259Y-94260426D01*
X107336060Y-94270563D01*
X107310100Y-94401065D01*
X107310100Y-94534132D01*
X107311970Y-94543530D01*
X107306926Y-94620493D01*
X107264077Y-94684623D01*
X107194903Y-94718737D01*
X107165833Y-94721600D01*
X107056100Y-94721600D01*
X106981600Y-94701638D01*
X106927062Y-94647100D01*
X106907100Y-94572600D01*
X106907100Y-93794399D01*
X106920565Y-93732502D01*
X106966438Y-93632059D01*
X106986123Y-93565020D01*
X106986124Y-93565016D01*
X106986125Y-93565010D01*
X106986126Y-93565006D01*
X107006598Y-93422614D01*
X107006600Y-93422596D01*
X107006600Y-93386901D01*
X107006599Y-93386873D01*
X107006599Y-93307708D01*
X107011343Y-93271684D01*
X107011094Y-93271626D01*
X107011649Y-93269245D01*
X107011650Y-93269241D01*
X107024551Y-93204387D01*
X107028776Y-93172294D01*
X107033100Y-93106315D01*
X107033100Y-92700877D01*
X107053062Y-92626377D01*
X107099448Y-92576903D01*
X107514784Y-92300013D01*
X107594820Y-92233833D01*
X107630352Y-92197698D01*
X107695167Y-92116573D01*
X107754938Y-91985696D01*
X107774623Y-91918657D01*
X107774624Y-91918653D01*
X107774625Y-91918647D01*
X107774626Y-91918643D01*
X107795098Y-91776251D01*
X107795100Y-91776233D01*
X107795100Y-91365213D01*
X107815062Y-91290713D01*
X107869600Y-91236175D01*
X107944100Y-91216213D01*
X108011749Y-91232455D01*
X108015968Y-91234605D01*
X108183805Y-91289138D01*
X108204958Y-91296011D01*
X108204958Y-91296012D01*
X108204963Y-91296012D01*
X108204964Y-91296013D01*
X108401239Y-91327100D01*
X108401243Y-91327100D01*
X108599957Y-91327100D01*
X108599961Y-91327100D01*
X108796236Y-91296013D01*
X108796237Y-91296012D01*
X108796241Y-91296012D01*
X108796241Y-91296011D01*
X108985232Y-91234605D01*
X109162294Y-91144387D01*
X109323064Y-91027581D01*
X109463581Y-90887064D01*
X109580387Y-90726294D01*
X109637840Y-90613535D01*
X109689449Y-90556219D01*
X109762802Y-90532385D01*
X109838245Y-90548421D01*
G37*
%TD.AperFunction*%
%TA.AperFunction,Conductor*%
G36*
X149710852Y-63387242D02*
G01*
X150100234Y-63404242D01*
X150113178Y-63405374D01*
X150496378Y-63455824D01*
X150509159Y-63458077D01*
X150886521Y-63541737D01*
X150899053Y-63545095D01*
X151196402Y-63638849D01*
X151267677Y-63661322D01*
X151279891Y-63665768D01*
X151636963Y-63813671D01*
X151648743Y-63819163D01*
X151991593Y-63997640D01*
X152002835Y-64004131D01*
X152328812Y-64211801D01*
X152339447Y-64219247D01*
X152646094Y-64454546D01*
X152656036Y-64462889D01*
X152706446Y-64509080D01*
X152940999Y-64724009D01*
X152950190Y-64733200D01*
X153211304Y-65018155D01*
X153219660Y-65028113D01*
X153454947Y-65334746D01*
X153462402Y-65345393D01*
X153670063Y-65671356D01*
X153676563Y-65682613D01*
X153855035Y-66025454D01*
X153860528Y-66037236D01*
X154008431Y-66394308D01*
X154012877Y-66406522D01*
X154129101Y-66775135D01*
X154132465Y-66787690D01*
X154216119Y-67165028D01*
X154218376Y-67177830D01*
X154268824Y-67561020D01*
X154269957Y-67573969D01*
X154286958Y-67963347D01*
X154287100Y-67969846D01*
X154287100Y-119380553D01*
X154286958Y-119387052D01*
X154269957Y-119776430D01*
X154268824Y-119789379D01*
X154218376Y-120172569D01*
X154216119Y-120185371D01*
X154132465Y-120562709D01*
X154129101Y-120575264D01*
X154012877Y-120943877D01*
X154008431Y-120956091D01*
X153860528Y-121313163D01*
X153855035Y-121324945D01*
X153676563Y-121667786D01*
X153670063Y-121679043D01*
X153462402Y-122005006D01*
X153454947Y-122015653D01*
X153219660Y-122322286D01*
X153211304Y-122332244D01*
X152950190Y-122617199D01*
X152940999Y-122626390D01*
X152656044Y-122887504D01*
X152646086Y-122895860D01*
X152339453Y-123131147D01*
X152328806Y-123138602D01*
X152002843Y-123346263D01*
X151991586Y-123352763D01*
X151648745Y-123531235D01*
X151636963Y-123536728D01*
X151279891Y-123684631D01*
X151267677Y-123689077D01*
X150899064Y-123805301D01*
X150886509Y-123808665D01*
X150509171Y-123892319D01*
X150496369Y-123894576D01*
X150113179Y-123945024D01*
X150100230Y-123946157D01*
X149710852Y-123963158D01*
X149704353Y-123963300D01*
X97894715Y-123963300D01*
X97888216Y-123963158D01*
X97498972Y-123946163D01*
X97486023Y-123945030D01*
X97102833Y-123894583D01*
X97090031Y-123892326D01*
X96712695Y-123808672D01*
X96700140Y-123805308D01*
X96331520Y-123689083D01*
X96319306Y-123684637D01*
X95962241Y-123536737D01*
X95950459Y-123531244D01*
X95607608Y-123352767D01*
X95596361Y-123346273D01*
X95270381Y-123138602D01*
X95259755Y-123131161D01*
X94953113Y-122895865D01*
X94943156Y-122887511D01*
X94658192Y-122626391D01*
X94649001Y-122617199D01*
X94529289Y-122486557D01*
X94387885Y-122332242D01*
X94379543Y-122322300D01*
X94144246Y-122015653D01*
X94136794Y-122005010D01*
X93989686Y-121774099D01*
X93929125Y-121679038D01*
X93922628Y-121667785D01*
X93898362Y-121621171D01*
X93744158Y-121324945D01*
X93738669Y-121313173D01*
X93717836Y-121262879D01*
X93590762Y-120956095D01*
X93586316Y-120943880D01*
X93470092Y-120575264D01*
X93466728Y-120562709D01*
X93463600Y-120548600D01*
X93383070Y-120185352D01*
X93380819Y-120172587D01*
X93330368Y-119789379D01*
X93329236Y-119776431D01*
X93329052Y-119772226D01*
X93312242Y-119387189D01*
X93312100Y-119380690D01*
X93312100Y-119265783D01*
X96091100Y-119265783D01*
X96091100Y-119501816D01*
X96121905Y-119735806D01*
X96121906Y-119735812D01*
X96121907Y-119735814D01*
X96151067Y-119844642D01*
X96182995Y-119963796D01*
X96207063Y-120021900D01*
X96272145Y-120179023D01*
X96273319Y-120181856D01*
X96371326Y-120351607D01*
X96391327Y-120386250D01*
X96535008Y-120573499D01*
X96701901Y-120740392D01*
X96889150Y-120884073D01*
X96916295Y-120899745D01*
X97093543Y-121002080D01*
X97093546Y-121002081D01*
X97093551Y-121002084D01*
X97311607Y-121092406D01*
X97539586Y-121153493D01*
X97539592Y-121153493D01*
X97539593Y-121153494D01*
X97603203Y-121161868D01*
X97773589Y-121184300D01*
X98009611Y-121184300D01*
X98243614Y-121153493D01*
X98454788Y-121096909D01*
X127408601Y-121096909D01*
X127418744Y-121196206D01*
X127418744Y-121196209D01*
X127472053Y-121357085D01*
X127561027Y-121501332D01*
X127680867Y-121621172D01*
X127825114Y-121710146D01*
X127985992Y-121763455D01*
X128085289Y-121773599D01*
X128108599Y-121773598D01*
X128108600Y-121773598D01*
X128108600Y-121048600D01*
X127408601Y-121048600D01*
X127408601Y-121096909D01*
X98454788Y-121096909D01*
X98471593Y-121092406D01*
X98689649Y-121002084D01*
X98894050Y-120884073D01*
X99081299Y-120740392D01*
X99248192Y-120573499D01*
X99304379Y-120500274D01*
X127408600Y-120500274D01*
X127408600Y-120548600D01*
X128108600Y-120548600D01*
X128108600Y-119823600D01*
X128608600Y-119823600D01*
X128608600Y-121773599D01*
X128631910Y-121773599D01*
X128731206Y-121763455D01*
X128731209Y-121763455D01*
X128892085Y-121710146D01*
X129036333Y-121621171D01*
X129040776Y-121617659D01*
X129111595Y-121587108D01*
X129188202Y-121596060D01*
X129225610Y-121617657D01*
X129230555Y-121621567D01*
X129230556Y-121621568D01*
X129374903Y-121710603D01*
X129535892Y-121763949D01*
X129635255Y-121774100D01*
X130181944Y-121774099D01*
X130281308Y-121763949D01*
X130442297Y-121710603D01*
X130586644Y-121621568D01*
X130706568Y-121501644D01*
X130706570Y-121501641D01*
X130706573Y-121501637D01*
X130711481Y-121493680D01*
X130738000Y-121468659D01*
X130763798Y-121442862D01*
X130765956Y-121442283D01*
X130767581Y-121440751D01*
X130838298Y-121422900D01*
X131055408Y-121422900D01*
X131129908Y-121442862D01*
X131133617Y-121445076D01*
X131228503Y-121503603D01*
X131389492Y-121556949D01*
X131488855Y-121567100D01*
X132035544Y-121567099D01*
X132134908Y-121556949D01*
X132295897Y-121503603D01*
X132440244Y-121414568D01*
X132440248Y-121414563D01*
X132444784Y-121410978D01*
X132515604Y-121380428D01*
X132592210Y-121389382D01*
X132629616Y-121410978D01*
X132634155Y-121414567D01*
X132634156Y-121414568D01*
X132778503Y-121503603D01*
X132939492Y-121556949D01*
X133038855Y-121567100D01*
X133585544Y-121567099D01*
X133684908Y-121556949D01*
X133845897Y-121503603D01*
X133990244Y-121414568D01*
X134110168Y-121294644D01*
X134129761Y-121262879D01*
X134185862Y-121209950D01*
X134256578Y-121192100D01*
X136245808Y-121192100D01*
X136320308Y-121212062D01*
X136366352Y-121253521D01*
X136490490Y-121424385D01*
X136490495Y-121424391D01*
X136490496Y-121424392D01*
X136640808Y-121574704D01*
X136812784Y-121699651D01*
X137002188Y-121796157D01*
X137204357Y-121861846D01*
X137414313Y-121895100D01*
X137414318Y-121895100D01*
X137626882Y-121895100D01*
X137626887Y-121895100D01*
X137836843Y-121861846D01*
X138039012Y-121796157D01*
X138228416Y-121699651D01*
X138400392Y-121574704D01*
X138486807Y-121488289D01*
X138553601Y-121449724D01*
X138630729Y-121449724D01*
X138697524Y-121488288D01*
X138731771Y-121541576D01*
X138767246Y-121636686D01*
X138767250Y-121636694D01*
X138853409Y-121751787D01*
X138853412Y-121751790D01*
X138968505Y-121837949D01*
X138968515Y-121837954D01*
X139103223Y-121888198D01*
X139103221Y-121888198D01*
X139162757Y-121894598D01*
X139162777Y-121894600D01*
X139810600Y-121894600D01*
X139810600Y-120977612D01*
X139867607Y-121010525D01*
X139994774Y-121044600D01*
X140126426Y-121044600D01*
X140253593Y-121010525D01*
X140310600Y-120977612D01*
X140310600Y-121894600D01*
X140958423Y-121894600D01*
X140958442Y-121894598D01*
X141017977Y-121888198D01*
X141152684Y-121837954D01*
X141152694Y-121837949D01*
X141267787Y-121751790D01*
X141267790Y-121751787D01*
X141353949Y-121636694D01*
X141353954Y-121636684D01*
X141404198Y-121501977D01*
X141410598Y-121442442D01*
X141410600Y-121442422D01*
X141410600Y-120794600D01*
X140493612Y-120794600D01*
X140526525Y-120737593D01*
X140560600Y-120610426D01*
X140560600Y-120478774D01*
X140526525Y-120351607D01*
X140493612Y-120294600D01*
X141410600Y-120294600D01*
X141410600Y-119646777D01*
X141410598Y-119646757D01*
X141404198Y-119587222D01*
X141353954Y-119452515D01*
X141353951Y-119452508D01*
X141277366Y-119350205D01*
X141277365Y-119350204D01*
X141267786Y-119337408D01*
X141172108Y-119265783D01*
X147907100Y-119265783D01*
X147907100Y-119501816D01*
X147937905Y-119735806D01*
X147937906Y-119735812D01*
X147937907Y-119735814D01*
X147967067Y-119844642D01*
X147998995Y-119963796D01*
X148023063Y-120021900D01*
X148088145Y-120179023D01*
X148089319Y-120181856D01*
X148187326Y-120351607D01*
X148207327Y-120386250D01*
X148351008Y-120573499D01*
X148517901Y-120740392D01*
X148705150Y-120884073D01*
X148732295Y-120899745D01*
X148909543Y-121002080D01*
X148909546Y-121002081D01*
X148909551Y-121002084D01*
X149127607Y-121092406D01*
X149355586Y-121153493D01*
X149355592Y-121153493D01*
X149355593Y-121153494D01*
X149419203Y-121161868D01*
X149589589Y-121184300D01*
X149825611Y-121184300D01*
X150059614Y-121153493D01*
X150287593Y-121092406D01*
X150505649Y-121002084D01*
X150710050Y-120884073D01*
X150897299Y-120740392D01*
X151064192Y-120573499D01*
X151207873Y-120386250D01*
X151325884Y-120181849D01*
X151416206Y-119963793D01*
X151477293Y-119735814D01*
X151508100Y-119501811D01*
X151508100Y-119265789D01*
X151477293Y-119031786D01*
X151416206Y-118803807D01*
X151325884Y-118585751D01*
X151325881Y-118585746D01*
X151325880Y-118585743D01*
X151264831Y-118480005D01*
X151207873Y-118381350D01*
X151064192Y-118194101D01*
X150897299Y-118027208D01*
X150710050Y-117883527D01*
X150638889Y-117842442D01*
X150505656Y-117765519D01*
X150287596Y-117675195D01*
X150287594Y-117675194D01*
X150287593Y-117675194D01*
X150059614Y-117614107D01*
X150059612Y-117614106D01*
X150059606Y-117614105D01*
X149825616Y-117583300D01*
X149825611Y-117583300D01*
X149589589Y-117583300D01*
X149589583Y-117583300D01*
X149355593Y-117614105D01*
X149127603Y-117675195D01*
X148909543Y-117765519D01*
X148705151Y-117883526D01*
X148705150Y-117883527D01*
X148517901Y-118027208D01*
X148517899Y-118027209D01*
X148517895Y-118027213D01*
X148351013Y-118194095D01*
X148207326Y-118381351D01*
X148089319Y-118585743D01*
X147998995Y-118803803D01*
X147937905Y-119031793D01*
X147907100Y-119265783D01*
X141172108Y-119265783D01*
X141152694Y-119251250D01*
X141152684Y-119251245D01*
X141017976Y-119201001D01*
X141017978Y-119201001D01*
X140958442Y-119194601D01*
X140958423Y-119194600D01*
X140310600Y-119194600D01*
X140310600Y-120111588D01*
X140253593Y-120078675D01*
X140126426Y-120044600D01*
X139994774Y-120044600D01*
X139867607Y-120078675D01*
X139810600Y-120111588D01*
X139810600Y-119194600D01*
X139162777Y-119194600D01*
X139162757Y-119194601D01*
X139103222Y-119201001D01*
X138968515Y-119251245D01*
X138968505Y-119251250D01*
X138853412Y-119337409D01*
X138853409Y-119337412D01*
X138767250Y-119452505D01*
X138767247Y-119452511D01*
X138731771Y-119547624D01*
X138687032Y-119610450D01*
X138616873Y-119642489D01*
X138540094Y-119635157D01*
X138486807Y-119600911D01*
X138400393Y-119514497D01*
X138400392Y-119514496D01*
X138228416Y-119389549D01*
X138039012Y-119293043D01*
X137836843Y-119227354D01*
X137626887Y-119194100D01*
X137414313Y-119194100D01*
X137241393Y-119221488D01*
X137204356Y-119227354D01*
X137002194Y-119293041D01*
X137002188Y-119293043D01*
X137002182Y-119293045D01*
X137002182Y-119293046D01*
X136812782Y-119389550D01*
X136812781Y-119389550D01*
X136640809Y-119514495D01*
X136640806Y-119514497D01*
X136490497Y-119664806D01*
X136490495Y-119664809D01*
X136365550Y-119836781D01*
X136365547Y-119836787D01*
X136328374Y-119909744D01*
X136276765Y-119967062D01*
X136203412Y-119990896D01*
X136195614Y-119991100D01*
X134256578Y-119991100D01*
X134182078Y-119971138D01*
X134148723Y-119944902D01*
X134137953Y-119933602D01*
X134110168Y-119888556D01*
X133990244Y-119768632D01*
X133967113Y-119754364D01*
X133953845Y-119740444D01*
X133944267Y-119722896D01*
X133930549Y-119708355D01*
X133925574Y-119688647D01*
X133916894Y-119672743D01*
X133917298Y-119655861D01*
X133912700Y-119637642D01*
X133912700Y-119259557D01*
X133932662Y-119185057D01*
X133983477Y-119132741D01*
X133990244Y-119128568D01*
X134110168Y-119008644D01*
X134199203Y-118864297D01*
X134252549Y-118703308D01*
X134262700Y-118603945D01*
X134262699Y-118007256D01*
X134252549Y-117907892D01*
X134199203Y-117746903D01*
X134110168Y-117602556D01*
X133990244Y-117482632D01*
X133845899Y-117393598D01*
X133845898Y-117393597D01*
X133845897Y-117393597D01*
X133684908Y-117340251D01*
X133585545Y-117330100D01*
X133585540Y-117330100D01*
X133038860Y-117330100D01*
X132939491Y-117340251D01*
X132778500Y-117393598D01*
X132634153Y-117482633D01*
X132629204Y-117486547D01*
X132558382Y-117517093D01*
X132481776Y-117508135D01*
X132444382Y-117486546D01*
X132439929Y-117483025D01*
X132295685Y-117394053D01*
X132134803Y-117340743D01*
X132134803Y-117340742D01*
X132035525Y-117330600D01*
X132012200Y-117330600D01*
X132012200Y-119280599D01*
X132035510Y-119280599D01*
X132134806Y-119270455D01*
X132134809Y-119270455D01*
X132295685Y-119217146D01*
X132439933Y-119128171D01*
X132444376Y-119124659D01*
X132460224Y-119117821D01*
X132473416Y-119106685D01*
X132495032Y-119102805D01*
X132515195Y-119094108D01*
X132532338Y-119096111D01*
X132549331Y-119093062D01*
X132567398Y-119100208D01*
X132591802Y-119103060D01*
X132621887Y-119119222D01*
X132631492Y-119125904D01*
X132634156Y-119128568D01*
X132644427Y-119134903D01*
X132647793Y-119137245D01*
X132670107Y-119163675D01*
X132693850Y-119188841D01*
X132694914Y-119193058D01*
X132697549Y-119196179D01*
X132702090Y-119221488D01*
X132711700Y-119259557D01*
X132711700Y-119637642D01*
X132691738Y-119712142D01*
X132640923Y-119764457D01*
X132634155Y-119768631D01*
X132629609Y-119772226D01*
X132558787Y-119802772D01*
X132482181Y-119793814D01*
X132444784Y-119772222D01*
X132440247Y-119768635D01*
X132440244Y-119768632D01*
X132295897Y-119679597D01*
X132134908Y-119626251D01*
X132035545Y-119616100D01*
X132035540Y-119616100D01*
X131488860Y-119616100D01*
X131389491Y-119626251D01*
X131228500Y-119679598D01*
X131084155Y-119768632D01*
X130964229Y-119888559D01*
X130925641Y-119951121D01*
X130899121Y-119976141D01*
X130873325Y-120001938D01*
X130871166Y-120002516D01*
X130869541Y-120004050D01*
X130798825Y-120021900D01*
X130694630Y-120021900D01*
X130620130Y-120001938D01*
X130589271Y-119978259D01*
X130586641Y-119975629D01*
X130579877Y-119971457D01*
X130526949Y-119915355D01*
X130509100Y-119844642D01*
X130509100Y-118603909D01*
X130812201Y-118603909D01*
X130822344Y-118703206D01*
X130822344Y-118703209D01*
X130875653Y-118864085D01*
X130964627Y-119008332D01*
X131084467Y-119128172D01*
X131228714Y-119217146D01*
X131389592Y-119270455D01*
X131488889Y-119280599D01*
X131512199Y-119280598D01*
X131512200Y-119280598D01*
X131512200Y-118555600D01*
X130812201Y-118555600D01*
X130812201Y-118603909D01*
X130509100Y-118603909D01*
X130509100Y-118350948D01*
X130529062Y-118276448D01*
X130534212Y-118268167D01*
X130617994Y-118142779D01*
X130617996Y-118142771D01*
X130621442Y-118136328D01*
X130623712Y-118137541D01*
X130662944Y-118086401D01*
X130734197Y-118056877D01*
X130753663Y-118055600D01*
X131512200Y-118055600D01*
X131512200Y-117330599D01*
X131488891Y-117330600D01*
X131488890Y-117330600D01*
X131389593Y-117340744D01*
X131389590Y-117340744D01*
X131228714Y-117394053D01*
X131084467Y-117483027D01*
X130964626Y-117602868D01*
X130958090Y-117613465D01*
X130901987Y-117666391D01*
X130826937Y-117684175D01*
X130753050Y-117662051D01*
X130700124Y-117605948D01*
X130685140Y-117564304D01*
X130678338Y-117530108D01*
X130678336Y-117530101D01*
X130617995Y-117384423D01*
X130617994Y-117384421D01*
X130530389Y-117253311D01*
X130418889Y-117141811D01*
X130287779Y-117054206D01*
X130287778Y-117054205D01*
X130287776Y-117054204D01*
X130142098Y-116993863D01*
X130142094Y-116993862D01*
X129987442Y-116963100D01*
X129829758Y-116963100D01*
X129675105Y-116993862D01*
X129675101Y-116993863D01*
X129529423Y-117054204D01*
X129398307Y-117141814D01*
X129286814Y-117253307D01*
X129199204Y-117384423D01*
X129138863Y-117530101D01*
X129138862Y-117530105D01*
X129108100Y-117684757D01*
X129108100Y-117842442D01*
X129138862Y-117997094D01*
X129138863Y-117997098D01*
X129199205Y-118142777D01*
X129199208Y-118142783D01*
X129282988Y-118268167D01*
X129307781Y-118341202D01*
X129308100Y-118350948D01*
X129308100Y-119844642D01*
X129299689Y-119876030D01*
X129293949Y-119908020D01*
X129289903Y-119912551D01*
X129288138Y-119919142D01*
X129244193Y-119966954D01*
X129240816Y-119969303D01*
X129230556Y-119975632D01*
X129227896Y-119978291D01*
X129218287Y-119984977D01*
X129186148Y-119996564D01*
X129154788Y-120010092D01*
X129150137Y-120009548D01*
X129145731Y-120011137D01*
X129112109Y-120005103D01*
X129078182Y-120001138D01*
X129072846Y-119998057D01*
X129069816Y-119997514D01*
X129065298Y-119993699D01*
X129040782Y-119979546D01*
X129036329Y-119976025D01*
X128892085Y-119887053D01*
X128731203Y-119833743D01*
X128731203Y-119833742D01*
X128631925Y-119823600D01*
X128608600Y-119823600D01*
X128108600Y-119823600D01*
X128108600Y-119823599D01*
X128085291Y-119823600D01*
X128085290Y-119823600D01*
X127985993Y-119833744D01*
X127985990Y-119833744D01*
X127825114Y-119887053D01*
X127680867Y-119976027D01*
X127561027Y-120095867D01*
X127472053Y-120240114D01*
X127418743Y-120400996D01*
X127418742Y-120400996D01*
X127408600Y-120500274D01*
X99304379Y-120500274D01*
X99391873Y-120386250D01*
X99509884Y-120181849D01*
X99600206Y-119963793D01*
X99661293Y-119735814D01*
X99692100Y-119501811D01*
X99692100Y-119265789D01*
X99661293Y-119031786D01*
X99600206Y-118803807D01*
X99509884Y-118585751D01*
X99509881Y-118585746D01*
X99509880Y-118585743D01*
X99448831Y-118480005D01*
X99391873Y-118381350D01*
X99248192Y-118194101D01*
X99081299Y-118027208D01*
X98894050Y-117883527D01*
X98822889Y-117842442D01*
X98689656Y-117765519D01*
X98471596Y-117675195D01*
X98471594Y-117675194D01*
X98471593Y-117675194D01*
X98243614Y-117614107D01*
X98243612Y-117614106D01*
X98243606Y-117614105D01*
X98009616Y-117583300D01*
X98009611Y-117583300D01*
X97773589Y-117583300D01*
X97773583Y-117583300D01*
X97539593Y-117614105D01*
X97311603Y-117675195D01*
X97093543Y-117765519D01*
X96889151Y-117883526D01*
X96889150Y-117883527D01*
X96701901Y-118027208D01*
X96701899Y-118027209D01*
X96701895Y-118027213D01*
X96535013Y-118194095D01*
X96391326Y-118381351D01*
X96273319Y-118585743D01*
X96182995Y-118803803D01*
X96121905Y-119031793D01*
X96091100Y-119265783D01*
X93312100Y-119265783D01*
X93312100Y-105590909D01*
X112156601Y-105590909D01*
X112166744Y-105690206D01*
X112166744Y-105690209D01*
X112220053Y-105851085D01*
X112309027Y-105995332D01*
X112428867Y-106115172D01*
X112573114Y-106204146D01*
X112733996Y-106257456D01*
X112733996Y-106257457D01*
X112833279Y-106267599D01*
X112881600Y-106267599D01*
X113381600Y-106267599D01*
X113429910Y-106267599D01*
X113529206Y-106257455D01*
X113529209Y-106257455D01*
X113690085Y-106204146D01*
X113834332Y-106115172D01*
X113954172Y-105995332D01*
X114020784Y-105887339D01*
X114076885Y-105834411D01*
X114151934Y-105816624D01*
X114225822Y-105838745D01*
X114274416Y-105887339D01*
X114341027Y-105995332D01*
X114460867Y-106115172D01*
X114605114Y-106204146D01*
X114765996Y-106257456D01*
X114765996Y-106257457D01*
X114865279Y-106267599D01*
X114913600Y-106267599D01*
X115413600Y-106267599D01*
X115461910Y-106267599D01*
X115561206Y-106257455D01*
X115561209Y-106257455D01*
X115722085Y-106204146D01*
X115866332Y-106115172D01*
X115986172Y-105995332D01*
X116075146Y-105851085D01*
X116128456Y-105690203D01*
X116128457Y-105690203D01*
X116138599Y-105590925D01*
X116138600Y-105590915D01*
X116138600Y-105567600D01*
X115413600Y-105567600D01*
X115413600Y-106267599D01*
X114913600Y-106267599D01*
X114913600Y-105567600D01*
X113381600Y-105567600D01*
X113381600Y-106267599D01*
X112881600Y-106267599D01*
X112881600Y-105567600D01*
X112156601Y-105567600D01*
X112156601Y-105590909D01*
X93312100Y-105590909D01*
X93312100Y-97982909D01*
X101246601Y-97982909D01*
X101256744Y-98082206D01*
X101256744Y-98082209D01*
X101310053Y-98243085D01*
X101399027Y-98387332D01*
X101518867Y-98507172D01*
X101663114Y-98596146D01*
X101823992Y-98649455D01*
X101923289Y-98659599D01*
X101946599Y-98659598D01*
X101946600Y-98659598D01*
X101946600Y-97934600D01*
X101246601Y-97934600D01*
X101246601Y-97982909D01*
X93312100Y-97982909D01*
X93312100Y-97386274D01*
X101246600Y-97386274D01*
X101246600Y-97434600D01*
X101946600Y-97434600D01*
X101946600Y-96709599D01*
X101923291Y-96709600D01*
X101923290Y-96709600D01*
X101823993Y-96719744D01*
X101823990Y-96719744D01*
X101663114Y-96773053D01*
X101518867Y-96862027D01*
X101399027Y-96981867D01*
X101310053Y-97126114D01*
X101256743Y-97286996D01*
X101256742Y-97286996D01*
X101246600Y-97386274D01*
X93312100Y-97386274D01*
X93312100Y-94934909D01*
X101246601Y-94934909D01*
X101256744Y-95034206D01*
X101256744Y-95034209D01*
X101310053Y-95195085D01*
X101399027Y-95339332D01*
X101518867Y-95459172D01*
X101663114Y-95548146D01*
X101823992Y-95601455D01*
X101923289Y-95611599D01*
X101946599Y-95611598D01*
X101946600Y-95611598D01*
X101946600Y-94886600D01*
X101246601Y-94886600D01*
X101246601Y-94934909D01*
X93312100Y-94934909D01*
X93312100Y-94338274D01*
X101246600Y-94338274D01*
X101246600Y-94386600D01*
X101946600Y-94386600D01*
X101946600Y-93661599D01*
X101923291Y-93661600D01*
X101923290Y-93661600D01*
X101823993Y-93671744D01*
X101823990Y-93671744D01*
X101663114Y-93725053D01*
X101518867Y-93814027D01*
X101399027Y-93933867D01*
X101310053Y-94078114D01*
X101256743Y-94238996D01*
X101256742Y-94238996D01*
X101246600Y-94338274D01*
X93312100Y-94338274D01*
X93312100Y-75953714D01*
X94001100Y-75953714D01*
X94001100Y-77749463D01*
X94001102Y-77749488D01*
X94007508Y-77809078D01*
X94007509Y-77809084D01*
X94057802Y-77943929D01*
X94057804Y-77943933D01*
X94144052Y-78059144D01*
X94144055Y-78059147D01*
X94259266Y-78145395D01*
X94259272Y-78145398D01*
X94328869Y-78171355D01*
X94354748Y-78181007D01*
X94417575Y-78225744D01*
X94449617Y-78295902D01*
X94442286Y-78372681D01*
X94408039Y-78425971D01*
X94321886Y-78512124D01*
X94321877Y-78512135D01*
X94196978Y-78684043D01*
X94196978Y-78684044D01*
X94100506Y-78873377D01*
X94034844Y-79075463D01*
X94034842Y-79075471D01*
X94024369Y-79141600D01*
X94918588Y-79141600D01*
X94885675Y-79198607D01*
X94851600Y-79325774D01*
X94851600Y-79457426D01*
X94885675Y-79584593D01*
X94918588Y-79641600D01*
X94024369Y-79641600D01*
X94034842Y-79707728D01*
X94034844Y-79707736D01*
X94100506Y-79909822D01*
X94196978Y-80099155D01*
X94196978Y-80099156D01*
X94321877Y-80271064D01*
X94321879Y-80271067D01*
X94472132Y-80421320D01*
X94472135Y-80421322D01*
X94644044Y-80546221D01*
X94833377Y-80642693D01*
X95035463Y-80708355D01*
X95035471Y-80708357D01*
X95101600Y-80718830D01*
X95101600Y-79824612D01*
X95158607Y-79857525D01*
X95285774Y-79891600D01*
X95417426Y-79891600D01*
X95544593Y-79857525D01*
X95601600Y-79824612D01*
X95601600Y-80718830D01*
X95667728Y-80708357D01*
X95667736Y-80708355D01*
X95869822Y-80642693D01*
X96059155Y-80546221D01*
X96059156Y-80546221D01*
X96231064Y-80421322D01*
X96231067Y-80421320D01*
X96381320Y-80271067D01*
X96381322Y-80271064D01*
X96506221Y-80099156D01*
X96506221Y-80099155D01*
X96602693Y-79909822D01*
X96668355Y-79707736D01*
X96668357Y-79707728D01*
X96678831Y-79641600D01*
X95784612Y-79641600D01*
X95817525Y-79584593D01*
X95851600Y-79457426D01*
X95851600Y-79325774D01*
X95817525Y-79198607D01*
X95784612Y-79141600D01*
X96678830Y-79141600D01*
X96668357Y-79075471D01*
X96668355Y-79075463D01*
X96602693Y-78873377D01*
X96506221Y-78684044D01*
X96506221Y-78684043D01*
X96381322Y-78512135D01*
X96381320Y-78512132D01*
X96295160Y-78425972D01*
X96256596Y-78359177D01*
X96256596Y-78282049D01*
X96295160Y-78215254D01*
X96348448Y-78181008D01*
X96443931Y-78145396D01*
X96443931Y-78145395D01*
X96443933Y-78145395D01*
X96514118Y-78092854D01*
X96559146Y-78059146D01*
X96625565Y-77970422D01*
X96645395Y-77943933D01*
X96645397Y-77943929D01*
X96665774Y-77889293D01*
X96695691Y-77809083D01*
X96697423Y-77792970D01*
X96702099Y-77749485D01*
X96702100Y-77749467D01*
X96702100Y-77606100D01*
X96722062Y-77531600D01*
X96776600Y-77477062D01*
X96851100Y-77457100D01*
X100618122Y-77457100D01*
X100692622Y-77477062D01*
X100733644Y-77511996D01*
X100778518Y-77567084D01*
X100778525Y-77567091D01*
X101165093Y-77953657D01*
X101242532Y-78016741D01*
X101394089Y-78092856D01*
X101559115Y-78131968D01*
X101559116Y-78131968D01*
X101564859Y-78132639D01*
X101636539Y-78161112D01*
X101684379Y-78221610D01*
X101695559Y-78263331D01*
X101696231Y-78269079D01*
X101696232Y-78269083D01*
X101696232Y-78269085D01*
X101735344Y-78434111D01*
X101811459Y-78585668D01*
X101874541Y-78663107D01*
X102261109Y-79049673D01*
X102338548Y-79112757D01*
X102490105Y-79188872D01*
X102655131Y-79227984D01*
X102655134Y-79227984D01*
X102824726Y-79227984D01*
X102824729Y-79227984D01*
X102830200Y-79226687D01*
X102907293Y-79228926D01*
X102969927Y-79266310D01*
X109192575Y-85488958D01*
X109231139Y-85555753D01*
X109236216Y-85594317D01*
X109236216Y-85599729D01*
X109275329Y-85764758D01*
X109327377Y-85868394D01*
X109351443Y-85916313D01*
X109414525Y-85993751D01*
X109414526Y-85993752D01*
X109836446Y-86415670D01*
X109836451Y-86415675D01*
X109888074Y-86457729D01*
X109913887Y-86478757D01*
X110065445Y-86554872D01*
X110230471Y-86593984D01*
X110235882Y-86593984D01*
X110310382Y-86613946D01*
X110341241Y-86637625D01*
X111166217Y-87462600D01*
X111960632Y-88257015D01*
X111960633Y-88257016D01*
X112065168Y-88361551D01*
X112109694Y-88391302D01*
X112188086Y-88443683D01*
X112219028Y-88456499D01*
X112324671Y-88500258D01*
X112469666Y-88529100D01*
X113311668Y-88529100D01*
X113386168Y-88549062D01*
X113440706Y-88603600D01*
X113460668Y-88678100D01*
X113440706Y-88752600D01*
X113386168Y-88807138D01*
X113334978Y-88825265D01*
X113298100Y-88831106D01*
X113284957Y-88833188D01*
X113095965Y-88894595D01*
X112918904Y-88984814D01*
X112758139Y-89101616D01*
X112617616Y-89242139D01*
X112500814Y-89402904D01*
X112443360Y-89515663D01*
X112391751Y-89572980D01*
X112318397Y-89596814D01*
X112242955Y-89580778D01*
X112185638Y-89529169D01*
X112177840Y-89515663D01*
X112133060Y-89427779D01*
X112120387Y-89402906D01*
X112003581Y-89242136D01*
X111863064Y-89101619D01*
X111702294Y-88984813D01*
X111624263Y-88945054D01*
X111525234Y-88894595D01*
X111336241Y-88833188D01*
X111336241Y-88833187D01*
X111222046Y-88815101D01*
X111139961Y-88802100D01*
X110941239Y-88802100D01*
X110862729Y-88814534D01*
X110744958Y-88833187D01*
X110744958Y-88833188D01*
X110555965Y-88894595D01*
X110378904Y-88984814D01*
X110218139Y-89101616D01*
X110077616Y-89242139D01*
X109960814Y-89402904D01*
X109903360Y-89515663D01*
X109851751Y-89572980D01*
X109778397Y-89596814D01*
X109702955Y-89580778D01*
X109645638Y-89529169D01*
X109637840Y-89515663D01*
X109593060Y-89427779D01*
X109580387Y-89402906D01*
X109463581Y-89242136D01*
X109323064Y-89101619D01*
X109162294Y-88984813D01*
X109084263Y-88945054D01*
X108985234Y-88894595D01*
X108796241Y-88833188D01*
X108796241Y-88833187D01*
X108682046Y-88815101D01*
X108599961Y-88802100D01*
X108401239Y-88802100D01*
X108322729Y-88814534D01*
X108204958Y-88833187D01*
X108204958Y-88833188D01*
X108015961Y-88894597D01*
X107995241Y-88905154D01*
X107919798Y-88921188D01*
X107846446Y-88897351D01*
X107794839Y-88840032D01*
X107782007Y-88804069D01*
X107772341Y-88759633D01*
X107738213Y-88657096D01*
X107720739Y-88629907D01*
X107681160Y-88568321D01*
X107660425Y-88536057D01*
X107614670Y-88483253D01*
X107610762Y-88479866D01*
X107505934Y-88389031D01*
X107375061Y-88329263D01*
X107375059Y-88329262D01*
X107375054Y-88329260D01*
X107375047Y-88329258D01*
X107308023Y-88309577D01*
X107308010Y-88309574D01*
X107308006Y-88309573D01*
X107165614Y-88289101D01*
X107165602Y-88289100D01*
X107165600Y-88289100D01*
X106741269Y-88289100D01*
X106741263Y-88289100D01*
X106683678Y-88292392D01*
X106683661Y-88292394D01*
X106683654Y-88292394D01*
X106683650Y-88292395D01*
X106664121Y-88294635D01*
X106655566Y-88295617D01*
X106655564Y-88295617D01*
X106605096Y-88304350D01*
X106598704Y-88305456D01*
X106464626Y-88357654D01*
X106464623Y-88357655D01*
X106464622Y-88357656D01*
X106407061Y-88390160D01*
X106404913Y-88391302D01*
X106403780Y-88392013D01*
X106289845Y-88479866D01*
X106289839Y-88479871D01*
X106205269Y-88596268D01*
X106172663Y-88658061D01*
X106172661Y-88658066D01*
X106156566Y-88703174D01*
X106148804Y-88714409D01*
X106145270Y-88727600D01*
X106127228Y-88745641D01*
X106112728Y-88766632D01*
X106100388Y-88772481D01*
X106090732Y-88782138D01*
X106066088Y-88788741D01*
X106043034Y-88799670D01*
X106016232Y-88802100D01*
X105906659Y-88802100D01*
X105832159Y-88782138D01*
X105777621Y-88727600D01*
X105763695Y-88695079D01*
X105752543Y-88657099D01*
X105752539Y-88657090D01*
X105674757Y-88536061D01*
X105674753Y-88536056D01*
X105628999Y-88483253D01*
X105628997Y-88483251D01*
X105520263Y-88389031D01*
X105389390Y-88329263D01*
X105389388Y-88329262D01*
X105389383Y-88329260D01*
X105389376Y-88329258D01*
X105322352Y-88309577D01*
X105322339Y-88309574D01*
X105322335Y-88309573D01*
X105179943Y-88289101D01*
X105179931Y-88289100D01*
X105179929Y-88289100D01*
X104873600Y-88289100D01*
X104873595Y-88289100D01*
X104873584Y-88289101D01*
X104766147Y-88300651D01*
X104766143Y-88300652D01*
X104714636Y-88311858D01*
X104612094Y-88345987D01*
X104491056Y-88423775D01*
X104438253Y-88469529D01*
X104438251Y-88469531D01*
X104344031Y-88578265D01*
X104284263Y-88709138D01*
X104284258Y-88709152D01*
X104264577Y-88776176D01*
X104264574Y-88776189D01*
X104253737Y-88851562D01*
X104223375Y-88922463D01*
X104161631Y-88968683D01*
X104085048Y-88977839D01*
X104038609Y-88963116D01*
X103905045Y-88895062D01*
X103905030Y-88895055D01*
X103716121Y-88833675D01*
X103519917Y-88802600D01*
X103321283Y-88802600D01*
X103125078Y-88833675D01*
X102936169Y-88895055D01*
X102936154Y-88895061D01*
X102759166Y-88985242D01*
X102759157Y-88985247D01*
X102721883Y-89012328D01*
X102721883Y-89012330D01*
X103284657Y-89575104D01*
X103224519Y-89591219D01*
X103108680Y-89658098D01*
X103014098Y-89752680D01*
X102947219Y-89868519D01*
X102931104Y-89928657D01*
X102368330Y-89365883D01*
X102368328Y-89365883D01*
X102341247Y-89403157D01*
X102341242Y-89403166D01*
X102283641Y-89516214D01*
X102232032Y-89573531D01*
X102158679Y-89597365D01*
X102083236Y-89581329D01*
X102025919Y-89529720D01*
X102018121Y-89516214D01*
X101973060Y-89427779D01*
X101960387Y-89402906D01*
X101843581Y-89242136D01*
X101703064Y-89101619D01*
X101542294Y-88984813D01*
X101464263Y-88945054D01*
X101365234Y-88894595D01*
X101176241Y-88833188D01*
X101176241Y-88833187D01*
X101062046Y-88815101D01*
X100979961Y-88802100D01*
X100781239Y-88802100D01*
X100702729Y-88814534D01*
X100584958Y-88833187D01*
X100584958Y-88833188D01*
X100395965Y-88894595D01*
X100218904Y-88984814D01*
X100058139Y-89101616D01*
X99917616Y-89242139D01*
X99800814Y-89402904D01*
X99710595Y-89579965D01*
X99649188Y-89768958D01*
X99649187Y-89768958D01*
X99636469Y-89849259D01*
X99618100Y-89965239D01*
X99618100Y-90163961D01*
X99631048Y-90245711D01*
X99649187Y-90360241D01*
X99710595Y-90549234D01*
X99771500Y-90668764D01*
X99800813Y-90726294D01*
X99917619Y-90887064D01*
X100058136Y-91027581D01*
X100218906Y-91144387D01*
X100333964Y-91203012D01*
X100395965Y-91234604D01*
X100395967Y-91234604D01*
X100395968Y-91234605D01*
X100506125Y-91270397D01*
X100584958Y-91296011D01*
X100584958Y-91296012D01*
X100584963Y-91296012D01*
X100584964Y-91296013D01*
X100781239Y-91327100D01*
X100781243Y-91327100D01*
X100979957Y-91327100D01*
X100979961Y-91327100D01*
X101176236Y-91296013D01*
X101176237Y-91296012D01*
X101176241Y-91296012D01*
X101176241Y-91296011D01*
X101365232Y-91234605D01*
X101542294Y-91144387D01*
X101703064Y-91027581D01*
X101843581Y-90887064D01*
X101960387Y-90726294D01*
X102018121Y-90612984D01*
X102069730Y-90555668D01*
X102143083Y-90531834D01*
X102218526Y-90547870D01*
X102275843Y-90599479D01*
X102283641Y-90612985D01*
X102341242Y-90726033D01*
X102341243Y-90726035D01*
X102368329Y-90763315D01*
X102368330Y-90763315D01*
X102931104Y-90200541D01*
X102947219Y-90260681D01*
X103014098Y-90376520D01*
X103108680Y-90471102D01*
X103224519Y-90537981D01*
X103284656Y-90554094D01*
X102721883Y-91116868D01*
X102721883Y-91116869D01*
X102759164Y-91143956D01*
X102759166Y-91143957D01*
X102936154Y-91234138D01*
X102936169Y-91234144D01*
X103125078Y-91295524D01*
X103321283Y-91326600D01*
X103519917Y-91326600D01*
X103716121Y-91295524D01*
X103905030Y-91234144D01*
X103905045Y-91234138D01*
X104027455Y-91171767D01*
X104102898Y-91155731D01*
X104176251Y-91179565D01*
X104227860Y-91236882D01*
X104244100Y-91304527D01*
X104244100Y-92290030D01*
X104224138Y-92364530D01*
X104188180Y-92406379D01*
X103198283Y-93198297D01*
X103183066Y-93210967D01*
X103183057Y-93210976D01*
X103088836Y-93319711D01*
X103029068Y-93450587D01*
X103024518Y-93466084D01*
X103011577Y-93510155D01*
X103011576Y-93510156D01*
X102992388Y-93643610D01*
X102992136Y-93645144D01*
X102976837Y-93678951D01*
X102962237Y-93713047D01*
X102960983Y-93713985D01*
X102960338Y-93715412D01*
X102930196Y-93737032D01*
X102900492Y-93759268D01*
X102898936Y-93759453D01*
X102897665Y-93760366D01*
X102860755Y-93764018D01*
X102823910Y-93768424D01*
X102822265Y-93767828D01*
X102820912Y-93767962D01*
X102813975Y-93764822D01*
X102766893Y-93747757D01*
X102730085Y-93725053D01*
X102569203Y-93671743D01*
X102569203Y-93671742D01*
X102469925Y-93661600D01*
X102446600Y-93661600D01*
X102446600Y-95611599D01*
X102469910Y-95611599D01*
X102569206Y-95601455D01*
X102569209Y-95601455D01*
X102730085Y-95548146D01*
X102874333Y-95459171D01*
X102878776Y-95455659D01*
X102891518Y-95450161D01*
X102901702Y-95440732D01*
X102926368Y-95435127D01*
X102949595Y-95425108D01*
X102963379Y-95426718D01*
X102976913Y-95423644D01*
X102995361Y-95430456D01*
X103026202Y-95434060D01*
X103050592Y-95446451D01*
X103063682Y-95454694D01*
X103068556Y-95459568D01*
X103208272Y-95545746D01*
X103208873Y-95546125D01*
X103234613Y-95573922D01*
X103260625Y-95601493D01*
X103260790Y-95602190D01*
X103261277Y-95602716D01*
X103269669Y-95639652D01*
X103278412Y-95676542D01*
X103278206Y-95677228D01*
X103278365Y-95677927D01*
X103267163Y-95714113D01*
X103256291Y-95750430D01*
X103255732Y-95751040D01*
X103255558Y-95751606D01*
X103253337Y-95753661D01*
X103224321Y-95785417D01*
X103225078Y-95786291D01*
X103168253Y-95835529D01*
X103168251Y-95835531D01*
X103074031Y-95944265D01*
X103014263Y-96075138D01*
X103014258Y-96075152D01*
X102994577Y-96142176D01*
X102994574Y-96142189D01*
X102994573Y-96142193D01*
X102974101Y-96284585D01*
X102974100Y-96284603D01*
X102974100Y-96641229D01*
X102974517Y-96649013D01*
X102958569Y-96724474D01*
X102907027Y-96781851D01*
X102833701Y-96805771D01*
X102758240Y-96789823D01*
X102747509Y-96783800D01*
X102730088Y-96773055D01*
X102730086Y-96773054D01*
X102569203Y-96719743D01*
X102569203Y-96719742D01*
X102469925Y-96709600D01*
X102446600Y-96709600D01*
X102446600Y-98659599D01*
X102469910Y-98659599D01*
X102569206Y-98649455D01*
X102569209Y-98649455D01*
X102730085Y-98596146D01*
X102747625Y-98585327D01*
X102821512Y-98563204D01*
X102896562Y-98580989D01*
X102952664Y-98633916D01*
X102974787Y-98707803D01*
X102974471Y-98722758D01*
X102974100Y-98727951D01*
X102974100Y-104418594D01*
X102974101Y-104418615D01*
X102985651Y-104526052D01*
X102985652Y-104526056D01*
X102996858Y-104577563D01*
X103030987Y-104680105D01*
X103108775Y-104801143D01*
X103154529Y-104853946D01*
X103154531Y-104853948D01*
X103263265Y-104948168D01*
X103323870Y-104975845D01*
X103394141Y-105007938D01*
X103404014Y-105010837D01*
X103461176Y-105027622D01*
X103461178Y-105027622D01*
X103461180Y-105027623D01*
X103461184Y-105027624D01*
X103461185Y-105027624D01*
X103461189Y-105027625D01*
X103461193Y-105027626D01*
X103603585Y-105048098D01*
X103603589Y-105048098D01*
X103603600Y-105048100D01*
X103603604Y-105048100D01*
X112075382Y-105048100D01*
X112148158Y-105067600D01*
X116156272Y-105067600D01*
X116181253Y-105053177D01*
X116219817Y-105048100D01*
X121528814Y-105048100D01*
X121631674Y-105037523D01*
X121631674Y-105037522D01*
X121631680Y-105037522D01*
X121681095Y-105027251D01*
X121779671Y-104995956D01*
X121902130Y-104920422D01*
X121955772Y-104875652D01*
X121955772Y-104875651D01*
X121955771Y-104875651D01*
X121964490Y-104868375D01*
X121970565Y-104859203D01*
X122036702Y-104785672D01*
X122101361Y-104743634D01*
X122162623Y-104737089D01*
X122201223Y-104741031D01*
X122231255Y-104744100D01*
X122827944Y-104744099D01*
X122897353Y-104737008D01*
X122973492Y-104749296D01*
X123032133Y-104797066D01*
X123032377Y-104796884D01*
X123033108Y-104797861D01*
X123033290Y-104798009D01*
X123034016Y-104799073D01*
X123035565Y-104801143D01*
X123081319Y-104853946D01*
X123081321Y-104853948D01*
X123190055Y-104948168D01*
X123250660Y-104975845D01*
X123320931Y-105007938D01*
X123330804Y-105010837D01*
X123387966Y-105027622D01*
X123387968Y-105027622D01*
X123387970Y-105027623D01*
X123387974Y-105027624D01*
X123387975Y-105027624D01*
X123387979Y-105027625D01*
X123387983Y-105027626D01*
X123530375Y-105048098D01*
X123530379Y-105048098D01*
X123530390Y-105048100D01*
X123530394Y-105048100D01*
X127985024Y-105048100D01*
X128003033Y-105047779D01*
X128011904Y-105047462D01*
X128022029Y-105046918D01*
X128029912Y-105046496D01*
X128170504Y-105015912D01*
X128235968Y-104991495D01*
X128362243Y-104922544D01*
X128362249Y-104922537D01*
X128370771Y-104916159D01*
X128371921Y-104917695D01*
X128427278Y-104885729D01*
X128504406Y-104885723D01*
X128571204Y-104924281D01*
X128609774Y-104991073D01*
X128611990Y-105000578D01*
X128617860Y-105030089D01*
X128617863Y-105030098D01*
X128678204Y-105175776D01*
X128678205Y-105175778D01*
X128678206Y-105175779D01*
X128765811Y-105306889D01*
X128877311Y-105418389D01*
X129008421Y-105505994D01*
X129154103Y-105566337D01*
X129308758Y-105597100D01*
X129466442Y-105597100D01*
X129621097Y-105566337D01*
X129766779Y-105505994D01*
X129897889Y-105418389D01*
X130009389Y-105306889D01*
X130096994Y-105175779D01*
X130157337Y-105030097D01*
X130188100Y-104875442D01*
X130188100Y-104717758D01*
X130188100Y-104717757D01*
X130155909Y-104555923D01*
X130157267Y-104555652D01*
X130155001Y-104486664D01*
X130191351Y-104418639D01*
X130202529Y-104407884D01*
X130206947Y-104404056D01*
X130301167Y-104295322D01*
X130360938Y-104164445D01*
X130380623Y-104097406D01*
X130380624Y-104097402D01*
X130380625Y-104097396D01*
X130380626Y-104097392D01*
X130401098Y-103955000D01*
X130401100Y-103954982D01*
X130401100Y-102305891D01*
X130400779Y-102287881D01*
X130400462Y-102279010D01*
X130399496Y-102261009D01*
X130399496Y-102261003D01*
X130368912Y-102120411D01*
X130344495Y-102054947D01*
X130344494Y-102054946D01*
X130344493Y-102054942D01*
X130275546Y-101928676D01*
X130275544Y-101928672D01*
X130173807Y-101826932D01*
X130117874Y-101785060D01*
X130117866Y-101785054D01*
X129991585Y-101716101D01*
X129954789Y-101708096D01*
X129938570Y-101700154D01*
X129922648Y-101686269D01*
X129903872Y-101676589D01*
X129894084Y-101661359D01*
X129880441Y-101649461D01*
X129873595Y-101629476D01*
X129862174Y-101611704D01*
X129857717Y-101583124D01*
X129855447Y-101576496D01*
X129856135Y-101572981D01*
X129855100Y-101566338D01*
X129855100Y-101300990D01*
X129855100Y-101300984D01*
X129848686Y-101230404D01*
X129798078Y-101067994D01*
X129710072Y-100922415D01*
X129625616Y-100837959D01*
X129587052Y-100771164D01*
X129587052Y-100694036D01*
X129625616Y-100627241D01*
X129664942Y-100587915D01*
X129710072Y-100542785D01*
X129798078Y-100397206D01*
X129848686Y-100234796D01*
X129855100Y-100164216D01*
X129855100Y-99650984D01*
X129848686Y-99580404D01*
X129798078Y-99417994D01*
X129710072Y-99272415D01*
X129589785Y-99152128D01*
X129588999Y-99151653D01*
X129552014Y-99129294D01*
X129498587Y-99073668D01*
X129480100Y-99001784D01*
X129480100Y-91221900D01*
X129500062Y-91147400D01*
X129541521Y-91101356D01*
X129643064Y-91027581D01*
X129783581Y-90887064D01*
X129900387Y-90726294D01*
X129957840Y-90613535D01*
X130009449Y-90556219D01*
X130082802Y-90532385D01*
X130158245Y-90548421D01*
X130215562Y-90600030D01*
X130223357Y-90613531D01*
X130280813Y-90726294D01*
X130397619Y-90887064D01*
X130538136Y-91027581D01*
X130698681Y-91144223D01*
X130747218Y-91204162D01*
X130760100Y-91264766D01*
X130760100Y-106837550D01*
X130740138Y-106912050D01*
X130734990Y-106920329D01*
X130710208Y-106957418D01*
X130710202Y-106957429D01*
X130649863Y-107103101D01*
X130649862Y-107103105D01*
X130619100Y-107257757D01*
X130619100Y-107415442D01*
X130649862Y-107570094D01*
X130649863Y-107570098D01*
X130710204Y-107715776D01*
X130710205Y-107715778D01*
X130710206Y-107715779D01*
X130797811Y-107846889D01*
X130909311Y-107958389D01*
X131040421Y-108045994D01*
X131186103Y-108106337D01*
X131340758Y-108137100D01*
X131498442Y-108137100D01*
X131653097Y-108106337D01*
X131798779Y-108045994D01*
X131929889Y-107958389D01*
X132041389Y-107846889D01*
X132128994Y-107715779D01*
X132189337Y-107570097D01*
X132220100Y-107415442D01*
X132220100Y-107257758D01*
X132189337Y-107103103D01*
X132128994Y-106957421D01*
X132041389Y-106826311D01*
X132004741Y-106789663D01*
X131966177Y-106722868D01*
X131961100Y-106684304D01*
X131961100Y-91264766D01*
X131981062Y-91190266D01*
X132022517Y-91144224D01*
X132183064Y-91027581D01*
X132323581Y-90887064D01*
X132440387Y-90726294D01*
X132497840Y-90613535D01*
X132549449Y-90556219D01*
X132622802Y-90532385D01*
X132698245Y-90548421D01*
X132755562Y-90600030D01*
X132763357Y-90613531D01*
X132820813Y-90726294D01*
X132937619Y-90887064D01*
X133078136Y-91027581D01*
X133238906Y-91144387D01*
X133353964Y-91203012D01*
X133415965Y-91234604D01*
X133415967Y-91234604D01*
X133415968Y-91234605D01*
X133526125Y-91270397D01*
X133604958Y-91296011D01*
X133604958Y-91296012D01*
X133604963Y-91296012D01*
X133604964Y-91296013D01*
X133801239Y-91327100D01*
X133801243Y-91327100D01*
X133999957Y-91327100D01*
X133999961Y-91327100D01*
X134196236Y-91296013D01*
X134196237Y-91296012D01*
X134196241Y-91296012D01*
X134196241Y-91296011D01*
X134385232Y-91234605D01*
X134562294Y-91144387D01*
X134723064Y-91027581D01*
X134863581Y-90887064D01*
X134980387Y-90726294D01*
X135037840Y-90613535D01*
X135089449Y-90556219D01*
X135162802Y-90532385D01*
X135238245Y-90548421D01*
X135295562Y-90600030D01*
X135303357Y-90613531D01*
X135360813Y-90726294D01*
X135477619Y-90887064D01*
X135618136Y-91027581D01*
X135778906Y-91144387D01*
X135893964Y-91203012D01*
X135955965Y-91234604D01*
X135955967Y-91234604D01*
X135955968Y-91234605D01*
X136066125Y-91270397D01*
X136144958Y-91296011D01*
X136144958Y-91296012D01*
X136144963Y-91296012D01*
X136144964Y-91296013D01*
X136341239Y-91327100D01*
X136341243Y-91327100D01*
X136539957Y-91327100D01*
X136539961Y-91327100D01*
X136736236Y-91296013D01*
X136736237Y-91296012D01*
X136736241Y-91296012D01*
X136736241Y-91296011D01*
X136925232Y-91234605D01*
X137102294Y-91144387D01*
X137263064Y-91027581D01*
X137403581Y-90887064D01*
X137451394Y-90821254D01*
X137511331Y-90772718D01*
X137587509Y-90760652D01*
X137659515Y-90788291D01*
X137708054Y-90848231D01*
X137720082Y-90892908D01*
X137724508Y-90934079D01*
X137724509Y-90934084D01*
X137774802Y-91068929D01*
X137774804Y-91068933D01*
X137861052Y-91184144D01*
X137861055Y-91184147D01*
X137976266Y-91270395D01*
X137976270Y-91270397D01*
X138111117Y-91320691D01*
X138170714Y-91327099D01*
X138170718Y-91327099D01*
X138170727Y-91327100D01*
X139790472Y-91327099D01*
X139798170Y-91326271D01*
X139874376Y-91338153D01*
X139934432Y-91386547D01*
X139962246Y-91458485D01*
X139963100Y-91474417D01*
X139963100Y-100969960D01*
X139943138Y-101044460D01*
X139919459Y-101075319D01*
X132016320Y-108978459D01*
X131949525Y-109017023D01*
X131910961Y-109022100D01*
X121883539Y-109022100D01*
X121730811Y-109063024D01*
X121690811Y-109086118D01*
X121690804Y-109086123D01*
X121680695Y-109091960D01*
X121593884Y-109142080D01*
X121482080Y-109253884D01*
X121482078Y-109253886D01*
X121476534Y-109259429D01*
X121476529Y-109259434D01*
X119084627Y-111651336D01*
X119017832Y-111689900D01*
X118955960Y-111693143D01*
X118891855Y-111682990D01*
X118759961Y-111662100D01*
X118561239Y-111662100D01*
X118482729Y-111674534D01*
X118364958Y-111693187D01*
X118364958Y-111693188D01*
X118175965Y-111754595D01*
X117998904Y-111844814D01*
X117838139Y-111961616D01*
X117697616Y-112102139D01*
X117580814Y-112262904D01*
X117523360Y-112375663D01*
X117471751Y-112432980D01*
X117398397Y-112456814D01*
X117322955Y-112440778D01*
X117265638Y-112389169D01*
X117257840Y-112375663D01*
X117248887Y-112358092D01*
X117200387Y-112262906D01*
X117083581Y-112102136D01*
X116943064Y-111961619D01*
X116782294Y-111844813D01*
X116724764Y-111815500D01*
X116605234Y-111754595D01*
X116416241Y-111693188D01*
X116416241Y-111693187D01*
X116307194Y-111675916D01*
X116219961Y-111662100D01*
X116021239Y-111662100D01*
X115942729Y-111674534D01*
X115824958Y-111693187D01*
X115824958Y-111693188D01*
X115635965Y-111754595D01*
X115458904Y-111844814D01*
X115298139Y-111961616D01*
X115157616Y-112102139D01*
X115040814Y-112262904D01*
X114983360Y-112375663D01*
X114931751Y-112432980D01*
X114858397Y-112456814D01*
X114782955Y-112440778D01*
X114725638Y-112389169D01*
X114717840Y-112375663D01*
X114708887Y-112358092D01*
X114660387Y-112262906D01*
X114543581Y-112102136D01*
X114403064Y-111961619D01*
X114242294Y-111844813D01*
X114184764Y-111815500D01*
X114065234Y-111754595D01*
X113876241Y-111693188D01*
X113876241Y-111693187D01*
X113767194Y-111675916D01*
X113679961Y-111662100D01*
X113481239Y-111662100D01*
X113402729Y-111674534D01*
X113284958Y-111693187D01*
X113284958Y-111693188D01*
X113095965Y-111754595D01*
X112918904Y-111844814D01*
X112758139Y-111961616D01*
X112617616Y-112102139D01*
X112500814Y-112262904D01*
X112500810Y-112262909D01*
X112443077Y-112376215D01*
X112391468Y-112433532D01*
X112318114Y-112457365D01*
X112242672Y-112441328D01*
X112185355Y-112389719D01*
X112177558Y-112376213D01*
X112119960Y-112263171D01*
X112119956Y-112263164D01*
X112092869Y-112225883D01*
X111530094Y-112788657D01*
X111513981Y-112728519D01*
X111447102Y-112612680D01*
X111352520Y-112518098D01*
X111236681Y-112451219D01*
X111176540Y-112435104D01*
X111739315Y-111872330D01*
X111739315Y-111872329D01*
X111702035Y-111845243D01*
X111702033Y-111845242D01*
X111525045Y-111755061D01*
X111525030Y-111755055D01*
X111336121Y-111693675D01*
X111139917Y-111662600D01*
X110941283Y-111662600D01*
X110745078Y-111693675D01*
X110556169Y-111755055D01*
X110556154Y-111755061D01*
X110379166Y-111845242D01*
X110379157Y-111845247D01*
X110341883Y-111872328D01*
X110341883Y-111872330D01*
X110904657Y-112435104D01*
X110844519Y-112451219D01*
X110728680Y-112518098D01*
X110634098Y-112612680D01*
X110567219Y-112728519D01*
X110551104Y-112788657D01*
X109988330Y-112225883D01*
X109988328Y-112225883D01*
X109961247Y-112263157D01*
X109961242Y-112263166D01*
X109903641Y-112376214D01*
X109852032Y-112433531D01*
X109778679Y-112457365D01*
X109703236Y-112441329D01*
X109645919Y-112389720D01*
X109638121Y-112376214D01*
X109620488Y-112341609D01*
X109580387Y-112262906D01*
X109463581Y-112102136D01*
X109323064Y-111961619D01*
X109162294Y-111844813D01*
X109104764Y-111815500D01*
X108985234Y-111754595D01*
X108796241Y-111693188D01*
X108796241Y-111693187D01*
X108687194Y-111675916D01*
X108599961Y-111662100D01*
X108401239Y-111662100D01*
X108322729Y-111674534D01*
X108204958Y-111693187D01*
X108204958Y-111693188D01*
X108015965Y-111754595D01*
X107838904Y-111844814D01*
X107678139Y-111961616D01*
X107537616Y-112102139D01*
X107420814Y-112262904D01*
X107363360Y-112375663D01*
X107311751Y-112432980D01*
X107238397Y-112456814D01*
X107162955Y-112440778D01*
X107105638Y-112389169D01*
X107097840Y-112375663D01*
X107088887Y-112358092D01*
X107040387Y-112262906D01*
X106923581Y-112102136D01*
X106783064Y-111961619D01*
X106622294Y-111844813D01*
X106564764Y-111815500D01*
X106445234Y-111754595D01*
X106256241Y-111693188D01*
X106256241Y-111693187D01*
X106147194Y-111675916D01*
X106059961Y-111662100D01*
X105861239Y-111662100D01*
X105782729Y-111674534D01*
X105664958Y-111693187D01*
X105664958Y-111693188D01*
X105475965Y-111754595D01*
X105298904Y-111844814D01*
X105138139Y-111961616D01*
X104997616Y-112102139D01*
X104880814Y-112262904D01*
X104880810Y-112262909D01*
X104823077Y-112376215D01*
X104771468Y-112433532D01*
X104698114Y-112457365D01*
X104622672Y-112441328D01*
X104565355Y-112389719D01*
X104557558Y-112376213D01*
X104499960Y-112263171D01*
X104499956Y-112263164D01*
X104472869Y-112225883D01*
X103910094Y-112788657D01*
X103893981Y-112728519D01*
X103827102Y-112612680D01*
X103732520Y-112518098D01*
X103616681Y-112451219D01*
X103556540Y-112435104D01*
X104119315Y-111872330D01*
X104119315Y-111872329D01*
X104082035Y-111845243D01*
X104082033Y-111845242D01*
X103905045Y-111755061D01*
X103905030Y-111755055D01*
X103716121Y-111693675D01*
X103519917Y-111662600D01*
X103321283Y-111662600D01*
X103125078Y-111693675D01*
X102936169Y-111755055D01*
X102936154Y-111755061D01*
X102759166Y-111845242D01*
X102759157Y-111845247D01*
X102721883Y-111872328D01*
X102721883Y-111872330D01*
X103284657Y-112435104D01*
X103224519Y-112451219D01*
X103108680Y-112518098D01*
X103014098Y-112612680D01*
X102947219Y-112728519D01*
X102931104Y-112788657D01*
X102368330Y-112225883D01*
X102368328Y-112225883D01*
X102341247Y-112263157D01*
X102341242Y-112263166D01*
X102283641Y-112376214D01*
X102232032Y-112433531D01*
X102158679Y-112457365D01*
X102083236Y-112441329D01*
X102025919Y-112389720D01*
X102018121Y-112376214D01*
X102000488Y-112341609D01*
X101960387Y-112262906D01*
X101843581Y-112102136D01*
X101703064Y-111961619D01*
X101542294Y-111844813D01*
X101484764Y-111815500D01*
X101365234Y-111754595D01*
X101176241Y-111693188D01*
X101176241Y-111693187D01*
X101067194Y-111675916D01*
X100979961Y-111662100D01*
X100781239Y-111662100D01*
X100702729Y-111674534D01*
X100584958Y-111693187D01*
X100584958Y-111693188D01*
X100395965Y-111754595D01*
X100218904Y-111844814D01*
X100058139Y-111961616D01*
X99917616Y-112102139D01*
X99800814Y-112262904D01*
X99710595Y-112439965D01*
X99649188Y-112628958D01*
X99649187Y-112628958D01*
X99633419Y-112728519D01*
X99618100Y-112825239D01*
X99618100Y-113023961D01*
X99631916Y-113111194D01*
X99649187Y-113220241D01*
X99710595Y-113409234D01*
X99748126Y-113482891D01*
X99800813Y-113586294D01*
X99917619Y-113747064D01*
X100058136Y-113887581D01*
X100218906Y-114004387D01*
X100322308Y-114057073D01*
X100395965Y-114094604D01*
X100584958Y-114156011D01*
X100584958Y-114156012D01*
X100584963Y-114156012D01*
X100584964Y-114156013D01*
X100781239Y-114187100D01*
X100781243Y-114187100D01*
X100979957Y-114187100D01*
X100979961Y-114187100D01*
X101176236Y-114156013D01*
X101176237Y-114156012D01*
X101176241Y-114156012D01*
X101176241Y-114156011D01*
X101365232Y-114094605D01*
X101542294Y-114004387D01*
X101703064Y-113887581D01*
X101843581Y-113747064D01*
X101960387Y-113586294D01*
X102018121Y-113472984D01*
X102069730Y-113415668D01*
X102143083Y-113391834D01*
X102218526Y-113407870D01*
X102275843Y-113459479D01*
X102283641Y-113472985D01*
X102341242Y-113586033D01*
X102341243Y-113586035D01*
X102368329Y-113623315D01*
X102368330Y-113623315D01*
X102931104Y-113060541D01*
X102947219Y-113120681D01*
X103014098Y-113236520D01*
X103108680Y-113331102D01*
X103224519Y-113397981D01*
X103284657Y-113414095D01*
X102721883Y-113976869D01*
X102759164Y-114003956D01*
X102759166Y-114003957D01*
X102936154Y-114094138D01*
X102936169Y-114094144D01*
X103125078Y-114155524D01*
X103321283Y-114186600D01*
X103519917Y-114186600D01*
X103716121Y-114155524D01*
X103905030Y-114094144D01*
X103905050Y-114094135D01*
X104082023Y-114003963D01*
X104082035Y-114003956D01*
X104119315Y-113976869D01*
X104119316Y-113976869D01*
X103556542Y-113414095D01*
X103616681Y-113397981D01*
X103732520Y-113331102D01*
X103827102Y-113236520D01*
X103893981Y-113120681D01*
X103910095Y-113060542D01*
X104472869Y-113623316D01*
X104472869Y-113623315D01*
X104499956Y-113586035D01*
X104499963Y-113586023D01*
X104557559Y-113472986D01*
X104609167Y-113415668D01*
X104682520Y-113391834D01*
X104757963Y-113407870D01*
X104815281Y-113459478D01*
X104823078Y-113472983D01*
X104880813Y-113586294D01*
X104997619Y-113747064D01*
X105138136Y-113887581D01*
X105298906Y-114004387D01*
X105402308Y-114057073D01*
X105475965Y-114094604D01*
X105664958Y-114156011D01*
X105664958Y-114156012D01*
X105664963Y-114156012D01*
X105664964Y-114156013D01*
X105861239Y-114187100D01*
X105861243Y-114187100D01*
X106059957Y-114187100D01*
X106059961Y-114187100D01*
X106256236Y-114156013D01*
X106256237Y-114156012D01*
X106256241Y-114156012D01*
X106256241Y-114156011D01*
X106445232Y-114094605D01*
X106622294Y-114004387D01*
X106783064Y-113887581D01*
X106923581Y-113747064D01*
X107040387Y-113586294D01*
X107097840Y-113473535D01*
X107149449Y-113416219D01*
X107222802Y-113392385D01*
X107298245Y-113408421D01*
X107355562Y-113460030D01*
X107363357Y-113473531D01*
X107420813Y-113586294D01*
X107537619Y-113747064D01*
X107678136Y-113887581D01*
X107838906Y-114004387D01*
X107942308Y-114057073D01*
X108015965Y-114094604D01*
X108204958Y-114156011D01*
X108204958Y-114156012D01*
X108204963Y-114156012D01*
X108204964Y-114156013D01*
X108401239Y-114187100D01*
X108401243Y-114187100D01*
X108599957Y-114187100D01*
X108599961Y-114187100D01*
X108796236Y-114156013D01*
X108796237Y-114156012D01*
X108796241Y-114156012D01*
X108796241Y-114156011D01*
X108985232Y-114094605D01*
X109162294Y-114004387D01*
X109323064Y-113887581D01*
X109463581Y-113747064D01*
X109580387Y-113586294D01*
X109638121Y-113472984D01*
X109689730Y-113415668D01*
X109763083Y-113391834D01*
X109838526Y-113407870D01*
X109895843Y-113459479D01*
X109903641Y-113472985D01*
X109961242Y-113586033D01*
X109961243Y-113586035D01*
X109988329Y-113623315D01*
X109988330Y-113623315D01*
X110551104Y-113060541D01*
X110567219Y-113120681D01*
X110634098Y-113236520D01*
X110728680Y-113331102D01*
X110844519Y-113397981D01*
X110904657Y-113414095D01*
X110341883Y-113976869D01*
X110379164Y-114003956D01*
X110379166Y-114003957D01*
X110556154Y-114094138D01*
X110556169Y-114094144D01*
X110745078Y-114155524D01*
X110941283Y-114186600D01*
X111139917Y-114186600D01*
X111336121Y-114155524D01*
X111525030Y-114094144D01*
X111525050Y-114094135D01*
X111702023Y-114003963D01*
X111702035Y-114003956D01*
X111739315Y-113976869D01*
X111739316Y-113976869D01*
X111176542Y-113414095D01*
X111236681Y-113397981D01*
X111352520Y-113331102D01*
X111447102Y-113236520D01*
X111513981Y-113120681D01*
X111530095Y-113060542D01*
X112092869Y-113623316D01*
X112092869Y-113623315D01*
X112119956Y-113586035D01*
X112119963Y-113586023D01*
X112177559Y-113472986D01*
X112229167Y-113415668D01*
X112302520Y-113391834D01*
X112377963Y-113407870D01*
X112435281Y-113459478D01*
X112443078Y-113472983D01*
X112500813Y-113586294D01*
X112617619Y-113747064D01*
X112758136Y-113887581D01*
X112918906Y-114004387D01*
X113022308Y-114057073D01*
X113095965Y-114094604D01*
X113284958Y-114156011D01*
X113284958Y-114156012D01*
X113284963Y-114156012D01*
X113284964Y-114156013D01*
X113481239Y-114187100D01*
X113481243Y-114187100D01*
X113679957Y-114187100D01*
X113679961Y-114187100D01*
X113876236Y-114156013D01*
X113876237Y-114156012D01*
X113876241Y-114156012D01*
X113876241Y-114156011D01*
X114065232Y-114094605D01*
X114242294Y-114004387D01*
X114403064Y-113887581D01*
X114543581Y-113747064D01*
X114660387Y-113586294D01*
X114717840Y-113473535D01*
X114769449Y-113416219D01*
X114842802Y-113392385D01*
X114918245Y-113408421D01*
X114975562Y-113460030D01*
X114983357Y-113473531D01*
X115040813Y-113586294D01*
X115157619Y-113747064D01*
X115298136Y-113887581D01*
X115458906Y-114004387D01*
X115562308Y-114057073D01*
X115635965Y-114094604D01*
X115824958Y-114156011D01*
X115824958Y-114156012D01*
X115824963Y-114156012D01*
X115824964Y-114156013D01*
X116021239Y-114187100D01*
X116021243Y-114187100D01*
X116219957Y-114187100D01*
X116219961Y-114187100D01*
X116416236Y-114156013D01*
X116416237Y-114156012D01*
X116416241Y-114156012D01*
X116416241Y-114156011D01*
X116605232Y-114094605D01*
X116782294Y-114004387D01*
X116943064Y-113887581D01*
X117083581Y-113747064D01*
X117200387Y-113586294D01*
X117257840Y-113473535D01*
X117309449Y-113416219D01*
X117382802Y-113392385D01*
X117458245Y-113408421D01*
X117515562Y-113460030D01*
X117523357Y-113473531D01*
X117580813Y-113586294D01*
X117697619Y-113747064D01*
X117838136Y-113887581D01*
X117998906Y-114004387D01*
X118102308Y-114057073D01*
X118175965Y-114094604D01*
X118364958Y-114156011D01*
X118364958Y-114156012D01*
X118364963Y-114156012D01*
X118364964Y-114156013D01*
X118561239Y-114187100D01*
X118561243Y-114187100D01*
X118759957Y-114187100D01*
X118759961Y-114187100D01*
X118956236Y-114156013D01*
X118956237Y-114156012D01*
X118956241Y-114156012D01*
X118956241Y-114156011D01*
X119145232Y-114094605D01*
X119322294Y-114004387D01*
X119483064Y-113887581D01*
X119623581Y-113747064D01*
X119740387Y-113586294D01*
X119797840Y-113473535D01*
X119849449Y-113416219D01*
X119922802Y-113392385D01*
X119998245Y-113408421D01*
X120055562Y-113460030D01*
X120063357Y-113473531D01*
X120120813Y-113586294D01*
X120237619Y-113747064D01*
X120378136Y-113887581D01*
X120538681Y-114004223D01*
X120587218Y-114064162D01*
X120600100Y-114124766D01*
X120600100Y-114809397D01*
X120600099Y-114809415D01*
X120600099Y-114976657D01*
X120641023Y-115129385D01*
X120641024Y-115129387D01*
X120658133Y-115159021D01*
X120658136Y-115159024D01*
X120658136Y-115159025D01*
X120720079Y-115266315D01*
X120840374Y-115386610D01*
X120840380Y-115386615D01*
X121541078Y-116087313D01*
X121541078Y-116087314D01*
X121652880Y-116199117D01*
X121652882Y-116199118D01*
X121652884Y-116199120D01*
X121789816Y-116278177D01*
X121901619Y-116308134D01*
X121942542Y-116319100D01*
X121942543Y-116319100D01*
X148857398Y-116319100D01*
X148857414Y-116319101D01*
X148866543Y-116319101D01*
X149024652Y-116319101D01*
X149024657Y-116319101D01*
X149177385Y-116278177D01*
X149196413Y-116267190D01*
X149227500Y-116249242D01*
X149227504Y-116249239D01*
X149314316Y-116199120D01*
X149426120Y-116087316D01*
X149426120Y-116087314D01*
X149438382Y-116075053D01*
X149438386Y-116075048D01*
X153366048Y-112147386D01*
X153366053Y-112147382D01*
X153378314Y-112135120D01*
X153378316Y-112135120D01*
X153490120Y-112023316D01*
X153552021Y-111916100D01*
X153569177Y-111886385D01*
X153610101Y-111733657D01*
X153610101Y-111575543D01*
X153610101Y-111566415D01*
X153610100Y-111566397D01*
X153610100Y-97013675D01*
X153610101Y-97013662D01*
X153610101Y-96843547D01*
X153610101Y-96843543D01*
X153569177Y-96690816D01*
X153490120Y-96553884D01*
X152497871Y-95561635D01*
X152459307Y-95494840D01*
X152456064Y-95432970D01*
X152486100Y-95243331D01*
X152486100Y-95045869D01*
X152455210Y-94850837D01*
X152455209Y-94850836D01*
X152455209Y-94850831D01*
X152411478Y-94716245D01*
X152394191Y-94663039D01*
X152394189Y-94663036D01*
X152394189Y-94663034D01*
X152328508Y-94534131D01*
X152304544Y-94487099D01*
X152188479Y-94327348D01*
X152048852Y-94187721D01*
X151965776Y-94127363D01*
X151917238Y-94067423D01*
X151905172Y-93991244D01*
X151932812Y-93919239D01*
X151992752Y-93870701D01*
X152037423Y-93858674D01*
X152093083Y-93852691D01*
X152196747Y-93814027D01*
X152227929Y-93802397D01*
X152227933Y-93802395D01*
X152316551Y-93736055D01*
X152343146Y-93716146D01*
X152421051Y-93612079D01*
X152429395Y-93600933D01*
X152429397Y-93600929D01*
X152471294Y-93488596D01*
X152479691Y-93466083D01*
X152484367Y-93422596D01*
X152486099Y-93406485D01*
X152486099Y-93406482D01*
X152486100Y-93406473D01*
X152486099Y-91802728D01*
X152479691Y-91743117D01*
X152465188Y-91704233D01*
X152429397Y-91608270D01*
X152429395Y-91608266D01*
X152343147Y-91493055D01*
X152343144Y-91493052D01*
X152227933Y-91406804D01*
X152227929Y-91406802D01*
X152093082Y-91356508D01*
X152033476Y-91350100D01*
X150429736Y-91350100D01*
X150429711Y-91350102D01*
X150370121Y-91356508D01*
X150370115Y-91356509D01*
X150235270Y-91406802D01*
X150235266Y-91406804D01*
X150120055Y-91493052D01*
X150120052Y-91493055D01*
X150033804Y-91608266D01*
X150033802Y-91608270D01*
X149983508Y-91743117D01*
X149977100Y-91802714D01*
X149977100Y-93406463D01*
X149977102Y-93406488D01*
X149983508Y-93466078D01*
X149983509Y-93466084D01*
X150033802Y-93600929D01*
X150033804Y-93600933D01*
X150120052Y-93716144D01*
X150120055Y-93716147D01*
X150235266Y-93802395D01*
X150235270Y-93802397D01*
X150370114Y-93852690D01*
X150370117Y-93852691D01*
X150425767Y-93858674D01*
X150497707Y-93886485D01*
X150546103Y-93946539D01*
X150557987Y-94022746D01*
X150530176Y-94094686D01*
X150497422Y-94127363D01*
X150414352Y-94187717D01*
X150414346Y-94187722D01*
X150274722Y-94327346D01*
X150274720Y-94327349D01*
X150158657Y-94487096D01*
X150158654Y-94487102D01*
X150069010Y-94663034D01*
X150007991Y-94850831D01*
X150007990Y-94850831D01*
X149994195Y-94937936D01*
X149977100Y-95045869D01*
X149977100Y-95243331D01*
X149990828Y-95330011D01*
X150007990Y-95438368D01*
X150069010Y-95626165D01*
X150158654Y-95802097D01*
X150158657Y-95802103D01*
X150193651Y-95850268D01*
X150274721Y-95961852D01*
X150414348Y-96101479D01*
X150526484Y-96182950D01*
X150574096Y-96217542D01*
X150574097Y-96217543D01*
X150700835Y-96282120D01*
X150758152Y-96333730D01*
X150781986Y-96407083D01*
X150765950Y-96482525D01*
X150714340Y-96539842D01*
X150700836Y-96547639D01*
X150574362Y-96612082D01*
X150538610Y-96638056D01*
X151102191Y-97201637D01*
X151038607Y-97218675D01*
X150924593Y-97284501D01*
X150831501Y-97377593D01*
X150765675Y-97491607D01*
X150748637Y-97555190D01*
X150185057Y-96991610D01*
X150185056Y-96991610D01*
X150159083Y-97027360D01*
X150069472Y-97203228D01*
X150008478Y-97390948D01*
X150008477Y-97390948D01*
X149977600Y-97585912D01*
X149977600Y-97783287D01*
X150008477Y-97978251D01*
X150069472Y-98165971D01*
X150159084Y-98341840D01*
X150185057Y-98377588D01*
X150748637Y-97814008D01*
X150765675Y-97877593D01*
X150831501Y-97991607D01*
X150924593Y-98084699D01*
X151038607Y-98150525D01*
X151102190Y-98167562D01*
X150538610Y-98731142D01*
X150574359Y-98757115D01*
X150574359Y-98757116D01*
X150700835Y-98821559D01*
X150758152Y-98873168D01*
X150781986Y-98946521D01*
X150765950Y-99021964D01*
X150714341Y-99079281D01*
X150700836Y-99087078D01*
X150574102Y-99151653D01*
X150574096Y-99151657D01*
X150414349Y-99267720D01*
X150414346Y-99267722D01*
X150274722Y-99407346D01*
X150274720Y-99407349D01*
X150158657Y-99567096D01*
X150158654Y-99567102D01*
X150069010Y-99743034D01*
X150007991Y-99930831D01*
X150007990Y-99930831D01*
X150000023Y-99981138D01*
X149977100Y-100125869D01*
X149977100Y-100323331D01*
X149982949Y-100360260D01*
X150007990Y-100518368D01*
X150069010Y-100706165D01*
X150158654Y-100882097D01*
X150158657Y-100882103D01*
X150198897Y-100937488D01*
X150274721Y-101041852D01*
X150414348Y-101181479D01*
X150574099Y-101297544D01*
X150585869Y-101303541D01*
X150700286Y-101361841D01*
X150757603Y-101413450D01*
X150781436Y-101486803D01*
X150765399Y-101562246D01*
X150713790Y-101619563D01*
X150700286Y-101627359D01*
X150574102Y-101691654D01*
X150574096Y-101691657D01*
X150414349Y-101807720D01*
X150414346Y-101807722D01*
X150274722Y-101947346D01*
X150274720Y-101947349D01*
X150158657Y-102107096D01*
X150158654Y-102107102D01*
X150069010Y-102283034D01*
X150007991Y-102470831D01*
X150007990Y-102470831D01*
X149989491Y-102587636D01*
X149977100Y-102665869D01*
X149977100Y-102863331D01*
X149990828Y-102950011D01*
X150007990Y-103058368D01*
X150069010Y-103246165D01*
X150155478Y-103415864D01*
X150158656Y-103422101D01*
X150274721Y-103581852D01*
X150414348Y-103721479D01*
X150574099Y-103837544D01*
X150627156Y-103864578D01*
X150700286Y-103901841D01*
X150757603Y-103953450D01*
X150781436Y-104026803D01*
X150765399Y-104102246D01*
X150713790Y-104159563D01*
X150700286Y-104167359D01*
X150574102Y-104231654D01*
X150574096Y-104231657D01*
X150414349Y-104347720D01*
X150414346Y-104347722D01*
X150274722Y-104487346D01*
X150274720Y-104487349D01*
X150158657Y-104647096D01*
X150158654Y-104647102D01*
X150069010Y-104823034D01*
X150007991Y-105010831D01*
X150007990Y-105010831D01*
X149987396Y-105140858D01*
X149981867Y-105175776D01*
X149977100Y-105205872D01*
X149977100Y-105381147D01*
X149957138Y-105455647D01*
X149902600Y-105510185D01*
X149828100Y-105530147D01*
X149753600Y-105510185D01*
X149722741Y-105486506D01*
X146483535Y-102247300D01*
X146444971Y-102180505D01*
X146442760Y-102171024D01*
X146413337Y-102023103D01*
X146352994Y-101877421D01*
X146265389Y-101746311D01*
X146153889Y-101634811D01*
X146022779Y-101547206D01*
X146022778Y-101547205D01*
X146022776Y-101547204D01*
X145877098Y-101486863D01*
X145877094Y-101486862D01*
X145722442Y-101456100D01*
X145564758Y-101456100D01*
X145410105Y-101486862D01*
X145410101Y-101486863D01*
X145264423Y-101547204D01*
X145202373Y-101588665D01*
X145135865Y-101633105D01*
X145133307Y-101634814D01*
X145021814Y-101746307D01*
X144934204Y-101877423D01*
X144873863Y-102023101D01*
X144873862Y-102023105D01*
X144843100Y-102177757D01*
X144843100Y-102335442D01*
X144873862Y-102490094D01*
X144873863Y-102490098D01*
X144934204Y-102635776D01*
X144934205Y-102635778D01*
X144934206Y-102635779D01*
X145021811Y-102766889D01*
X145133311Y-102878389D01*
X145264421Y-102965994D01*
X145264422Y-102965994D01*
X145264423Y-102965995D01*
X145288319Y-102975893D01*
X145410103Y-103026337D01*
X145558010Y-103055757D01*
X145627183Y-103089870D01*
X145634300Y-103096535D01*
X149965328Y-107427563D01*
X150003892Y-107494358D01*
X150007135Y-107556230D01*
X150004939Y-107570098D01*
X149977100Y-107745869D01*
X149977100Y-107943331D01*
X149979485Y-107958389D01*
X150007990Y-108138368D01*
X150069010Y-108326165D01*
X150155478Y-108495864D01*
X150158656Y-108502101D01*
X150274721Y-108661852D01*
X150414348Y-108801479D01*
X150574099Y-108917544D01*
X150627156Y-108944578D01*
X150700286Y-108981841D01*
X150757603Y-109033450D01*
X150781436Y-109106803D01*
X150765399Y-109182246D01*
X150713790Y-109239563D01*
X150700286Y-109247359D01*
X150574102Y-109311654D01*
X150574096Y-109311657D01*
X150414349Y-109427720D01*
X150414346Y-109427722D01*
X150274722Y-109567346D01*
X150274720Y-109567349D01*
X150158657Y-109727096D01*
X150158654Y-109727102D01*
X150069010Y-109903034D01*
X150007991Y-110090831D01*
X150007990Y-110090831D01*
X150000377Y-110138901D01*
X149977100Y-110285869D01*
X149977100Y-110483331D01*
X149990828Y-110570011D01*
X150007990Y-110678368D01*
X150069010Y-110866165D01*
X150158654Y-111042097D01*
X150158657Y-111042103D01*
X150216688Y-111121976D01*
X150274721Y-111201852D01*
X150414348Y-111341479D01*
X150537316Y-111430820D01*
X150563035Y-111449506D01*
X150574099Y-111457544D01*
X150643881Y-111493100D01*
X150750034Y-111547189D01*
X150750036Y-111547189D01*
X150750039Y-111547191D01*
X150874406Y-111587600D01*
X150937831Y-111608208D01*
X150937831Y-111608209D01*
X150937836Y-111608209D01*
X150937837Y-111608210D01*
X151132869Y-111639100D01*
X151132873Y-111639100D01*
X151330327Y-111639100D01*
X151330331Y-111639100D01*
X151525363Y-111608210D01*
X151525364Y-111608209D01*
X151525368Y-111608209D01*
X151525368Y-111608208D01*
X151713161Y-111547191D01*
X151889101Y-111457544D01*
X152048852Y-111341479D01*
X152154741Y-111235590D01*
X152171728Y-111225782D01*
X152185600Y-111211911D01*
X152204548Y-111206833D01*
X152221536Y-111197026D01*
X152241152Y-111197026D01*
X152260100Y-111191949D01*
X152279048Y-111197026D01*
X152298664Y-111197026D01*
X152315651Y-111206833D01*
X152334600Y-111211911D01*
X152348471Y-111225782D01*
X152365459Y-111235590D01*
X152375266Y-111252577D01*
X152389138Y-111266449D01*
X152394215Y-111285397D01*
X152404023Y-111302385D01*
X152409100Y-111340949D01*
X152409100Y-111344147D01*
X152389138Y-111418647D01*
X152365459Y-111449506D01*
X148740506Y-115074459D01*
X148673711Y-115113023D01*
X148635147Y-115118100D01*
X142119053Y-115118100D01*
X142044553Y-115098138D01*
X141990015Y-115043600D01*
X141970053Y-114969100D01*
X141990015Y-114894600D01*
X142013694Y-114863741D01*
X142290288Y-114587147D01*
X143714048Y-113163385D01*
X143714053Y-113163382D01*
X143726314Y-113151120D01*
X143726316Y-113151120D01*
X143838120Y-113039316D01*
X143888239Y-112952504D01*
X143917177Y-112902385D01*
X143958100Y-112749658D01*
X143958100Y-112591543D01*
X143958100Y-88377675D01*
X143958101Y-88377662D01*
X143958101Y-88207547D01*
X143958101Y-88207543D01*
X143917177Y-88054816D01*
X143838120Y-87917884D01*
X143392694Y-87472458D01*
X142973740Y-87053504D01*
X142935176Y-86986709D01*
X142930099Y-86948145D01*
X142930099Y-85610736D01*
X142930099Y-85610728D01*
X142923691Y-85551117D01*
X142889103Y-85458381D01*
X142873397Y-85416270D01*
X142873394Y-85416266D01*
X142797881Y-85315393D01*
X142769215Y-85243790D01*
X142780191Y-85167447D01*
X142827868Y-85106820D01*
X142899471Y-85078154D01*
X142917161Y-85077100D01*
X148789594Y-85077100D01*
X148864094Y-85097062D01*
X148894953Y-85120741D01*
X148911438Y-85137226D01*
X148911441Y-85137228D01*
X149050729Y-85230298D01*
X149050733Y-85230300D01*
X149050737Y-85230303D01*
X149050738Y-85230303D01*
X149050741Y-85230305D01*
X149083297Y-85243790D01*
X149205518Y-85294416D01*
X149369833Y-85327100D01*
X149537367Y-85327100D01*
X149701682Y-85294416D01*
X149856463Y-85230303D01*
X149995762Y-85137226D01*
X150114226Y-85018762D01*
X150207303Y-84879463D01*
X150216841Y-84856435D01*
X150263792Y-84795245D01*
X150335049Y-84765728D01*
X150411517Y-84775794D01*
X150459859Y-84808094D01*
X152365459Y-86713694D01*
X152404023Y-86780489D01*
X152409100Y-86819053D01*
X152409100Y-88461251D01*
X152389138Y-88535751D01*
X152383989Y-88544031D01*
X152300206Y-88669419D01*
X152300205Y-88669422D01*
X152239863Y-88815101D01*
X152239862Y-88815105D01*
X152209100Y-88969757D01*
X152209100Y-89127442D01*
X152239862Y-89282094D01*
X152239863Y-89282098D01*
X152300204Y-89427776D01*
X152300205Y-89427778D01*
X152300206Y-89427779D01*
X152387811Y-89558889D01*
X152499311Y-89670389D01*
X152630421Y-89757994D01*
X152630422Y-89757994D01*
X152630423Y-89757995D01*
X152656905Y-89768964D01*
X152776103Y-89818337D01*
X152930758Y-89849100D01*
X153088442Y-89849100D01*
X153243097Y-89818337D01*
X153388779Y-89757994D01*
X153519889Y-89670389D01*
X153631389Y-89558889D01*
X153718994Y-89427779D01*
X153779337Y-89282097D01*
X153810100Y-89127442D01*
X153810100Y-88969758D01*
X153779337Y-88815103D01*
X153718994Y-88669421D01*
X153713824Y-88661684D01*
X153635211Y-88544031D01*
X153610419Y-88470996D01*
X153610100Y-88461251D01*
X153610100Y-86599675D01*
X153610101Y-86599662D01*
X153610101Y-86429547D01*
X153610101Y-86429543D01*
X153569177Y-86276816D01*
X153490120Y-86139884D01*
X150704614Y-83354379D01*
X150704613Y-83354377D01*
X150584315Y-83234079D01*
X150497506Y-83183961D01*
X150497505Y-83183960D01*
X150447386Y-83155023D01*
X150294657Y-83114099D01*
X150136543Y-83114099D01*
X150127414Y-83114099D01*
X150127398Y-83114100D01*
X136841803Y-83114100D01*
X136841787Y-83114099D01*
X136832658Y-83114099D01*
X136674543Y-83114099D01*
X136521816Y-83155023D01*
X136384883Y-83234080D01*
X134454954Y-85164009D01*
X134388159Y-85202573D01*
X134311031Y-85202573D01*
X134303552Y-85200357D01*
X134275845Y-85191354D01*
X134212788Y-85181367D01*
X134065887Y-85158100D01*
X133853313Y-85158100D01*
X133706406Y-85181368D01*
X133643356Y-85191354D01*
X133481976Y-85243790D01*
X133441188Y-85257043D01*
X133441182Y-85257045D01*
X133441182Y-85257046D01*
X133251782Y-85353550D01*
X133251781Y-85353550D01*
X133079809Y-85478495D01*
X133079806Y-85478497D01*
X132929497Y-85628806D01*
X132929495Y-85628809D01*
X132810144Y-85793082D01*
X132750204Y-85841620D01*
X132674025Y-85853686D01*
X132602020Y-85826046D01*
X132569056Y-85793082D01*
X132506836Y-85707444D01*
X132449704Y-85628808D01*
X132299392Y-85478496D01*
X132127416Y-85353549D01*
X131938012Y-85257043D01*
X131735843Y-85191354D01*
X131525887Y-85158100D01*
X131313313Y-85158100D01*
X131166406Y-85181368D01*
X131103356Y-85191354D01*
X130941976Y-85243790D01*
X130901188Y-85257043D01*
X130901182Y-85257045D01*
X130901182Y-85257046D01*
X130711782Y-85353550D01*
X130711781Y-85353550D01*
X130539809Y-85478495D01*
X130539806Y-85478497D01*
X130389497Y-85628806D01*
X130389495Y-85628809D01*
X130270144Y-85793082D01*
X130210204Y-85841620D01*
X130134025Y-85853686D01*
X130062020Y-85826046D01*
X130029056Y-85793082D01*
X129966836Y-85707444D01*
X129909704Y-85628808D01*
X129759392Y-85478496D01*
X129587416Y-85353549D01*
X129398012Y-85257043D01*
X129195843Y-85191354D01*
X128985887Y-85158100D01*
X128773313Y-85158100D01*
X128626406Y-85181368D01*
X128563356Y-85191354D01*
X128401976Y-85243790D01*
X128361188Y-85257043D01*
X128361182Y-85257045D01*
X128361182Y-85257046D01*
X128171782Y-85353550D01*
X128171781Y-85353550D01*
X127999809Y-85478495D01*
X127999806Y-85478497D01*
X127849497Y-85628806D01*
X127849495Y-85628809D01*
X127730144Y-85793082D01*
X127670204Y-85841620D01*
X127594025Y-85853686D01*
X127522020Y-85826046D01*
X127489056Y-85793082D01*
X127426836Y-85707444D01*
X127369704Y-85628808D01*
X127219392Y-85478496D01*
X127047416Y-85353549D01*
X126858012Y-85257043D01*
X126655843Y-85191354D01*
X126445887Y-85158100D01*
X126233313Y-85158100D01*
X126086406Y-85181368D01*
X126023356Y-85191354D01*
X125861976Y-85243790D01*
X125821188Y-85257043D01*
X125821182Y-85257045D01*
X125821182Y-85257046D01*
X125631782Y-85353550D01*
X125631781Y-85353550D01*
X125459809Y-85478495D01*
X125459806Y-85478497D01*
X125309497Y-85628806D01*
X125309488Y-85628817D01*
X125189833Y-85793508D01*
X125129893Y-85842046D01*
X125053715Y-85854112D01*
X124981710Y-85826471D01*
X124948746Y-85793508D01*
X124829322Y-85629135D01*
X124829320Y-85629132D01*
X124679067Y-85478879D01*
X124679064Y-85478877D01*
X124507155Y-85353978D01*
X124317820Y-85257506D01*
X124115723Y-85191841D01*
X124115720Y-85191840D01*
X124049601Y-85181367D01*
X124049600Y-85181368D01*
X124049600Y-86075588D01*
X123992593Y-86042675D01*
X123865426Y-86008600D01*
X123733774Y-86008600D01*
X123606607Y-86042675D01*
X123549600Y-86075588D01*
X123549600Y-85181368D01*
X123549598Y-85181367D01*
X123483479Y-85191840D01*
X123483476Y-85191841D01*
X123281379Y-85257506D01*
X123092044Y-85353978D01*
X123092043Y-85353978D01*
X122920135Y-85478877D01*
X122920132Y-85478879D01*
X122769879Y-85629132D01*
X122769870Y-85629143D01*
X122650452Y-85793508D01*
X122590513Y-85842046D01*
X122514334Y-85854112D01*
X122442329Y-85826471D01*
X122409365Y-85793508D01*
X122355404Y-85719237D01*
X122289704Y-85628808D01*
X122139392Y-85478496D01*
X121967416Y-85353549D01*
X121778012Y-85257043D01*
X121575843Y-85191354D01*
X121365887Y-85158100D01*
X121153313Y-85158100D01*
X121006406Y-85181368D01*
X120943356Y-85191354D01*
X120781976Y-85243790D01*
X120741188Y-85257043D01*
X120741182Y-85257045D01*
X120741182Y-85257046D01*
X120551782Y-85353550D01*
X120551781Y-85353550D01*
X120379809Y-85478495D01*
X120379806Y-85478497D01*
X120229497Y-85628806D01*
X120229495Y-85628809D01*
X120104550Y-85800781D01*
X120104550Y-85800782D01*
X120008046Y-85990182D01*
X120008041Y-85990194D01*
X119959404Y-86139884D01*
X119942354Y-86192357D01*
X119909100Y-86402313D01*
X119909100Y-86614887D01*
X119942354Y-86824843D01*
X119945023Y-86833057D01*
X119949061Y-86910076D01*
X119914046Y-86978798D01*
X119849362Y-87020807D01*
X119803316Y-87028100D01*
X112916169Y-87028100D01*
X112841669Y-87008138D01*
X112810810Y-86984459D01*
X111545589Y-85719237D01*
X111507025Y-85652442D01*
X111507025Y-85575314D01*
X111545589Y-85508519D01*
X111612384Y-85469955D01*
X111616587Y-85468894D01*
X111660941Y-85458381D01*
X111812387Y-85382322D01*
X111812390Y-85382320D01*
X111889775Y-85319282D01*
X111906259Y-85302796D01*
X111216831Y-84613369D01*
X111040053Y-84436591D01*
X111747161Y-84436591D01*
X112259812Y-84949242D01*
X112276298Y-84932758D01*
X112339336Y-84855375D01*
X112415397Y-84703926D01*
X112454484Y-84539007D01*
X112454484Y-84369531D01*
X112415397Y-84204612D01*
X112339338Y-84053167D01*
X112339336Y-84053164D01*
X112276298Y-83975779D01*
X112242136Y-83941617D01*
X111747161Y-84436591D01*
X111040053Y-84436591D01*
X110527402Y-83923940D01*
X110510915Y-83940428D01*
X110510911Y-83940433D01*
X110447879Y-84017807D01*
X110371817Y-84169259D01*
X110361304Y-84213616D01*
X110324698Y-84281504D01*
X110259052Y-84321993D01*
X110181957Y-84324235D01*
X110114069Y-84287629D01*
X110110962Y-84284611D01*
X109563813Y-83737462D01*
X109396736Y-83570385D01*
X110880955Y-83570385D01*
X110880955Y-83570386D01*
X111393606Y-84083037D01*
X111888582Y-83588062D01*
X111854421Y-83553902D01*
X111854417Y-83553900D01*
X111777037Y-83490863D01*
X111625587Y-83414802D01*
X111460669Y-83375716D01*
X111291192Y-83375716D01*
X111126273Y-83414802D01*
X110974828Y-83490861D01*
X110974820Y-83490866D01*
X110897450Y-83553892D01*
X110897429Y-83553911D01*
X110880955Y-83570385D01*
X109396736Y-83570385D01*
X103826654Y-78000302D01*
X103788090Y-77933507D01*
X103787029Y-77929302D01*
X103779873Y-77899108D01*
X103779872Y-77899106D01*
X103779872Y-77899105D01*
X103703757Y-77747548D01*
X103640675Y-77670109D01*
X103254107Y-77283543D01*
X103176668Y-77220459D01*
X103025114Y-77144345D01*
X103025112Y-77144344D01*
X103025111Y-77144344D01*
X102860085Y-77105232D01*
X102860083Y-77105232D01*
X102860079Y-77105231D01*
X102854331Y-77104559D01*
X102782653Y-77076082D01*
X102734817Y-77015580D01*
X102723639Y-76973859D01*
X102722968Y-76968116D01*
X102722968Y-76968115D01*
X102683856Y-76803089D01*
X102607741Y-76651532D01*
X102544659Y-76574093D01*
X102158091Y-76187527D01*
X102080652Y-76124443D01*
X102080650Y-76124442D01*
X101929098Y-76048329D01*
X101929096Y-76048328D01*
X101929095Y-76048328D01*
X101764069Y-76009216D01*
X101594471Y-76009216D01*
X101594470Y-76009216D01*
X101429441Y-76048329D01*
X101277888Y-76124442D01*
X101200447Y-76187526D01*
X101175515Y-76212459D01*
X101108720Y-76251023D01*
X101070156Y-76256100D01*
X96851099Y-76256100D01*
X96776599Y-76236138D01*
X96722061Y-76181600D01*
X96702099Y-76107100D01*
X96702099Y-75953736D01*
X96702099Y-75953728D01*
X96695691Y-75894117D01*
X96681188Y-75855233D01*
X96645397Y-75759270D01*
X96645395Y-75759266D01*
X96559147Y-75644055D01*
X96559144Y-75644052D01*
X96443933Y-75557804D01*
X96443929Y-75557802D01*
X96309082Y-75507508D01*
X96249476Y-75501100D01*
X94453736Y-75501100D01*
X94453711Y-75501102D01*
X94394121Y-75507508D01*
X94394115Y-75507509D01*
X94259270Y-75557802D01*
X94259266Y-75557804D01*
X94144055Y-75644052D01*
X94144052Y-75644055D01*
X94057804Y-75759266D01*
X94057802Y-75759270D01*
X94007508Y-75894117D01*
X94001100Y-75953714D01*
X93312100Y-75953714D01*
X93312100Y-67969846D01*
X93312242Y-67963347D01*
X93315795Y-67881983D01*
X96091100Y-67881983D01*
X96091100Y-68118016D01*
X96121905Y-68352006D01*
X96182995Y-68579996D01*
X96273319Y-68798056D01*
X96376063Y-68976013D01*
X96391327Y-69002450D01*
X96535008Y-69189699D01*
X96701901Y-69356592D01*
X96889150Y-69500273D01*
X96987805Y-69557231D01*
X97093543Y-69618280D01*
X97093546Y-69618281D01*
X97093551Y-69618284D01*
X97311607Y-69708606D01*
X97539586Y-69769693D01*
X97539592Y-69769693D01*
X97539593Y-69769694D01*
X97603203Y-69778068D01*
X97773589Y-69800500D01*
X98009611Y-69800500D01*
X98243614Y-69769693D01*
X98471593Y-69708606D01*
X98689649Y-69618284D01*
X98894050Y-69500273D01*
X99081299Y-69356592D01*
X99248192Y-69189699D01*
X99391873Y-69002450D01*
X99509884Y-68798049D01*
X99600206Y-68579993D01*
X99661293Y-68352014D01*
X99692100Y-68118011D01*
X99692100Y-67881989D01*
X99692099Y-67881983D01*
X147907100Y-67881983D01*
X147907100Y-68118016D01*
X147937905Y-68352006D01*
X147998995Y-68579996D01*
X148089319Y-68798056D01*
X148192063Y-68976013D01*
X148207327Y-69002450D01*
X148351008Y-69189699D01*
X148517901Y-69356592D01*
X148705150Y-69500273D01*
X148803805Y-69557231D01*
X148909543Y-69618280D01*
X148909546Y-69618281D01*
X148909551Y-69618284D01*
X149127607Y-69708606D01*
X149355586Y-69769693D01*
X149355592Y-69769693D01*
X149355593Y-69769694D01*
X149419203Y-69778068D01*
X149589589Y-69800500D01*
X149825611Y-69800500D01*
X150059614Y-69769693D01*
X150287593Y-69708606D01*
X150505649Y-69618284D01*
X150710050Y-69500273D01*
X150897299Y-69356592D01*
X151064192Y-69189699D01*
X151207873Y-69002450D01*
X151325884Y-68798049D01*
X151416206Y-68579993D01*
X151477293Y-68352014D01*
X151508100Y-68118011D01*
X151508100Y-67881989D01*
X151477293Y-67647986D01*
X151416206Y-67420007D01*
X151325884Y-67201951D01*
X151325881Y-67201946D01*
X151325880Y-67201943D01*
X151264831Y-67096205D01*
X151207873Y-66997550D01*
X151064192Y-66810301D01*
X150897299Y-66643408D01*
X150710050Y-66499727D01*
X150683613Y-66484463D01*
X150505656Y-66381719D01*
X150287596Y-66291395D01*
X150287594Y-66291394D01*
X150287593Y-66291394D01*
X150059614Y-66230307D01*
X150059612Y-66230306D01*
X150059606Y-66230305D01*
X149825616Y-66199500D01*
X149825611Y-66199500D01*
X149589589Y-66199500D01*
X149589583Y-66199500D01*
X149355593Y-66230305D01*
X149127603Y-66291395D01*
X148909543Y-66381719D01*
X148705151Y-66499726D01*
X148705150Y-66499727D01*
X148517901Y-66643408D01*
X148517899Y-66643409D01*
X148517895Y-66643413D01*
X148351013Y-66810295D01*
X148207326Y-66997551D01*
X148089319Y-67201943D01*
X147998995Y-67420003D01*
X147937905Y-67647993D01*
X147907100Y-67881983D01*
X99692099Y-67881983D01*
X99661293Y-67647986D01*
X99600206Y-67420007D01*
X99509884Y-67201951D01*
X99509881Y-67201946D01*
X99509880Y-67201943D01*
X99448831Y-67096205D01*
X99391873Y-66997550D01*
X99248192Y-66810301D01*
X99081299Y-66643408D01*
X98894050Y-66499727D01*
X98867613Y-66484463D01*
X98689656Y-66381719D01*
X98471596Y-66291395D01*
X98471594Y-66291394D01*
X98471593Y-66291394D01*
X98243614Y-66230307D01*
X98243612Y-66230306D01*
X98243606Y-66230305D01*
X98009616Y-66199500D01*
X98009611Y-66199500D01*
X97773589Y-66199500D01*
X97773583Y-66199500D01*
X97539593Y-66230305D01*
X97311603Y-66291395D01*
X97093543Y-66381719D01*
X96889151Y-66499726D01*
X96889150Y-66499727D01*
X96701901Y-66643408D01*
X96701899Y-66643409D01*
X96701895Y-66643413D01*
X96535013Y-66810295D01*
X96391326Y-66997551D01*
X96273319Y-67201943D01*
X96182995Y-67420003D01*
X96121905Y-67647993D01*
X96091100Y-67881983D01*
X93315795Y-67881983D01*
X93316291Y-67870612D01*
X93329242Y-67573969D01*
X93330375Y-67561020D01*
X93348940Y-67420007D01*
X93380825Y-67177817D01*
X93383077Y-67165044D01*
X93466738Y-66787672D01*
X93470093Y-66775151D01*
X93586323Y-66406517D01*
X93590768Y-66394308D01*
X93738671Y-66037236D01*
X93744158Y-66025465D01*
X93922645Y-65682596D01*
X93929125Y-65671373D01*
X94136808Y-65345376D01*
X94144239Y-65334763D01*
X94379555Y-65028093D01*
X94387879Y-65018174D01*
X94649012Y-64733196D01*
X94658200Y-64724009D01*
X94943174Y-64462879D01*
X94953093Y-64454555D01*
X95259763Y-64219239D01*
X95270376Y-64211808D01*
X95596373Y-64004125D01*
X95607596Y-63997645D01*
X95950465Y-63819158D01*
X95962236Y-63813671D01*
X96319308Y-63665768D01*
X96331517Y-63661323D01*
X96700151Y-63545093D01*
X96712672Y-63541738D01*
X97090044Y-63458077D01*
X97102817Y-63455825D01*
X97486023Y-63405374D01*
X97498963Y-63404242D01*
X97888348Y-63387242D01*
X97894847Y-63387100D01*
X97957492Y-63387100D01*
X149641708Y-63387100D01*
X149704353Y-63387100D01*
X149710852Y-63387242D01*
G37*
%TD.AperFunction*%
%TD*%
%TA.AperFunction,NonConductor*%
G36*
X108993100Y-95926562D02*
G01*
X109047638Y-95981100D01*
X109067600Y-96055600D01*
X109067600Y-97284100D01*
X109047638Y-97358600D01*
X108993100Y-97413138D01*
X108918600Y-97433100D01*
X108601100Y-97433100D01*
X108526600Y-97413138D01*
X108472062Y-97358600D01*
X108452100Y-97284100D01*
X108452100Y-96447272D01*
X108452099Y-96447264D01*
X108449865Y-96436033D01*
X108443658Y-96404829D01*
X108411500Y-96356700D01*
X108363371Y-96324542D01*
X108363368Y-96324541D01*
X108320935Y-96316100D01*
X108320932Y-96316100D01*
X107782268Y-96316100D01*
X107782264Y-96316100D01*
X107739831Y-96324541D01*
X107739829Y-96324541D01*
X107739829Y-96324542D01*
X107691700Y-96356700D01*
X107678630Y-96376262D01*
X107659541Y-96404831D01*
X107651100Y-96447264D01*
X107651100Y-97284100D01*
X107631138Y-97358600D01*
X107576600Y-97413138D01*
X107502100Y-97433100D01*
X107438600Y-97433100D01*
X107364100Y-97413138D01*
X107309562Y-97358600D01*
X107289600Y-97284100D01*
X107289600Y-96055600D01*
X107309562Y-95981100D01*
X107364100Y-95926562D01*
X107438600Y-95906600D01*
X108918600Y-95906600D01*
X108993100Y-95926562D01*
G37*
%TD.AperFunction*%
%TA.AperFunction,Conductor*%
%TO.N,+3.3V*%
G36*
X105314299Y-96180285D02*
G01*
X105360054Y-96233089D01*
X105369998Y-96302247D01*
X105362617Y-96330084D01*
X105362119Y-96331346D01*
X105362117Y-96331352D01*
X105351600Y-96418932D01*
X105351600Y-96841600D01*
X106027600Y-96841600D01*
X106094639Y-96861285D01*
X106140394Y-96914089D01*
X106151600Y-96965600D01*
X106151600Y-97091600D01*
X106277600Y-97091600D01*
X106344639Y-97111285D01*
X106390394Y-97164089D01*
X106401600Y-97215600D01*
X106401600Y-98266599D01*
X106449260Y-98266599D01*
X106536848Y-98256082D01*
X106676222Y-98201120D01*
X106795596Y-98110596D01*
X106888810Y-97987675D01*
X106945002Y-97946152D01*
X106987614Y-97938600D01*
X111099600Y-97938600D01*
X111588469Y-97254182D01*
X112168601Y-97254182D01*
X112175008Y-97324702D01*
X112175009Y-97324707D01*
X112225581Y-97486996D01*
X112313527Y-97632477D01*
X112433722Y-97752672D01*
X112579204Y-97840619D01*
X112579203Y-97840619D01*
X112741494Y-97891190D01*
X112741493Y-97891190D01*
X112812008Y-97897598D01*
X112812026Y-97897599D01*
X112818599Y-97897598D01*
X112818600Y-97897598D01*
X112818600Y-97172600D01*
X112168601Y-97172600D01*
X112168601Y-97254182D01*
X111588469Y-97254182D01*
X111987438Y-96695625D01*
X112042420Y-96652517D01*
X112111983Y-96645976D01*
X112163443Y-96672600D01*
X112944600Y-96672600D01*
X113011639Y-96692285D01*
X113057394Y-96745089D01*
X113068600Y-96796600D01*
X113068600Y-96922600D01*
X113194600Y-96922600D01*
X113261639Y-96942285D01*
X113307394Y-96995089D01*
X113318600Y-97046600D01*
X113318600Y-97897599D01*
X113325181Y-97897599D01*
X113395702Y-97891191D01*
X113395707Y-97891190D01*
X113557998Y-97840618D01*
X113705449Y-97751480D01*
X113773004Y-97733643D01*
X113839478Y-97755160D01*
X113883766Y-97809200D01*
X113893600Y-97857596D01*
X113893600Y-98192600D01*
X115114288Y-98192600D01*
X115181327Y-98212285D01*
X115227082Y-98265089D01*
X115237026Y-98334247D01*
X115208001Y-98397803D01*
X115201969Y-98404281D01*
X115107528Y-98498721D01*
X115107527Y-98498722D01*
X115019580Y-98644204D01*
X114969009Y-98806493D01*
X114962600Y-98877027D01*
X114962600Y-98958600D01*
X115738600Y-98958600D01*
X115805639Y-98978285D01*
X115851394Y-99031089D01*
X115862600Y-99082600D01*
X115862600Y-99208600D01*
X115988600Y-99208600D01*
X116055639Y-99228285D01*
X116101394Y-99281089D01*
X116112600Y-99332600D01*
X116112600Y-100183599D01*
X116119181Y-100183599D01*
X116189702Y-100177191D01*
X116189707Y-100177190D01*
X116351998Y-100126618D01*
X116499449Y-100037480D01*
X116567004Y-100019643D01*
X116633478Y-100041160D01*
X116677766Y-100095200D01*
X116687600Y-100143596D01*
X116687600Y-102002600D01*
X116687599Y-102002600D01*
X116784252Y-102075089D01*
X116944522Y-102195291D01*
X116986342Y-102251261D01*
X116991263Y-102320957D01*
X116985476Y-102339978D01*
X116969336Y-102380906D01*
X116969334Y-102380914D01*
X116960124Y-102457600D01*
X117228003Y-102457600D01*
X117295042Y-102477285D01*
X117315684Y-102493919D01*
X117334884Y-102513119D01*
X117471815Y-102592177D01*
X117474752Y-102592964D01*
X117928600Y-102933350D01*
X117928600Y-103407599D01*
X117935892Y-103407599D01*
X118025286Y-103396865D01*
X118167537Y-103340769D01*
X118167539Y-103340768D01*
X118244328Y-103282537D01*
X118309639Y-103257713D01*
X118378003Y-103272140D01*
X118393649Y-103282137D01*
X118719600Y-103526600D01*
X121259600Y-103526600D01*
X121361817Y-103458454D01*
X121428516Y-103437647D01*
X121495877Y-103456202D01*
X121542513Y-103508229D01*
X121549325Y-103538325D01*
X121554600Y-103543600D01*
X123504599Y-103543600D01*
X123504599Y-103520292D01*
X123504598Y-103520277D01*
X123494455Y-103420992D01*
X123441147Y-103260118D01*
X123441145Y-103260113D01*
X123408814Y-103207697D01*
X123390374Y-103140305D01*
X123407988Y-103084182D01*
X125110601Y-103084182D01*
X125117008Y-103154702D01*
X125117009Y-103154707D01*
X125167581Y-103316996D01*
X125255527Y-103462477D01*
X125375722Y-103582672D01*
X125521204Y-103670619D01*
X125521203Y-103670619D01*
X125683494Y-103721190D01*
X125683492Y-103721190D01*
X125754018Y-103727599D01*
X125835599Y-103727598D01*
X125835600Y-103727598D01*
X125835600Y-103077600D01*
X125110601Y-103077600D01*
X125110601Y-103084182D01*
X123407988Y-103084182D01*
X123411296Y-103073641D01*
X123464938Y-103028871D01*
X123514353Y-103018600D01*
X123545600Y-103018600D01*
X125038361Y-102023426D01*
X125056352Y-102017813D01*
X125072209Y-102007623D01*
X125103385Y-102003140D01*
X125105060Y-102002618D01*
X125107144Y-102002600D01*
X125150603Y-102002600D01*
X125217642Y-102022285D01*
X125263397Y-102075089D01*
X125273341Y-102144247D01*
X125256720Y-102190750D01*
X125167580Y-102338204D01*
X125117009Y-102500493D01*
X125110600Y-102571027D01*
X125110600Y-102577600D01*
X125961600Y-102577600D01*
X126028639Y-102597285D01*
X126074394Y-102650089D01*
X126085600Y-102701600D01*
X126085600Y-102827600D01*
X126211600Y-102827600D01*
X126278639Y-102847285D01*
X126324394Y-102900089D01*
X126335600Y-102951600D01*
X126335600Y-103727599D01*
X126417181Y-103727599D01*
X126487702Y-103721191D01*
X126487707Y-103721190D01*
X126649996Y-103670618D01*
X126795477Y-103582672D01*
X126915671Y-103462478D01*
X126915674Y-103462474D01*
X126942513Y-103418078D01*
X126994040Y-103370890D01*
X127062900Y-103359051D01*
X127127228Y-103386319D01*
X127136311Y-103394546D01*
X128072684Y-104330919D01*
X128106169Y-104392242D01*
X128101185Y-104461934D01*
X128059313Y-104517867D01*
X127993849Y-104542284D01*
X127985003Y-104542600D01*
X123530390Y-104542600D01*
X123463351Y-104522915D01*
X123417596Y-104470111D01*
X123407652Y-104400953D01*
X123424852Y-104353503D01*
X123441142Y-104327092D01*
X123441147Y-104327081D01*
X123494455Y-104166206D01*
X123504599Y-104066922D01*
X123504600Y-104066909D01*
X123504600Y-104043600D01*
X121554601Y-104043600D01*
X121554601Y-104066922D01*
X121564744Y-104166207D01*
X121618052Y-104327081D01*
X121618057Y-104327092D01*
X121634348Y-104353503D01*
X121652789Y-104420895D01*
X121631867Y-104487559D01*
X121578225Y-104532329D01*
X121528810Y-104542600D01*
X116148353Y-104542600D01*
X116081314Y-104522915D01*
X116035559Y-104470111D01*
X116025615Y-104400953D01*
X116042814Y-104353503D01*
X116075145Y-104301086D01*
X116075147Y-104301081D01*
X116128455Y-104140206D01*
X116138599Y-104040922D01*
X116138600Y-104040909D01*
X116138600Y-104017600D01*
X112156601Y-104017600D01*
X112156601Y-104040922D01*
X112166744Y-104140207D01*
X112220052Y-104301081D01*
X112220054Y-104301086D01*
X112252386Y-104353503D01*
X112270826Y-104420895D01*
X112249904Y-104487559D01*
X112196262Y-104532329D01*
X112146847Y-104542600D01*
X103603600Y-104542600D01*
X103536561Y-104522915D01*
X103490806Y-104470111D01*
X103479600Y-104418600D01*
X103479600Y-103494277D01*
X112156600Y-103494277D01*
X112156600Y-103517600D01*
X112881600Y-103517600D01*
X112881600Y-102817600D01*
X113381600Y-102817600D01*
X113381600Y-103517600D01*
X114913600Y-103517600D01*
X115413600Y-103517600D01*
X116138599Y-103517600D01*
X116138599Y-103494292D01*
X116138598Y-103494277D01*
X116128455Y-103394992D01*
X116075147Y-103234118D01*
X116075142Y-103234107D01*
X115986175Y-103089871D01*
X115986172Y-103089867D01*
X115866332Y-102970027D01*
X115866328Y-102970024D01*
X115765124Y-102907600D01*
X116960126Y-102907600D01*
X116969334Y-102984285D01*
X117025430Y-103126537D01*
X117025431Y-103126538D01*
X117117823Y-103248376D01*
X117239661Y-103340768D01*
X117239662Y-103340769D01*
X117381910Y-103396864D01*
X117381914Y-103396865D01*
X117471296Y-103407599D01*
X117471305Y-103407600D01*
X117478599Y-103407599D01*
X117478600Y-103407598D01*
X117478600Y-102907600D01*
X116960126Y-102907600D01*
X115765124Y-102907600D01*
X115722092Y-102881057D01*
X115722081Y-102881052D01*
X115561206Y-102827744D01*
X115461922Y-102817600D01*
X115413600Y-102817600D01*
X115413600Y-103517600D01*
X114913600Y-103517600D01*
X114913600Y-102817600D01*
X114913599Y-102817599D01*
X114865293Y-102817600D01*
X114865275Y-102817601D01*
X114765992Y-102827744D01*
X114605118Y-102881052D01*
X114605107Y-102881057D01*
X114460871Y-102970024D01*
X114460867Y-102970027D01*
X114341027Y-103089867D01*
X114341024Y-103089871D01*
X114253138Y-103232356D01*
X114201190Y-103279081D01*
X114132228Y-103290302D01*
X114068146Y-103262459D01*
X114042062Y-103232356D01*
X113954175Y-103089871D01*
X113954172Y-103089867D01*
X113834332Y-102970027D01*
X113834328Y-102970024D01*
X113690092Y-102881057D01*
X113690081Y-102881052D01*
X113529206Y-102827744D01*
X113429922Y-102817600D01*
X113381600Y-102817600D01*
X112881600Y-102817600D01*
X112881599Y-102817599D01*
X112833293Y-102817600D01*
X112833275Y-102817601D01*
X112733992Y-102827744D01*
X112573118Y-102881052D01*
X112573107Y-102881057D01*
X112428871Y-102970024D01*
X112428867Y-102970027D01*
X112309027Y-103089867D01*
X112309024Y-103089871D01*
X112220057Y-103234107D01*
X112220052Y-103234118D01*
X112166744Y-103394993D01*
X112156600Y-103494277D01*
X103479600Y-103494277D01*
X103479600Y-99540182D01*
X114962601Y-99540182D01*
X114969008Y-99610702D01*
X114969009Y-99610707D01*
X115019581Y-99772996D01*
X115107527Y-99918477D01*
X115227722Y-100038672D01*
X115373204Y-100126619D01*
X115373203Y-100126619D01*
X115535494Y-100177190D01*
X115535493Y-100177190D01*
X115606008Y-100183598D01*
X115606026Y-100183599D01*
X115612599Y-100183598D01*
X115612600Y-100183598D01*
X115612600Y-99458600D01*
X114962601Y-99458600D01*
X114962601Y-99540182D01*
X103479600Y-99540182D01*
X103479600Y-98727961D01*
X103496600Y-98670066D01*
X103496600Y-98659599D01*
X103996600Y-98659599D01*
X104019908Y-98659599D01*
X104019922Y-98659598D01*
X104119207Y-98649455D01*
X104280081Y-98596147D01*
X104280092Y-98596142D01*
X104424328Y-98507175D01*
X104424332Y-98507172D01*
X104544172Y-98387332D01*
X104544175Y-98387328D01*
X104633142Y-98243092D01*
X104633147Y-98243081D01*
X104686455Y-98082206D01*
X104696599Y-97982922D01*
X104696600Y-97982909D01*
X104696600Y-97934600D01*
X103996600Y-97934600D01*
X103996600Y-98659599D01*
X103496600Y-98659599D01*
X103496600Y-97764259D01*
X105351601Y-97764259D01*
X105362117Y-97851848D01*
X105417079Y-97991222D01*
X105507603Y-98110596D01*
X105626977Y-98201120D01*
X105766352Y-98256082D01*
X105853931Y-98266599D01*
X105901599Y-98266598D01*
X105901600Y-98266598D01*
X105901600Y-97341600D01*
X105351601Y-97341600D01*
X105351601Y-97764259D01*
X103496600Y-97764259D01*
X103496600Y-97434600D01*
X103996600Y-97434600D01*
X104696599Y-97434600D01*
X104696599Y-97386292D01*
X104696598Y-97386274D01*
X104688075Y-97302839D01*
X104686455Y-97286992D01*
X104633147Y-97126118D01*
X104633142Y-97126107D01*
X104544175Y-96981871D01*
X104544172Y-96981867D01*
X104424332Y-96862027D01*
X104424328Y-96862024D01*
X104280092Y-96773057D01*
X104280081Y-96773052D01*
X104119206Y-96719744D01*
X104019922Y-96709600D01*
X103996600Y-96709600D01*
X103996600Y-97434600D01*
X103496600Y-97434600D01*
X103496600Y-96693539D01*
X103482434Y-96667596D01*
X103479600Y-96641238D01*
X103479600Y-96284600D01*
X103499285Y-96217561D01*
X103552089Y-96171806D01*
X103603600Y-96160600D01*
X105247260Y-96160600D01*
X105314299Y-96180285D01*
G37*
%TD.AperFunction*%
%TA.AperFunction,Conductor*%
G36*
X127804246Y-101232349D02*
G01*
X127810839Y-101232090D01*
X127835635Y-101246683D01*
X127861803Y-101258634D01*
X127865369Y-101264183D01*
X127871054Y-101267529D01*
X127877711Y-101280711D01*
X127904600Y-101307600D01*
X128755600Y-101307600D01*
X128822639Y-101327285D01*
X128868394Y-101380089D01*
X128879600Y-101431600D01*
X128879600Y-101557600D01*
X129005600Y-101557600D01*
X129072639Y-101577285D01*
X129118394Y-101630089D01*
X129129600Y-101681600D01*
X129129600Y-102457599D01*
X129211181Y-102457599D01*
X129281702Y-102451191D01*
X129281707Y-102451190D01*
X129443996Y-102400618D01*
X129589477Y-102312672D01*
X129589478Y-102312671D01*
X129683919Y-102218231D01*
X129745242Y-102184746D01*
X129814934Y-102189730D01*
X129870867Y-102231602D01*
X129895284Y-102297066D01*
X129895600Y-102305912D01*
X129895600Y-103954986D01*
X129875915Y-104022025D01*
X129823111Y-104067780D01*
X129753953Y-104077724D01*
X129724148Y-104069547D01*
X129621101Y-104026864D01*
X129621091Y-104026861D01*
X129465749Y-103995961D01*
X129403838Y-103963576D01*
X129402260Y-103962025D01*
X127331738Y-101891503D01*
X127298253Y-101830180D01*
X127299397Y-101814182D01*
X127904601Y-101814182D01*
X127911008Y-101884702D01*
X127911009Y-101884707D01*
X127961581Y-102046996D01*
X128049527Y-102192477D01*
X128169722Y-102312672D01*
X128315204Y-102400619D01*
X128315203Y-102400619D01*
X128477494Y-102451190D01*
X128477492Y-102451190D01*
X128548018Y-102457599D01*
X128629599Y-102457598D01*
X128629600Y-102457598D01*
X128629600Y-101807600D01*
X127904601Y-101807600D01*
X127904601Y-101814182D01*
X127299397Y-101814182D01*
X127303237Y-101760488D01*
X127322588Y-101726364D01*
X127683772Y-101274885D01*
X127707348Y-101258390D01*
X127729089Y-101239553D01*
X127735618Y-101238614D01*
X127741023Y-101234833D01*
X127769770Y-101233703D01*
X127798247Y-101229609D01*
X127804246Y-101232349D01*
G37*
%TD.AperFunction*%
%TD*%
%TA.AperFunction,Conductor*%
%TO.N,+5V*%
G36*
X105487219Y-90260681D02*
G01*
X105554098Y-90376520D01*
X105648680Y-90471102D01*
X105764519Y-90537981D01*
X105824657Y-90554094D01*
X105261883Y-91116868D01*
X105261883Y-91116869D01*
X105299167Y-91143958D01*
X105476162Y-91234142D01*
X105665077Y-91295524D01*
X105861279Y-91326600D01*
X106059921Y-91326600D01*
X106256120Y-91295524D01*
X106256123Y-91295524D01*
X106445037Y-91234142D01*
X106622025Y-91143962D01*
X106659316Y-91116868D01*
X106096542Y-90554094D01*
X106156681Y-90537981D01*
X106272520Y-90471102D01*
X106367102Y-90376520D01*
X106433981Y-90260681D01*
X106450095Y-90200542D01*
X107012868Y-90763315D01*
X107039964Y-90726022D01*
X107055115Y-90696288D01*
X107103089Y-90645491D01*
X107170910Y-90628696D01*
X107237045Y-90651233D01*
X107280497Y-90705948D01*
X107289600Y-90752582D01*
X107289600Y-91776237D01*
X107269915Y-91843276D01*
X107234383Y-91879411D01*
X106527600Y-92350599D01*
X106527600Y-93106315D01*
X106523375Y-93138408D01*
X106501099Y-93221543D01*
X106501099Y-93389646D01*
X106501100Y-93389659D01*
X106501100Y-93422600D01*
X106481415Y-93489639D01*
X106428611Y-93535394D01*
X106408411Y-93539788D01*
X106401600Y-93546600D01*
X106401600Y-94597600D01*
X106381915Y-94664639D01*
X106329111Y-94710394D01*
X106277600Y-94721600D01*
X106151600Y-94721600D01*
X106151600Y-94847600D01*
X106131915Y-94914639D01*
X106079111Y-94960394D01*
X106027600Y-94971600D01*
X105351601Y-94971600D01*
X105351601Y-95020600D01*
X105331916Y-95087639D01*
X105279112Y-95133394D01*
X105227601Y-95144600D01*
X104812492Y-95144600D01*
X104745453Y-95124915D01*
X104699698Y-95072111D01*
X104689134Y-95007998D01*
X104696599Y-94934924D01*
X104696600Y-94934909D01*
X104696600Y-94886600D01*
X103870600Y-94886600D01*
X103803561Y-94866915D01*
X103757806Y-94814111D01*
X103746600Y-94762600D01*
X103746600Y-94636600D01*
X103620600Y-94636600D01*
X103553561Y-94616915D01*
X103507806Y-94564111D01*
X103496600Y-94512600D01*
X103496600Y-94386600D01*
X103996600Y-94386600D01*
X104696599Y-94386600D01*
X104696599Y-94338292D01*
X104696598Y-94338277D01*
X104686455Y-94238992D01*
X104635173Y-94084231D01*
X104633146Y-94078116D01*
X104633142Y-94078107D01*
X104615146Y-94048932D01*
X105351600Y-94048932D01*
X105351600Y-94471600D01*
X105901600Y-94471600D01*
X105901600Y-93546600D01*
X105901599Y-93546599D01*
X105853939Y-93546600D01*
X105766351Y-93557117D01*
X105626977Y-93612079D01*
X105507603Y-93702603D01*
X105417079Y-93821977D01*
X105362117Y-93961351D01*
X105362117Y-93961352D01*
X105351600Y-94048932D01*
X104615146Y-94048932D01*
X104544175Y-93933871D01*
X104544172Y-93933867D01*
X104424332Y-93814027D01*
X104424328Y-93814024D01*
X104280092Y-93725057D01*
X104280081Y-93725052D01*
X104119206Y-93671744D01*
X104019922Y-93661600D01*
X103996600Y-93661600D01*
X103996600Y-94386600D01*
X103496600Y-94386600D01*
X103496600Y-93652572D01*
X103514090Y-93593007D01*
X104749600Y-92604600D01*
X104749600Y-90884966D01*
X104769285Y-90817927D01*
X104822089Y-90772172D01*
X104883329Y-90761348D01*
X104908331Y-90763315D01*
X105471104Y-90200541D01*
X105487219Y-90260681D01*
G37*
%TD.AperFunction*%
%TA.AperFunction,Conductor*%
G36*
X105246968Y-88814285D02*
G01*
X105292723Y-88867089D01*
X105302667Y-88936247D01*
X105273642Y-88999803D01*
X105262030Y-89010459D01*
X105261882Y-89012330D01*
X105824658Y-89575104D01*
X105764519Y-89591219D01*
X105648680Y-89658098D01*
X105554098Y-89752680D01*
X105487219Y-89868519D01*
X105471104Y-89928657D01*
X104908330Y-89365882D01*
X104883328Y-89367850D01*
X104814951Y-89353485D01*
X104765194Y-89304433D01*
X104749600Y-89244232D01*
X104749600Y-88918600D01*
X104769285Y-88851561D01*
X104822089Y-88805806D01*
X104873600Y-88794600D01*
X105179929Y-88794600D01*
X105246968Y-88814285D01*
G37*
%TD.AperFunction*%
%TA.AperFunction,Conductor*%
G36*
X107232639Y-88814285D02*
G01*
X107278394Y-88867089D01*
X107289600Y-88918600D01*
X107289600Y-89376618D01*
X107269915Y-89443657D01*
X107217111Y-89489412D01*
X107147953Y-89499356D01*
X107084397Y-89470331D01*
X107055116Y-89432914D01*
X107039960Y-89403170D01*
X107039960Y-89403169D01*
X107012868Y-89365883D01*
X106450094Y-89928657D01*
X106433981Y-89868519D01*
X106367102Y-89752680D01*
X106272520Y-89658098D01*
X106156681Y-89591219D01*
X106096542Y-89575104D01*
X106659316Y-89012331D01*
X106658862Y-89006571D01*
X106625717Y-88963586D01*
X106619739Y-88893972D01*
X106652346Y-88832178D01*
X106713186Y-88797822D01*
X106741269Y-88794600D01*
X107165600Y-88794600D01*
X107232639Y-88814285D01*
G37*
%TD.AperFunction*%
%TD*%
M02*
