%TF.GenerationSoftware,KiCad,Pcbnew,9.0.0*%
%TF.CreationDate,2026-02-03T13:11:21-06:00*%
%TF.ProjectId,FiltSure Prototype Three,46696c74-5375-4726-9520-50726f746f74,rev?*%
%TF.SameCoordinates,Original*%
%TF.FileFunction,Copper,L1,Top*%
%TF.FilePolarity,Positive*%
%FSLAX46Y46*%
G04 Gerber Fmt 4.6, Leading zero omitted, Abs format (unit mm)*
G04 Created by KiCad (PCBNEW 9.0.0) date 2026-02-03 13:11:21*
%MOMM*%
%LPD*%
G01*
G04 APERTURE LIST*
G04 Aperture macros list*
%AMRoundRect*
0 Rectangle with rounded corners*
0 $1 Rounding radius*
0 $2 $3 $4 $5 $6 $7 $8 $9 X,Y pos of 4 corners*
0 Add a 4 corners polygon primitive as box body*
4,1,4,$2,$3,$4,$5,$6,$7,$8,$9,$2,$3,0*
0 Add four circle primitives for the rounded corners*
1,1,$1+$1,$2,$3*
1,1,$1+$1,$4,$5*
1,1,$1+$1,$6,$7*
1,1,$1+$1,$8,$9*
0 Add four rect primitives between the rounded corners*
20,1,$1+$1,$2,$3,$4,$5,0*
20,1,$1+$1,$4,$5,$6,$7,0*
20,1,$1+$1,$6,$7,$8,$9,0*
20,1,$1+$1,$8,$9,$2,$3,0*%
G04 Aperture macros list end*
%TA.AperFunction,SMDPad,CuDef*%
%ADD10R,0.670000X0.300000*%
%TD*%
%TA.AperFunction,SMDPad,CuDef*%
%ADD11R,2.800000X0.850000*%
%TD*%
%TA.AperFunction,SMDPad,CuDef*%
%ADD12RoundRect,0.225000X-0.250000X0.225000X-0.250000X-0.225000X0.250000X-0.225000X0.250000X0.225000X0*%
%TD*%
%TA.AperFunction,SMDPad,CuDef*%
%ADD13RoundRect,0.225000X0.250000X-0.225000X0.250000X0.225000X-0.250000X0.225000X-0.250000X-0.225000X0*%
%TD*%
%TA.AperFunction,ComponentPad*%
%ADD14R,1.700000X1.700000*%
%TD*%
%TA.AperFunction,ComponentPad*%
%ADD15O,1.700000X1.700000*%
%TD*%
%TA.AperFunction,ComponentPad*%
%ADD16R,1.524000X1.524000*%
%TD*%
%TA.AperFunction,ComponentPad*%
%ADD17C,1.524000*%
%TD*%
%TA.AperFunction,ComponentPad*%
%ADD18C,1.508000*%
%TD*%
%TA.AperFunction,ComponentPad*%
%ADD19R,1.508000X1.508000*%
%TD*%
%TA.AperFunction,ViaPad*%
%ADD20C,1.000000*%
%TD*%
%TA.AperFunction,ViaPad*%
%ADD21C,0.700000*%
%TD*%
%TA.AperFunction,ViaPad*%
%ADD22C,0.600000*%
%TD*%
%TA.AperFunction,Conductor*%
%ADD23C,0.500000*%
%TD*%
%TA.AperFunction,Conductor*%
%ADD24C,0.200000*%
%TD*%
G04 APERTURE END LIST*
D10*
%TO.P,U1,1,FB*%
%TO.N,Net-(U1-FB)*%
X102673600Y-83444600D03*
%TO.P,U1,2,EN*%
%TO.N,VCC*%
X102673600Y-82944603D03*
%TO.P,U1,3,VIN*%
X102673600Y-82444600D03*
%TO.P,U1,4,GND*%
%TO.N,GND*%
X101193600Y-82444600D03*
%TO.P,U1,5,SW*%
%TO.N,Net-(U1-SW)*%
X101193600Y-82944603D03*
%TO.P,U1,6,VOUT*%
%TO.N,+5V*%
X101193600Y-83444600D03*
%TD*%
D11*
%TO.P,L1,1,1*%
%TO.N,Net-(U1-SW)*%
X99669600Y-80825600D03*
%TO.P,L1,2,2*%
%TO.N,VCC*%
X99669600Y-78475600D03*
%TD*%
D12*
%TO.P,R1,1*%
%TO.N,Net-(U1-FB)*%
X104749600Y-83701600D03*
%TO.P,R1,2*%
%TO.N,+5V*%
X104749600Y-85251600D03*
%TD*%
D13*
%TO.P,C1,1*%
%TO.N,VCC*%
X99669600Y-75986600D03*
%TO.P,C1,2*%
%TO.N,GND*%
X99669600Y-74436600D03*
%TD*%
D14*
%TO.P,J1,1,Pin_1*%
%TO.N,VCC*%
X95351600Y-76851600D03*
D15*
%TO.P,J1,2,Pin_2*%
%TO.N,GND*%
X95351600Y-79391600D03*
%TD*%
D12*
%TO.P,C3,1*%
%TO.N,+5V*%
X101701600Y-85212600D03*
%TO.P,C3,2*%
%TO.N,GND*%
X101701600Y-86762600D03*
%TD*%
D14*
%TO.P,J2,1,Pin_1*%
%TO.N,GND*%
X140060600Y-120544600D03*
D15*
%TO.P,J2,2,Pin_2*%
%TO.N,Net-(J2-Pin_2)*%
X137520600Y-120544600D03*
%TD*%
D12*
%TO.P,R2,1*%
%TO.N,GND*%
X104749600Y-80399600D03*
%TO.P,R2,2*%
%TO.N,Net-(U1-FB)*%
X104749600Y-81949600D03*
%TD*%
D16*
%TO.P,U2,J1_1,ESP_3V3*%
%TO.N,unconnected-(U2-ESP_3V3-PadJ1_1)*%
X138980600Y-90064600D03*
D17*
%TO.P,U2,J1_2,CHIP_PU*%
%TO.N,/Reset*%
X136440600Y-90064600D03*
%TO.P,U2,J1_3,GPIO4*%
%TO.N,/Diag_Pin*%
X133900600Y-90064600D03*
%TO.P,U2,J1_4,GPIO5*%
%TO.N,/Speed_Pin*%
X131360600Y-90064600D03*
%TO.P,U2,J1_5,GPIO6*%
%TO.N,/SCK*%
X128820600Y-90064600D03*
%TO.P,U2,J1_6,GPIO7*%
%TO.N,/MOSI*%
X126280600Y-90064600D03*
%TO.P,U2,J1_7,GPIO0*%
%TO.N,/Batt_Pin*%
X123740600Y-90064600D03*
%TO.P,U2,J1_8,GPIO1*%
%TO.N,unconnected-(U2-GPIO1-PadJ1_8)*%
X121200600Y-90064600D03*
%TO.P,U2,J1_9,GPIO8*%
%TO.N,unconnected-(U2-GPIO8-PadJ1_9)*%
X118660600Y-90064600D03*
%TO.P,U2,J1_10,GPIO10*%
%TO.N,unconnected-(U2-GPIO10-PadJ1_10)*%
X116120600Y-90064600D03*
%TO.P,U2,J1_11,GPIO11*%
%TO.N,unconnected-(U2-GPIO11-PadJ1_11)*%
X113580600Y-90064600D03*
%TO.P,U2,J1_12,GPIO2*%
%TO.N,/CS_VREG*%
X111040600Y-90064600D03*
%TO.P,U2,J1_13,GPIO3*%
%TO.N,unconnected-(U2-GPIO3-PadJ1_13)*%
X108500600Y-90064600D03*
%TO.P,U2,J1_14,VCC_5V*%
%TO.N,+5V*%
X105960600Y-90064600D03*
%TO.P,U2,J1_15,GND_J1_15*%
%TO.N,GND*%
X103420600Y-90064600D03*
%TO.P,U2,J1_16,NC_J1_16*%
%TO.N,unconnected-(U2-NC_J1_16-PadJ1_16)*%
X100880600Y-90064600D03*
%TO.P,U2,J3_1,GND_J3_1*%
%TO.N,GND*%
X138980600Y-112924600D03*
%TO.P,U2,J3_2,UART_TXD*%
%TO.N,unconnected-(U2-UART_TXD-PadJ3_2)*%
X136440600Y-112924600D03*
%TO.P,U2,J3_3,UART_RXD*%
%TO.N,unconnected-(U2-UART_RXD-PadJ3_3)*%
X133900600Y-112924600D03*
%TO.P,U2,J3_4,GPIO15*%
%TO.N,/CS_BME*%
X131360600Y-112924600D03*
%TO.P,U2,J3_5,GPIO23*%
%TO.N,/CS_RFID*%
X128820600Y-112924600D03*
%TO.P,U2,J3_6,GPIO22*%
%TO.N,/CS_LoRa*%
X126280600Y-112924600D03*
%TO.P,U2,J3_7,GPIO21*%
%TO.N,/RST_LoRa*%
X123740600Y-112924600D03*
%TO.P,U2,J3_8,GPIO20*%
%TO.N,/RFID_RST*%
X121200600Y-112924600D03*
%TO.P,U2,J3_9,GPIO19*%
%TO.N,/IRQ_LoRa*%
X118660600Y-112924600D03*
%TO.P,U2,J3_10,GPIO18*%
%TO.N,/MISO*%
X116120600Y-112924600D03*
%TO.P,U2,J3_11,GPIO9*%
%TO.N,unconnected-(U2-GPIO9-PadJ3_11)*%
X113580600Y-112924600D03*
%TO.P,U2,J3_12,GND_J3_12*%
%TO.N,GND*%
X111040600Y-112924600D03*
%TO.P,U2,J3_13,GPIO13*%
%TO.N,unconnected-(U2-GPIO13-PadJ3_13)*%
X108500600Y-112924600D03*
%TO.P,U2,J3_14,GPIO12*%
%TO.N,unconnected-(U2-GPIO12-PadJ3_14)*%
X105960600Y-112924600D03*
%TO.P,U2,J3_15,GND_J3_15*%
%TO.N,GND*%
X103420600Y-112924600D03*
%TO.P,U2,J3_16,NC_J3_16*%
%TO.N,unconnected-(U2-NC_J3_16-PadJ3_16)*%
X100880600Y-112924600D03*
%TD*%
D12*
%TO.P,C2,1*%
%TO.N,+5V*%
X98653600Y-85225600D03*
%TO.P,C2,2*%
%TO.N,GND*%
X98653600Y-86775600D03*
%TD*%
D15*
%TO.P,U4,2,MISO*%
%TO.N,/MOSI*%
X136499600Y-86508600D03*
%TO.P,U4,3,MOSI*%
%TO.N,/MISO*%
X133959600Y-86508600D03*
%TO.P,U4,4,SCK*%
%TO.N,/SCK*%
X131419600Y-86508600D03*
%TO.P,U4,5,NSS*%
%TO.N,/CS_LoRa*%
X139039600Y-86508600D03*
D14*
%TO.P,U4,6,RESET*%
%TO.N,/RST_LoRa*%
X141579600Y-86508600D03*
D15*
%TO.P,U4,7,DIO5*%
%TO.N,unconnected-(U4-DIO5-Pad7)*%
X126339600Y-86508600D03*
%TO.P,U4,8,GND@1*%
%TO.N,GND*%
X123799600Y-86508600D03*
%TO.P,U4,13,3_3V*%
%TO.N,+3.3V*%
X121259600Y-86508600D03*
%TO.P,U4,14,DIO0*%
%TO.N,/IRQ_LoRa*%
X128879600Y-86508600D03*
%TD*%
D18*
%TO.P,M1,1,SDA*%
%TO.N,/CS_RFID*%
X151231600Y-110384600D03*
%TO.P,M1,2,SCK*%
%TO.N,/SCK*%
X151231600Y-107844600D03*
%TO.P,M1,3,MOSI*%
%TO.N,/MOSI*%
X151231600Y-105304600D03*
%TO.P,M1,4,MISO*%
%TO.N,/MISO*%
X151231600Y-102764600D03*
%TO.P,M1,5,IRQ*%
%TO.N,unconnected-(M1-IRQ-Pad5)*%
X151231600Y-100224600D03*
%TO.P,M1,6,GND*%
%TO.N,GND*%
X151231600Y-97684600D03*
%TO.P,M1,7,RST*%
%TO.N,/RFID_RST*%
X151231600Y-95144600D03*
D19*
%TO.P,M1,8,3V3*%
%TO.N,+3.3V*%
X151231600Y-92604600D03*
%TD*%
D20*
%TO.N,GND*%
X117703600Y-109876600D03*
X113639600Y-109876600D03*
X125577600Y-107082600D03*
X117703600Y-107082600D03*
X108813600Y-92350600D03*
X147929600Y-98446600D03*
X124561600Y-96668600D03*
X148125914Y-88286600D03*
X142341600Y-95144600D03*
X108559600Y-109876600D03*
X127609600Y-97938600D03*
X122529600Y-111146600D03*
X132961759Y-104420041D03*
X103733600Y-109876600D03*
X129387600Y-106574600D03*
X139293600Y-108098600D03*
X127609600Y-92096600D03*
X124852352Y-92946759D03*
X132943600Y-106574600D03*
X121513600Y-107082600D03*
X125069600Y-111146600D03*
X146913600Y-108098600D03*
X142341600Y-89556600D03*
X130403600Y-96668600D03*
X142084125Y-102578025D03*
X134721600Y-102256600D03*
D21*
X118719600Y-102002600D03*
D20*
X130403600Y-92946759D03*
X127609600Y-95398600D03*
D21*
X101447600Y-81936600D03*
D20*
%TO.N,+3.3V*%
X111353600Y-103018600D03*
X107797600Y-103018600D03*
X107797600Y-101240600D03*
X109575600Y-99462600D03*
X111353600Y-99462600D03*
X106019600Y-99462600D03*
X107797600Y-99462600D03*
X109575600Y-103018600D03*
X111353600Y-101240600D03*
X106019600Y-103018600D03*
X106019600Y-101240600D03*
X109575600Y-101240600D03*
D21*
%TO.N,/CS_BME*%
X122529600Y-102243600D03*
D20*
%TO.N,/SCK*%
X124307600Y-99970600D03*
D22*
X145643600Y-102256600D03*
D21*
X128879600Y-99907600D03*
D22*
%TO.N,/MISO*%
X153009600Y-89048600D03*
X119481600Y-99208600D03*
%TO.N,/MOSI*%
X129387600Y-104796600D03*
D21*
X149453600Y-84476600D03*
X126085600Y-101098600D03*
%TO.N,/CS_RFID*%
X138277600Y-110892600D03*
D22*
%TO.N,/Speed_Pin*%
X129908600Y-117763600D03*
X131419600Y-107336600D03*
%TD*%
D23*
%TO.N,VCC*%
X95351600Y-76851600D02*
X98804600Y-76851600D01*
X98804600Y-76851600D02*
X99669600Y-75986600D01*
X102673600Y-82444600D02*
X102673600Y-82843600D01*
X98804600Y-76851600D02*
X99669600Y-77716600D01*
X102673600Y-80876600D02*
X102673600Y-82444600D01*
X99669600Y-77716600D02*
X99669600Y-78475600D01*
X99669600Y-78475600D02*
X100272600Y-78475600D01*
X100272600Y-78475600D02*
X102673600Y-80876600D01*
%TO.N,+3.3V*%
X123291600Y-83714600D02*
X121259600Y-85746600D01*
X140795441Y-93896759D02*
X140944600Y-93747600D01*
X143103600Y-83714600D02*
X143992600Y-84603600D01*
X140944600Y-93747600D02*
X143992600Y-90699600D01*
X123015441Y-93896759D02*
X140795441Y-93896759D01*
X143103600Y-83714600D02*
X123291600Y-83714600D01*
X117449600Y-99462600D02*
X123015441Y-93896759D01*
X111353600Y-99462600D02*
X117449600Y-99462600D01*
X143992600Y-84603600D02*
X143992600Y-90699600D01*
X142087600Y-92604600D02*
X151231600Y-92604600D01*
X121259600Y-85746600D02*
X121259600Y-86508600D01*
X140944600Y-93747600D02*
X142087600Y-92604600D01*
D24*
%TO.N,/CS_BME*%
X131360600Y-111074600D02*
X122529600Y-102243600D01*
X131360600Y-112924600D02*
X131360600Y-111074600D01*
%TO.N,/SCK*%
X128879600Y-99907600D02*
X133503971Y-99907600D01*
X145135600Y-101748600D02*
X145643600Y-102256600D01*
X135344971Y-101748600D02*
X145135600Y-101748600D01*
X128816600Y-99970600D02*
X128879600Y-99907600D01*
X124307600Y-99970600D02*
X128816600Y-99970600D01*
X128820600Y-90064600D02*
X131419600Y-87465600D01*
X133503971Y-99907600D02*
X135344971Y-101748600D01*
X131419600Y-87465600D02*
X131419600Y-86508600D01*
%TO.N,/MISO*%
X121259600Y-101748600D02*
X116120600Y-106887600D01*
X153009600Y-102002600D02*
X153009600Y-89048600D01*
X152247600Y-102764600D02*
X153009600Y-102002600D01*
X150477600Y-103518600D02*
X151231600Y-102764600D01*
X126331600Y-103518600D02*
X150477600Y-103518600D01*
X123799600Y-100986600D02*
X126331600Y-103518600D01*
X121259600Y-100986600D02*
X123799600Y-100986600D01*
X116120600Y-106887600D02*
X116120600Y-112924600D01*
X121259600Y-100986600D02*
X119481600Y-99208600D01*
X121259600Y-100986600D02*
X121259600Y-101748600D01*
X151231600Y-102764600D02*
X152247600Y-102764600D01*
%TO.N,/MOSI*%
X153771600Y-102764600D02*
X153771600Y-88794600D01*
X151231600Y-105304600D02*
X153771600Y-102764600D01*
X126164600Y-101177600D02*
X126085600Y-101098600D01*
X129895600Y-105304600D02*
X129387600Y-104796600D01*
X153771600Y-88794600D02*
X149453600Y-84476600D01*
X151231600Y-105304600D02*
X129895600Y-105304600D01*
%TO.N,/CS_RFID*%
X150723600Y-110892600D02*
X150841984Y-110774216D01*
X138277600Y-110892600D02*
X150723600Y-110892600D01*
%TO.N,/Speed_Pin*%
X131419600Y-109876600D02*
X131419600Y-107336600D01*
X132689600Y-111146600D02*
X131419600Y-109876600D01*
X129908600Y-117763600D02*
X132689600Y-114982600D01*
X132689600Y-114982600D02*
X132689600Y-111146600D01*
%TO.N,+5V*%
X105960600Y-85941600D02*
X105960600Y-90064600D01*
X105270600Y-85251600D02*
X105960600Y-85941600D01*
X104749600Y-85251600D02*
X105270600Y-85251600D01*
%TO.N,Net-(U1-FB)*%
X104492600Y-83444600D02*
X104749600Y-83701600D01*
X102673600Y-83444600D02*
X104492600Y-83444600D01*
X104749600Y-81949600D02*
X104749600Y-83701600D01*
%TO.N,Net-(U1-SW)*%
X99669600Y-82444600D02*
X100177600Y-82952600D01*
X99669600Y-80825600D02*
X99669600Y-82444600D01*
X100185597Y-82944603D02*
X101193600Y-82944603D01*
X100177600Y-82952600D02*
X100185597Y-82944603D01*
%TD*%
%TA.AperFunction,Conductor*%
%TO.N,+5V*%
G36*
X99598042Y-83226285D02*
G01*
X99618684Y-83242919D01*
X99697081Y-83321316D01*
X99808884Y-83433119D01*
X99945815Y-83512177D01*
X100098543Y-83553101D01*
X100098546Y-83553101D01*
X100237613Y-83553101D01*
X100304652Y-83572786D01*
X100350407Y-83625590D01*
X100360902Y-83663845D01*
X100365001Y-83701972D01*
X100365003Y-83701979D01*
X100415245Y-83836686D01*
X100415249Y-83836693D01*
X100501409Y-83951787D01*
X100501412Y-83951790D01*
X100616506Y-84037950D01*
X100616513Y-84037954D01*
X100751220Y-84088196D01*
X100751227Y-84088198D01*
X100810755Y-84094599D01*
X100810772Y-84094600D01*
X101043598Y-84094600D01*
X101043600Y-84094598D01*
X101043600Y-83719102D01*
X101063285Y-83652063D01*
X101116089Y-83606308D01*
X101167597Y-83595102D01*
X101219601Y-83595102D01*
X101286639Y-83614787D01*
X101332394Y-83667591D01*
X101343600Y-83719102D01*
X101343600Y-84109734D01*
X101358880Y-84137718D01*
X101353896Y-84207410D01*
X101312024Y-84263343D01*
X101276718Y-84281782D01*
X101150246Y-84323690D01*
X101138840Y-84328689D01*
X100998871Y-84415024D01*
X100998867Y-84415027D01*
X100879027Y-84534867D01*
X100879024Y-84534871D01*
X100790057Y-84679107D01*
X100790052Y-84679118D01*
X100736744Y-84839993D01*
X100726600Y-84939277D01*
X100726600Y-84962600D01*
X102676599Y-84962600D01*
X102676599Y-84939292D01*
X102676598Y-84939277D01*
X102666455Y-84839992D01*
X102613147Y-84679118D01*
X102613142Y-84679107D01*
X102524175Y-84534871D01*
X102524172Y-84534867D01*
X102423586Y-84434281D01*
X102390101Y-84372958D01*
X102395085Y-84303266D01*
X102436957Y-84247333D01*
X102502421Y-84222916D01*
X102511267Y-84222600D01*
X103760559Y-84222600D01*
X103767883Y-84224750D01*
X103775413Y-84223493D01*
X103800941Y-84234457D01*
X103827598Y-84242285D01*
X103834207Y-84248745D01*
X103839612Y-84251067D01*
X103856862Y-84270891D01*
X103863325Y-84277208D01*
X103864748Y-84279316D01*
X103926632Y-84379644D01*
X103944683Y-84397695D01*
X103951345Y-84407561D01*
X103958479Y-84429964D01*
X103969745Y-84450595D01*
X103968884Y-84462634D01*
X103972547Y-84474136D01*
X103966438Y-84496836D01*
X103964761Y-84520287D01*
X103956788Y-84532691D01*
X103954390Y-84541606D01*
X103946406Y-84548848D01*
X103936263Y-84564631D01*
X103927028Y-84573865D01*
X103927024Y-84573871D01*
X103838057Y-84718107D01*
X103838052Y-84718118D01*
X103784744Y-84878993D01*
X103774600Y-84978277D01*
X103774600Y-85001600D01*
X104625600Y-85001600D01*
X104692639Y-85021285D01*
X104738394Y-85074089D01*
X104749600Y-85125600D01*
X104749600Y-85377600D01*
X104729915Y-85444639D01*
X104677111Y-85490394D01*
X104625600Y-85501600D01*
X103774601Y-85501600D01*
X103774601Y-85524922D01*
X103783293Y-85609998D01*
X103770524Y-85678691D01*
X103722643Y-85729575D01*
X103659935Y-85746600D01*
X102784696Y-85746600D01*
X102717657Y-85726915D01*
X102671902Y-85674111D01*
X102661958Y-85604953D01*
X102665050Y-85591829D01*
X102665039Y-85591827D01*
X102666455Y-85585208D01*
X102676599Y-85485922D01*
X102676600Y-85485909D01*
X102676600Y-85462600D01*
X100726601Y-85462600D01*
X100726601Y-85485922D01*
X100736744Y-85585211D01*
X100738161Y-85591829D01*
X100736506Y-85592183D01*
X100738611Y-85653429D01*
X100702877Y-85713469D01*
X100640355Y-85744660D01*
X100618504Y-85746600D01*
X99740044Y-85746600D01*
X99673005Y-85726915D01*
X99627250Y-85674111D01*
X99617306Y-85604953D01*
X99618382Y-85598927D01*
X99628600Y-85498919D01*
X99628600Y-85475600D01*
X98777600Y-85475600D01*
X98710561Y-85455915D01*
X98664806Y-85403111D01*
X98653600Y-85351600D01*
X98653600Y-85225600D01*
X98527600Y-85225600D01*
X98460561Y-85205915D01*
X98414806Y-85153111D01*
X98403600Y-85101600D01*
X98403600Y-84975600D01*
X98903600Y-84975600D01*
X99628599Y-84975600D01*
X99628599Y-84952292D01*
X99628598Y-84952277D01*
X99618455Y-84852992D01*
X99565147Y-84692118D01*
X99565142Y-84692107D01*
X99476175Y-84547871D01*
X99476172Y-84547867D01*
X99356332Y-84428027D01*
X99356328Y-84428024D01*
X99212092Y-84339057D01*
X99212081Y-84339052D01*
X99051206Y-84285744D01*
X98951922Y-84275600D01*
X98903600Y-84275600D01*
X98903600Y-84975600D01*
X98403600Y-84975600D01*
X98403600Y-84275600D01*
X98403599Y-84275599D01*
X98355293Y-84275600D01*
X98355275Y-84275601D01*
X98255992Y-84285744D01*
X98095118Y-84339052D01*
X98095109Y-84339056D01*
X98080696Y-84347947D01*
X98013303Y-84366387D01*
X97946640Y-84345464D01*
X97901871Y-84291822D01*
X97891600Y-84242408D01*
X97891600Y-83330600D01*
X97911285Y-83263561D01*
X97964089Y-83217806D01*
X98015600Y-83206600D01*
X99531003Y-83206600D01*
X99598042Y-83226285D01*
G37*
%TD.AperFunction*%
%TD*%
%TA.AperFunction,Conductor*%
%TO.N,+3.3V*%
G36*
X115868639Y-98212285D02*
G01*
X115914394Y-98265089D01*
X115925600Y-98316600D01*
X115925600Y-104672600D01*
X115905915Y-104739639D01*
X115853111Y-104785394D01*
X115801600Y-104796600D01*
X105381600Y-104796600D01*
X105314561Y-104776915D01*
X105268806Y-104724111D01*
X105257600Y-104672600D01*
X105257600Y-98316600D01*
X105277285Y-98249561D01*
X105330089Y-98203806D01*
X105381600Y-98192600D01*
X115801600Y-98192600D01*
X115868639Y-98212285D01*
G37*
%TD.AperFunction*%
%TD*%
%TA.AperFunction,Conductor*%
%TO.N,GND*%
G36*
X149710852Y-63387242D02*
G01*
X150100234Y-63404242D01*
X150113178Y-63405374D01*
X150496378Y-63455824D01*
X150509159Y-63458077D01*
X150886521Y-63541737D01*
X150899053Y-63545095D01*
X151196402Y-63638849D01*
X151267677Y-63661322D01*
X151279891Y-63665768D01*
X151636963Y-63813671D01*
X151648743Y-63819163D01*
X151991593Y-63997640D01*
X152002835Y-64004131D01*
X152328812Y-64211801D01*
X152339447Y-64219247D01*
X152646094Y-64454546D01*
X152656036Y-64462889D01*
X152706446Y-64509080D01*
X152940999Y-64724009D01*
X152950190Y-64733200D01*
X153211304Y-65018155D01*
X153219660Y-65028113D01*
X153454947Y-65334746D01*
X153462402Y-65345393D01*
X153670063Y-65671356D01*
X153676563Y-65682613D01*
X153855035Y-66025454D01*
X153860528Y-66037236D01*
X154008431Y-66394308D01*
X154012877Y-66406522D01*
X154129101Y-66775135D01*
X154132465Y-66787690D01*
X154216119Y-67165028D01*
X154218376Y-67177830D01*
X154268824Y-67561020D01*
X154269957Y-67573969D01*
X154286958Y-67963347D01*
X154287100Y-67969846D01*
X154287100Y-88101147D01*
X154267138Y-88175647D01*
X154212600Y-88230185D01*
X154138100Y-88250147D01*
X154063600Y-88230185D01*
X154032741Y-88206506D01*
X150347741Y-84521506D01*
X150309177Y-84454711D01*
X150304100Y-84416147D01*
X150304100Y-84392832D01*
X150274390Y-84243469D01*
X150271416Y-84228518D01*
X150207303Y-84073737D01*
X150178260Y-84030272D01*
X150114228Y-83934441D01*
X150114226Y-83934438D01*
X149995762Y-83815974D01*
X149995758Y-83815971D01*
X149856470Y-83722901D01*
X149856458Y-83722894D01*
X149733736Y-83672061D01*
X149701682Y-83658784D01*
X149701680Y-83658783D01*
X149701679Y-83658783D01*
X149537367Y-83626100D01*
X149369833Y-83626100D01*
X149205520Y-83658783D01*
X149050741Y-83722894D01*
X149050729Y-83722901D01*
X148911441Y-83815971D01*
X148911434Y-83815977D01*
X148792977Y-83934434D01*
X148792971Y-83934441D01*
X148699901Y-84073729D01*
X148699894Y-84073741D01*
X148635783Y-84228520D01*
X148603100Y-84392832D01*
X148603100Y-84560367D01*
X148635783Y-84724679D01*
X148699894Y-84879458D01*
X148699901Y-84879470D01*
X148792971Y-85018758D01*
X148792974Y-85018762D01*
X148911438Y-85137226D01*
X148911441Y-85137228D01*
X149050729Y-85230298D01*
X149050733Y-85230300D01*
X149050737Y-85230303D01*
X149050738Y-85230303D01*
X149050741Y-85230305D01*
X149096072Y-85249081D01*
X149205518Y-85294416D01*
X149369833Y-85327100D01*
X149393147Y-85327100D01*
X149467647Y-85347062D01*
X149498506Y-85370741D01*
X152421584Y-88293819D01*
X152460148Y-88360614D01*
X152460148Y-88437742D01*
X152421585Y-88504536D01*
X152387814Y-88538307D01*
X152300204Y-88669423D01*
X152239863Y-88815101D01*
X152239862Y-88815105D01*
X152209100Y-88969757D01*
X152209100Y-89127442D01*
X152239862Y-89282094D01*
X152239863Y-89282098D01*
X152300205Y-89427777D01*
X152300208Y-89427783D01*
X152383988Y-89553167D01*
X152408781Y-89626202D01*
X152409100Y-89635948D01*
X152409100Y-91259775D01*
X152389138Y-91334275D01*
X152334600Y-91388813D01*
X152260100Y-91408775D01*
X152208031Y-91399381D01*
X152093082Y-91356508D01*
X152033476Y-91350100D01*
X150429736Y-91350100D01*
X150429711Y-91350102D01*
X150370121Y-91356508D01*
X150370115Y-91356509D01*
X150235270Y-91406802D01*
X150235266Y-91406804D01*
X150120055Y-91493052D01*
X150120052Y-91493055D01*
X150033804Y-91608266D01*
X150033802Y-91608270D01*
X149980252Y-91751849D01*
X149978105Y-91751048D01*
X149947838Y-91807275D01*
X149882221Y-91847811D01*
X149839389Y-91854100D01*
X144259186Y-91854100D01*
X144184686Y-91834138D01*
X144130148Y-91779600D01*
X144110186Y-91705100D01*
X144130148Y-91630600D01*
X144153827Y-91599741D01*
X144354187Y-91399381D01*
X144575552Y-91178016D01*
X144648439Y-91068931D01*
X144657684Y-91055095D01*
X144714258Y-90918513D01*
X144743100Y-90773518D01*
X144743100Y-84529682D01*
X144714258Y-84384687D01*
X144657684Y-84248105D01*
X144617318Y-84187693D01*
X144575552Y-84125184D01*
X143582016Y-83131648D01*
X143582014Y-83131647D01*
X143582010Y-83131643D01*
X143508329Y-83082412D01*
X143508328Y-83082412D01*
X143459097Y-83049517D01*
X143459095Y-83049516D01*
X143322513Y-82992942D01*
X143322511Y-82992941D01*
X143322512Y-82992941D01*
X143177521Y-82964100D01*
X143177518Y-82964100D01*
X123217682Y-82964100D01*
X123217678Y-82964100D01*
X123072688Y-82992941D01*
X122936110Y-83049513D01*
X122936097Y-83049520D01*
X122886869Y-83082413D01*
X122813191Y-83131641D01*
X122813183Y-83131648D01*
X120676649Y-85268182D01*
X120676643Y-85268190D01*
X120676217Y-85268828D01*
X120675857Y-85269147D01*
X120672004Y-85273843D01*
X120671260Y-85273232D01*
X120619978Y-85318801D01*
X120551787Y-85353546D01*
X120551781Y-85353550D01*
X120379809Y-85478495D01*
X120379806Y-85478497D01*
X120229497Y-85628806D01*
X120229495Y-85628809D01*
X120104550Y-85800781D01*
X120104550Y-85800782D01*
X120008046Y-85990182D01*
X120008041Y-85990194D01*
X119942487Y-86191949D01*
X119942354Y-86192357D01*
X119909100Y-86402313D01*
X119909100Y-86614887D01*
X119942354Y-86824843D01*
X120008043Y-87027012D01*
X120101593Y-87210615D01*
X120104550Y-87216417D01*
X120104550Y-87216418D01*
X120167022Y-87302404D01*
X120229496Y-87388392D01*
X120379808Y-87538704D01*
X120551784Y-87663651D01*
X120741188Y-87760157D01*
X120943357Y-87825846D01*
X121153313Y-87859100D01*
X121153318Y-87859100D01*
X121365882Y-87859100D01*
X121365887Y-87859100D01*
X121575843Y-87825846D01*
X121778012Y-87760157D01*
X121967416Y-87663651D01*
X122139392Y-87538704D01*
X122289704Y-87388392D01*
X122347324Y-87309085D01*
X122409365Y-87223692D01*
X122469305Y-87175153D01*
X122545483Y-87163087D01*
X122617488Y-87190727D01*
X122650453Y-87223691D01*
X122769877Y-87388064D01*
X122769879Y-87388067D01*
X122920132Y-87538320D01*
X122920135Y-87538322D01*
X123092044Y-87663221D01*
X123281377Y-87759693D01*
X123483463Y-87825355D01*
X123483471Y-87825357D01*
X123549600Y-87835830D01*
X123549600Y-86941612D01*
X123606607Y-86974525D01*
X123733774Y-87008600D01*
X123865426Y-87008600D01*
X123992593Y-86974525D01*
X124049600Y-86941612D01*
X124049600Y-87835830D01*
X124115728Y-87825357D01*
X124115736Y-87825355D01*
X124317822Y-87759693D01*
X124507155Y-87663221D01*
X124507156Y-87663221D01*
X124679064Y-87538322D01*
X124679067Y-87538320D01*
X124829320Y-87388067D01*
X124829327Y-87388059D01*
X124948746Y-87223692D01*
X125008686Y-87175153D01*
X125084864Y-87163087D01*
X125156869Y-87190727D01*
X125189834Y-87223691D01*
X125251876Y-87309085D01*
X125309496Y-87388392D01*
X125459808Y-87538704D01*
X125631784Y-87663651D01*
X125821188Y-87760157D01*
X126023357Y-87825846D01*
X126233313Y-87859100D01*
X126233318Y-87859100D01*
X126445882Y-87859100D01*
X126445887Y-87859100D01*
X126655843Y-87825846D01*
X126858012Y-87760157D01*
X127047416Y-87663651D01*
X127219392Y-87538704D01*
X127369704Y-87388392D01*
X127489056Y-87224117D01*
X127548996Y-87175579D01*
X127625174Y-87163513D01*
X127697180Y-87191153D01*
X127730144Y-87224117D01*
X127849496Y-87388392D01*
X127999808Y-87538704D01*
X128171784Y-87663651D01*
X128361188Y-87760157D01*
X128563357Y-87825846D01*
X128773313Y-87859100D01*
X128773318Y-87859100D01*
X128985882Y-87859100D01*
X128985887Y-87859100D01*
X129195843Y-87825846D01*
X129398012Y-87760157D01*
X129587416Y-87663651D01*
X129759392Y-87538704D01*
X129909704Y-87388392D01*
X130029056Y-87224117D01*
X130045728Y-87210615D01*
X130058768Y-87193585D01*
X130075181Y-87186765D01*
X130088996Y-87175579D01*
X130110184Y-87172222D01*
X130129993Y-87163993D01*
X130147616Y-87166293D01*
X130165174Y-87163513D01*
X130185202Y-87171201D01*
X130206472Y-87173978D01*
X130219820Y-87184489D01*
X130237180Y-87191153D01*
X130267712Y-87220865D01*
X130268967Y-87222497D01*
X130389496Y-87388392D01*
X130420021Y-87418917D01*
X130425928Y-87426598D01*
X130437133Y-87453568D01*
X130451739Y-87478866D01*
X130451739Y-87488722D01*
X130455520Y-87497823D01*
X130451739Y-87526783D01*
X130451739Y-87555994D01*
X130446810Y-87564529D01*
X130445535Y-87574302D01*
X130427780Y-87597491D01*
X130413175Y-87622789D01*
X129244627Y-88791336D01*
X129177832Y-88829900D01*
X129115960Y-88833143D01*
X129055033Y-88823493D01*
X128919961Y-88802100D01*
X128721239Y-88802100D01*
X128642729Y-88814534D01*
X128524958Y-88833187D01*
X128524958Y-88833188D01*
X128335965Y-88894595D01*
X128158904Y-88984814D01*
X127998139Y-89101616D01*
X127857616Y-89242139D01*
X127740814Y-89402904D01*
X127683360Y-89515663D01*
X127631751Y-89572980D01*
X127558397Y-89596814D01*
X127482955Y-89580778D01*
X127425638Y-89529169D01*
X127417840Y-89515663D01*
X127408887Y-89498092D01*
X127360387Y-89402906D01*
X127243581Y-89242136D01*
X127103064Y-89101619D01*
X126942294Y-88984813D01*
X126852252Y-88938934D01*
X126765234Y-88894595D01*
X126576241Y-88833188D01*
X126576241Y-88833187D01*
X126462046Y-88815101D01*
X126379961Y-88802100D01*
X126181239Y-88802100D01*
X126102729Y-88814534D01*
X125984958Y-88833187D01*
X125984958Y-88833188D01*
X125795965Y-88894595D01*
X125618904Y-88984814D01*
X125458139Y-89101616D01*
X125317616Y-89242139D01*
X125200814Y-89402904D01*
X125143360Y-89515663D01*
X125091751Y-89572980D01*
X125018397Y-89596814D01*
X124942955Y-89580778D01*
X124885638Y-89529169D01*
X124877840Y-89515663D01*
X124868887Y-89498092D01*
X124820387Y-89402906D01*
X124703581Y-89242136D01*
X124563064Y-89101619D01*
X124402294Y-88984813D01*
X124312252Y-88938934D01*
X124225234Y-88894595D01*
X124036241Y-88833188D01*
X124036241Y-88833187D01*
X123922046Y-88815101D01*
X123839961Y-88802100D01*
X123641239Y-88802100D01*
X123562729Y-88814534D01*
X123444958Y-88833187D01*
X123444958Y-88833188D01*
X123255965Y-88894595D01*
X123078904Y-88984814D01*
X122918139Y-89101616D01*
X122777616Y-89242139D01*
X122660814Y-89402904D01*
X122603360Y-89515663D01*
X122551751Y-89572980D01*
X122478397Y-89596814D01*
X122402955Y-89580778D01*
X122345638Y-89529169D01*
X122337840Y-89515663D01*
X122328887Y-89498092D01*
X122280387Y-89402906D01*
X122163581Y-89242136D01*
X122023064Y-89101619D01*
X121862294Y-88984813D01*
X121772252Y-88938934D01*
X121685234Y-88894595D01*
X121496241Y-88833188D01*
X121496241Y-88833187D01*
X121382046Y-88815101D01*
X121299961Y-88802100D01*
X121101239Y-88802100D01*
X121022729Y-88814534D01*
X120904958Y-88833187D01*
X120904958Y-88833188D01*
X120715965Y-88894595D01*
X120538904Y-88984814D01*
X120378139Y-89101616D01*
X120237616Y-89242139D01*
X120120814Y-89402904D01*
X120063360Y-89515663D01*
X120011751Y-89572980D01*
X119938397Y-89596814D01*
X119862955Y-89580778D01*
X119805638Y-89529169D01*
X119797840Y-89515663D01*
X119788887Y-89498092D01*
X119740387Y-89402906D01*
X119623581Y-89242136D01*
X119483064Y-89101619D01*
X119322294Y-88984813D01*
X119232252Y-88938934D01*
X119145234Y-88894595D01*
X118956241Y-88833188D01*
X118956241Y-88833187D01*
X118842046Y-88815101D01*
X118759961Y-88802100D01*
X118561239Y-88802100D01*
X118482729Y-88814534D01*
X118364958Y-88833187D01*
X118364958Y-88833188D01*
X118175965Y-88894595D01*
X117998904Y-88984814D01*
X117838139Y-89101616D01*
X117697616Y-89242139D01*
X117580814Y-89402904D01*
X117523360Y-89515663D01*
X117471751Y-89572980D01*
X117398397Y-89596814D01*
X117322955Y-89580778D01*
X117265638Y-89529169D01*
X117257840Y-89515663D01*
X117248887Y-89498092D01*
X117200387Y-89402906D01*
X117083581Y-89242136D01*
X116943064Y-89101619D01*
X116782294Y-88984813D01*
X116692252Y-88938934D01*
X116605234Y-88894595D01*
X116416241Y-88833188D01*
X116416241Y-88833187D01*
X116302046Y-88815101D01*
X116219961Y-88802100D01*
X116021239Y-88802100D01*
X115942729Y-88814534D01*
X115824958Y-88833187D01*
X115824958Y-88833188D01*
X115635965Y-88894595D01*
X115458904Y-88984814D01*
X115298139Y-89101616D01*
X115157616Y-89242139D01*
X115040814Y-89402904D01*
X114983360Y-89515663D01*
X114931751Y-89572980D01*
X114858397Y-89596814D01*
X114782955Y-89580778D01*
X114725638Y-89529169D01*
X114717840Y-89515663D01*
X114708887Y-89498092D01*
X114660387Y-89402906D01*
X114543581Y-89242136D01*
X114403064Y-89101619D01*
X114242294Y-88984813D01*
X114152252Y-88938934D01*
X114065234Y-88894595D01*
X113876241Y-88833188D01*
X113876241Y-88833187D01*
X113762046Y-88815101D01*
X113679961Y-88802100D01*
X113481239Y-88802100D01*
X113402729Y-88814534D01*
X113284958Y-88833187D01*
X113284958Y-88833188D01*
X113095965Y-88894595D01*
X112918904Y-88984814D01*
X112758139Y-89101616D01*
X112617616Y-89242139D01*
X112500814Y-89402904D01*
X112443360Y-89515663D01*
X112391751Y-89572980D01*
X112318397Y-89596814D01*
X112242955Y-89580778D01*
X112185638Y-89529169D01*
X112177840Y-89515663D01*
X112168887Y-89498092D01*
X112120387Y-89402906D01*
X112003581Y-89242136D01*
X111863064Y-89101619D01*
X111702294Y-88984813D01*
X111612252Y-88938934D01*
X111525234Y-88894595D01*
X111336241Y-88833188D01*
X111336241Y-88833187D01*
X111222046Y-88815101D01*
X111139961Y-88802100D01*
X110941239Y-88802100D01*
X110862729Y-88814534D01*
X110744958Y-88833187D01*
X110744958Y-88833188D01*
X110555965Y-88894595D01*
X110378904Y-88984814D01*
X110218139Y-89101616D01*
X110077616Y-89242139D01*
X109960814Y-89402904D01*
X109903360Y-89515663D01*
X109851751Y-89572980D01*
X109778397Y-89596814D01*
X109702955Y-89580778D01*
X109645638Y-89529169D01*
X109637840Y-89515663D01*
X109628887Y-89498092D01*
X109580387Y-89402906D01*
X109463581Y-89242136D01*
X109323064Y-89101619D01*
X109162294Y-88984813D01*
X109072252Y-88938934D01*
X108985234Y-88894595D01*
X108796241Y-88833188D01*
X108796241Y-88833187D01*
X108682046Y-88815101D01*
X108599961Y-88802100D01*
X108401239Y-88802100D01*
X108322729Y-88814534D01*
X108204958Y-88833187D01*
X108204958Y-88833188D01*
X108015965Y-88894595D01*
X107838904Y-88984814D01*
X107678139Y-89101616D01*
X107537616Y-89242139D01*
X107420814Y-89402904D01*
X107363360Y-89515663D01*
X107311751Y-89572980D01*
X107238397Y-89596814D01*
X107162955Y-89580778D01*
X107105638Y-89529169D01*
X107097840Y-89515663D01*
X107088887Y-89498092D01*
X107040387Y-89402906D01*
X106923581Y-89242136D01*
X106783064Y-89101619D01*
X106622518Y-88984976D01*
X106573982Y-88925038D01*
X106561100Y-88864434D01*
X106561100Y-85862543D01*
X106561099Y-85862541D01*
X106520177Y-85709816D01*
X106441120Y-85572884D01*
X106441118Y-85572882D01*
X106441117Y-85572880D01*
X106324113Y-85455877D01*
X106324112Y-85455877D01*
X105759615Y-84891380D01*
X105759614Y-84891378D01*
X105723971Y-84855735D01*
X105687892Y-84797241D01*
X105661604Y-84717907D01*
X105661603Y-84717903D01*
X105631662Y-84669361D01*
X105572568Y-84573556D01*
X105572567Y-84573555D01*
X105568978Y-84569016D01*
X105538428Y-84498196D01*
X105547382Y-84421590D01*
X105568978Y-84384184D01*
X105572563Y-84379648D01*
X105572568Y-84379644D01*
X105661603Y-84235297D01*
X105714949Y-84074308D01*
X105725100Y-83974945D01*
X105725099Y-83428256D01*
X105714949Y-83328892D01*
X105661603Y-83167903D01*
X105572568Y-83023556D01*
X105479970Y-82930958D01*
X105441406Y-82864163D01*
X105441406Y-82787035D01*
X105479967Y-82720244D01*
X105572568Y-82627644D01*
X105661603Y-82483297D01*
X105714949Y-82322308D01*
X105725100Y-82222945D01*
X105725099Y-81676256D01*
X105714949Y-81576892D01*
X105661603Y-81415903D01*
X105572568Y-81271556D01*
X105572565Y-81271553D01*
X105568657Y-81266610D01*
X105538107Y-81195790D01*
X105547061Y-81119183D01*
X105568659Y-81081776D01*
X105572171Y-81077333D01*
X105661146Y-80933085D01*
X105714456Y-80772203D01*
X105714457Y-80772203D01*
X105724599Y-80672925D01*
X105724600Y-80672915D01*
X105724600Y-80649600D01*
X103774601Y-80649600D01*
X103774601Y-80672909D01*
X103784744Y-80772206D01*
X103784744Y-80772209D01*
X103838053Y-80933085D01*
X103927025Y-81077329D01*
X103930546Y-81081782D01*
X103961092Y-81152603D01*
X103952136Y-81229210D01*
X103930547Y-81266604D01*
X103926633Y-81271553D01*
X103837598Y-81415900D01*
X103784251Y-81576891D01*
X103774100Y-81676259D01*
X103774100Y-82088942D01*
X103771609Y-82098235D01*
X103772906Y-82107770D01*
X103761756Y-82135010D01*
X103754138Y-82163442D01*
X103747333Y-82170246D01*
X103743689Y-82179151D01*
X103720412Y-82197167D01*
X103699600Y-82217980D01*
X103690306Y-82220470D01*
X103682697Y-82226360D01*
X103653528Y-82230324D01*
X103625100Y-82237942D01*
X103615806Y-82235451D01*
X103606272Y-82236748D01*
X103579031Y-82225598D01*
X103550600Y-82217980D01*
X103543795Y-82211175D01*
X103534891Y-82207531D01*
X103519716Y-82187096D01*
X103496062Y-82163442D01*
X103487682Y-82146539D01*
X103486541Y-82143818D01*
X103452396Y-82052269D01*
X103442793Y-82039441D01*
X103435682Y-82022475D01*
X103432881Y-82001869D01*
X103425153Y-81982565D01*
X103424100Y-81964878D01*
X103424100Y-80802686D01*
X103424099Y-80802678D01*
X103395258Y-80657688D01*
X103338683Y-80521102D01*
X103295773Y-80456884D01*
X103295772Y-80456883D01*
X103256552Y-80398184D01*
X102984642Y-80126274D01*
X103774600Y-80126274D01*
X103774600Y-80149600D01*
X104499600Y-80149600D01*
X104999600Y-80149600D01*
X105724599Y-80149600D01*
X105724599Y-80126290D01*
X105714455Y-80026993D01*
X105714455Y-80026990D01*
X105661146Y-79866114D01*
X105572172Y-79721867D01*
X105452332Y-79602027D01*
X105308085Y-79513053D01*
X105147203Y-79459743D01*
X105147203Y-79459742D01*
X105047925Y-79449600D01*
X104999600Y-79449600D01*
X104999600Y-80149600D01*
X104499600Y-80149600D01*
X104499600Y-79449600D01*
X104451289Y-79449600D01*
X104351993Y-79459744D01*
X104351990Y-79459744D01*
X104191114Y-79513053D01*
X104046867Y-79602027D01*
X103927027Y-79721867D01*
X103838053Y-79866114D01*
X103784743Y-80026996D01*
X103784742Y-80026996D01*
X103774600Y-80126274D01*
X102984642Y-80126274D01*
X101613740Y-78755372D01*
X101575176Y-78688577D01*
X101570099Y-78650013D01*
X101570099Y-78002736D01*
X101570099Y-78002728D01*
X101563691Y-77943117D01*
X101549188Y-77904233D01*
X101513397Y-77808270D01*
X101513395Y-77808266D01*
X101427147Y-77693055D01*
X101427144Y-77693052D01*
X101311933Y-77606804D01*
X101311929Y-77606802D01*
X101177082Y-77556508D01*
X101117485Y-77550100D01*
X101117473Y-77550100D01*
X100512527Y-77550100D01*
X100502929Y-77547528D01*
X100493079Y-77548825D01*
X100466167Y-77537678D01*
X100438027Y-77530138D01*
X100431000Y-77523111D01*
X100421822Y-77519310D01*
X100404087Y-77496198D01*
X100383489Y-77475600D01*
X100374872Y-77458128D01*
X100337480Y-77367857D01*
X100335503Y-77362332D01*
X100334684Y-77361106D01*
X100334684Y-77361105D01*
X100301786Y-77311870D01*
X100252552Y-77238184D01*
X100143487Y-77129119D01*
X100104923Y-77062324D01*
X100104923Y-76985196D01*
X100143487Y-76918401D01*
X100201976Y-76882324D01*
X100228297Y-76873603D01*
X100372644Y-76784568D01*
X100492568Y-76664644D01*
X100581603Y-76520297D01*
X100634949Y-76359308D01*
X100645100Y-76259945D01*
X100645099Y-75713256D01*
X100634949Y-75613892D01*
X100581603Y-75452903D01*
X100492568Y-75308556D01*
X100492565Y-75308553D01*
X100488657Y-75303610D01*
X100458107Y-75232790D01*
X100467061Y-75156183D01*
X100488659Y-75118776D01*
X100492171Y-75114333D01*
X100581146Y-74970085D01*
X100634456Y-74809203D01*
X100634457Y-74809203D01*
X100644599Y-74709925D01*
X100644600Y-74709915D01*
X100644600Y-74686600D01*
X98694601Y-74686600D01*
X98694601Y-74709909D01*
X98704744Y-74809206D01*
X98704744Y-74809209D01*
X98758053Y-74970085D01*
X98847025Y-75114329D01*
X98850546Y-75118782D01*
X98881092Y-75189603D01*
X98872136Y-75266210D01*
X98850547Y-75303604D01*
X98846633Y-75308553D01*
X98757598Y-75452900D01*
X98704251Y-75613891D01*
X98694100Y-75713259D01*
X98694100Y-75839013D01*
X98689023Y-75857960D01*
X98689023Y-75877576D01*
X98679215Y-75894562D01*
X98674138Y-75913513D01*
X98650459Y-75944371D01*
X98537373Y-76057458D01*
X98470579Y-76096023D01*
X98432014Y-76101100D01*
X96851099Y-76101100D01*
X96776599Y-76081138D01*
X96722061Y-76026600D01*
X96703584Y-75957642D01*
X96702312Y-75957711D01*
X96702099Y-75953748D01*
X96702099Y-75953728D01*
X96695691Y-75894117D01*
X96675139Y-75839013D01*
X96645397Y-75759270D01*
X96645395Y-75759266D01*
X96559147Y-75644055D01*
X96559144Y-75644052D01*
X96443933Y-75557804D01*
X96443929Y-75557802D01*
X96309082Y-75507508D01*
X96249476Y-75501100D01*
X94453736Y-75501100D01*
X94453711Y-75501102D01*
X94394121Y-75507508D01*
X94394115Y-75507509D01*
X94259270Y-75557802D01*
X94259266Y-75557804D01*
X94144055Y-75644052D01*
X94144052Y-75644055D01*
X94057804Y-75759266D01*
X94057802Y-75759270D01*
X94007508Y-75894117D01*
X94001100Y-75953714D01*
X94001100Y-77749463D01*
X94001102Y-77749488D01*
X94007508Y-77809078D01*
X94007509Y-77809084D01*
X94057802Y-77943929D01*
X94057804Y-77943933D01*
X94144052Y-78059144D01*
X94144055Y-78059147D01*
X94259266Y-78145395D01*
X94259272Y-78145398D01*
X94328869Y-78171355D01*
X94354748Y-78181007D01*
X94417575Y-78225744D01*
X94449617Y-78295902D01*
X94442286Y-78372681D01*
X94408039Y-78425971D01*
X94321886Y-78512124D01*
X94321877Y-78512135D01*
X94196978Y-78684043D01*
X94196978Y-78684044D01*
X94100506Y-78873377D01*
X94034844Y-79075463D01*
X94034842Y-79075471D01*
X94024369Y-79141600D01*
X94918588Y-79141600D01*
X94885675Y-79198607D01*
X94851600Y-79325774D01*
X94851600Y-79457426D01*
X94885675Y-79584593D01*
X94918588Y-79641600D01*
X94024369Y-79641600D01*
X94034842Y-79707728D01*
X94034844Y-79707736D01*
X94100506Y-79909822D01*
X94196978Y-80099155D01*
X94196978Y-80099156D01*
X94321877Y-80271064D01*
X94321879Y-80271067D01*
X94472132Y-80421320D01*
X94472135Y-80421322D01*
X94644044Y-80546221D01*
X94833377Y-80642693D01*
X95035463Y-80708355D01*
X95035471Y-80708357D01*
X95101600Y-80718830D01*
X95101600Y-79824612D01*
X95158607Y-79857525D01*
X95285774Y-79891600D01*
X95417426Y-79891600D01*
X95544593Y-79857525D01*
X95601600Y-79824612D01*
X95601600Y-80718830D01*
X95667728Y-80708357D01*
X95667736Y-80708355D01*
X95869822Y-80642693D01*
X96059155Y-80546221D01*
X96059156Y-80546221D01*
X96231064Y-80421322D01*
X96231067Y-80421320D01*
X96381320Y-80271067D01*
X96381322Y-80271064D01*
X96506221Y-80099156D01*
X96506221Y-80099155D01*
X96602693Y-79909822D01*
X96668355Y-79707736D01*
X96668357Y-79707728D01*
X96678831Y-79641600D01*
X95784612Y-79641600D01*
X95817525Y-79584593D01*
X95851600Y-79457426D01*
X95851600Y-79325774D01*
X95817525Y-79198607D01*
X95784612Y-79141600D01*
X96678830Y-79141600D01*
X96668357Y-79075471D01*
X96668355Y-79075463D01*
X96602693Y-78873377D01*
X96506221Y-78684044D01*
X96506221Y-78684043D01*
X96381322Y-78512135D01*
X96381320Y-78512132D01*
X96295160Y-78425972D01*
X96256596Y-78359177D01*
X96256596Y-78282049D01*
X96295160Y-78215254D01*
X96348448Y-78181008D01*
X96443931Y-78145396D01*
X96443931Y-78145395D01*
X96443933Y-78145395D01*
X96501538Y-78102271D01*
X96559146Y-78059146D01*
X96645396Y-77943931D01*
X96645701Y-77943115D01*
X96665774Y-77889293D01*
X96695691Y-77809083D01*
X96701925Y-77751100D01*
X96702099Y-77749485D01*
X96702313Y-77745492D01*
X96703584Y-77745560D01*
X96722062Y-77676600D01*
X96776600Y-77622062D01*
X96851100Y-77602100D01*
X97688100Y-77602100D01*
X97762600Y-77622062D01*
X97817138Y-77676600D01*
X97837100Y-77751100D01*
X97827706Y-77803170D01*
X97825804Y-77808268D01*
X97825804Y-77808269D01*
X97825500Y-77809084D01*
X97775508Y-77943119D01*
X97769100Y-78002714D01*
X97769100Y-78948463D01*
X97769102Y-78948488D01*
X97775508Y-79008078D01*
X97775509Y-79008084D01*
X97825802Y-79142929D01*
X97825804Y-79142933D01*
X97912052Y-79258144D01*
X97912055Y-79258147D01*
X98027266Y-79344395D01*
X98027270Y-79344397D01*
X98162117Y-79394691D01*
X98221714Y-79401099D01*
X98221718Y-79401099D01*
X98221727Y-79401100D01*
X100075013Y-79401099D01*
X100093961Y-79406176D01*
X100113577Y-79406176D01*
X100130564Y-79415983D01*
X100149513Y-79421061D01*
X100180372Y-79444740D01*
X100381373Y-79645741D01*
X100419937Y-79712536D01*
X100419937Y-79789664D01*
X100381373Y-79856459D01*
X100314578Y-79895023D01*
X100276014Y-79900100D01*
X98221736Y-79900100D01*
X98221711Y-79900102D01*
X98162121Y-79906508D01*
X98162115Y-79906509D01*
X98027270Y-79956802D01*
X98027266Y-79956804D01*
X97912055Y-80043052D01*
X97912052Y-80043055D01*
X97825804Y-80158266D01*
X97825802Y-80158270D01*
X97775508Y-80293117D01*
X97769100Y-80352714D01*
X97769100Y-81298463D01*
X97769102Y-81298488D01*
X97775508Y-81358078D01*
X97775509Y-81358084D01*
X97825802Y-81492929D01*
X97825804Y-81492933D01*
X97912052Y-81608144D01*
X97912055Y-81608147D01*
X98027266Y-81694395D01*
X98027270Y-81694397D01*
X98162117Y-81744691D01*
X98221714Y-81751099D01*
X98221718Y-81751099D01*
X98221727Y-81751100D01*
X98920100Y-81751099D01*
X98994600Y-81771061D01*
X99049138Y-81825599D01*
X99069100Y-81900099D01*
X99069100Y-82365539D01*
X99069099Y-82365543D01*
X99069099Y-82523657D01*
X99071316Y-82531931D01*
X99071546Y-82550229D01*
X99064136Y-82579339D01*
X99060216Y-82609119D01*
X99054740Y-82616255D01*
X99052521Y-82624974D01*
X99031547Y-82646481D01*
X99013264Y-82670309D01*
X99004954Y-82673751D01*
X98998673Y-82680192D01*
X98969757Y-82688330D01*
X98942007Y-82699825D01*
X98924941Y-82700943D01*
X98924429Y-82701088D01*
X98924083Y-82701000D01*
X98922558Y-82701100D01*
X98015600Y-82701100D01*
X98015595Y-82701100D01*
X98015584Y-82701101D01*
X97908147Y-82712651D01*
X97908143Y-82712652D01*
X97856636Y-82723858D01*
X97754094Y-82757987D01*
X97633056Y-82835775D01*
X97580253Y-82881529D01*
X97580251Y-82881531D01*
X97486031Y-82990265D01*
X97426263Y-83121138D01*
X97426258Y-83121152D01*
X97406577Y-83188176D01*
X97406574Y-83188189D01*
X97406573Y-83188193D01*
X97386101Y-83330585D01*
X97386100Y-83330603D01*
X97386100Y-84242412D01*
X97396676Y-84345273D01*
X97406949Y-84394693D01*
X97433353Y-84477865D01*
X97438242Y-84493263D01*
X97513775Y-84615723D01*
X97558544Y-84669365D01*
X97620044Y-84724682D01*
X97638228Y-84741038D01*
X97680268Y-84805702D01*
X97686813Y-84866959D01*
X97678100Y-84952256D01*
X97678100Y-85498939D01*
X97685654Y-85572884D01*
X97688251Y-85598308D01*
X97741597Y-85759297D01*
X97830632Y-85903644D01*
X97830635Y-85903647D01*
X97834543Y-85908590D01*
X97865092Y-85979411D01*
X97856138Y-86056017D01*
X97834550Y-86093412D01*
X97831027Y-86097867D01*
X97742053Y-86242114D01*
X97688743Y-86402996D01*
X97688742Y-86402996D01*
X97678600Y-86502274D01*
X97678600Y-86525600D01*
X99628599Y-86525600D01*
X99628599Y-86502290D01*
X99619809Y-86416242D01*
X99632097Y-86340099D01*
X99680810Y-86280301D01*
X99752896Y-86252871D01*
X99768038Y-86252100D01*
X100585834Y-86252100D01*
X100660334Y-86272062D01*
X100714872Y-86326600D01*
X100734834Y-86401100D01*
X100734062Y-86416244D01*
X100726600Y-86489277D01*
X100726600Y-86512600D01*
X102676599Y-86512600D01*
X102676599Y-86489290D01*
X102669137Y-86416242D01*
X102681425Y-86340099D01*
X102730138Y-86280301D01*
X102802224Y-86252871D01*
X102817366Y-86252100D01*
X103659936Y-86252100D01*
X103677596Y-86249745D01*
X103792382Y-86234440D01*
X103855090Y-86217415D01*
X103978275Y-86165674D01*
X104008249Y-86141779D01*
X104078945Y-86110951D01*
X104155587Y-86119601D01*
X104179348Y-86131476D01*
X104190899Y-86138601D01*
X104190900Y-86138601D01*
X104190903Y-86138603D01*
X104351892Y-86191949D01*
X104451255Y-86202100D01*
X105047944Y-86202099D01*
X105147308Y-86191949D01*
X105164232Y-86186340D01*
X105241226Y-86181854D01*
X105310151Y-86216467D01*
X105352536Y-86280905D01*
X105360100Y-86327777D01*
X105360100Y-88864434D01*
X105340138Y-88938934D01*
X105298682Y-88984975D01*
X105219332Y-89042626D01*
X105138139Y-89101616D01*
X104997616Y-89242139D01*
X104880814Y-89402904D01*
X104880810Y-89402909D01*
X104823077Y-89516215D01*
X104771468Y-89573532D01*
X104698114Y-89597365D01*
X104622672Y-89581328D01*
X104565355Y-89529719D01*
X104557558Y-89516213D01*
X104499960Y-89403171D01*
X104499956Y-89403164D01*
X104472869Y-89365883D01*
X103910094Y-89928657D01*
X103893981Y-89868519D01*
X103827102Y-89752680D01*
X103732520Y-89658098D01*
X103616681Y-89591219D01*
X103556540Y-89575104D01*
X104119315Y-89012330D01*
X104119315Y-89012329D01*
X104082035Y-88985243D01*
X104082033Y-88985242D01*
X103905045Y-88895061D01*
X103905030Y-88895055D01*
X103716121Y-88833675D01*
X103519917Y-88802600D01*
X103321283Y-88802600D01*
X103125078Y-88833675D01*
X102936169Y-88895055D01*
X102936154Y-88895061D01*
X102759166Y-88985242D01*
X102759157Y-88985247D01*
X102721883Y-89012328D01*
X102721883Y-89012330D01*
X103284657Y-89575104D01*
X103224519Y-89591219D01*
X103108680Y-89658098D01*
X103014098Y-89752680D01*
X102947219Y-89868519D01*
X102931104Y-89928657D01*
X102368330Y-89365883D01*
X102368328Y-89365883D01*
X102341247Y-89403157D01*
X102341242Y-89403166D01*
X102283641Y-89516214D01*
X102232032Y-89573531D01*
X102158679Y-89597365D01*
X102083236Y-89581329D01*
X102025919Y-89529720D01*
X102018121Y-89516214D01*
X102000488Y-89481609D01*
X101960387Y-89402906D01*
X101843581Y-89242136D01*
X101703064Y-89101619D01*
X101542294Y-88984813D01*
X101452252Y-88938934D01*
X101365234Y-88894595D01*
X101176241Y-88833188D01*
X101176241Y-88833187D01*
X101062046Y-88815101D01*
X100979961Y-88802100D01*
X100781239Y-88802100D01*
X100702729Y-88814534D01*
X100584958Y-88833187D01*
X100584958Y-88833188D01*
X100395965Y-88894595D01*
X100218904Y-88984814D01*
X100058139Y-89101616D01*
X99917616Y-89242139D01*
X99800814Y-89402904D01*
X99710595Y-89579965D01*
X99649188Y-89768958D01*
X99649187Y-89768958D01*
X99633419Y-89868519D01*
X99618100Y-89965239D01*
X99618100Y-90163961D01*
X99631916Y-90251194D01*
X99649187Y-90360241D01*
X99710595Y-90549234D01*
X99771500Y-90668764D01*
X99800813Y-90726294D01*
X99917619Y-90887064D01*
X100058136Y-91027581D01*
X100218906Y-91144387D01*
X100333964Y-91203012D01*
X100395965Y-91234604D01*
X100395967Y-91234604D01*
X100395968Y-91234605D01*
X100506125Y-91270397D01*
X100584958Y-91296011D01*
X100584958Y-91296012D01*
X100584963Y-91296012D01*
X100584964Y-91296013D01*
X100781239Y-91327100D01*
X100781243Y-91327100D01*
X100979957Y-91327100D01*
X100979961Y-91327100D01*
X101176236Y-91296013D01*
X101176237Y-91296012D01*
X101176241Y-91296012D01*
X101176241Y-91296011D01*
X101365232Y-91234605D01*
X101542294Y-91144387D01*
X101703064Y-91027581D01*
X101843581Y-90887064D01*
X101960387Y-90726294D01*
X102018121Y-90612984D01*
X102069730Y-90555668D01*
X102143083Y-90531834D01*
X102218526Y-90547870D01*
X102275843Y-90599479D01*
X102283641Y-90612985D01*
X102341242Y-90726033D01*
X102341243Y-90726035D01*
X102368329Y-90763315D01*
X102368330Y-90763315D01*
X102931104Y-90200541D01*
X102947219Y-90260681D01*
X103014098Y-90376520D01*
X103108680Y-90471102D01*
X103224519Y-90537981D01*
X103284657Y-90554095D01*
X102721883Y-91116869D01*
X102759164Y-91143956D01*
X102759166Y-91143957D01*
X102936154Y-91234138D01*
X102936169Y-91234144D01*
X103125078Y-91295524D01*
X103321283Y-91326600D01*
X103519917Y-91326600D01*
X103716121Y-91295524D01*
X103905030Y-91234144D01*
X103905050Y-91234135D01*
X104082023Y-91143963D01*
X104082035Y-91143956D01*
X104119315Y-91116869D01*
X104119316Y-91116869D01*
X103556542Y-90554095D01*
X103616681Y-90537981D01*
X103732520Y-90471102D01*
X103827102Y-90376520D01*
X103893981Y-90260681D01*
X103910095Y-90200542D01*
X104472869Y-90763316D01*
X104472869Y-90763315D01*
X104499956Y-90726035D01*
X104499963Y-90726023D01*
X104557559Y-90612986D01*
X104609167Y-90555668D01*
X104682520Y-90531834D01*
X104757963Y-90547870D01*
X104815281Y-90599478D01*
X104823078Y-90612983D01*
X104880813Y-90726294D01*
X104997619Y-90887064D01*
X105138136Y-91027581D01*
X105298906Y-91144387D01*
X105413964Y-91203012D01*
X105475965Y-91234604D01*
X105475967Y-91234604D01*
X105475968Y-91234605D01*
X105586125Y-91270397D01*
X105664958Y-91296011D01*
X105664958Y-91296012D01*
X105664963Y-91296012D01*
X105664964Y-91296013D01*
X105861239Y-91327100D01*
X105861243Y-91327100D01*
X106059957Y-91327100D01*
X106059961Y-91327100D01*
X106256236Y-91296013D01*
X106256237Y-91296012D01*
X106256241Y-91296012D01*
X106256241Y-91296011D01*
X106445232Y-91234605D01*
X106622294Y-91144387D01*
X106783064Y-91027581D01*
X106923581Y-90887064D01*
X107040387Y-90726294D01*
X107097840Y-90613535D01*
X107149449Y-90556219D01*
X107222802Y-90532385D01*
X107298245Y-90548421D01*
X107355562Y-90600030D01*
X107363357Y-90613531D01*
X107420813Y-90726294D01*
X107537619Y-90887064D01*
X107678136Y-91027581D01*
X107838906Y-91144387D01*
X107953964Y-91203012D01*
X108015965Y-91234604D01*
X108015967Y-91234604D01*
X108015968Y-91234605D01*
X108126125Y-91270397D01*
X108204958Y-91296011D01*
X108204958Y-91296012D01*
X108204963Y-91296012D01*
X108204964Y-91296013D01*
X108401239Y-91327100D01*
X108401243Y-91327100D01*
X108599957Y-91327100D01*
X108599961Y-91327100D01*
X108796236Y-91296013D01*
X108796237Y-91296012D01*
X108796241Y-91296012D01*
X108796241Y-91296011D01*
X108985232Y-91234605D01*
X109162294Y-91144387D01*
X109323064Y-91027581D01*
X109463581Y-90887064D01*
X109580387Y-90726294D01*
X109637840Y-90613535D01*
X109689449Y-90556219D01*
X109762802Y-90532385D01*
X109838245Y-90548421D01*
X109895562Y-90600030D01*
X109903357Y-90613531D01*
X109960813Y-90726294D01*
X110077619Y-90887064D01*
X110218136Y-91027581D01*
X110378906Y-91144387D01*
X110493964Y-91203012D01*
X110555965Y-91234604D01*
X110555967Y-91234604D01*
X110555968Y-91234605D01*
X110666125Y-91270397D01*
X110744958Y-91296011D01*
X110744958Y-91296012D01*
X110744963Y-91296012D01*
X110744964Y-91296013D01*
X110941239Y-91327100D01*
X110941243Y-91327100D01*
X111139957Y-91327100D01*
X111139961Y-91327100D01*
X111336236Y-91296013D01*
X111336237Y-91296012D01*
X111336241Y-91296012D01*
X111336241Y-91296011D01*
X111525232Y-91234605D01*
X111702294Y-91144387D01*
X111863064Y-91027581D01*
X112003581Y-90887064D01*
X112120387Y-90726294D01*
X112177840Y-90613535D01*
X112229449Y-90556219D01*
X112302802Y-90532385D01*
X112378245Y-90548421D01*
X112435562Y-90600030D01*
X112443357Y-90613531D01*
X112500813Y-90726294D01*
X112617619Y-90887064D01*
X112758136Y-91027581D01*
X112918906Y-91144387D01*
X113033964Y-91203012D01*
X113095965Y-91234604D01*
X113095967Y-91234604D01*
X113095968Y-91234605D01*
X113206125Y-91270397D01*
X113284958Y-91296011D01*
X113284958Y-91296012D01*
X113284963Y-91296012D01*
X113284964Y-91296013D01*
X113481239Y-91327100D01*
X113481243Y-91327100D01*
X113679957Y-91327100D01*
X113679961Y-91327100D01*
X113876236Y-91296013D01*
X113876237Y-91296012D01*
X113876241Y-91296012D01*
X113876241Y-91296011D01*
X114065232Y-91234605D01*
X114242294Y-91144387D01*
X114403064Y-91027581D01*
X114543581Y-90887064D01*
X114660387Y-90726294D01*
X114717840Y-90613535D01*
X114769449Y-90556219D01*
X114842802Y-90532385D01*
X114918245Y-90548421D01*
X114975562Y-90600030D01*
X114983357Y-90613531D01*
X115040813Y-90726294D01*
X115157619Y-90887064D01*
X115298136Y-91027581D01*
X115458906Y-91144387D01*
X115573964Y-91203012D01*
X115635965Y-91234604D01*
X115635967Y-91234604D01*
X115635968Y-91234605D01*
X115746125Y-91270397D01*
X115824958Y-91296011D01*
X115824958Y-91296012D01*
X115824963Y-91296012D01*
X115824964Y-91296013D01*
X116021239Y-91327100D01*
X116021243Y-91327100D01*
X116219957Y-91327100D01*
X116219961Y-91327100D01*
X116416236Y-91296013D01*
X116416237Y-91296012D01*
X116416241Y-91296012D01*
X116416241Y-91296011D01*
X116605232Y-91234605D01*
X116782294Y-91144387D01*
X116943064Y-91027581D01*
X117083581Y-90887064D01*
X117200387Y-90726294D01*
X117257840Y-90613535D01*
X117309449Y-90556219D01*
X117382802Y-90532385D01*
X117458245Y-90548421D01*
X117515562Y-90600030D01*
X117523357Y-90613531D01*
X117580813Y-90726294D01*
X117697619Y-90887064D01*
X117838136Y-91027581D01*
X117998906Y-91144387D01*
X118113964Y-91203012D01*
X118175965Y-91234604D01*
X118175967Y-91234604D01*
X118175968Y-91234605D01*
X118286125Y-91270397D01*
X118364958Y-91296011D01*
X118364958Y-91296012D01*
X118364963Y-91296012D01*
X118364964Y-91296013D01*
X118561239Y-91327100D01*
X118561243Y-91327100D01*
X118759957Y-91327100D01*
X118759961Y-91327100D01*
X118956236Y-91296013D01*
X118956237Y-91296012D01*
X118956241Y-91296012D01*
X118956241Y-91296011D01*
X119145232Y-91234605D01*
X119322294Y-91144387D01*
X119483064Y-91027581D01*
X119623581Y-90887064D01*
X119740387Y-90726294D01*
X119797840Y-90613535D01*
X119849449Y-90556219D01*
X119922802Y-90532385D01*
X119998245Y-90548421D01*
X120055562Y-90600030D01*
X120063357Y-90613531D01*
X120120813Y-90726294D01*
X120237619Y-90887064D01*
X120378136Y-91027581D01*
X120538906Y-91144387D01*
X120653964Y-91203012D01*
X120715965Y-91234604D01*
X120715967Y-91234604D01*
X120715968Y-91234605D01*
X120826125Y-91270397D01*
X120904958Y-91296011D01*
X120904958Y-91296012D01*
X120904963Y-91296012D01*
X120904964Y-91296013D01*
X121101239Y-91327100D01*
X121101243Y-91327100D01*
X121299957Y-91327100D01*
X121299961Y-91327100D01*
X121496236Y-91296013D01*
X121496237Y-91296012D01*
X121496241Y-91296012D01*
X121496241Y-91296011D01*
X121685232Y-91234605D01*
X121862294Y-91144387D01*
X122023064Y-91027581D01*
X122163581Y-90887064D01*
X122280387Y-90726294D01*
X122337840Y-90613535D01*
X122389449Y-90556219D01*
X122462802Y-90532385D01*
X122538245Y-90548421D01*
X122595562Y-90600030D01*
X122603357Y-90613531D01*
X122660813Y-90726294D01*
X122777619Y-90887064D01*
X122918136Y-91027581D01*
X123078906Y-91144387D01*
X123193964Y-91203012D01*
X123255965Y-91234604D01*
X123255967Y-91234604D01*
X123255968Y-91234605D01*
X123366125Y-91270397D01*
X123444958Y-91296011D01*
X123444958Y-91296012D01*
X123444963Y-91296012D01*
X123444964Y-91296013D01*
X123641239Y-91327100D01*
X123641243Y-91327100D01*
X123839957Y-91327100D01*
X123839961Y-91327100D01*
X124036236Y-91296013D01*
X124036237Y-91296012D01*
X124036241Y-91296012D01*
X124036241Y-91296011D01*
X124225232Y-91234605D01*
X124402294Y-91144387D01*
X124563064Y-91027581D01*
X124703581Y-90887064D01*
X124820387Y-90726294D01*
X124877840Y-90613535D01*
X124929449Y-90556219D01*
X125002802Y-90532385D01*
X125078245Y-90548421D01*
X125135562Y-90600030D01*
X125143357Y-90613531D01*
X125200813Y-90726294D01*
X125317619Y-90887064D01*
X125458136Y-91027581D01*
X125618906Y-91144387D01*
X125733964Y-91203012D01*
X125795965Y-91234604D01*
X125795967Y-91234604D01*
X125795968Y-91234605D01*
X125906125Y-91270397D01*
X125984958Y-91296011D01*
X125984958Y-91296012D01*
X125984963Y-91296012D01*
X125984964Y-91296013D01*
X126181239Y-91327100D01*
X126181243Y-91327100D01*
X126379957Y-91327100D01*
X126379961Y-91327100D01*
X126576236Y-91296013D01*
X126576237Y-91296012D01*
X126576241Y-91296012D01*
X126576241Y-91296011D01*
X126765232Y-91234605D01*
X126942294Y-91144387D01*
X127103064Y-91027581D01*
X127243581Y-90887064D01*
X127360387Y-90726294D01*
X127417840Y-90613535D01*
X127469449Y-90556219D01*
X127542802Y-90532385D01*
X127618245Y-90548421D01*
X127675562Y-90600030D01*
X127683357Y-90613531D01*
X127740813Y-90726294D01*
X127857619Y-90887064D01*
X127998136Y-91027581D01*
X128158906Y-91144387D01*
X128273964Y-91203012D01*
X128335965Y-91234604D01*
X128335967Y-91234604D01*
X128335968Y-91234605D01*
X128446125Y-91270397D01*
X128524958Y-91296011D01*
X128524958Y-91296012D01*
X128524963Y-91296012D01*
X128524964Y-91296013D01*
X128721239Y-91327100D01*
X128721243Y-91327100D01*
X128919957Y-91327100D01*
X128919961Y-91327100D01*
X129116236Y-91296013D01*
X129116237Y-91296012D01*
X129116241Y-91296012D01*
X129116241Y-91296011D01*
X129305232Y-91234605D01*
X129482294Y-91144387D01*
X129643064Y-91027581D01*
X129783581Y-90887064D01*
X129900387Y-90726294D01*
X129957840Y-90613535D01*
X130009449Y-90556219D01*
X130082802Y-90532385D01*
X130158245Y-90548421D01*
X130215562Y-90600030D01*
X130223357Y-90613531D01*
X130280813Y-90726294D01*
X130397619Y-90887064D01*
X130538136Y-91027581D01*
X130698906Y-91144387D01*
X130813964Y-91203012D01*
X130875965Y-91234604D01*
X130875967Y-91234604D01*
X130875968Y-91234605D01*
X130986125Y-91270397D01*
X131064958Y-91296011D01*
X131064958Y-91296012D01*
X131064963Y-91296012D01*
X131064964Y-91296013D01*
X131261239Y-91327100D01*
X131261243Y-91327100D01*
X131459957Y-91327100D01*
X131459961Y-91327100D01*
X131656236Y-91296013D01*
X131656237Y-91296012D01*
X131656241Y-91296012D01*
X131656241Y-91296011D01*
X131845232Y-91234605D01*
X132022294Y-91144387D01*
X132183064Y-91027581D01*
X132323581Y-90887064D01*
X132440387Y-90726294D01*
X132497840Y-90613535D01*
X132549449Y-90556219D01*
X132622802Y-90532385D01*
X132698245Y-90548421D01*
X132755562Y-90600030D01*
X132763357Y-90613531D01*
X132820813Y-90726294D01*
X132937619Y-90887064D01*
X133078136Y-91027581D01*
X133238906Y-91144387D01*
X133353964Y-91203012D01*
X133415965Y-91234604D01*
X133415967Y-91234604D01*
X133415968Y-91234605D01*
X133526125Y-91270397D01*
X133604958Y-91296011D01*
X133604958Y-91296012D01*
X133604963Y-91296012D01*
X133604964Y-91296013D01*
X133801239Y-91327100D01*
X133801243Y-91327100D01*
X133999957Y-91327100D01*
X133999961Y-91327100D01*
X134196236Y-91296013D01*
X134196237Y-91296012D01*
X134196241Y-91296012D01*
X134196241Y-91296011D01*
X134385232Y-91234605D01*
X134562294Y-91144387D01*
X134723064Y-91027581D01*
X134863581Y-90887064D01*
X134980387Y-90726294D01*
X135037840Y-90613535D01*
X135089449Y-90556219D01*
X135162802Y-90532385D01*
X135238245Y-90548421D01*
X135295562Y-90600030D01*
X135303357Y-90613531D01*
X135360813Y-90726294D01*
X135477619Y-90887064D01*
X135618136Y-91027581D01*
X135778906Y-91144387D01*
X135893964Y-91203012D01*
X135955965Y-91234604D01*
X135955967Y-91234604D01*
X135955968Y-91234605D01*
X136066125Y-91270397D01*
X136144958Y-91296011D01*
X136144958Y-91296012D01*
X136144963Y-91296012D01*
X136144964Y-91296013D01*
X136341239Y-91327100D01*
X136341243Y-91327100D01*
X136539957Y-91327100D01*
X136539961Y-91327100D01*
X136736236Y-91296013D01*
X136736237Y-91296012D01*
X136736241Y-91296012D01*
X136736241Y-91296011D01*
X136925232Y-91234605D01*
X137102294Y-91144387D01*
X137263064Y-91027581D01*
X137403581Y-90887064D01*
X137451394Y-90821254D01*
X137511331Y-90772718D01*
X137587509Y-90760652D01*
X137659515Y-90788291D01*
X137708054Y-90848231D01*
X137720082Y-90892908D01*
X137724508Y-90934079D01*
X137724509Y-90934084D01*
X137774802Y-91068929D01*
X137774804Y-91068933D01*
X137861052Y-91184144D01*
X137861055Y-91184147D01*
X137976266Y-91270395D01*
X137976270Y-91270397D01*
X138111117Y-91320691D01*
X138170714Y-91327099D01*
X138170718Y-91327099D01*
X138170727Y-91327100D01*
X139790472Y-91327099D01*
X139850083Y-91320691D01*
X139946047Y-91284898D01*
X139984929Y-91270397D01*
X139984933Y-91270395D01*
X140042538Y-91227271D01*
X140100146Y-91184146D01*
X140186396Y-91068931D01*
X140191557Y-91055095D01*
X140228993Y-90954722D01*
X140236691Y-90934083D01*
X140243100Y-90874473D01*
X140243099Y-89254728D01*
X140236691Y-89195117D01*
X140201819Y-89101619D01*
X140186397Y-89060270D01*
X140186395Y-89060266D01*
X140100147Y-88945055D01*
X140100144Y-88945052D01*
X139984933Y-88858804D01*
X139984929Y-88858802D01*
X139850082Y-88808508D01*
X139790476Y-88802100D01*
X138170736Y-88802100D01*
X138170711Y-88802102D01*
X138111121Y-88808508D01*
X138111115Y-88808509D01*
X137976270Y-88858802D01*
X137976266Y-88858804D01*
X137861055Y-88945052D01*
X137861052Y-88945055D01*
X137774804Y-89060266D01*
X137774802Y-89060270D01*
X137724508Y-89195116D01*
X137720081Y-89236293D01*
X137692268Y-89308231D01*
X137632212Y-89356625D01*
X137556004Y-89368508D01*
X137484066Y-89340695D01*
X137451391Y-89307941D01*
X137403585Y-89242141D01*
X137403583Y-89242139D01*
X137403581Y-89242136D01*
X137263064Y-89101619D01*
X137102294Y-88984813D01*
X137012252Y-88938934D01*
X136925234Y-88894595D01*
X136736241Y-88833188D01*
X136736241Y-88833187D01*
X136622046Y-88815101D01*
X136539961Y-88802100D01*
X136341239Y-88802100D01*
X136262729Y-88814534D01*
X136144958Y-88833187D01*
X136144958Y-88833188D01*
X135955965Y-88894595D01*
X135778904Y-88984814D01*
X135618139Y-89101616D01*
X135477616Y-89242139D01*
X135360814Y-89402904D01*
X135303360Y-89515663D01*
X135251751Y-89572980D01*
X135178397Y-89596814D01*
X135102955Y-89580778D01*
X135045638Y-89529169D01*
X135037840Y-89515663D01*
X135028887Y-89498092D01*
X134980387Y-89402906D01*
X134863581Y-89242136D01*
X134723064Y-89101619D01*
X134562294Y-88984813D01*
X134472252Y-88938934D01*
X134385234Y-88894595D01*
X134196241Y-88833188D01*
X134196241Y-88833187D01*
X134082046Y-88815101D01*
X133999961Y-88802100D01*
X133801239Y-88802100D01*
X133722729Y-88814534D01*
X133604958Y-88833187D01*
X133604958Y-88833188D01*
X133415965Y-88894595D01*
X133238904Y-88984814D01*
X133078139Y-89101616D01*
X132937616Y-89242139D01*
X132820814Y-89402904D01*
X132763360Y-89515663D01*
X132711751Y-89572980D01*
X132638397Y-89596814D01*
X132562955Y-89580778D01*
X132505638Y-89529169D01*
X132497840Y-89515663D01*
X132488887Y-89498092D01*
X132440387Y-89402906D01*
X132323581Y-89242136D01*
X132183064Y-89101619D01*
X132022294Y-88984813D01*
X131932252Y-88938934D01*
X131845234Y-88894595D01*
X131656241Y-88833188D01*
X131656241Y-88833187D01*
X131542046Y-88815101D01*
X131459961Y-88802100D01*
X131292052Y-88802100D01*
X131217552Y-88782138D01*
X131163014Y-88727600D01*
X131143052Y-88653100D01*
X131163014Y-88578600D01*
X131186693Y-88547741D01*
X131329760Y-88404674D01*
X131788313Y-87946121D01*
X131788316Y-87946120D01*
X131900120Y-87834316D01*
X131930263Y-87782105D01*
X131939948Y-87771065D01*
X131960215Y-87757527D01*
X131977454Y-87740287D01*
X131984265Y-87736588D01*
X132127416Y-87663651D01*
X132299392Y-87538704D01*
X132449704Y-87388392D01*
X132569056Y-87224117D01*
X132628996Y-87175579D01*
X132705174Y-87163513D01*
X132777180Y-87191153D01*
X132810144Y-87224117D01*
X132929496Y-87388392D01*
X133079808Y-87538704D01*
X133251784Y-87663651D01*
X133441188Y-87760157D01*
X133643357Y-87825846D01*
X133853313Y-87859100D01*
X133853318Y-87859100D01*
X134065882Y-87859100D01*
X134065887Y-87859100D01*
X134275843Y-87825846D01*
X134478012Y-87760157D01*
X134667416Y-87663651D01*
X134839392Y-87538704D01*
X134989704Y-87388392D01*
X135109056Y-87224117D01*
X135168996Y-87175579D01*
X135245174Y-87163513D01*
X135317180Y-87191153D01*
X135350144Y-87224117D01*
X135469496Y-87388392D01*
X135619808Y-87538704D01*
X135791784Y-87663651D01*
X135981188Y-87760157D01*
X136183357Y-87825846D01*
X136393313Y-87859100D01*
X136393318Y-87859100D01*
X136605882Y-87859100D01*
X136605887Y-87859100D01*
X136815843Y-87825846D01*
X137018012Y-87760157D01*
X137207416Y-87663651D01*
X137379392Y-87538704D01*
X137529704Y-87388392D01*
X137649056Y-87224117D01*
X137708996Y-87175579D01*
X137785174Y-87163513D01*
X137857180Y-87191153D01*
X137890144Y-87224117D01*
X138009496Y-87388392D01*
X138159808Y-87538704D01*
X138331784Y-87663651D01*
X138521188Y-87760157D01*
X138723357Y-87825846D01*
X138933313Y-87859100D01*
X138933318Y-87859100D01*
X139145882Y-87859100D01*
X139145887Y-87859100D01*
X139355843Y-87825846D01*
X139558012Y-87760157D01*
X139747416Y-87663651D01*
X139919392Y-87538704D01*
X140005419Y-87452677D01*
X140072213Y-87414112D01*
X140149341Y-87414112D01*
X140216136Y-87452676D01*
X140250384Y-87505966D01*
X140285802Y-87600929D01*
X140285804Y-87600933D01*
X140372052Y-87716144D01*
X140372055Y-87716147D01*
X140487266Y-87802395D01*
X140487270Y-87802397D01*
X140622117Y-87852691D01*
X140681714Y-87859099D01*
X140681718Y-87859099D01*
X140681727Y-87859100D01*
X142477472Y-87859099D01*
X142537083Y-87852691D01*
X142633047Y-87816898D01*
X142671929Y-87802397D01*
X142671933Y-87802395D01*
X142754898Y-87740287D01*
X142787146Y-87716146D01*
X142873396Y-87600931D01*
X142883750Y-87573172D01*
X142904540Y-87517430D01*
X142923691Y-87466083D01*
X142930100Y-87406473D01*
X142930099Y-85610728D01*
X142923691Y-85551117D01*
X142896605Y-85478495D01*
X142873397Y-85416270D01*
X142873395Y-85416266D01*
X142787147Y-85301055D01*
X142787144Y-85301052D01*
X142671933Y-85214804D01*
X142671929Y-85214802D01*
X142537082Y-85164508D01*
X142477476Y-85158100D01*
X140681736Y-85158100D01*
X140681711Y-85158102D01*
X140622121Y-85164508D01*
X140622115Y-85164509D01*
X140487270Y-85214802D01*
X140487266Y-85214804D01*
X140372055Y-85301052D01*
X140372052Y-85301055D01*
X140285804Y-85416266D01*
X140285803Y-85416268D01*
X140250384Y-85511234D01*
X140205645Y-85574061D01*
X140135487Y-85606101D01*
X140058708Y-85598770D01*
X140005419Y-85564523D01*
X139919393Y-85478497D01*
X139919392Y-85478496D01*
X139747416Y-85353549D01*
X139558012Y-85257043D01*
X139355843Y-85191354D01*
X139145887Y-85158100D01*
X138933313Y-85158100D01*
X138786406Y-85181368D01*
X138723356Y-85191354D01*
X138521194Y-85257041D01*
X138521188Y-85257043D01*
X138521182Y-85257045D01*
X138521182Y-85257046D01*
X138331782Y-85353550D01*
X138331781Y-85353550D01*
X138159809Y-85478495D01*
X138159806Y-85478497D01*
X138009497Y-85628806D01*
X138009495Y-85628809D01*
X137890144Y-85793082D01*
X137830204Y-85841620D01*
X137754025Y-85853686D01*
X137682020Y-85826046D01*
X137649056Y-85793082D01*
X137586836Y-85707444D01*
X137529704Y-85628808D01*
X137379392Y-85478496D01*
X137207416Y-85353549D01*
X137018012Y-85257043D01*
X136815843Y-85191354D01*
X136605887Y-85158100D01*
X136393313Y-85158100D01*
X136246406Y-85181368D01*
X136183356Y-85191354D01*
X135981194Y-85257041D01*
X135981188Y-85257043D01*
X135981182Y-85257045D01*
X135981182Y-85257046D01*
X135791782Y-85353550D01*
X135791781Y-85353550D01*
X135619809Y-85478495D01*
X135619806Y-85478497D01*
X135469497Y-85628806D01*
X135469495Y-85628809D01*
X135350144Y-85793082D01*
X135290204Y-85841620D01*
X135214025Y-85853686D01*
X135142020Y-85826046D01*
X135109056Y-85793082D01*
X135046836Y-85707444D01*
X134989704Y-85628808D01*
X134839392Y-85478496D01*
X134667416Y-85353549D01*
X134478012Y-85257043D01*
X134275843Y-85191354D01*
X134065887Y-85158100D01*
X133853313Y-85158100D01*
X133706406Y-85181368D01*
X133643356Y-85191354D01*
X133441194Y-85257041D01*
X133441188Y-85257043D01*
X133441182Y-85257045D01*
X133441182Y-85257046D01*
X133251782Y-85353550D01*
X133251781Y-85353550D01*
X133079809Y-85478495D01*
X133079806Y-85478497D01*
X132929497Y-85628806D01*
X132929495Y-85628809D01*
X132810144Y-85793082D01*
X132750204Y-85841620D01*
X132674025Y-85853686D01*
X132602020Y-85826046D01*
X132569056Y-85793082D01*
X132506836Y-85707444D01*
X132449704Y-85628808D01*
X132299392Y-85478496D01*
X132127416Y-85353549D01*
X131938012Y-85257043D01*
X131735843Y-85191354D01*
X131525887Y-85158100D01*
X131313313Y-85158100D01*
X131166406Y-85181368D01*
X131103356Y-85191354D01*
X130901194Y-85257041D01*
X130901188Y-85257043D01*
X130901182Y-85257045D01*
X130901182Y-85257046D01*
X130711782Y-85353550D01*
X130711781Y-85353550D01*
X130539809Y-85478495D01*
X130539806Y-85478497D01*
X130389497Y-85628806D01*
X130389495Y-85628809D01*
X130270144Y-85793082D01*
X130210204Y-85841620D01*
X130134025Y-85853686D01*
X130062020Y-85826046D01*
X130029056Y-85793082D01*
X129966836Y-85707444D01*
X129909704Y-85628808D01*
X129759392Y-85478496D01*
X129587416Y-85353549D01*
X129398012Y-85257043D01*
X129195843Y-85191354D01*
X128985887Y-85158100D01*
X128773313Y-85158100D01*
X128626406Y-85181368D01*
X128563356Y-85191354D01*
X128361194Y-85257041D01*
X128361188Y-85257043D01*
X128361182Y-85257045D01*
X128361182Y-85257046D01*
X128171782Y-85353550D01*
X128171781Y-85353550D01*
X127999809Y-85478495D01*
X127999806Y-85478497D01*
X127849497Y-85628806D01*
X127849495Y-85628809D01*
X127730144Y-85793082D01*
X127670204Y-85841620D01*
X127594025Y-85853686D01*
X127522020Y-85826046D01*
X127489056Y-85793082D01*
X127426836Y-85707444D01*
X127369704Y-85628808D01*
X127219392Y-85478496D01*
X127047416Y-85353549D01*
X126858012Y-85257043D01*
X126655843Y-85191354D01*
X126445887Y-85158100D01*
X126233313Y-85158100D01*
X126086406Y-85181368D01*
X126023356Y-85191354D01*
X125821194Y-85257041D01*
X125821188Y-85257043D01*
X125821182Y-85257045D01*
X125821182Y-85257046D01*
X125631782Y-85353550D01*
X125631781Y-85353550D01*
X125459809Y-85478495D01*
X125459806Y-85478497D01*
X125309497Y-85628806D01*
X125309488Y-85628817D01*
X125189833Y-85793508D01*
X125129893Y-85842046D01*
X125053715Y-85854112D01*
X124981710Y-85826471D01*
X124948746Y-85793508D01*
X124829322Y-85629135D01*
X124829320Y-85629132D01*
X124679067Y-85478879D01*
X124679064Y-85478877D01*
X124507155Y-85353978D01*
X124317820Y-85257506D01*
X124115723Y-85191841D01*
X124115720Y-85191840D01*
X124049601Y-85181367D01*
X124049600Y-85181368D01*
X124049600Y-86075588D01*
X123992593Y-86042675D01*
X123865426Y-86008600D01*
X123733774Y-86008600D01*
X123606607Y-86042675D01*
X123549600Y-86075588D01*
X123549600Y-85181368D01*
X123549598Y-85181367D01*
X123483479Y-85191840D01*
X123483476Y-85191841D01*
X123281379Y-85257506D01*
X123158650Y-85320040D01*
X123083207Y-85336076D01*
X123009854Y-85312242D01*
X122958245Y-85254925D01*
X122942209Y-85179482D01*
X122966043Y-85106129D01*
X122985643Y-85081923D01*
X123558827Y-84508741D01*
X123625622Y-84470177D01*
X123664186Y-84465100D01*
X142731014Y-84465100D01*
X142805514Y-84485062D01*
X142836373Y-84508741D01*
X143198459Y-84870827D01*
X143237023Y-84937622D01*
X143242100Y-84976186D01*
X143242100Y-90327014D01*
X143222138Y-90401514D01*
X143198459Y-90432373D01*
X140528214Y-93102618D01*
X140461419Y-93141182D01*
X140422855Y-93146259D01*
X122941519Y-93146259D01*
X122796528Y-93175100D01*
X122796526Y-93175101D01*
X122659950Y-93231672D01*
X122643917Y-93242385D01*
X122537026Y-93313806D01*
X117182373Y-98668459D01*
X117115578Y-98707023D01*
X117077014Y-98712100D01*
X116580100Y-98712100D01*
X116505600Y-98692138D01*
X116451062Y-98637600D01*
X116431100Y-98563100D01*
X116431100Y-98316605D01*
X116431098Y-98316584D01*
X116419548Y-98209147D01*
X116419547Y-98209143D01*
X116416745Y-98196266D01*
X116408341Y-98157633D01*
X116374213Y-98055096D01*
X116296425Y-97934057D01*
X116250670Y-97881253D01*
X116246447Y-97877593D01*
X116141934Y-97787031D01*
X116011061Y-97727263D01*
X116011059Y-97727262D01*
X116011054Y-97727260D01*
X116011047Y-97727258D01*
X115944023Y-97707577D01*
X115944010Y-97707574D01*
X115944006Y-97707573D01*
X115801614Y-97687101D01*
X115801602Y-97687100D01*
X115801600Y-97687100D01*
X105381600Y-97687100D01*
X105381595Y-97687100D01*
X105381584Y-97687101D01*
X105274147Y-97698651D01*
X105274143Y-97698652D01*
X105222636Y-97709858D01*
X105120094Y-97743987D01*
X104999056Y-97821775D01*
X104946253Y-97867529D01*
X104946251Y-97867531D01*
X104852031Y-97976265D01*
X104792263Y-98107138D01*
X104792258Y-98107152D01*
X104772577Y-98174176D01*
X104772574Y-98174189D01*
X104772573Y-98174193D01*
X104752101Y-98316585D01*
X104752100Y-98316603D01*
X104752100Y-104672594D01*
X104752101Y-104672615D01*
X104763651Y-104780052D01*
X104763652Y-104780056D01*
X104774858Y-104831563D01*
X104808987Y-104934105D01*
X104886775Y-105055143D01*
X104932529Y-105107946D01*
X104932531Y-105107948D01*
X105041265Y-105202168D01*
X105101870Y-105229845D01*
X105172141Y-105261938D01*
X105210257Y-105273130D01*
X105239176Y-105281622D01*
X105239178Y-105281622D01*
X105239180Y-105281623D01*
X105239184Y-105281624D01*
X105239185Y-105281624D01*
X105239189Y-105281625D01*
X105239193Y-105281626D01*
X105381585Y-105302098D01*
X105381589Y-105302098D01*
X105381600Y-105302100D01*
X105381604Y-105302100D01*
X115801594Y-105302100D01*
X115801600Y-105302100D01*
X115845083Y-105297424D01*
X115909052Y-105290548D01*
X115909056Y-105290547D01*
X115960567Y-105279341D01*
X116063104Y-105245213D01*
X116184143Y-105167425D01*
X116236947Y-105121670D01*
X116331167Y-105012936D01*
X116390938Y-104882059D01*
X116410623Y-104815020D01*
X116410624Y-104815016D01*
X116410625Y-104815010D01*
X116410626Y-104815006D01*
X116431098Y-104672614D01*
X116431100Y-104672596D01*
X116431100Y-100362100D01*
X116451062Y-100287600D01*
X116505600Y-100233062D01*
X116580100Y-100213100D01*
X117523514Y-100213100D01*
X117523517Y-100213100D01*
X117523518Y-100213100D01*
X117668513Y-100184258D01*
X117805095Y-100127684D01*
X117869891Y-100084389D01*
X117928016Y-100045552D01*
X118501348Y-99472218D01*
X118568141Y-99433656D01*
X118645269Y-99433656D01*
X118712064Y-99472220D01*
X118744363Y-99520560D01*
X118772204Y-99587776D01*
X118772205Y-99587778D01*
X118772206Y-99587779D01*
X118859811Y-99718889D01*
X118971311Y-99830389D01*
X119102421Y-99917994D01*
X119248103Y-99978337D01*
X119396010Y-100007757D01*
X119465183Y-100041870D01*
X119472300Y-100048535D01*
X120615459Y-101191694D01*
X120625266Y-101208681D01*
X120639138Y-101222553D01*
X120644215Y-101241501D01*
X120654023Y-101258489D01*
X120659100Y-101297053D01*
X120659100Y-101438146D01*
X120639138Y-101512646D01*
X120615459Y-101543505D01*
X115640080Y-106518883D01*
X115612379Y-106566864D01*
X115612378Y-106566863D01*
X115561024Y-106655811D01*
X115561022Y-106655817D01*
X115520099Y-106808542D01*
X115520099Y-106978661D01*
X115520100Y-106978674D01*
X115520100Y-111724434D01*
X115500138Y-111798934D01*
X115458682Y-111844975D01*
X115379332Y-111902626D01*
X115298139Y-111961616D01*
X115157616Y-112102139D01*
X115040814Y-112262904D01*
X114983360Y-112375663D01*
X114931751Y-112432980D01*
X114858397Y-112456814D01*
X114782955Y-112440778D01*
X114725638Y-112389169D01*
X114717840Y-112375663D01*
X114708887Y-112358092D01*
X114660387Y-112262906D01*
X114543581Y-112102136D01*
X114403064Y-111961619D01*
X114242294Y-111844813D01*
X114152252Y-111798934D01*
X114065234Y-111754595D01*
X113876241Y-111693188D01*
X113876241Y-111693187D01*
X113767194Y-111675916D01*
X113679961Y-111662100D01*
X113481239Y-111662100D01*
X113402729Y-111674534D01*
X113284958Y-111693187D01*
X113284958Y-111693188D01*
X113095965Y-111754595D01*
X112918904Y-111844814D01*
X112758139Y-111961616D01*
X112617616Y-112102139D01*
X112500814Y-112262904D01*
X112500810Y-112262909D01*
X112443077Y-112376215D01*
X112391468Y-112433532D01*
X112318114Y-112457365D01*
X112242672Y-112441328D01*
X112185355Y-112389719D01*
X112177558Y-112376213D01*
X112119960Y-112263171D01*
X112119956Y-112263164D01*
X112092869Y-112225883D01*
X111530094Y-112788657D01*
X111513981Y-112728519D01*
X111447102Y-112612680D01*
X111352520Y-112518098D01*
X111236681Y-112451219D01*
X111176540Y-112435104D01*
X111739315Y-111872330D01*
X111739315Y-111872329D01*
X111702035Y-111845243D01*
X111702033Y-111845242D01*
X111525045Y-111755061D01*
X111525030Y-111755055D01*
X111336121Y-111693675D01*
X111139917Y-111662600D01*
X110941283Y-111662600D01*
X110745078Y-111693675D01*
X110556169Y-111755055D01*
X110556154Y-111755061D01*
X110379166Y-111845242D01*
X110379157Y-111845247D01*
X110341883Y-111872328D01*
X110341883Y-111872330D01*
X110904657Y-112435104D01*
X110844519Y-112451219D01*
X110728680Y-112518098D01*
X110634098Y-112612680D01*
X110567219Y-112728519D01*
X110551104Y-112788657D01*
X109988330Y-112225883D01*
X109988328Y-112225883D01*
X109961247Y-112263157D01*
X109961242Y-112263166D01*
X109903641Y-112376214D01*
X109852032Y-112433531D01*
X109778679Y-112457365D01*
X109703236Y-112441329D01*
X109645919Y-112389720D01*
X109638121Y-112376214D01*
X109620488Y-112341609D01*
X109580387Y-112262906D01*
X109463581Y-112102136D01*
X109323064Y-111961619D01*
X109162294Y-111844813D01*
X109072252Y-111798934D01*
X108985234Y-111754595D01*
X108796241Y-111693188D01*
X108796241Y-111693187D01*
X108687194Y-111675916D01*
X108599961Y-111662100D01*
X108401239Y-111662100D01*
X108322729Y-111674534D01*
X108204958Y-111693187D01*
X108204958Y-111693188D01*
X108015965Y-111754595D01*
X107838904Y-111844814D01*
X107678139Y-111961616D01*
X107537616Y-112102139D01*
X107420814Y-112262904D01*
X107363360Y-112375663D01*
X107311751Y-112432980D01*
X107238397Y-112456814D01*
X107162955Y-112440778D01*
X107105638Y-112389169D01*
X107097840Y-112375663D01*
X107088887Y-112358092D01*
X107040387Y-112262906D01*
X106923581Y-112102136D01*
X106783064Y-111961619D01*
X106622294Y-111844813D01*
X106532252Y-111798934D01*
X106445234Y-111754595D01*
X106256241Y-111693188D01*
X106256241Y-111693187D01*
X106147194Y-111675916D01*
X106059961Y-111662100D01*
X105861239Y-111662100D01*
X105782729Y-111674534D01*
X105664958Y-111693187D01*
X105664958Y-111693188D01*
X105475965Y-111754595D01*
X105298904Y-111844814D01*
X105138139Y-111961616D01*
X104997616Y-112102139D01*
X104880814Y-112262904D01*
X104880810Y-112262909D01*
X104823077Y-112376215D01*
X104771468Y-112433532D01*
X104698114Y-112457365D01*
X104622672Y-112441328D01*
X104565355Y-112389719D01*
X104557558Y-112376213D01*
X104499960Y-112263171D01*
X104499956Y-112263164D01*
X104472869Y-112225883D01*
X103910094Y-112788657D01*
X103893981Y-112728519D01*
X103827102Y-112612680D01*
X103732520Y-112518098D01*
X103616681Y-112451219D01*
X103556540Y-112435104D01*
X104119315Y-111872330D01*
X104119315Y-111872329D01*
X104082035Y-111845243D01*
X104082033Y-111845242D01*
X103905045Y-111755061D01*
X103905030Y-111755055D01*
X103716121Y-111693675D01*
X103519917Y-111662600D01*
X103321283Y-111662600D01*
X103125078Y-111693675D01*
X102936169Y-111755055D01*
X102936154Y-111755061D01*
X102759166Y-111845242D01*
X102759157Y-111845247D01*
X102721883Y-111872328D01*
X102721883Y-111872330D01*
X103284657Y-112435104D01*
X103224519Y-112451219D01*
X103108680Y-112518098D01*
X103014098Y-112612680D01*
X102947219Y-112728519D01*
X102931104Y-112788657D01*
X102368330Y-112225883D01*
X102368328Y-112225883D01*
X102341247Y-112263157D01*
X102341242Y-112263166D01*
X102283641Y-112376214D01*
X102232032Y-112433531D01*
X102158679Y-112457365D01*
X102083236Y-112441329D01*
X102025919Y-112389720D01*
X102018121Y-112376214D01*
X102000488Y-112341609D01*
X101960387Y-112262906D01*
X101843581Y-112102136D01*
X101703064Y-111961619D01*
X101542294Y-111844813D01*
X101452252Y-111798934D01*
X101365234Y-111754595D01*
X101176241Y-111693188D01*
X101176241Y-111693187D01*
X101067194Y-111675916D01*
X100979961Y-111662100D01*
X100781239Y-111662100D01*
X100702729Y-111674534D01*
X100584958Y-111693187D01*
X100584958Y-111693188D01*
X100395965Y-111754595D01*
X100218904Y-111844814D01*
X100058139Y-111961616D01*
X99917616Y-112102139D01*
X99800814Y-112262904D01*
X99710595Y-112439965D01*
X99649188Y-112628958D01*
X99649187Y-112628958D01*
X99633419Y-112728519D01*
X99618100Y-112825239D01*
X99618100Y-113023961D01*
X99631916Y-113111194D01*
X99649187Y-113220241D01*
X99710595Y-113409234D01*
X99771500Y-113528764D01*
X99800813Y-113586294D01*
X99917619Y-113747064D01*
X100058136Y-113887581D01*
X100218906Y-114004387D01*
X100333964Y-114063012D01*
X100395965Y-114094604D01*
X100584958Y-114156011D01*
X100584958Y-114156012D01*
X100584963Y-114156012D01*
X100584964Y-114156013D01*
X100781239Y-114187100D01*
X100781243Y-114187100D01*
X100979957Y-114187100D01*
X100979961Y-114187100D01*
X101176236Y-114156013D01*
X101176237Y-114156012D01*
X101176241Y-114156012D01*
X101176241Y-114156011D01*
X101365232Y-114094605D01*
X101542294Y-114004387D01*
X101703064Y-113887581D01*
X101843581Y-113747064D01*
X101960387Y-113586294D01*
X102018121Y-113472984D01*
X102069730Y-113415668D01*
X102143083Y-113391834D01*
X102218526Y-113407870D01*
X102275843Y-113459479D01*
X102283641Y-113472985D01*
X102341242Y-113586033D01*
X102341243Y-113586035D01*
X102368329Y-113623315D01*
X102368330Y-113623315D01*
X102931104Y-113060541D01*
X102947219Y-113120681D01*
X103014098Y-113236520D01*
X103108680Y-113331102D01*
X103224519Y-113397981D01*
X103284657Y-113414095D01*
X102721883Y-113976869D01*
X102759164Y-114003956D01*
X102759166Y-114003957D01*
X102936154Y-114094138D01*
X102936169Y-114094144D01*
X103125078Y-114155524D01*
X103321283Y-114186600D01*
X103519917Y-114186600D01*
X103716121Y-114155524D01*
X103905030Y-114094144D01*
X103905050Y-114094135D01*
X104082023Y-114003963D01*
X104082035Y-114003956D01*
X104119315Y-113976869D01*
X104119316Y-113976869D01*
X103556542Y-113414095D01*
X103616681Y-113397981D01*
X103732520Y-113331102D01*
X103827102Y-113236520D01*
X103893981Y-113120681D01*
X103910095Y-113060542D01*
X104472869Y-113623316D01*
X104472869Y-113623315D01*
X104499956Y-113586035D01*
X104499963Y-113586023D01*
X104557559Y-113472986D01*
X104609167Y-113415668D01*
X104682520Y-113391834D01*
X104757963Y-113407870D01*
X104815281Y-113459478D01*
X104823078Y-113472983D01*
X104880813Y-113586294D01*
X104997619Y-113747064D01*
X105138136Y-113887581D01*
X105298906Y-114004387D01*
X105413964Y-114063012D01*
X105475965Y-114094604D01*
X105664958Y-114156011D01*
X105664958Y-114156012D01*
X105664963Y-114156012D01*
X105664964Y-114156013D01*
X105861239Y-114187100D01*
X105861243Y-114187100D01*
X106059957Y-114187100D01*
X106059961Y-114187100D01*
X106256236Y-114156013D01*
X106256237Y-114156012D01*
X106256241Y-114156012D01*
X106256241Y-114156011D01*
X106445232Y-114094605D01*
X106622294Y-114004387D01*
X106783064Y-113887581D01*
X106923581Y-113747064D01*
X107040387Y-113586294D01*
X107097840Y-113473535D01*
X107149449Y-113416219D01*
X107222802Y-113392385D01*
X107298245Y-113408421D01*
X107355562Y-113460030D01*
X107363357Y-113473531D01*
X107420813Y-113586294D01*
X107537619Y-113747064D01*
X107678136Y-113887581D01*
X107838906Y-114004387D01*
X107953964Y-114063012D01*
X108015965Y-114094604D01*
X108204958Y-114156011D01*
X108204958Y-114156012D01*
X108204963Y-114156012D01*
X108204964Y-114156013D01*
X108401239Y-114187100D01*
X108401243Y-114187100D01*
X108599957Y-114187100D01*
X108599961Y-114187100D01*
X108796236Y-114156013D01*
X108796237Y-114156012D01*
X108796241Y-114156012D01*
X108796241Y-114156011D01*
X108985232Y-114094605D01*
X109162294Y-114004387D01*
X109323064Y-113887581D01*
X109463581Y-113747064D01*
X109580387Y-113586294D01*
X109638121Y-113472984D01*
X109689730Y-113415668D01*
X109763083Y-113391834D01*
X109838526Y-113407870D01*
X109895843Y-113459479D01*
X109903641Y-113472985D01*
X109961242Y-113586033D01*
X109961243Y-113586035D01*
X109988329Y-113623315D01*
X109988330Y-113623315D01*
X110551104Y-113060541D01*
X110567219Y-113120681D01*
X110634098Y-113236520D01*
X110728680Y-113331102D01*
X110844519Y-113397981D01*
X110904657Y-113414095D01*
X110341883Y-113976869D01*
X110379164Y-114003956D01*
X110379166Y-114003957D01*
X110556154Y-114094138D01*
X110556169Y-114094144D01*
X110745078Y-114155524D01*
X110941283Y-114186600D01*
X111139917Y-114186600D01*
X111336121Y-114155524D01*
X111525030Y-114094144D01*
X111525050Y-114094135D01*
X111702023Y-114003963D01*
X111702035Y-114003956D01*
X111739315Y-113976869D01*
X111739316Y-113976869D01*
X111176542Y-113414095D01*
X111236681Y-113397981D01*
X111352520Y-113331102D01*
X111447102Y-113236520D01*
X111513981Y-113120681D01*
X111530095Y-113060542D01*
X112092869Y-113623316D01*
X112092869Y-113623315D01*
X112119956Y-113586035D01*
X112119963Y-113586023D01*
X112177559Y-113472986D01*
X112229167Y-113415668D01*
X112302520Y-113391834D01*
X112377963Y-113407870D01*
X112435281Y-113459478D01*
X112443078Y-113472983D01*
X112500813Y-113586294D01*
X112617619Y-113747064D01*
X112758136Y-113887581D01*
X112918906Y-114004387D01*
X113033964Y-114063012D01*
X113095965Y-114094604D01*
X113284958Y-114156011D01*
X113284958Y-114156012D01*
X113284963Y-114156012D01*
X113284964Y-114156013D01*
X113481239Y-114187100D01*
X113481243Y-114187100D01*
X113679957Y-114187100D01*
X113679961Y-114187100D01*
X113876236Y-114156013D01*
X113876237Y-114156012D01*
X113876241Y-114156012D01*
X113876241Y-114156011D01*
X114065232Y-114094605D01*
X114242294Y-114004387D01*
X114403064Y-113887581D01*
X114543581Y-113747064D01*
X114660387Y-113586294D01*
X114717840Y-113473535D01*
X114769449Y-113416219D01*
X114842802Y-113392385D01*
X114918245Y-113408421D01*
X114975562Y-113460030D01*
X114983357Y-113473531D01*
X115040813Y-113586294D01*
X115157619Y-113747064D01*
X115298136Y-113887581D01*
X115458906Y-114004387D01*
X115573964Y-114063012D01*
X115635965Y-114094604D01*
X115824958Y-114156011D01*
X115824958Y-114156012D01*
X115824963Y-114156012D01*
X115824964Y-114156013D01*
X116021239Y-114187100D01*
X116021243Y-114187100D01*
X116219957Y-114187100D01*
X116219961Y-114187100D01*
X116416236Y-114156013D01*
X116416237Y-114156012D01*
X116416241Y-114156012D01*
X116416241Y-114156011D01*
X116605232Y-114094605D01*
X116782294Y-114004387D01*
X116943064Y-113887581D01*
X117083581Y-113747064D01*
X117200387Y-113586294D01*
X117257840Y-113473535D01*
X117309449Y-113416219D01*
X117382802Y-113392385D01*
X117458245Y-113408421D01*
X117515562Y-113460030D01*
X117523357Y-113473531D01*
X117580813Y-113586294D01*
X117697619Y-113747064D01*
X117838136Y-113887581D01*
X117998906Y-114004387D01*
X118113964Y-114063012D01*
X118175965Y-114094604D01*
X118364958Y-114156011D01*
X118364958Y-114156012D01*
X118364963Y-114156012D01*
X118364964Y-114156013D01*
X118561239Y-114187100D01*
X118561243Y-114187100D01*
X118759957Y-114187100D01*
X118759961Y-114187100D01*
X118956236Y-114156013D01*
X118956237Y-114156012D01*
X118956241Y-114156012D01*
X118956241Y-114156011D01*
X119145232Y-114094605D01*
X119322294Y-114004387D01*
X119483064Y-113887581D01*
X119623581Y-113747064D01*
X119740387Y-113586294D01*
X119797840Y-113473535D01*
X119849449Y-113416219D01*
X119922802Y-113392385D01*
X119998245Y-113408421D01*
X120055562Y-113460030D01*
X120063357Y-113473531D01*
X120120813Y-113586294D01*
X120237619Y-113747064D01*
X120378136Y-113887581D01*
X120538906Y-114004387D01*
X120653964Y-114063012D01*
X120715965Y-114094604D01*
X120904958Y-114156011D01*
X120904958Y-114156012D01*
X120904963Y-114156012D01*
X120904964Y-114156013D01*
X121101239Y-114187100D01*
X121101243Y-114187100D01*
X121299957Y-114187100D01*
X121299961Y-114187100D01*
X121496236Y-114156013D01*
X121496237Y-114156012D01*
X121496241Y-114156012D01*
X121496241Y-114156011D01*
X121685232Y-114094605D01*
X121862294Y-114004387D01*
X122023064Y-113887581D01*
X122163581Y-113747064D01*
X122280387Y-113586294D01*
X122337840Y-113473535D01*
X122389449Y-113416219D01*
X122462802Y-113392385D01*
X122538245Y-113408421D01*
X122595562Y-113460030D01*
X122603357Y-113473531D01*
X122660813Y-113586294D01*
X122777619Y-113747064D01*
X122918136Y-113887581D01*
X123078906Y-114004387D01*
X123193964Y-114063012D01*
X123255965Y-114094604D01*
X123444958Y-114156011D01*
X123444958Y-114156012D01*
X123444963Y-114156012D01*
X123444964Y-114156013D01*
X123641239Y-114187100D01*
X123641243Y-114187100D01*
X123839957Y-114187100D01*
X123839961Y-114187100D01*
X124036236Y-114156013D01*
X124036237Y-114156012D01*
X124036241Y-114156012D01*
X124036241Y-114156011D01*
X124225232Y-114094605D01*
X124402294Y-114004387D01*
X124563064Y-113887581D01*
X124703581Y-113747064D01*
X124820387Y-113586294D01*
X124877840Y-113473535D01*
X124929449Y-113416219D01*
X125002802Y-113392385D01*
X125078245Y-113408421D01*
X125135562Y-113460030D01*
X125143357Y-113473531D01*
X125200813Y-113586294D01*
X125317619Y-113747064D01*
X125458136Y-113887581D01*
X125618906Y-114004387D01*
X125733964Y-114063012D01*
X125795965Y-114094604D01*
X125984958Y-114156011D01*
X125984958Y-114156012D01*
X125984963Y-114156012D01*
X125984964Y-114156013D01*
X126181239Y-114187100D01*
X126181243Y-114187100D01*
X126379957Y-114187100D01*
X126379961Y-114187100D01*
X126576236Y-114156013D01*
X126576237Y-114156012D01*
X126576241Y-114156012D01*
X126576241Y-114156011D01*
X126765232Y-114094605D01*
X126942294Y-114004387D01*
X127103064Y-113887581D01*
X127243581Y-113747064D01*
X127360387Y-113586294D01*
X127417840Y-113473535D01*
X127469449Y-113416219D01*
X127542802Y-113392385D01*
X127618245Y-113408421D01*
X127675562Y-113460030D01*
X127683357Y-113473531D01*
X127740813Y-113586294D01*
X127857619Y-113747064D01*
X127998136Y-113887581D01*
X128158906Y-114004387D01*
X128273964Y-114063012D01*
X128335965Y-114094604D01*
X128524958Y-114156011D01*
X128524958Y-114156012D01*
X128524963Y-114156012D01*
X128524964Y-114156013D01*
X128721239Y-114187100D01*
X128721243Y-114187100D01*
X128919957Y-114187100D01*
X128919961Y-114187100D01*
X129116236Y-114156013D01*
X129116237Y-114156012D01*
X129116241Y-114156012D01*
X129116241Y-114156011D01*
X129305232Y-114094605D01*
X129482294Y-114004387D01*
X129643064Y-113887581D01*
X129783581Y-113747064D01*
X129900387Y-113586294D01*
X129957840Y-113473535D01*
X130009449Y-113416219D01*
X130082802Y-113392385D01*
X130158245Y-113408421D01*
X130215562Y-113460030D01*
X130223357Y-113473531D01*
X130280813Y-113586294D01*
X130397619Y-113747064D01*
X130538136Y-113887581D01*
X130698906Y-114004387D01*
X130813964Y-114063012D01*
X130875965Y-114094604D01*
X131064958Y-114156011D01*
X131064958Y-114156012D01*
X131064963Y-114156012D01*
X131064964Y-114156013D01*
X131261239Y-114187100D01*
X131261243Y-114187100D01*
X131459957Y-114187100D01*
X131459961Y-114187100D01*
X131656236Y-114156013D01*
X131656237Y-114156012D01*
X131656241Y-114156012D01*
X131656241Y-114156011D01*
X131845232Y-114094605D01*
X131846149Y-114094138D01*
X131872454Y-114080735D01*
X131947896Y-114064698D01*
X132021250Y-114088531D01*
X132072859Y-114145848D01*
X132089100Y-114213494D01*
X132089100Y-114672147D01*
X132069138Y-114746647D01*
X132045459Y-114777506D01*
X129899300Y-116923664D01*
X129832505Y-116962228D01*
X129823010Y-116964442D01*
X129675103Y-116993862D01*
X129675101Y-116993863D01*
X129529423Y-117054204D01*
X129398307Y-117141814D01*
X129286814Y-117253307D01*
X129199204Y-117384423D01*
X129138863Y-117530101D01*
X129138862Y-117530105D01*
X129108100Y-117684757D01*
X129108100Y-117842442D01*
X129138862Y-117997094D01*
X129138863Y-117997098D01*
X129199204Y-118142776D01*
X129199205Y-118142778D01*
X129199206Y-118142779D01*
X129286811Y-118273889D01*
X129398311Y-118385389D01*
X129529421Y-118472994D01*
X129675103Y-118533337D01*
X129829758Y-118564100D01*
X129987442Y-118564100D01*
X130142097Y-118533337D01*
X130287779Y-118472994D01*
X130418889Y-118385389D01*
X130530389Y-118273889D01*
X130617994Y-118142779D01*
X130678337Y-117997097D01*
X130707758Y-117849187D01*
X130741869Y-117780016D01*
X130748520Y-117772914D01*
X133046048Y-115475385D01*
X133046053Y-115475382D01*
X133058314Y-115463120D01*
X133058316Y-115463120D01*
X133170120Y-115351316D01*
X133220239Y-115264504D01*
X133249177Y-115214385D01*
X133290101Y-115061657D01*
X133290101Y-114903543D01*
X133290101Y-114894415D01*
X133290100Y-114894397D01*
X133290100Y-114258788D01*
X133310062Y-114184288D01*
X133364600Y-114129750D01*
X133439100Y-114109788D01*
X133485140Y-114117080D01*
X133604961Y-114156012D01*
X133604963Y-114156012D01*
X133604964Y-114156013D01*
X133801239Y-114187100D01*
X133801243Y-114187100D01*
X133999957Y-114187100D01*
X133999961Y-114187100D01*
X134196236Y-114156013D01*
X134196237Y-114156012D01*
X134196241Y-114156012D01*
X134196241Y-114156011D01*
X134385232Y-114094605D01*
X134562294Y-114004387D01*
X134723064Y-113887581D01*
X134863581Y-113747064D01*
X134980387Y-113586294D01*
X135037840Y-113473535D01*
X135089449Y-113416219D01*
X135162802Y-113392385D01*
X135238245Y-113408421D01*
X135295562Y-113460030D01*
X135303357Y-113473531D01*
X135360813Y-113586294D01*
X135477619Y-113747064D01*
X135618136Y-113887581D01*
X135778906Y-114004387D01*
X135893964Y-114063012D01*
X135955965Y-114094604D01*
X136144958Y-114156011D01*
X136144958Y-114156012D01*
X136144963Y-114156012D01*
X136144964Y-114156013D01*
X136341239Y-114187100D01*
X136341243Y-114187100D01*
X136539957Y-114187100D01*
X136539961Y-114187100D01*
X136736236Y-114156013D01*
X136736237Y-114156012D01*
X136736241Y-114156012D01*
X136736241Y-114156011D01*
X136925232Y-114094605D01*
X137102294Y-114004387D01*
X137263064Y-113887581D01*
X137403581Y-113747064D01*
X137520387Y-113586294D01*
X137578121Y-113472984D01*
X137629730Y-113415668D01*
X137703083Y-113391834D01*
X137778526Y-113407870D01*
X137835843Y-113459479D01*
X137843641Y-113472985D01*
X137901242Y-113586033D01*
X137901243Y-113586035D01*
X137928329Y-113623315D01*
X137928330Y-113623315D01*
X138491104Y-113060541D01*
X138507219Y-113120681D01*
X138574098Y-113236520D01*
X138668680Y-113331102D01*
X138784519Y-113397981D01*
X138844657Y-113414094D01*
X138281882Y-113976869D01*
X138319164Y-114003956D01*
X138319166Y-114003957D01*
X138496154Y-114094138D01*
X138496169Y-114094144D01*
X138685078Y-114155524D01*
X138881283Y-114186600D01*
X139079917Y-114186600D01*
X139276121Y-114155524D01*
X139465030Y-114094144D01*
X139465050Y-114094135D01*
X139642023Y-114003963D01*
X139642035Y-114003956D01*
X139679315Y-113976869D01*
X139679316Y-113976869D01*
X139116542Y-113414095D01*
X139176681Y-113397981D01*
X139292520Y-113331102D01*
X139387102Y-113236520D01*
X139453981Y-113120681D01*
X139470095Y-113060542D01*
X140032869Y-113623316D01*
X140032869Y-113623315D01*
X140059956Y-113586035D01*
X140059963Y-113586023D01*
X140150135Y-113409050D01*
X140150144Y-113409030D01*
X140211524Y-113220121D01*
X140242600Y-113023917D01*
X140242600Y-112825282D01*
X140211524Y-112629078D01*
X140150144Y-112440169D01*
X140150138Y-112440154D01*
X140059957Y-112263166D01*
X140059956Y-112263164D01*
X140032869Y-112225883D01*
X139470094Y-112788657D01*
X139453981Y-112728519D01*
X139387102Y-112612680D01*
X139292520Y-112518098D01*
X139176681Y-112451219D01*
X139116540Y-112435104D01*
X139679315Y-111872330D01*
X139679315Y-111872329D01*
X139642035Y-111845243D01*
X139642033Y-111845242D01*
X139503901Y-111774860D01*
X139446584Y-111723251D01*
X139422750Y-111649898D01*
X139438786Y-111574455D01*
X139490395Y-111517138D01*
X139563748Y-111493304D01*
X139571546Y-111493100D01*
X150608109Y-111493100D01*
X150675752Y-111509339D01*
X150750039Y-111547191D01*
X150750041Y-111547191D01*
X150750042Y-111547192D01*
X150937831Y-111608208D01*
X150937831Y-111608209D01*
X150937836Y-111608209D01*
X150937837Y-111608210D01*
X151132869Y-111639100D01*
X151132873Y-111639100D01*
X151330327Y-111639100D01*
X151330331Y-111639100D01*
X151525363Y-111608210D01*
X151525364Y-111608209D01*
X151525368Y-111608209D01*
X151525368Y-111608208D01*
X151713161Y-111547191D01*
X151889101Y-111457544D01*
X152048852Y-111341479D01*
X152188479Y-111201852D01*
X152304544Y-111042101D01*
X152394191Y-110866161D01*
X152455208Y-110678368D01*
X152455209Y-110678368D01*
X152457156Y-110666078D01*
X152486100Y-110483331D01*
X152486100Y-110285869D01*
X152455210Y-110090837D01*
X152455209Y-110090836D01*
X152455209Y-110090831D01*
X152394189Y-109903034D01*
X152348573Y-109813509D01*
X152304544Y-109727099D01*
X152188479Y-109567348D01*
X152048852Y-109427721D01*
X151889101Y-109311656D01*
X151762913Y-109247359D01*
X151705597Y-109195751D01*
X151681763Y-109122397D01*
X151697799Y-109046955D01*
X151749408Y-108989638D01*
X151762909Y-108981842D01*
X151889101Y-108917544D01*
X152048852Y-108801479D01*
X152188479Y-108661852D01*
X152304544Y-108502101D01*
X152394191Y-108326161D01*
X152455208Y-108138368D01*
X152455209Y-108138368D01*
X152455210Y-108138363D01*
X152486100Y-107943331D01*
X152486100Y-107745869D01*
X152455210Y-107550837D01*
X152455209Y-107550836D01*
X152455209Y-107550831D01*
X152394189Y-107363034D01*
X152340546Y-107257757D01*
X152304544Y-107187099D01*
X152188479Y-107027348D01*
X152048852Y-106887721D01*
X151889101Y-106771656D01*
X151762913Y-106707359D01*
X151705597Y-106655751D01*
X151681763Y-106582397D01*
X151697799Y-106506955D01*
X151749408Y-106449638D01*
X151762909Y-106441842D01*
X151889101Y-106377544D01*
X152048852Y-106261479D01*
X152188479Y-106121852D01*
X152304544Y-105962101D01*
X152394191Y-105786161D01*
X152455208Y-105598368D01*
X152455209Y-105598368D01*
X152460282Y-105566337D01*
X152486100Y-105403331D01*
X152486100Y-105205869D01*
X152456064Y-105016228D01*
X152464127Y-104939524D01*
X152497869Y-104887564D01*
X154032741Y-103352693D01*
X154099536Y-103314129D01*
X154176664Y-103314129D01*
X154243459Y-103352693D01*
X154282023Y-103419488D01*
X154287100Y-103458052D01*
X154287100Y-119380553D01*
X154286958Y-119387052D01*
X154269957Y-119776430D01*
X154268824Y-119789379D01*
X154218376Y-120172569D01*
X154216119Y-120185371D01*
X154132465Y-120562709D01*
X154129101Y-120575264D01*
X154012877Y-120943877D01*
X154008431Y-120956091D01*
X153860528Y-121313163D01*
X153855035Y-121324945D01*
X153676563Y-121667786D01*
X153670063Y-121679043D01*
X153462402Y-122005006D01*
X153454947Y-122015653D01*
X153219660Y-122322286D01*
X153211304Y-122332244D01*
X152950190Y-122617199D01*
X152940999Y-122626390D01*
X152656044Y-122887504D01*
X152646086Y-122895860D01*
X152339453Y-123131147D01*
X152328806Y-123138602D01*
X152002843Y-123346263D01*
X151991586Y-123352763D01*
X151648745Y-123531235D01*
X151636963Y-123536728D01*
X151279891Y-123684631D01*
X151267677Y-123689077D01*
X150899064Y-123805301D01*
X150886509Y-123808665D01*
X150509171Y-123892319D01*
X150496369Y-123894576D01*
X150113179Y-123945024D01*
X150100230Y-123946157D01*
X149710852Y-123963158D01*
X149704353Y-123963300D01*
X97894715Y-123963300D01*
X97888216Y-123963158D01*
X97498972Y-123946163D01*
X97486023Y-123945030D01*
X97102833Y-123894583D01*
X97090031Y-123892326D01*
X96712695Y-123808672D01*
X96700140Y-123805308D01*
X96331520Y-123689083D01*
X96319306Y-123684637D01*
X95962241Y-123536737D01*
X95950459Y-123531244D01*
X95607608Y-123352767D01*
X95596361Y-123346273D01*
X95270381Y-123138602D01*
X95259755Y-123131161D01*
X94953113Y-122895865D01*
X94943156Y-122887511D01*
X94658192Y-122626391D01*
X94649001Y-122617199D01*
X94529289Y-122486557D01*
X94387885Y-122332242D01*
X94379543Y-122322300D01*
X94144246Y-122015653D01*
X94136794Y-122005010D01*
X94003736Y-121796153D01*
X93929125Y-121679038D01*
X93922628Y-121667785D01*
X93874173Y-121574704D01*
X93744158Y-121324945D01*
X93738669Y-121313173D01*
X93685287Y-121184299D01*
X93590762Y-120956095D01*
X93586316Y-120943880D01*
X93470092Y-120575264D01*
X93466728Y-120562709D01*
X93427608Y-120386250D01*
X93383070Y-120185352D01*
X93380819Y-120172587D01*
X93330368Y-119789379D01*
X93329236Y-119776431D01*
X93327462Y-119735806D01*
X93312242Y-119387189D01*
X93312100Y-119380690D01*
X93312100Y-119265783D01*
X96091100Y-119265783D01*
X96091100Y-119501816D01*
X96121905Y-119735806D01*
X96121906Y-119735812D01*
X96121907Y-119735814D01*
X96182994Y-119963793D01*
X96272145Y-120179023D01*
X96273319Y-120181856D01*
X96371326Y-120351607D01*
X96391327Y-120386250D01*
X96535008Y-120573499D01*
X96701901Y-120740392D01*
X96889150Y-120884073D01*
X96916295Y-120899745D01*
X97093543Y-121002080D01*
X97093546Y-121002081D01*
X97093551Y-121002084D01*
X97311607Y-121092406D01*
X97539586Y-121153493D01*
X97539592Y-121153493D01*
X97539593Y-121153494D01*
X97603203Y-121161868D01*
X97773589Y-121184300D01*
X98009611Y-121184300D01*
X98243614Y-121153493D01*
X98471593Y-121092406D01*
X98689649Y-121002084D01*
X98894050Y-120884073D01*
X99081299Y-120740392D01*
X99248192Y-120573499D01*
X99351924Y-120438313D01*
X136170100Y-120438313D01*
X136170100Y-120650887D01*
X136203354Y-120860843D01*
X136269043Y-121063012D01*
X136330842Y-121184300D01*
X136365550Y-121252417D01*
X136365550Y-121252418D01*
X136414058Y-121319184D01*
X136490496Y-121424392D01*
X136640808Y-121574704D01*
X136812784Y-121699651D01*
X137002188Y-121796157D01*
X137204357Y-121861846D01*
X137414313Y-121895100D01*
X137414318Y-121895100D01*
X137626882Y-121895100D01*
X137626887Y-121895100D01*
X137836843Y-121861846D01*
X138039012Y-121796157D01*
X138228416Y-121699651D01*
X138400392Y-121574704D01*
X138486807Y-121488289D01*
X138553601Y-121449724D01*
X138630729Y-121449724D01*
X138697524Y-121488288D01*
X138731771Y-121541576D01*
X138767246Y-121636686D01*
X138767250Y-121636694D01*
X138853409Y-121751787D01*
X138853412Y-121751790D01*
X138968505Y-121837949D01*
X138968515Y-121837954D01*
X139103223Y-121888198D01*
X139103221Y-121888198D01*
X139162757Y-121894598D01*
X139162777Y-121894600D01*
X139810600Y-121894600D01*
X139810600Y-120977612D01*
X139867607Y-121010525D01*
X139994774Y-121044600D01*
X140126426Y-121044600D01*
X140253593Y-121010525D01*
X140310600Y-120977612D01*
X140310600Y-121894600D01*
X140958423Y-121894600D01*
X140958442Y-121894598D01*
X141017977Y-121888198D01*
X141152684Y-121837954D01*
X141152694Y-121837949D01*
X141267787Y-121751790D01*
X141267790Y-121751787D01*
X141353949Y-121636694D01*
X141353954Y-121636684D01*
X141404198Y-121501977D01*
X141410598Y-121442442D01*
X141410600Y-121442422D01*
X141410600Y-120794600D01*
X140493612Y-120794600D01*
X140526525Y-120737593D01*
X140560600Y-120610426D01*
X140560600Y-120478774D01*
X140526525Y-120351607D01*
X140493612Y-120294600D01*
X141410600Y-120294600D01*
X141410600Y-119646777D01*
X141410598Y-119646757D01*
X141404198Y-119587222D01*
X141353954Y-119452515D01*
X141353951Y-119452508D01*
X141277366Y-119350205D01*
X141277365Y-119350204D01*
X141267786Y-119337408D01*
X141172108Y-119265783D01*
X147907100Y-119265783D01*
X147907100Y-119501816D01*
X147937905Y-119735806D01*
X147937906Y-119735812D01*
X147937907Y-119735814D01*
X147998994Y-119963793D01*
X148088145Y-120179023D01*
X148089319Y-120181856D01*
X148187326Y-120351607D01*
X148207327Y-120386250D01*
X148351008Y-120573499D01*
X148517901Y-120740392D01*
X148705150Y-120884073D01*
X148732295Y-120899745D01*
X148909543Y-121002080D01*
X148909546Y-121002081D01*
X148909551Y-121002084D01*
X149127607Y-121092406D01*
X149355586Y-121153493D01*
X149355592Y-121153493D01*
X149355593Y-121153494D01*
X149419203Y-121161868D01*
X149589589Y-121184300D01*
X149825611Y-121184300D01*
X150059614Y-121153493D01*
X150287593Y-121092406D01*
X150505649Y-121002084D01*
X150710050Y-120884073D01*
X150897299Y-120740392D01*
X151064192Y-120573499D01*
X151207873Y-120386250D01*
X151325884Y-120181849D01*
X151416206Y-119963793D01*
X151477293Y-119735814D01*
X151508100Y-119501811D01*
X151508100Y-119265789D01*
X151477293Y-119031786D01*
X151416206Y-118803807D01*
X151325884Y-118585751D01*
X151325881Y-118585746D01*
X151325880Y-118585743D01*
X151260784Y-118472994D01*
X151207873Y-118381350D01*
X151064192Y-118194101D01*
X150897299Y-118027208D01*
X150710050Y-117883527D01*
X150638889Y-117842442D01*
X150505656Y-117765519D01*
X150287596Y-117675195D01*
X150287594Y-117675194D01*
X150287593Y-117675194D01*
X150059614Y-117614107D01*
X150059612Y-117614106D01*
X150059606Y-117614105D01*
X149825616Y-117583300D01*
X149825611Y-117583300D01*
X149589589Y-117583300D01*
X149589583Y-117583300D01*
X149355593Y-117614105D01*
X149127603Y-117675195D01*
X148909543Y-117765519D01*
X148705151Y-117883526D01*
X148705150Y-117883527D01*
X148517901Y-118027208D01*
X148517899Y-118027209D01*
X148517895Y-118027213D01*
X148351013Y-118194095D01*
X148207326Y-118381351D01*
X148089319Y-118585743D01*
X147998995Y-118803803D01*
X147937905Y-119031793D01*
X147907100Y-119265783D01*
X141172108Y-119265783D01*
X141152694Y-119251250D01*
X141152684Y-119251245D01*
X141017976Y-119201001D01*
X141017978Y-119201001D01*
X140958442Y-119194601D01*
X140958423Y-119194600D01*
X140310600Y-119194600D01*
X140310600Y-120111588D01*
X140253593Y-120078675D01*
X140126426Y-120044600D01*
X139994774Y-120044600D01*
X139867607Y-120078675D01*
X139810600Y-120111588D01*
X139810600Y-119194600D01*
X139162777Y-119194600D01*
X139162757Y-119194601D01*
X139103222Y-119201001D01*
X138968515Y-119251245D01*
X138968505Y-119251250D01*
X138853412Y-119337409D01*
X138853409Y-119337412D01*
X138767250Y-119452505D01*
X138767247Y-119452511D01*
X138731771Y-119547624D01*
X138687032Y-119610450D01*
X138616873Y-119642489D01*
X138540094Y-119635157D01*
X138486807Y-119600911D01*
X138400393Y-119514497D01*
X138400392Y-119514496D01*
X138228416Y-119389549D01*
X138039012Y-119293043D01*
X137836843Y-119227354D01*
X137626887Y-119194100D01*
X137414313Y-119194100D01*
X137239349Y-119221811D01*
X137204356Y-119227354D01*
X137002194Y-119293041D01*
X137002188Y-119293043D01*
X137002182Y-119293045D01*
X137002182Y-119293046D01*
X136812782Y-119389550D01*
X136812781Y-119389550D01*
X136640809Y-119514495D01*
X136640806Y-119514497D01*
X136490497Y-119664806D01*
X136490495Y-119664809D01*
X136365550Y-119836781D01*
X136365550Y-119836782D01*
X136269046Y-120026182D01*
X136269041Y-120026194D01*
X136219384Y-120179023D01*
X136203354Y-120228357D01*
X136170100Y-120438313D01*
X99351924Y-120438313D01*
X99391873Y-120386250D01*
X99401601Y-120369400D01*
X99408208Y-120357958D01*
X99477700Y-120237593D01*
X99509884Y-120181849D01*
X99600206Y-119963793D01*
X99661293Y-119735814D01*
X99692100Y-119501811D01*
X99692100Y-119265789D01*
X99661293Y-119031786D01*
X99600206Y-118803807D01*
X99509884Y-118585751D01*
X99509881Y-118585746D01*
X99509880Y-118585743D01*
X99444784Y-118472994D01*
X99391873Y-118381350D01*
X99248192Y-118194101D01*
X99081299Y-118027208D01*
X98894050Y-117883527D01*
X98822889Y-117842442D01*
X98689656Y-117765519D01*
X98471596Y-117675195D01*
X98471594Y-117675194D01*
X98471593Y-117675194D01*
X98243614Y-117614107D01*
X98243612Y-117614106D01*
X98243606Y-117614105D01*
X98009616Y-117583300D01*
X98009611Y-117583300D01*
X97773589Y-117583300D01*
X97773583Y-117583300D01*
X97539593Y-117614105D01*
X97311603Y-117675195D01*
X97093543Y-117765519D01*
X96889151Y-117883526D01*
X96889150Y-117883527D01*
X96701901Y-118027208D01*
X96701899Y-118027209D01*
X96701895Y-118027213D01*
X96535013Y-118194095D01*
X96391326Y-118381351D01*
X96273319Y-118585743D01*
X96182995Y-118803803D01*
X96121905Y-119031793D01*
X96091100Y-119265783D01*
X93312100Y-119265783D01*
X93312100Y-87048909D01*
X97678601Y-87048909D01*
X97688744Y-87148206D01*
X97688744Y-87148209D01*
X97742053Y-87309085D01*
X97831027Y-87453332D01*
X97950867Y-87573172D01*
X98095114Y-87662146D01*
X98255996Y-87715456D01*
X98255996Y-87715457D01*
X98355279Y-87725599D01*
X98403600Y-87725599D01*
X98903600Y-87725599D01*
X98951910Y-87725599D01*
X99051206Y-87715455D01*
X99051209Y-87715455D01*
X99212085Y-87662146D01*
X99356332Y-87573172D01*
X99476172Y-87453332D01*
X99565146Y-87309085D01*
X99618456Y-87148203D01*
X99618457Y-87148203D01*
X99628599Y-87048925D01*
X99628600Y-87048915D01*
X99628600Y-87035909D01*
X100726601Y-87035909D01*
X100736744Y-87135206D01*
X100736744Y-87135209D01*
X100790053Y-87296085D01*
X100879027Y-87440332D01*
X100998867Y-87560172D01*
X101143114Y-87649146D01*
X101303996Y-87702456D01*
X101303996Y-87702457D01*
X101403279Y-87712599D01*
X101451600Y-87712599D01*
X101951600Y-87712599D01*
X101999910Y-87712599D01*
X102099206Y-87702455D01*
X102099209Y-87702455D01*
X102260085Y-87649146D01*
X102404332Y-87560172D01*
X102524172Y-87440332D01*
X102613146Y-87296085D01*
X102666456Y-87135203D01*
X102666457Y-87135203D01*
X102676599Y-87035925D01*
X102676600Y-87035915D01*
X102676600Y-87012600D01*
X101951600Y-87012600D01*
X101951600Y-87712599D01*
X101451600Y-87712599D01*
X101451600Y-87012600D01*
X100726601Y-87012600D01*
X100726601Y-87035909D01*
X99628600Y-87035909D01*
X99628600Y-87025600D01*
X98903600Y-87025600D01*
X98903600Y-87725599D01*
X98403600Y-87725599D01*
X98403600Y-87025600D01*
X97678601Y-87025600D01*
X97678601Y-87048909D01*
X93312100Y-87048909D01*
X93312100Y-74163274D01*
X98694600Y-74163274D01*
X98694600Y-74186600D01*
X99419600Y-74186600D01*
X99919600Y-74186600D01*
X100644599Y-74186600D01*
X100644599Y-74163290D01*
X100634455Y-74063993D01*
X100634455Y-74063990D01*
X100581146Y-73903114D01*
X100492172Y-73758867D01*
X100372332Y-73639027D01*
X100228085Y-73550053D01*
X100067203Y-73496743D01*
X100067203Y-73496742D01*
X99967925Y-73486600D01*
X99919600Y-73486600D01*
X99919600Y-74186600D01*
X99419600Y-74186600D01*
X99419600Y-73486600D01*
X99371289Y-73486600D01*
X99271993Y-73496744D01*
X99271990Y-73496744D01*
X99111114Y-73550053D01*
X98966867Y-73639027D01*
X98847027Y-73758867D01*
X98758053Y-73903114D01*
X98704743Y-74063996D01*
X98704742Y-74063996D01*
X98694600Y-74163274D01*
X93312100Y-74163274D01*
X93312100Y-67969846D01*
X93312242Y-67963347D01*
X93315795Y-67881983D01*
X96091100Y-67881983D01*
X96091100Y-68118016D01*
X96121905Y-68352006D01*
X96182995Y-68579996D01*
X96273319Y-68798056D01*
X96376063Y-68976013D01*
X96391327Y-69002450D01*
X96535008Y-69189699D01*
X96701901Y-69356592D01*
X96889150Y-69500273D01*
X96987805Y-69557231D01*
X97093543Y-69618280D01*
X97093546Y-69618281D01*
X97093551Y-69618284D01*
X97311607Y-69708606D01*
X97539586Y-69769693D01*
X97539592Y-69769693D01*
X97539593Y-69769694D01*
X97603203Y-69778068D01*
X97773589Y-69800500D01*
X98009611Y-69800500D01*
X98243614Y-69769693D01*
X98471593Y-69708606D01*
X98689649Y-69618284D01*
X98894050Y-69500273D01*
X99081299Y-69356592D01*
X99248192Y-69189699D01*
X99391873Y-69002450D01*
X99509884Y-68798049D01*
X99600206Y-68579993D01*
X99661293Y-68352014D01*
X99692100Y-68118011D01*
X99692100Y-67881989D01*
X99692099Y-67881983D01*
X147907100Y-67881983D01*
X147907100Y-68118016D01*
X147937905Y-68352006D01*
X147998995Y-68579996D01*
X148089319Y-68798056D01*
X148192063Y-68976013D01*
X148207327Y-69002450D01*
X148351008Y-69189699D01*
X148517901Y-69356592D01*
X148705150Y-69500273D01*
X148803805Y-69557231D01*
X148909543Y-69618280D01*
X148909546Y-69618281D01*
X148909551Y-69618284D01*
X149127607Y-69708606D01*
X149355586Y-69769693D01*
X149355592Y-69769693D01*
X149355593Y-69769694D01*
X149419203Y-69778068D01*
X149589589Y-69800500D01*
X149825611Y-69800500D01*
X150059614Y-69769693D01*
X150287593Y-69708606D01*
X150505649Y-69618284D01*
X150710050Y-69500273D01*
X150897299Y-69356592D01*
X151064192Y-69189699D01*
X151207873Y-69002450D01*
X151325884Y-68798049D01*
X151416206Y-68579993D01*
X151477293Y-68352014D01*
X151508100Y-68118011D01*
X151508100Y-67881989D01*
X151477293Y-67647986D01*
X151416206Y-67420007D01*
X151325884Y-67201951D01*
X151325881Y-67201946D01*
X151325880Y-67201943D01*
X151264831Y-67096205D01*
X151207873Y-66997550D01*
X151064192Y-66810301D01*
X150897299Y-66643408D01*
X150710050Y-66499727D01*
X150683613Y-66484463D01*
X150505656Y-66381719D01*
X150287596Y-66291395D01*
X150287594Y-66291394D01*
X150287593Y-66291394D01*
X150059614Y-66230307D01*
X150059612Y-66230306D01*
X150059606Y-66230305D01*
X149825616Y-66199500D01*
X149825611Y-66199500D01*
X149589589Y-66199500D01*
X149589583Y-66199500D01*
X149355593Y-66230305D01*
X149127603Y-66291395D01*
X148909543Y-66381719D01*
X148705151Y-66499726D01*
X148705150Y-66499727D01*
X148517901Y-66643408D01*
X148517899Y-66643409D01*
X148517895Y-66643413D01*
X148351013Y-66810295D01*
X148207326Y-66997551D01*
X148089319Y-67201943D01*
X147998995Y-67420003D01*
X147937905Y-67647993D01*
X147907100Y-67881983D01*
X99692099Y-67881983D01*
X99661293Y-67647986D01*
X99600206Y-67420007D01*
X99509884Y-67201951D01*
X99509881Y-67201946D01*
X99509880Y-67201943D01*
X99448831Y-67096205D01*
X99391873Y-66997550D01*
X99248192Y-66810301D01*
X99081299Y-66643408D01*
X98894050Y-66499727D01*
X98867613Y-66484463D01*
X98689656Y-66381719D01*
X98471596Y-66291395D01*
X98471594Y-66291394D01*
X98471593Y-66291394D01*
X98243614Y-66230307D01*
X98243612Y-66230306D01*
X98243606Y-66230305D01*
X98009616Y-66199500D01*
X98009611Y-66199500D01*
X97773589Y-66199500D01*
X97773583Y-66199500D01*
X97539593Y-66230305D01*
X97311603Y-66291395D01*
X97093543Y-66381719D01*
X96889151Y-66499726D01*
X96889150Y-66499727D01*
X96701901Y-66643408D01*
X96701899Y-66643409D01*
X96701895Y-66643413D01*
X96535013Y-66810295D01*
X96391326Y-66997551D01*
X96273319Y-67201943D01*
X96182995Y-67420003D01*
X96121905Y-67647993D01*
X96091100Y-67881983D01*
X93315795Y-67881983D01*
X93316291Y-67870612D01*
X93329242Y-67573969D01*
X93330375Y-67561020D01*
X93348940Y-67420007D01*
X93380825Y-67177817D01*
X93383077Y-67165044D01*
X93466738Y-66787672D01*
X93470093Y-66775151D01*
X93586323Y-66406517D01*
X93590768Y-66394308D01*
X93738671Y-66037236D01*
X93744158Y-66025465D01*
X93922645Y-65682596D01*
X93929125Y-65671373D01*
X94136808Y-65345376D01*
X94144239Y-65334763D01*
X94379555Y-65028093D01*
X94387879Y-65018174D01*
X94649012Y-64733196D01*
X94658200Y-64724009D01*
X94943174Y-64462879D01*
X94953093Y-64454555D01*
X95259763Y-64219239D01*
X95270376Y-64211808D01*
X95596373Y-64004125D01*
X95607596Y-63997645D01*
X95950465Y-63819158D01*
X95962236Y-63813671D01*
X96319308Y-63665768D01*
X96331517Y-63661323D01*
X96700151Y-63545093D01*
X96712672Y-63541738D01*
X97090044Y-63458077D01*
X97102817Y-63455825D01*
X97486023Y-63405374D01*
X97498963Y-63404242D01*
X97888348Y-63387242D01*
X97894847Y-63387100D01*
X97957492Y-63387100D01*
X149641708Y-63387100D01*
X149704353Y-63387100D01*
X149710852Y-63387242D01*
G37*
%TD.AperFunction*%
%TA.AperFunction,Conductor*%
G36*
X123563647Y-101607062D02*
G01*
X123594505Y-101630740D01*
X125962884Y-103999120D01*
X126099816Y-104078177D01*
X126252543Y-104119101D01*
X126252548Y-104119101D01*
X126419787Y-104119101D01*
X126419803Y-104119100D01*
X128598778Y-104119100D01*
X128673278Y-104139062D01*
X128727816Y-104193600D01*
X128747778Y-104268100D01*
X128727816Y-104342600D01*
X128722667Y-104350880D01*
X128678206Y-104417418D01*
X128678205Y-104417422D01*
X128617863Y-104563101D01*
X128617862Y-104563105D01*
X128587100Y-104717757D01*
X128587100Y-104875442D01*
X128617862Y-105030094D01*
X128617863Y-105030098D01*
X128678204Y-105175776D01*
X128678205Y-105175778D01*
X128678206Y-105175779D01*
X128765811Y-105306889D01*
X128877311Y-105418389D01*
X129008421Y-105505994D01*
X129154103Y-105566337D01*
X129302010Y-105595757D01*
X129306499Y-105597971D01*
X129311505Y-105597971D01*
X129340826Y-105614899D01*
X129371183Y-105629870D01*
X129378300Y-105636535D01*
X129415078Y-105673313D01*
X129415079Y-105673315D01*
X129526880Y-105785117D01*
X129526882Y-105785118D01*
X129526884Y-105785120D01*
X129663816Y-105864177D01*
X129775619Y-105894134D01*
X129816542Y-105905100D01*
X129816543Y-105905100D01*
X150041322Y-105905100D01*
X150115822Y-105925062D01*
X150161866Y-105966520D01*
X150224578Y-106052836D01*
X150274721Y-106121852D01*
X150414348Y-106261479D01*
X150574099Y-106377544D01*
X150627156Y-106404578D01*
X150700286Y-106441841D01*
X150757603Y-106493450D01*
X150781436Y-106566803D01*
X150765399Y-106642246D01*
X150713790Y-106699563D01*
X150700286Y-106707359D01*
X150574102Y-106771654D01*
X150574096Y-106771657D01*
X150414349Y-106887720D01*
X150414346Y-106887722D01*
X150274722Y-107027346D01*
X150274720Y-107027349D01*
X150158657Y-107187096D01*
X150158654Y-107187102D01*
X150069010Y-107363034D01*
X150007991Y-107550831D01*
X150007990Y-107550831D01*
X150004939Y-107570098D01*
X149977100Y-107745869D01*
X149977100Y-107943331D01*
X149990828Y-108030011D01*
X150007990Y-108138368D01*
X150069010Y-108326165D01*
X150155478Y-108495864D01*
X150158656Y-108502101D01*
X150274721Y-108661852D01*
X150414348Y-108801479D01*
X150574099Y-108917544D01*
X150627156Y-108944578D01*
X150700286Y-108981841D01*
X150757603Y-109033450D01*
X150781436Y-109106803D01*
X150765399Y-109182246D01*
X150713790Y-109239563D01*
X150700286Y-109247359D01*
X150574102Y-109311654D01*
X150574096Y-109311657D01*
X150414349Y-109427720D01*
X150414346Y-109427722D01*
X150274722Y-109567346D01*
X150274720Y-109567349D01*
X150158657Y-109727096D01*
X150158654Y-109727102D01*
X150069010Y-109903034D01*
X150007991Y-110090831D01*
X150007990Y-110090831D01*
X149996021Y-110166408D01*
X149964650Y-110236868D01*
X149902252Y-110282203D01*
X149848855Y-110292100D01*
X138941606Y-110292100D01*
X138867106Y-110272138D01*
X138836247Y-110248459D01*
X138819765Y-110231977D01*
X138819762Y-110231974D01*
X138819758Y-110231971D01*
X138680470Y-110138901D01*
X138680458Y-110138894D01*
X138557736Y-110088061D01*
X138525682Y-110074784D01*
X138525680Y-110074783D01*
X138525679Y-110074783D01*
X138361367Y-110042100D01*
X138193833Y-110042100D01*
X138029520Y-110074783D01*
X137874741Y-110138894D01*
X137874729Y-110138901D01*
X137735441Y-110231971D01*
X137735434Y-110231977D01*
X137616977Y-110350434D01*
X137616971Y-110350441D01*
X137523901Y-110489729D01*
X137523894Y-110489741D01*
X137459783Y-110644520D01*
X137427100Y-110808832D01*
X137427100Y-110976367D01*
X137459783Y-111140679D01*
X137523894Y-111295458D01*
X137523901Y-111295470D01*
X137616971Y-111434758D01*
X137616974Y-111434762D01*
X137735438Y-111553226D01*
X137735441Y-111553228D01*
X137874729Y-111646298D01*
X137874733Y-111646300D01*
X137874737Y-111646303D01*
X137874738Y-111646303D01*
X137874741Y-111646305D01*
X137912874Y-111662100D01*
X138029518Y-111710416D01*
X138160678Y-111736505D01*
X138229852Y-111770618D01*
X138272702Y-111834747D01*
X138276760Y-111867207D01*
X138844657Y-112435104D01*
X138784519Y-112451219D01*
X138668680Y-112518098D01*
X138574098Y-112612680D01*
X138507219Y-112728519D01*
X138491104Y-112788657D01*
X137928330Y-112225883D01*
X137928328Y-112225883D01*
X137901247Y-112263157D01*
X137901242Y-112263166D01*
X137843641Y-112376214D01*
X137792032Y-112433531D01*
X137718679Y-112457365D01*
X137643236Y-112441329D01*
X137585919Y-112389720D01*
X137578121Y-112376214D01*
X137560488Y-112341609D01*
X137520387Y-112262906D01*
X137403581Y-112102136D01*
X137263064Y-111961619D01*
X137102294Y-111844813D01*
X137012252Y-111798934D01*
X136925234Y-111754595D01*
X136736241Y-111693188D01*
X136736241Y-111693187D01*
X136627194Y-111675916D01*
X136539961Y-111662100D01*
X136341239Y-111662100D01*
X136262729Y-111674534D01*
X136144958Y-111693187D01*
X136144958Y-111693188D01*
X135955965Y-111754595D01*
X135778904Y-111844814D01*
X135618139Y-111961616D01*
X135477616Y-112102139D01*
X135360814Y-112262904D01*
X135303360Y-112375663D01*
X135251751Y-112432980D01*
X135178397Y-112456814D01*
X135102955Y-112440778D01*
X135045638Y-112389169D01*
X135037840Y-112375663D01*
X135028887Y-112358092D01*
X134980387Y-112262906D01*
X134863581Y-112102136D01*
X134723064Y-111961619D01*
X134562294Y-111844813D01*
X134472252Y-111798934D01*
X134385234Y-111754595D01*
X134196241Y-111693188D01*
X134196241Y-111693187D01*
X134087194Y-111675916D01*
X133999961Y-111662100D01*
X133801239Y-111662100D01*
X133722729Y-111674534D01*
X133604958Y-111693187D01*
X133604958Y-111693188D01*
X133485144Y-111732118D01*
X133408121Y-111736155D01*
X133339400Y-111701140D01*
X133297393Y-111636455D01*
X133290100Y-111590411D01*
X133290100Y-111067544D01*
X133290099Y-111067539D01*
X133264408Y-110971658D01*
X133264408Y-110971657D01*
X133249177Y-110914815D01*
X133207608Y-110842816D01*
X133170120Y-110777884D01*
X133058316Y-110666080D01*
X133058313Y-110666078D01*
X132063741Y-109671506D01*
X132025177Y-109604711D01*
X132020100Y-109566147D01*
X132020100Y-107923948D01*
X132040062Y-107849448D01*
X132045212Y-107841167D01*
X132128991Y-107715783D01*
X132128994Y-107715779D01*
X132189337Y-107570097D01*
X132220100Y-107415442D01*
X132220100Y-107257758D01*
X132189337Y-107103103D01*
X132128994Y-106957421D01*
X132041389Y-106826311D01*
X131929889Y-106714811D01*
X131798779Y-106627206D01*
X131798778Y-106627205D01*
X131798776Y-106627204D01*
X131653098Y-106566863D01*
X131653094Y-106566862D01*
X131498442Y-106536100D01*
X131340758Y-106536100D01*
X131186105Y-106566862D01*
X131186101Y-106566863D01*
X131040423Y-106627204D01*
X130958403Y-106682009D01*
X130920463Y-106707360D01*
X130909307Y-106714814D01*
X130797814Y-106826307D01*
X130710204Y-106957423D01*
X130649863Y-107103101D01*
X130649862Y-107103105D01*
X130619100Y-107257757D01*
X130619100Y-107415442D01*
X130649862Y-107570094D01*
X130649863Y-107570098D01*
X130710205Y-107715777D01*
X130710208Y-107715783D01*
X130793988Y-107841167D01*
X130818781Y-107914202D01*
X130819100Y-107923948D01*
X130819100Y-109324147D01*
X130799138Y-109398647D01*
X130744600Y-109453185D01*
X130670100Y-109473147D01*
X130595600Y-109453185D01*
X130564741Y-109429506D01*
X123423741Y-102288506D01*
X123385177Y-102221711D01*
X123380100Y-102183147D01*
X123380100Y-102159832D01*
X123352903Y-102023103D01*
X123347416Y-101995518D01*
X123283303Y-101840737D01*
X123283300Y-101840731D01*
X123268699Y-101818880D01*
X123267089Y-101814139D01*
X123263550Y-101810600D01*
X123254788Y-101777899D01*
X123243907Y-101745845D01*
X123244883Y-101740935D01*
X123243588Y-101736100D01*
X123252349Y-101703399D01*
X123258954Y-101670199D01*
X123262254Y-101666435D01*
X123263550Y-101661600D01*
X123287488Y-101637661D01*
X123309808Y-101612211D01*
X123314548Y-101610601D01*
X123318088Y-101607062D01*
X123350788Y-101598300D01*
X123382843Y-101587419D01*
X123392588Y-101587100D01*
X123489147Y-101587100D01*
X123563647Y-101607062D01*
G37*
%TD.AperFunction*%
%TA.AperFunction,Conductor*%
G36*
X121667978Y-102400173D02*
G01*
X121706542Y-102466968D01*
X121708755Y-102476459D01*
X121711782Y-102491677D01*
X121711783Y-102491679D01*
X121775894Y-102646458D01*
X121775901Y-102646470D01*
X121868971Y-102785758D01*
X121868974Y-102785762D01*
X121987438Y-102904226D01*
X121987441Y-102904228D01*
X122126729Y-102997298D01*
X122126733Y-102997300D01*
X122126737Y-102997303D01*
X122126738Y-102997303D01*
X122126741Y-102997305D01*
X122172072Y-103016081D01*
X122281518Y-103061416D01*
X122445833Y-103094100D01*
X122469147Y-103094100D01*
X122543647Y-103114062D01*
X122574506Y-103137741D01*
X130716459Y-111279694D01*
X130755023Y-111346489D01*
X130760100Y-111385053D01*
X130760100Y-111724434D01*
X130740138Y-111798934D01*
X130698682Y-111844975D01*
X130619332Y-111902626D01*
X130538139Y-111961616D01*
X130397616Y-112102139D01*
X130280814Y-112262904D01*
X130223360Y-112375663D01*
X130171751Y-112432980D01*
X130098397Y-112456814D01*
X130022955Y-112440778D01*
X129965638Y-112389169D01*
X129957840Y-112375663D01*
X129948887Y-112358092D01*
X129900387Y-112262906D01*
X129783581Y-112102136D01*
X129643064Y-111961619D01*
X129482294Y-111844813D01*
X129392252Y-111798934D01*
X129305234Y-111754595D01*
X129116241Y-111693188D01*
X129116241Y-111693187D01*
X129007194Y-111675916D01*
X128919961Y-111662100D01*
X128721239Y-111662100D01*
X128642729Y-111674534D01*
X128524958Y-111693187D01*
X128524958Y-111693188D01*
X128335965Y-111754595D01*
X128158904Y-111844814D01*
X127998139Y-111961616D01*
X127857616Y-112102139D01*
X127740814Y-112262904D01*
X127683360Y-112375663D01*
X127631751Y-112432980D01*
X127558397Y-112456814D01*
X127482955Y-112440778D01*
X127425638Y-112389169D01*
X127417840Y-112375663D01*
X127408887Y-112358092D01*
X127360387Y-112262906D01*
X127243581Y-112102136D01*
X127103064Y-111961619D01*
X126942294Y-111844813D01*
X126852252Y-111798934D01*
X126765234Y-111754595D01*
X126576241Y-111693188D01*
X126576241Y-111693187D01*
X126467194Y-111675916D01*
X126379961Y-111662100D01*
X126181239Y-111662100D01*
X126102729Y-111674534D01*
X125984958Y-111693187D01*
X125984958Y-111693188D01*
X125795965Y-111754595D01*
X125618904Y-111844814D01*
X125458139Y-111961616D01*
X125317616Y-112102139D01*
X125200814Y-112262904D01*
X125143360Y-112375663D01*
X125091751Y-112432980D01*
X125018397Y-112456814D01*
X124942955Y-112440778D01*
X124885638Y-112389169D01*
X124877840Y-112375663D01*
X124868887Y-112358092D01*
X124820387Y-112262906D01*
X124703581Y-112102136D01*
X124563064Y-111961619D01*
X124402294Y-111844813D01*
X124312252Y-111798934D01*
X124225234Y-111754595D01*
X124036241Y-111693188D01*
X124036241Y-111693187D01*
X123927194Y-111675916D01*
X123839961Y-111662100D01*
X123641239Y-111662100D01*
X123562729Y-111674534D01*
X123444958Y-111693187D01*
X123444958Y-111693188D01*
X123255965Y-111754595D01*
X123078904Y-111844814D01*
X122918139Y-111961616D01*
X122777616Y-112102139D01*
X122660814Y-112262904D01*
X122603360Y-112375663D01*
X122551751Y-112432980D01*
X122478397Y-112456814D01*
X122402955Y-112440778D01*
X122345638Y-112389169D01*
X122337840Y-112375663D01*
X122328887Y-112358092D01*
X122280387Y-112262906D01*
X122163581Y-112102136D01*
X122023064Y-111961619D01*
X121862294Y-111844813D01*
X121772252Y-111798934D01*
X121685234Y-111754595D01*
X121496241Y-111693188D01*
X121496241Y-111693187D01*
X121387194Y-111675916D01*
X121299961Y-111662100D01*
X121101239Y-111662100D01*
X121022729Y-111674534D01*
X120904958Y-111693187D01*
X120904958Y-111693188D01*
X120715965Y-111754595D01*
X120538904Y-111844814D01*
X120378139Y-111961616D01*
X120237616Y-112102139D01*
X120120814Y-112262904D01*
X120063360Y-112375663D01*
X120011751Y-112432980D01*
X119938397Y-112456814D01*
X119862955Y-112440778D01*
X119805638Y-112389169D01*
X119797840Y-112375663D01*
X119788887Y-112358092D01*
X119740387Y-112262906D01*
X119623581Y-112102136D01*
X119483064Y-111961619D01*
X119322294Y-111844813D01*
X119232252Y-111798934D01*
X119145234Y-111754595D01*
X118956241Y-111693188D01*
X118956241Y-111693187D01*
X118847194Y-111675916D01*
X118759961Y-111662100D01*
X118561239Y-111662100D01*
X118482729Y-111674534D01*
X118364958Y-111693187D01*
X118364958Y-111693188D01*
X118175965Y-111754595D01*
X117998904Y-111844814D01*
X117838139Y-111961616D01*
X117697616Y-112102139D01*
X117580814Y-112262904D01*
X117523360Y-112375663D01*
X117471751Y-112432980D01*
X117398397Y-112456814D01*
X117322955Y-112440778D01*
X117265638Y-112389169D01*
X117257840Y-112375663D01*
X117248887Y-112358092D01*
X117200387Y-112262906D01*
X117083581Y-112102136D01*
X116943064Y-111961619D01*
X116782518Y-111844976D01*
X116733982Y-111785038D01*
X116721100Y-111724434D01*
X116721100Y-107198052D01*
X116741062Y-107123552D01*
X116764737Y-107092697D01*
X121457262Y-102400171D01*
X121524055Y-102361609D01*
X121601183Y-102361609D01*
X121667978Y-102400173D01*
G37*
%TD.AperFunction*%
%TA.AperFunction,Conductor*%
G36*
X150302199Y-104124177D02*
G01*
X150321815Y-104124177D01*
X150338802Y-104133984D01*
X150357751Y-104139062D01*
X150371622Y-104152933D01*
X150388610Y-104162741D01*
X150398417Y-104179728D01*
X150412289Y-104193600D01*
X150417366Y-104212548D01*
X150427174Y-104229536D01*
X150427174Y-104249152D01*
X150432251Y-104268100D01*
X150427174Y-104287047D01*
X150427174Y-104306664D01*
X150417366Y-104323651D01*
X150412289Y-104342600D01*
X150388610Y-104373459D01*
X150274722Y-104487346D01*
X150274720Y-104487349D01*
X150161866Y-104642680D01*
X150101926Y-104691218D01*
X150041322Y-104704100D01*
X130307664Y-104704100D01*
X130233164Y-104684138D01*
X130178626Y-104629600D01*
X130161527Y-104584167D01*
X130157338Y-104563106D01*
X130157336Y-104563101D01*
X130125958Y-104487348D01*
X130096994Y-104417421D01*
X130096993Y-104417420D01*
X130096993Y-104417418D01*
X130052533Y-104350880D01*
X130027741Y-104277845D01*
X130042788Y-104202199D01*
X130093642Y-104144211D01*
X130166677Y-104119419D01*
X130176422Y-104119100D01*
X150283251Y-104119100D01*
X150302199Y-104124177D01*
G37*
%TD.AperFunction*%
%TA.AperFunction,Conductor*%
G36*
X133268018Y-100528062D02*
G01*
X133298877Y-100551741D01*
X134864449Y-102117313D01*
X134864449Y-102117314D01*
X134976251Y-102229117D01*
X134976254Y-102229119D01*
X134976255Y-102229120D01*
X135063066Y-102279239D01*
X135113186Y-102308177D01*
X135265914Y-102349100D01*
X135424028Y-102349100D01*
X144723536Y-102349100D01*
X144798036Y-102369062D01*
X144852574Y-102423600D01*
X144859674Y-102437541D01*
X144866429Y-102452728D01*
X144873863Y-102490097D01*
X144934206Y-102635779D01*
X144975048Y-102696903D01*
X144980225Y-102708541D01*
X144984325Y-102734483D01*
X144992768Y-102759355D01*
X144990254Y-102771993D01*
X144992266Y-102784723D01*
X144982844Y-102809241D01*
X144977721Y-102835001D01*
X144969224Y-102844689D01*
X144964602Y-102856719D01*
X144944185Y-102873240D01*
X144926867Y-102892989D01*
X144914663Y-102897131D01*
X144904646Y-102905238D01*
X144878703Y-102909338D01*
X144853832Y-102917781D01*
X144844087Y-102918100D01*
X126642054Y-102918100D01*
X126567554Y-102898138D01*
X126536695Y-102874459D01*
X126298013Y-102635777D01*
X125861694Y-102199458D01*
X125823131Y-102132665D01*
X125823131Y-102055537D01*
X125861695Y-101988742D01*
X125928490Y-101950178D01*
X125996122Y-101947964D01*
X126001833Y-101949100D01*
X126001834Y-101949100D01*
X126169367Y-101949100D01*
X126333682Y-101916416D01*
X126488463Y-101852303D01*
X126627762Y-101759226D01*
X126746226Y-101640762D01*
X126839303Y-101501463D01*
X126903416Y-101346682D01*
X126936100Y-101182367D01*
X126936100Y-101014833D01*
X126903416Y-100850518D01*
X126873012Y-100777119D01*
X126862946Y-100700652D01*
X126892461Y-100629395D01*
X126953651Y-100582442D01*
X127010671Y-100571100D01*
X128296540Y-100571100D01*
X128371040Y-100591062D01*
X128379320Y-100596211D01*
X128476732Y-100661300D01*
X128476741Y-100661305D01*
X128522072Y-100680081D01*
X128631518Y-100725416D01*
X128795833Y-100758100D01*
X128963367Y-100758100D01*
X129127682Y-100725416D01*
X129282463Y-100661303D01*
X129421762Y-100568226D01*
X129438247Y-100551741D01*
X129505042Y-100513177D01*
X129543606Y-100508100D01*
X133193518Y-100508100D01*
X133268018Y-100528062D01*
G37*
%TD.AperFunction*%
%TA.AperFunction,Conductor*%
G36*
X149860435Y-93360739D02*
G01*
X149882215Y-93361387D01*
X149897048Y-93370549D01*
X149913889Y-93375062D01*
X149929296Y-93390469D01*
X149947834Y-93401920D01*
X149956098Y-93417271D01*
X149968427Y-93429600D01*
X149979545Y-93457613D01*
X149980252Y-93457350D01*
X150033802Y-93600929D01*
X150033804Y-93600933D01*
X150120052Y-93716144D01*
X150120055Y-93716147D01*
X150235266Y-93802395D01*
X150235270Y-93802397D01*
X150370117Y-93852691D01*
X150425767Y-93858674D01*
X150497707Y-93886485D01*
X150546103Y-93946539D01*
X150557987Y-94022746D01*
X150530176Y-94094686D01*
X150497422Y-94127363D01*
X150414352Y-94187717D01*
X150414346Y-94187722D01*
X150274722Y-94327346D01*
X150274720Y-94327349D01*
X150158657Y-94487096D01*
X150158654Y-94487102D01*
X150069010Y-94663034D01*
X150007991Y-94850831D01*
X150007990Y-94850831D01*
X149987396Y-94980858D01*
X149977100Y-95045869D01*
X149977100Y-95243331D01*
X149990828Y-95330011D01*
X150007990Y-95438368D01*
X150069010Y-95626165D01*
X150155478Y-95795864D01*
X150158656Y-95802101D01*
X150274721Y-95961852D01*
X150414348Y-96101479D01*
X150542431Y-96194536D01*
X150574096Y-96217542D01*
X150574097Y-96217543D01*
X150700835Y-96282120D01*
X150758152Y-96333730D01*
X150781986Y-96407083D01*
X150765950Y-96482525D01*
X150714340Y-96539842D01*
X150700836Y-96547639D01*
X150574362Y-96612082D01*
X150538610Y-96638056D01*
X150538610Y-96638057D01*
X151102190Y-97201637D01*
X151038607Y-97218675D01*
X150924593Y-97284501D01*
X150831501Y-97377593D01*
X150765675Y-97491607D01*
X150748637Y-97555190D01*
X150185056Y-96991610D01*
X150159083Y-97027360D01*
X150069472Y-97203228D01*
X150008478Y-97390948D01*
X150008477Y-97390948D01*
X149977600Y-97585912D01*
X149977600Y-97783287D01*
X150008477Y-97978251D01*
X150069472Y-98165971D01*
X150159084Y-98341840D01*
X150185057Y-98377588D01*
X150748637Y-97814008D01*
X150765675Y-97877593D01*
X150831501Y-97991607D01*
X150924593Y-98084699D01*
X151038607Y-98150525D01*
X151102190Y-98167562D01*
X150538610Y-98731142D01*
X150574359Y-98757115D01*
X150574359Y-98757116D01*
X150700835Y-98821559D01*
X150758152Y-98873168D01*
X150781986Y-98946521D01*
X150765950Y-99021964D01*
X150714341Y-99079281D01*
X150700836Y-99087078D01*
X150574102Y-99151653D01*
X150574096Y-99151657D01*
X150414349Y-99267720D01*
X150414346Y-99267722D01*
X150274722Y-99407346D01*
X150274720Y-99407349D01*
X150158657Y-99567096D01*
X150158654Y-99567102D01*
X150069010Y-99743034D01*
X150007991Y-99930831D01*
X150007990Y-99930831D01*
X149995807Y-100007757D01*
X149977100Y-100125869D01*
X149977100Y-100323331D01*
X149983880Y-100366138D01*
X150007990Y-100518368D01*
X150069010Y-100706165D01*
X150142563Y-100850518D01*
X150158656Y-100882101D01*
X150274721Y-101041852D01*
X150414348Y-101181479D01*
X150574099Y-101297544D01*
X150623085Y-101322504D01*
X150700286Y-101361841D01*
X150757603Y-101413450D01*
X150781436Y-101486803D01*
X150765399Y-101562246D01*
X150713790Y-101619563D01*
X150700286Y-101627359D01*
X150574102Y-101691654D01*
X150574096Y-101691657D01*
X150414349Y-101807720D01*
X150414346Y-101807722D01*
X150274722Y-101947346D01*
X150274720Y-101947349D01*
X150158657Y-102107096D01*
X150158654Y-102107102D01*
X150069010Y-102283034D01*
X150007991Y-102470831D01*
X150007990Y-102470831D01*
X150004688Y-102491682D01*
X149980173Y-102646470D01*
X149977100Y-102665872D01*
X149977100Y-102769100D01*
X149957138Y-102843600D01*
X149902600Y-102898138D01*
X149828100Y-102918100D01*
X146443113Y-102918100D01*
X146368613Y-102898138D01*
X146314075Y-102843600D01*
X146294113Y-102769100D01*
X146314075Y-102694600D01*
X146319224Y-102686320D01*
X146352993Y-102635781D01*
X146352993Y-102635780D01*
X146352994Y-102635779D01*
X146413337Y-102490097D01*
X146444100Y-102335442D01*
X146444100Y-102177758D01*
X146440534Y-102159833D01*
X146432077Y-102117313D01*
X146413337Y-102023103D01*
X146352994Y-101877421D01*
X146265389Y-101746311D01*
X146153889Y-101634811D01*
X146022779Y-101547206D01*
X146022778Y-101547205D01*
X146022776Y-101547204D01*
X145877098Y-101486863D01*
X145877096Y-101486862D01*
X145729189Y-101457442D01*
X145724699Y-101455228D01*
X145719694Y-101455228D01*
X145690377Y-101438302D01*
X145660015Y-101423329D01*
X145652899Y-101416664D01*
X145624615Y-101388380D01*
X145624613Y-101388377D01*
X145504315Y-101268079D01*
X145417506Y-101217961D01*
X145417505Y-101217960D01*
X145367386Y-101189023D01*
X145214657Y-101148099D01*
X145056543Y-101148099D01*
X145047414Y-101148099D01*
X145047398Y-101148100D01*
X135655424Y-101148100D01*
X135580924Y-101128138D01*
X135550065Y-101104459D01*
X133992986Y-99547380D01*
X133992984Y-99547377D01*
X133872687Y-99427080D01*
X133765919Y-99365438D01*
X133746794Y-99354396D01*
X133735755Y-99348022D01*
X133583028Y-99307099D01*
X133424914Y-99307099D01*
X133415785Y-99307099D01*
X133415769Y-99307100D01*
X129543606Y-99307100D01*
X129469106Y-99287138D01*
X129438247Y-99263459D01*
X129421765Y-99246977D01*
X129421762Y-99246974D01*
X129350412Y-99199299D01*
X129282470Y-99153901D01*
X129282458Y-99153894D01*
X129159736Y-99103061D01*
X129127682Y-99089784D01*
X129127680Y-99089783D01*
X129127679Y-99089783D01*
X128963367Y-99057100D01*
X128795833Y-99057100D01*
X128631520Y-99089783D01*
X128476741Y-99153894D01*
X128476729Y-99153901D01*
X128337441Y-99246971D01*
X128337434Y-99246977D01*
X128257953Y-99326459D01*
X128191158Y-99365023D01*
X128152594Y-99370100D01*
X125183739Y-99370100D01*
X125109239Y-99350138D01*
X125078380Y-99326459D01*
X124945385Y-99193464D01*
X124945382Y-99193461D01*
X124882812Y-99151653D01*
X124781515Y-99083968D01*
X124781512Y-99083967D01*
X124599436Y-99008549D01*
X124599434Y-99008548D01*
X124444589Y-98977747D01*
X124406141Y-98970100D01*
X124209059Y-98970100D01*
X124176989Y-98976478D01*
X124015765Y-99008548D01*
X124015763Y-99008549D01*
X123833687Y-99083967D01*
X123833684Y-99083968D01*
X123669819Y-99193460D01*
X123669814Y-99193464D01*
X123530464Y-99332814D01*
X123530460Y-99332819D01*
X123420968Y-99496684D01*
X123420967Y-99496687D01*
X123345549Y-99678763D01*
X123345548Y-99678765D01*
X123307100Y-99872060D01*
X123307100Y-100069141D01*
X123334727Y-100208032D01*
X123329683Y-100284995D01*
X123286832Y-100349124D01*
X123217658Y-100383237D01*
X123188590Y-100386100D01*
X121570054Y-100386100D01*
X121495554Y-100366138D01*
X121464695Y-100342459D01*
X120321535Y-99199299D01*
X120282971Y-99132504D01*
X120280757Y-99123008D01*
X120251337Y-98975103D01*
X120214708Y-98886673D01*
X120190995Y-98829423D01*
X120190994Y-98829421D01*
X120103389Y-98698311D01*
X119991889Y-98586811D01*
X119860779Y-98499206D01*
X119860778Y-98499205D01*
X119860776Y-98499204D01*
X119793560Y-98471363D01*
X119732370Y-98424411D01*
X119702854Y-98353154D01*
X119712921Y-98276686D01*
X119745217Y-98228349D01*
X123282668Y-94690900D01*
X123349463Y-94652336D01*
X123388027Y-94647259D01*
X140869355Y-94647259D01*
X140869358Y-94647259D01*
X140869359Y-94647259D01*
X141014354Y-94618417D01*
X141150936Y-94561843D01*
X141200170Y-94528945D01*
X141273857Y-94479711D01*
X141423014Y-94330553D01*
X141423016Y-94330552D01*
X142037422Y-93716146D01*
X142354827Y-93398741D01*
X142421622Y-93360177D01*
X142460186Y-93355100D01*
X149839389Y-93355100D01*
X149860435Y-93360739D01*
G37*
%TD.AperFunction*%
%TA.AperFunction,Conductor*%
G36*
X152287778Y-98387224D02*
G01*
X152324247Y-98393984D01*
X152382896Y-98444076D01*
X152408641Y-98516780D01*
X152409100Y-98528469D01*
X152409100Y-99268251D01*
X152389138Y-99342751D01*
X152334600Y-99397289D01*
X152260100Y-99417251D01*
X152185600Y-99397289D01*
X152154741Y-99373610D01*
X152048853Y-99267722D01*
X152048852Y-99267721D01*
X151968976Y-99209688D01*
X151889103Y-99151657D01*
X151889097Y-99151653D01*
X151762363Y-99087078D01*
X151705046Y-99035469D01*
X151681213Y-98962116D01*
X151697250Y-98886673D01*
X151748859Y-98829356D01*
X151762365Y-98821559D01*
X151888830Y-98757121D01*
X151888833Y-98757120D01*
X151924587Y-98731141D01*
X151361009Y-98167562D01*
X151424593Y-98150525D01*
X151538607Y-98084699D01*
X151631699Y-97991607D01*
X151697525Y-97877593D01*
X151714562Y-97814008D01*
X152287778Y-98387224D01*
G37*
%TD.AperFunction*%
%TA.AperFunction,Conductor*%
G36*
X152365459Y-95995590D02*
G01*
X152404023Y-96062385D01*
X152409100Y-96100949D01*
X152409100Y-96840729D01*
X152389138Y-96915229D01*
X152334600Y-96969767D01*
X152287315Y-96982436D01*
X151714562Y-97555189D01*
X151697525Y-97491607D01*
X151631699Y-97377593D01*
X151538607Y-97284501D01*
X151424593Y-97218675D01*
X151361007Y-97201637D01*
X151924588Y-96638057D01*
X151924588Y-96638056D01*
X151888840Y-96612084D01*
X151888840Y-96612083D01*
X151762364Y-96547640D01*
X151705047Y-96496030D01*
X151681213Y-96422677D01*
X151697249Y-96347235D01*
X151748859Y-96289918D01*
X151762356Y-96282124D01*
X151889101Y-96217544D01*
X152048852Y-96101479D01*
X152154741Y-95995590D01*
X152221536Y-95957026D01*
X152298664Y-95957026D01*
X152365459Y-95995590D01*
G37*
%TD.AperFunction*%
%TA.AperFunction,Conductor*%
G36*
X101793598Y-81065147D02*
G01*
X101824458Y-81088826D01*
X101879459Y-81143827D01*
X101918023Y-81210622D01*
X101923100Y-81249186D01*
X101923100Y-81693492D01*
X101918306Y-81711382D01*
X101918583Y-81729904D01*
X101908497Y-81747991D01*
X101903138Y-81767992D01*
X101890041Y-81781088D01*
X101881020Y-81797267D01*
X101863242Y-81807887D01*
X101848600Y-81822530D01*
X101830708Y-81827324D01*
X101814808Y-81836823D01*
X101797805Y-81836140D01*
X101774100Y-81842492D01*
X101737688Y-81837975D01*
X101548635Y-81790331D01*
X101527141Y-81778345D01*
X101503750Y-81770715D01*
X101494007Y-81759869D01*
X101481272Y-81752768D01*
X101468651Y-81731643D01*
X101452208Y-81713338D01*
X101449192Y-81699071D01*
X101441716Y-81686556D01*
X101441348Y-81661953D01*
X101436260Y-81637876D01*
X101440781Y-81624014D01*
X101440564Y-81609436D01*
X101452549Y-81587942D01*
X101460180Y-81564551D01*
X101465755Y-81556569D01*
X101513396Y-81492931D01*
X101563691Y-81358083D01*
X101565423Y-81341970D01*
X101570099Y-81298485D01*
X101570099Y-81298482D01*
X101570100Y-81298473D01*
X101570099Y-81194183D01*
X101590061Y-81119686D01*
X101644598Y-81065148D01*
X101719098Y-81045185D01*
X101793598Y-81065147D01*
G37*
%TD.AperFunction*%
%TD*%
M02*
