M48
; DRILL file {KiCad 9.0.0} date 2026-02-03T13:11:37-0600
; FORMAT={-:-/ absolute / inch / decimal}
; #@! TF.CreationDate,2026-02-03T13:11:37-06:00
; #@! TF.GenerationSoftware,Kicad,Pcbnew,9.0.0
; #@! TF.FileFunction,Plated,1,2,PTH
FMAT,2
INCH
; #@! TA.AperFunction,Plated,PTH,ViaDrill
T1C0.0079
; #@! TA.AperFunction,Plated,PTH,ViaDrill
T2C0.0118
; #@! TA.AperFunction,Plated,PTH,ViaDrill
T3C0.0236
; #@! TA.AperFunction,Plated,PTH,ComponentDrill
T4C0.0394
; #@! TA.AperFunction,Plated,PTH,ComponentDrill
T5C0.0400
%
G90
G05
T1
X4.704Y-3.9059
X5.1145Y-4.6364
T2
X3.994Y-3.2259
X4.674Y-4.0159
X4.824Y-4.0253
X4.964Y-3.9803
X5.074Y-3.9334
X5.094Y-4.1259
X5.174Y-4.2259
X5.444Y-4.3659
X5.734Y-4.0259
X5.884Y-3.3259
X6.024Y-3.5059
T3
X4.084Y-4.3259
X4.174Y-3.9159
X4.174Y-3.9859
X4.174Y-4.0559
X4.244Y-3.9159
X4.244Y-3.9859
X4.244Y-4.0559
X4.274Y-4.3259
X4.284Y-3.6359
X4.314Y-3.9159
X4.314Y-3.9859
X4.314Y-4.0559
X4.384Y-3.9159
X4.384Y-3.9859
X4.384Y-4.0559
X4.474Y-4.3259
X4.634Y-4.2159
X4.634Y-4.3259
X4.784Y-4.2159
X4.824Y-4.3759
X4.894Y-3.9359
X4.904Y-3.8059
X4.9154Y-3.6593
X4.924Y-4.3759
X4.944Y-4.2159
X5.024Y-3.6259
X5.024Y-3.7559
X5.024Y-3.8559
X5.094Y-4.1959
X5.134Y-3.6593
X5.134Y-3.8059
X5.234Y-4.1959
X5.2347Y-4.111
X5.304Y-4.0259
X5.484Y-4.2559
X5.5939Y-4.0385
X5.604Y-3.5259
X5.604Y-3.7459
X5.784Y-4.2559
X5.824Y-3.8759
X5.8317Y-3.4759
T4
X3.754Y-3.0257
X3.754Y-3.1257
X4.774Y-3.4059
X4.874Y-3.4059
X4.974Y-3.4059
X5.074Y-3.4059
X5.174Y-3.4059
X5.274Y-3.4059
X5.374Y-3.4059
X5.4142Y-4.7459
X5.474Y-3.4059
X5.5142Y-4.7459
X5.574Y-3.4059
X5.954Y-3.6459
X5.954Y-3.7459
X5.954Y-3.8459
X5.954Y-3.9459
X5.954Y-4.0459
X5.954Y-4.1459
X5.954Y-4.2459
X5.954Y-4.3459
T5
X3.9717Y-3.5459
X3.9717Y-4.4459
X4.0717Y-3.5459
X4.0717Y-4.4459
X4.1717Y-3.5459
X4.1717Y-4.4459
X4.2717Y-3.5459
X4.2717Y-4.4459
X4.3717Y-3.5459
X4.3717Y-4.4459
X4.4717Y-3.5459
X4.4717Y-4.4459
X4.5717Y-3.5459
X4.5717Y-4.4459
X4.6717Y-3.5459
X4.6717Y-4.4459
X4.7717Y-3.5459
X4.7717Y-4.4459
X4.8717Y-3.5459
X4.8717Y-4.4459
X4.9717Y-3.5459
X4.9717Y-4.4459
X5.0717Y-3.5459
X5.0717Y-4.4459
X5.1717Y-3.5459
X5.1717Y-4.4459
X5.2717Y-3.5459
X5.2717Y-4.4459
X5.3717Y-3.5459
X5.3717Y-4.4459
X5.4717Y-3.5459
X5.4717Y-4.4459
M30
