%TF.GenerationSoftware,KiCad,Pcbnew,9.0.0*%
%TF.CreationDate,2026-02-03T13:11:21-06:00*%
%TF.ProjectId,FiltSure Prototype Three,46696c74-5375-4726-9520-50726f746f74,rev?*%
%TF.SameCoordinates,Original*%
%TF.FileFunction,Soldermask,Bot*%
%TF.FilePolarity,Negative*%
%FSLAX46Y46*%
G04 Gerber Fmt 4.6, Leading zero omitted, Abs format (unit mm)*
G04 Created by KiCad (PCBNEW 9.0.0) date 2026-02-03 13:11:21*
%MOMM*%
%LPD*%
G01*
G04 APERTURE LIST*
G04 Aperture macros list*
%AMRoundRect*
0 Rectangle with rounded corners*
0 $1 Rounding radius*
0 $2 $3 $4 $5 $6 $7 $8 $9 X,Y pos of 4 corners*
0 Add a 4 corners polygon primitive as box body*
4,1,4,$2,$3,$4,$5,$6,$7,$8,$9,$2,$3,0*
0 Add four circle primitives for the rounded corners*
1,1,$1+$1,$2,$3*
1,1,$1+$1,$4,$5*
1,1,$1+$1,$6,$7*
1,1,$1+$1,$8,$9*
0 Add four rect primitives between the rounded corners*
20,1,$1+$1,$2,$3,$4,$5,0*
20,1,$1+$1,$4,$5,$6,$7,0*
20,1,$1+$1,$6,$7,$8,$9,0*
20,1,$1+$1,$8,$9,$2,$3,0*%
G04 Aperture macros list end*
%ADD10C,3.200000*%
%ADD11R,1.700000X1.700000*%
%ADD12O,1.700000X1.700000*%
%ADD13R,1.524000X1.524000*%
%ADD14C,1.524000*%
%ADD15RoundRect,0.225000X-0.335876X-0.017678X-0.017678X-0.335876X0.335876X0.017678X0.017678X0.335876X0*%
%ADD16RoundRect,0.056250X-0.188750X-0.168750X0.188750X-0.168750X0.188750X0.168750X-0.188750X0.168750X0*%
%ADD17RoundRect,0.225000X0.250000X-0.225000X0.250000X0.225000X-0.250000X0.225000X-0.250000X-0.225000X0*%
%ADD18RoundRect,0.225000X0.225000X0.250000X-0.225000X0.250000X-0.225000X-0.250000X0.225000X-0.250000X0*%
%ADD19RoundRect,0.200000X0.275000X-0.200000X0.275000X0.200000X-0.275000X0.200000X-0.275000X-0.200000X0*%
%ADD20RoundRect,0.225000X-0.250000X0.225000X-0.250000X-0.225000X0.250000X-0.225000X0.250000X0.225000X0*%
%ADD21RoundRect,0.225000X-0.225000X-0.250000X0.225000X-0.250000X0.225000X0.250000X-0.225000X0.250000X0*%
%ADD22RoundRect,0.200000X-0.200000X-0.275000X0.200000X-0.275000X0.200000X0.275000X-0.200000X0.275000X0*%
%ADD23C,1.508000*%
%ADD24R,1.508000X1.508000*%
%ADD25RoundRect,0.225000X0.017678X-0.335876X0.335876X-0.017678X-0.017678X0.335876X-0.335876X0.017678X0*%
%ADD26RoundRect,0.045000X-0.255000X0.630000X-0.255000X-0.630000X0.255000X-0.630000X0.255000X0.630000X0*%
G04 APERTURE END LIST*
D10*
%TO.C,H4*%
X149707600Y-119383800D03*
%TD*%
%TO.C,H1*%
X149707600Y-68000000D03*
%TD*%
D11*
%TO.C,J1*%
X95351600Y-76851600D03*
D12*
X95351600Y-79391600D03*
%TD*%
D10*
%TO.C,H3*%
X97891600Y-119383800D03*
%TD*%
D11*
%TO.C,J2*%
X140060600Y-120544600D03*
D12*
X137520600Y-120544600D03*
%TD*%
D10*
%TO.C,H2*%
X97891600Y-68000000D03*
%TD*%
D13*
%TO.C,U2*%
X138980600Y-90064600D03*
D14*
X136440600Y-90064600D03*
X133900600Y-90064600D03*
X131360600Y-90064600D03*
X128820600Y-90064600D03*
X126280600Y-90064600D03*
X123740600Y-90064600D03*
X121200600Y-90064600D03*
X118660600Y-90064600D03*
X116120600Y-90064600D03*
X113580600Y-90064600D03*
X111040600Y-90064600D03*
X108500600Y-90064600D03*
X105960600Y-90064600D03*
X103420600Y-90064600D03*
X100880600Y-90064600D03*
X138980600Y-112924600D03*
X136440600Y-112924600D03*
X133900600Y-112924600D03*
X131360600Y-112924600D03*
X128820600Y-112924600D03*
X126280600Y-112924600D03*
X123740600Y-112924600D03*
X121200600Y-112924600D03*
X118660600Y-112924600D03*
X116120600Y-112924600D03*
X113580600Y-112924600D03*
X111040600Y-112924600D03*
X108500600Y-112924600D03*
X105960600Y-112924600D03*
X103420600Y-112924600D03*
X100880600Y-112924600D03*
%TD*%
D15*
%TO.C,R5*%
X101661592Y-77070592D03*
X102757608Y-78166608D03*
%TD*%
D16*
%TO.C,U5*%
X119643600Y-102682600D03*
X119643600Y-102032600D03*
X119643600Y-101382600D03*
X119643600Y-100732600D03*
X117703600Y-100732600D03*
X117703600Y-101382600D03*
X117703600Y-102032600D03*
X117703600Y-102682600D03*
%TD*%
D17*
%TO.C,R4*%
X122529600Y-103793600D03*
X122529600Y-102243600D03*
%TD*%
D18*
%TO.C,R6*%
X129908600Y-120798600D03*
X128358600Y-120798600D03*
%TD*%
D19*
%TO.C,R12*%
X128879600Y-101557600D03*
X128879600Y-99907600D03*
%TD*%
D20*
%TO.C,R5*%
X115163600Y-103767600D03*
X115163600Y-105317600D03*
%TD*%
D18*
%TO.C,C7*%
X133312200Y-118305600D03*
X131762200Y-118305600D03*
%TD*%
D20*
%TO.C,C4*%
X113131600Y-103767600D03*
X113131600Y-105317600D03*
%TD*%
D21*
%TO.C,Green1*%
X113118600Y-95144600D03*
X114668600Y-95144600D03*
%TD*%
D18*
%TO.C,R4*%
X133312200Y-120591600D03*
X131762200Y-120591600D03*
%TD*%
D22*
%TO.C,R3*%
X113068600Y-96922600D03*
X114718600Y-96922600D03*
%TD*%
D18*
%TO.C,C5*%
X103746600Y-97684600D03*
X102196600Y-97684600D03*
%TD*%
D19*
%TO.C,R11*%
X126085600Y-102827600D03*
X126085600Y-101177600D03*
%TD*%
D12*
%TO.C,U4*%
X136499600Y-86508600D03*
X133959600Y-86508600D03*
X131419600Y-86508600D03*
X139039600Y-86508600D03*
D11*
X141579600Y-86508600D03*
D12*
X126339600Y-86508600D03*
X123799600Y-86508600D03*
X121259600Y-86508600D03*
X128879600Y-86508600D03*
%TD*%
D23*
%TO.C,M1*%
X151231600Y-110384600D03*
X151231600Y-107844600D03*
X151231600Y-105304600D03*
X151231600Y-102764600D03*
X151231600Y-100224600D03*
X151231600Y-97684600D03*
X151231600Y-95144600D03*
D24*
X151231600Y-92604600D03*
%TD*%
D25*
%TO.C,R7*%
X110297592Y-85532608D03*
X111393608Y-84436592D03*
%TD*%
D22*
%TO.C,R10*%
X115862600Y-99208600D03*
X117512600Y-99208600D03*
%TD*%
D26*
%TO.C,U3*%
X106151600Y-94721600D03*
X107101600Y-94721600D03*
X108051600Y-94721600D03*
X108051600Y-97091600D03*
X106151600Y-97091600D03*
%TD*%
D18*
%TO.C,C6*%
X103746600Y-94636600D03*
X102196600Y-94636600D03*
%TD*%
M02*
