%TF.GenerationSoftware,KiCad,Pcbnew,9.0.0*%
%TF.CreationDate,2026-02-03T13:11:21-06:00*%
%TF.ProjectId,FiltSure Prototype Three,46696c74-5375-4726-9520-50726f746f74,rev?*%
%TF.SameCoordinates,Original*%
%TF.FileFunction,Legend,Bot*%
%TF.FilePolarity,Positive*%
%FSLAX46Y46*%
G04 Gerber Fmt 4.6, Leading zero omitted, Abs format (unit mm)*
G04 Created by KiCad (PCBNEW 9.0.0) date 2026-02-03 13:11:21*
%MOMM*%
%LPD*%
G01*
G04 APERTURE LIST*
%ADD10C,0.150000*%
%ADD11C,0.080430*%
%ADD12C,0.120000*%
%ADD13C,0.127000*%
%ADD14C,0.200000*%
%ADD15C,0.203200*%
G04 APERTURE END LIST*
D10*
X128987392Y-103396419D02*
X129320725Y-102920228D01*
X129558820Y-103396419D02*
X129558820Y-102396419D01*
X129558820Y-102396419D02*
X129177868Y-102396419D01*
X129177868Y-102396419D02*
X129082630Y-102444038D01*
X129082630Y-102444038D02*
X129035011Y-102491657D01*
X129035011Y-102491657D02*
X128987392Y-102586895D01*
X128987392Y-102586895D02*
X128987392Y-102729752D01*
X128987392Y-102729752D02*
X129035011Y-102824990D01*
X129035011Y-102824990D02*
X129082630Y-102872609D01*
X129082630Y-102872609D02*
X129177868Y-102920228D01*
X129177868Y-102920228D02*
X129558820Y-102920228D01*
X128035011Y-103396419D02*
X128606439Y-103396419D01*
X128320725Y-103396419D02*
X128320725Y-102396419D01*
X128320725Y-102396419D02*
X128415963Y-102539276D01*
X128415963Y-102539276D02*
X128511201Y-102634514D01*
X128511201Y-102634514D02*
X128606439Y-102682133D01*
X127082630Y-103396419D02*
X127654058Y-103396419D01*
X127368344Y-103396419D02*
X127368344Y-102396419D01*
X127368344Y-102396419D02*
X127463582Y-102539276D01*
X127463582Y-102539276D02*
X127558820Y-102634514D01*
X127558820Y-102634514D02*
X127654058Y-102682133D01*
X132035392Y-100856419D02*
X132368725Y-100380228D01*
X132606820Y-100856419D02*
X132606820Y-99856419D01*
X132606820Y-99856419D02*
X132225868Y-99856419D01*
X132225868Y-99856419D02*
X132130630Y-99904038D01*
X132130630Y-99904038D02*
X132083011Y-99951657D01*
X132083011Y-99951657D02*
X132035392Y-100046895D01*
X132035392Y-100046895D02*
X132035392Y-100189752D01*
X132035392Y-100189752D02*
X132083011Y-100284990D01*
X132083011Y-100284990D02*
X132130630Y-100332609D01*
X132130630Y-100332609D02*
X132225868Y-100380228D01*
X132225868Y-100380228D02*
X132606820Y-100380228D01*
X131083011Y-100856419D02*
X131654439Y-100856419D01*
X131368725Y-100856419D02*
X131368725Y-99856419D01*
X131368725Y-99856419D02*
X131463963Y-99999276D01*
X131463963Y-99999276D02*
X131559201Y-100094514D01*
X131559201Y-100094514D02*
X131654439Y-100142133D01*
X130702058Y-99951657D02*
X130654439Y-99904038D01*
X130654439Y-99904038D02*
X130559201Y-99856419D01*
X130559201Y-99856419D02*
X130321106Y-99856419D01*
X130321106Y-99856419D02*
X130225868Y-99904038D01*
X130225868Y-99904038D02*
X130178249Y-99951657D01*
X130178249Y-99951657D02*
X130130630Y-100046895D01*
X130130630Y-100046895D02*
X130130630Y-100142133D01*
X130130630Y-100142133D02*
X130178249Y-100284990D01*
X130178249Y-100284990D02*
X130749677Y-100856419D01*
X130749677Y-100856419D02*
X130130630Y-100856419D01*
X100906886Y-76187947D02*
X100805871Y-75615528D01*
X101310947Y-75783886D02*
X100603840Y-75076780D01*
X100603840Y-75076780D02*
X100334466Y-75346154D01*
X100334466Y-75346154D02*
X100300794Y-75447169D01*
X100300794Y-75447169D02*
X100300794Y-75514512D01*
X100300794Y-75514512D02*
X100334466Y-75615528D01*
X100334466Y-75615528D02*
X100435481Y-75716543D01*
X100435481Y-75716543D02*
X100536497Y-75750215D01*
X100536497Y-75750215D02*
X100603840Y-75750215D01*
X100603840Y-75750215D02*
X100704855Y-75716543D01*
X100704855Y-75716543D02*
X100974229Y-75447169D01*
X99560016Y-76120604D02*
X99896733Y-75783886D01*
X99896733Y-75783886D02*
X100267123Y-76086932D01*
X100267123Y-76086932D02*
X100199779Y-76086932D01*
X100199779Y-76086932D02*
X100098764Y-76120604D01*
X100098764Y-76120604D02*
X99930405Y-76288963D01*
X99930405Y-76288963D02*
X99896733Y-76389978D01*
X99896733Y-76389978D02*
X99896733Y-76457321D01*
X99896733Y-76457321D02*
X99930405Y-76558337D01*
X99930405Y-76558337D02*
X100098764Y-76726695D01*
X100098764Y-76726695D02*
X100199779Y-76760367D01*
X100199779Y-76760367D02*
X100267123Y-76760367D01*
X100267123Y-76760367D02*
X100368138Y-76726695D01*
X100368138Y-76726695D02*
X100536497Y-76558337D01*
X100536497Y-76558337D02*
X100570168Y-76457321D01*
X100570168Y-76457321D02*
X100570168Y-76389978D01*
D11*
X118542531Y-103789479D02*
X118802971Y-103789479D01*
X118802971Y-103789479D02*
X118833611Y-103804799D01*
X118833611Y-103804799D02*
X118848932Y-103820119D01*
X118848932Y-103820119D02*
X118864252Y-103850759D01*
X118864252Y-103850759D02*
X118864252Y-103912039D01*
X118864252Y-103912039D02*
X118848932Y-103942679D01*
X118848932Y-103942679D02*
X118833611Y-103957999D01*
X118833611Y-103957999D02*
X118802971Y-103973319D01*
X118802971Y-103973319D02*
X118542531Y-103973319D01*
X118542531Y-104279720D02*
X118542531Y-104126520D01*
X118542531Y-104126520D02*
X118695731Y-104111200D01*
X118695731Y-104111200D02*
X118680411Y-104126520D01*
X118680411Y-104126520D02*
X118665091Y-104157160D01*
X118665091Y-104157160D02*
X118665091Y-104233760D01*
X118665091Y-104233760D02*
X118680411Y-104264400D01*
X118680411Y-104264400D02*
X118695731Y-104279720D01*
X118695731Y-104279720D02*
X118726371Y-104295040D01*
X118726371Y-104295040D02*
X118802971Y-104295040D01*
X118802971Y-104295040D02*
X118833611Y-104279720D01*
X118833611Y-104279720D02*
X118848932Y-104264400D01*
X118848932Y-104264400D02*
X118864252Y-104233760D01*
X118864252Y-104233760D02*
X118864252Y-104157160D01*
X118864252Y-104157160D02*
X118848932Y-104126520D01*
X118848932Y-104126520D02*
X118833611Y-104111200D01*
D10*
X122984419Y-105391933D02*
X122508228Y-105058600D01*
X122984419Y-104820505D02*
X121984419Y-104820505D01*
X121984419Y-104820505D02*
X121984419Y-105201457D01*
X121984419Y-105201457D02*
X122032038Y-105296695D01*
X122032038Y-105296695D02*
X122079657Y-105344314D01*
X122079657Y-105344314D02*
X122174895Y-105391933D01*
X122174895Y-105391933D02*
X122317752Y-105391933D01*
X122317752Y-105391933D02*
X122412990Y-105344314D01*
X122412990Y-105344314D02*
X122460609Y-105296695D01*
X122460609Y-105296695D02*
X122508228Y-105201457D01*
X122508228Y-105201457D02*
X122508228Y-104820505D01*
X122317752Y-106249076D02*
X122984419Y-106249076D01*
X121936800Y-106010981D02*
X122651085Y-105772886D01*
X122651085Y-105772886D02*
X122651085Y-106391933D01*
X129635419Y-122308333D02*
X129159228Y-121975000D01*
X129635419Y-121736905D02*
X128635419Y-121736905D01*
X128635419Y-121736905D02*
X128635419Y-122117857D01*
X128635419Y-122117857D02*
X128683038Y-122213095D01*
X128683038Y-122213095D02*
X128730657Y-122260714D01*
X128730657Y-122260714D02*
X128825895Y-122308333D01*
X128825895Y-122308333D02*
X128968752Y-122308333D01*
X128968752Y-122308333D02*
X129063990Y-122260714D01*
X129063990Y-122260714D02*
X129111609Y-122213095D01*
X129111609Y-122213095D02*
X129159228Y-122117857D01*
X129159228Y-122117857D02*
X129159228Y-121736905D01*
X128635419Y-123165476D02*
X128635419Y-122975000D01*
X128635419Y-122975000D02*
X128683038Y-122879762D01*
X128683038Y-122879762D02*
X128730657Y-122832143D01*
X128730657Y-122832143D02*
X128873514Y-122736905D01*
X128873514Y-122736905D02*
X129063990Y-122689286D01*
X129063990Y-122689286D02*
X129444942Y-122689286D01*
X129444942Y-122689286D02*
X129540180Y-122736905D01*
X129540180Y-122736905D02*
X129587800Y-122784524D01*
X129587800Y-122784524D02*
X129635419Y-122879762D01*
X129635419Y-122879762D02*
X129635419Y-123070238D01*
X129635419Y-123070238D02*
X129587800Y-123165476D01*
X129587800Y-123165476D02*
X129540180Y-123213095D01*
X129540180Y-123213095D02*
X129444942Y-123260714D01*
X129444942Y-123260714D02*
X129206847Y-123260714D01*
X129206847Y-123260714D02*
X129111609Y-123213095D01*
X129111609Y-123213095D02*
X129063990Y-123165476D01*
X129063990Y-123165476D02*
X129016371Y-123070238D01*
X129016371Y-123070238D02*
X129016371Y-122879762D01*
X129016371Y-122879762D02*
X129063990Y-122784524D01*
X129063990Y-122784524D02*
X129111609Y-122736905D01*
X129111609Y-122736905D02*
X129206847Y-122689286D01*
X115618419Y-106800753D02*
X115142228Y-106467420D01*
X115618419Y-106229325D02*
X114618419Y-106229325D01*
X114618419Y-106229325D02*
X114618419Y-106610277D01*
X114618419Y-106610277D02*
X114666038Y-106705515D01*
X114666038Y-106705515D02*
X114713657Y-106753134D01*
X114713657Y-106753134D02*
X114808895Y-106800753D01*
X114808895Y-106800753D02*
X114951752Y-106800753D01*
X114951752Y-106800753D02*
X115046990Y-106753134D01*
X115046990Y-106753134D02*
X115094609Y-106705515D01*
X115094609Y-106705515D02*
X115142228Y-106610277D01*
X115142228Y-106610277D02*
X115142228Y-106229325D01*
X114618419Y-107705515D02*
X114618419Y-107229325D01*
X114618419Y-107229325D02*
X115094609Y-107181706D01*
X115094609Y-107181706D02*
X115046990Y-107229325D01*
X115046990Y-107229325D02*
X114999371Y-107324563D01*
X114999371Y-107324563D02*
X114999371Y-107562658D01*
X114999371Y-107562658D02*
X115046990Y-107657896D01*
X115046990Y-107657896D02*
X115094609Y-107705515D01*
X115094609Y-107705515D02*
X115189847Y-107753134D01*
X115189847Y-107753134D02*
X115427942Y-107753134D01*
X115427942Y-107753134D02*
X115523180Y-107705515D01*
X115523180Y-107705515D02*
X115570800Y-107657896D01*
X115570800Y-107657896D02*
X115618419Y-107562658D01*
X115618419Y-107562658D02*
X115618419Y-107324563D01*
X115618419Y-107324563D02*
X115570800Y-107229325D01*
X115570800Y-107229325D02*
X115523180Y-107181706D01*
X132703866Y-117395180D02*
X132751485Y-117442800D01*
X132751485Y-117442800D02*
X132894342Y-117490419D01*
X132894342Y-117490419D02*
X132989580Y-117490419D01*
X132989580Y-117490419D02*
X133132437Y-117442800D01*
X133132437Y-117442800D02*
X133227675Y-117347561D01*
X133227675Y-117347561D02*
X133275294Y-117252323D01*
X133275294Y-117252323D02*
X133322913Y-117061847D01*
X133322913Y-117061847D02*
X133322913Y-116918990D01*
X133322913Y-116918990D02*
X133275294Y-116728514D01*
X133275294Y-116728514D02*
X133227675Y-116633276D01*
X133227675Y-116633276D02*
X133132437Y-116538038D01*
X133132437Y-116538038D02*
X132989580Y-116490419D01*
X132989580Y-116490419D02*
X132894342Y-116490419D01*
X132894342Y-116490419D02*
X132751485Y-116538038D01*
X132751485Y-116538038D02*
X132703866Y-116585657D01*
X132370532Y-116490419D02*
X131703866Y-116490419D01*
X131703866Y-116490419D02*
X132132437Y-117490419D01*
X113491180Y-106915933D02*
X113538800Y-106868314D01*
X113538800Y-106868314D02*
X113586419Y-106725457D01*
X113586419Y-106725457D02*
X113586419Y-106630219D01*
X113586419Y-106630219D02*
X113538800Y-106487362D01*
X113538800Y-106487362D02*
X113443561Y-106392124D01*
X113443561Y-106392124D02*
X113348323Y-106344505D01*
X113348323Y-106344505D02*
X113157847Y-106296886D01*
X113157847Y-106296886D02*
X113014990Y-106296886D01*
X113014990Y-106296886D02*
X112824514Y-106344505D01*
X112824514Y-106344505D02*
X112729276Y-106392124D01*
X112729276Y-106392124D02*
X112634038Y-106487362D01*
X112634038Y-106487362D02*
X112586419Y-106630219D01*
X112586419Y-106630219D02*
X112586419Y-106725457D01*
X112586419Y-106725457D02*
X112634038Y-106868314D01*
X112634038Y-106868314D02*
X112681657Y-106915933D01*
X112919752Y-107773076D02*
X113586419Y-107773076D01*
X112538800Y-107534981D02*
X113253085Y-107296886D01*
X113253085Y-107296886D02*
X113253085Y-107915933D01*
X115726933Y-93123038D02*
X115822171Y-93075419D01*
X115822171Y-93075419D02*
X115965028Y-93075419D01*
X115965028Y-93075419D02*
X116107885Y-93123038D01*
X116107885Y-93123038D02*
X116203123Y-93218276D01*
X116203123Y-93218276D02*
X116250742Y-93313514D01*
X116250742Y-93313514D02*
X116298361Y-93503990D01*
X116298361Y-93503990D02*
X116298361Y-93646847D01*
X116298361Y-93646847D02*
X116250742Y-93837323D01*
X116250742Y-93837323D02*
X116203123Y-93932561D01*
X116203123Y-93932561D02*
X116107885Y-94027800D01*
X116107885Y-94027800D02*
X115965028Y-94075419D01*
X115965028Y-94075419D02*
X115869790Y-94075419D01*
X115869790Y-94075419D02*
X115726933Y-94027800D01*
X115726933Y-94027800D02*
X115679314Y-93980180D01*
X115679314Y-93980180D02*
X115679314Y-93646847D01*
X115679314Y-93646847D02*
X115869790Y-93646847D01*
X115250742Y-94075419D02*
X115250742Y-93408752D01*
X115250742Y-93599228D02*
X115203123Y-93503990D01*
X115203123Y-93503990D02*
X115155504Y-93456371D01*
X115155504Y-93456371D02*
X115060266Y-93408752D01*
X115060266Y-93408752D02*
X114965028Y-93408752D01*
X114250742Y-94027800D02*
X114345980Y-94075419D01*
X114345980Y-94075419D02*
X114536456Y-94075419D01*
X114536456Y-94075419D02*
X114631694Y-94027800D01*
X114631694Y-94027800D02*
X114679313Y-93932561D01*
X114679313Y-93932561D02*
X114679313Y-93551609D01*
X114679313Y-93551609D02*
X114631694Y-93456371D01*
X114631694Y-93456371D02*
X114536456Y-93408752D01*
X114536456Y-93408752D02*
X114345980Y-93408752D01*
X114345980Y-93408752D02*
X114250742Y-93456371D01*
X114250742Y-93456371D02*
X114203123Y-93551609D01*
X114203123Y-93551609D02*
X114203123Y-93646847D01*
X114203123Y-93646847D02*
X114679313Y-93742085D01*
X113393599Y-94027800D02*
X113488837Y-94075419D01*
X113488837Y-94075419D02*
X113679313Y-94075419D01*
X113679313Y-94075419D02*
X113774551Y-94027800D01*
X113774551Y-94027800D02*
X113822170Y-93932561D01*
X113822170Y-93932561D02*
X113822170Y-93551609D01*
X113822170Y-93551609D02*
X113774551Y-93456371D01*
X113774551Y-93456371D02*
X113679313Y-93408752D01*
X113679313Y-93408752D02*
X113488837Y-93408752D01*
X113488837Y-93408752D02*
X113393599Y-93456371D01*
X113393599Y-93456371D02*
X113345980Y-93551609D01*
X113345980Y-93551609D02*
X113345980Y-93646847D01*
X113345980Y-93646847D02*
X113822170Y-93742085D01*
X112917408Y-93408752D02*
X112917408Y-94075419D01*
X112917408Y-93503990D02*
X112869789Y-93456371D01*
X112869789Y-93456371D02*
X112774551Y-93408752D01*
X112774551Y-93408752D02*
X112631694Y-93408752D01*
X112631694Y-93408752D02*
X112536456Y-93456371D01*
X112536456Y-93456371D02*
X112488837Y-93551609D01*
X112488837Y-93551609D02*
X112488837Y-94075419D01*
X111488837Y-94075419D02*
X112060265Y-94075419D01*
X111774551Y-94075419D02*
X111774551Y-93075419D01*
X111774551Y-93075419D02*
X111869789Y-93218276D01*
X111869789Y-93218276D02*
X111965027Y-93313514D01*
X111965027Y-93313514D02*
X112060265Y-93361133D01*
X132703866Y-122570419D02*
X133037199Y-122094228D01*
X133275294Y-122570419D02*
X133275294Y-121570419D01*
X133275294Y-121570419D02*
X132894342Y-121570419D01*
X132894342Y-121570419D02*
X132799104Y-121618038D01*
X132799104Y-121618038D02*
X132751485Y-121665657D01*
X132751485Y-121665657D02*
X132703866Y-121760895D01*
X132703866Y-121760895D02*
X132703866Y-121903752D01*
X132703866Y-121903752D02*
X132751485Y-121998990D01*
X132751485Y-121998990D02*
X132799104Y-122046609D01*
X132799104Y-122046609D02*
X132894342Y-122094228D01*
X132894342Y-122094228D02*
X133275294Y-122094228D01*
X131846723Y-121903752D02*
X131846723Y-122570419D01*
X132084818Y-121522800D02*
X132322913Y-122237085D01*
X132322913Y-122237085D02*
X131703866Y-122237085D01*
X116812219Y-96771733D02*
X116336028Y-96438400D01*
X116812219Y-96200305D02*
X115812219Y-96200305D01*
X115812219Y-96200305D02*
X115812219Y-96581257D01*
X115812219Y-96581257D02*
X115859838Y-96676495D01*
X115859838Y-96676495D02*
X115907457Y-96724114D01*
X115907457Y-96724114D02*
X116002695Y-96771733D01*
X116002695Y-96771733D02*
X116145552Y-96771733D01*
X116145552Y-96771733D02*
X116240790Y-96724114D01*
X116240790Y-96724114D02*
X116288409Y-96676495D01*
X116288409Y-96676495D02*
X116336028Y-96581257D01*
X116336028Y-96581257D02*
X116336028Y-96200305D01*
X115812219Y-97105067D02*
X115812219Y-97724114D01*
X115812219Y-97724114D02*
X116193171Y-97390781D01*
X116193171Y-97390781D02*
X116193171Y-97533638D01*
X116193171Y-97533638D02*
X116240790Y-97628876D01*
X116240790Y-97628876D02*
X116288409Y-97676495D01*
X116288409Y-97676495D02*
X116383647Y-97724114D01*
X116383647Y-97724114D02*
X116621742Y-97724114D01*
X116621742Y-97724114D02*
X116716980Y-97676495D01*
X116716980Y-97676495D02*
X116764600Y-97628876D01*
X116764600Y-97628876D02*
X116812219Y-97533638D01*
X116812219Y-97533638D02*
X116812219Y-97247924D01*
X116812219Y-97247924D02*
X116764600Y-97152686D01*
X116764600Y-97152686D02*
X116716980Y-97105067D01*
X100537180Y-97543333D02*
X100584800Y-97495714D01*
X100584800Y-97495714D02*
X100632419Y-97352857D01*
X100632419Y-97352857D02*
X100632419Y-97257619D01*
X100632419Y-97257619D02*
X100584800Y-97114762D01*
X100584800Y-97114762D02*
X100489561Y-97019524D01*
X100489561Y-97019524D02*
X100394323Y-96971905D01*
X100394323Y-96971905D02*
X100203847Y-96924286D01*
X100203847Y-96924286D02*
X100060990Y-96924286D01*
X100060990Y-96924286D02*
X99870514Y-96971905D01*
X99870514Y-96971905D02*
X99775276Y-97019524D01*
X99775276Y-97019524D02*
X99680038Y-97114762D01*
X99680038Y-97114762D02*
X99632419Y-97257619D01*
X99632419Y-97257619D02*
X99632419Y-97352857D01*
X99632419Y-97352857D02*
X99680038Y-97495714D01*
X99680038Y-97495714D02*
X99727657Y-97543333D01*
X99632419Y-98448095D02*
X99632419Y-97971905D01*
X99632419Y-97971905D02*
X100108609Y-97924286D01*
X100108609Y-97924286D02*
X100060990Y-97971905D01*
X100060990Y-97971905D02*
X100013371Y-98067143D01*
X100013371Y-98067143D02*
X100013371Y-98305238D01*
X100013371Y-98305238D02*
X100060990Y-98400476D01*
X100060990Y-98400476D02*
X100108609Y-98448095D01*
X100108609Y-98448095D02*
X100203847Y-98495714D01*
X100203847Y-98495714D02*
X100441942Y-98495714D01*
X100441942Y-98495714D02*
X100537180Y-98448095D01*
X100537180Y-98448095D02*
X100584800Y-98400476D01*
X100584800Y-98400476D02*
X100632419Y-98305238D01*
X100632419Y-98305238D02*
X100632419Y-98067143D01*
X100632419Y-98067143D02*
X100584800Y-97971905D01*
X100584800Y-97971905D02*
X100537180Y-97924286D01*
X143364419Y-85746695D02*
X144173942Y-85746695D01*
X144173942Y-85746695D02*
X144269180Y-85794314D01*
X144269180Y-85794314D02*
X144316800Y-85841933D01*
X144316800Y-85841933D02*
X144364419Y-85937171D01*
X144364419Y-85937171D02*
X144364419Y-86127647D01*
X144364419Y-86127647D02*
X144316800Y-86222885D01*
X144316800Y-86222885D02*
X144269180Y-86270504D01*
X144269180Y-86270504D02*
X144173942Y-86318123D01*
X144173942Y-86318123D02*
X143364419Y-86318123D01*
X143697752Y-87222885D02*
X144364419Y-87222885D01*
X143316800Y-86984790D02*
X144031085Y-86746695D01*
X144031085Y-86746695D02*
X144031085Y-87365742D01*
X151588067Y-100857179D02*
X150800665Y-100857179D01*
X150800665Y-100857179D02*
X151363095Y-101119647D01*
X151363095Y-101119647D02*
X150800665Y-101382114D01*
X150800665Y-101382114D02*
X151588067Y-101382114D01*
X151588067Y-102169516D02*
X151588067Y-101719572D01*
X151588067Y-101944544D02*
X150800665Y-101944544D01*
X150800665Y-101944544D02*
X150913151Y-101869553D01*
X150913151Y-101869553D02*
X150988142Y-101794563D01*
X150988142Y-101794563D02*
X151025637Y-101719572D01*
X109025399Y-87040502D02*
X109597818Y-86939487D01*
X109429460Y-87444563D02*
X110136566Y-86737456D01*
X110136566Y-86737456D02*
X109867192Y-86468082D01*
X109867192Y-86468082D02*
X109766177Y-86434410D01*
X109766177Y-86434410D02*
X109698834Y-86434410D01*
X109698834Y-86434410D02*
X109597818Y-86468082D01*
X109597818Y-86468082D02*
X109496803Y-86569097D01*
X109496803Y-86569097D02*
X109463131Y-86670113D01*
X109463131Y-86670113D02*
X109463131Y-86737456D01*
X109463131Y-86737456D02*
X109496803Y-86838471D01*
X109496803Y-86838471D02*
X109766177Y-87107845D01*
X109496803Y-86097693D02*
X109025399Y-85626288D01*
X109025399Y-85626288D02*
X108621338Y-86636441D01*
X116380419Y-100851742D02*
X115904228Y-100518409D01*
X116380419Y-100280314D02*
X115380419Y-100280314D01*
X115380419Y-100280314D02*
X115380419Y-100661266D01*
X115380419Y-100661266D02*
X115428038Y-100756504D01*
X115428038Y-100756504D02*
X115475657Y-100804123D01*
X115475657Y-100804123D02*
X115570895Y-100851742D01*
X115570895Y-100851742D02*
X115713752Y-100851742D01*
X115713752Y-100851742D02*
X115808990Y-100804123D01*
X115808990Y-100804123D02*
X115856609Y-100756504D01*
X115856609Y-100756504D02*
X115904228Y-100661266D01*
X115904228Y-100661266D02*
X115904228Y-100280314D01*
X116380419Y-101804123D02*
X116380419Y-101232695D01*
X116380419Y-101518409D02*
X115380419Y-101518409D01*
X115380419Y-101518409D02*
X115523276Y-101423171D01*
X115523276Y-101423171D02*
X115618514Y-101327933D01*
X115618514Y-101327933D02*
X115666133Y-101232695D01*
X115380419Y-102423171D02*
X115380419Y-102518409D01*
X115380419Y-102518409D02*
X115428038Y-102613647D01*
X115428038Y-102613647D02*
X115475657Y-102661266D01*
X115475657Y-102661266D02*
X115570895Y-102708885D01*
X115570895Y-102708885D02*
X115761371Y-102756504D01*
X115761371Y-102756504D02*
X115999466Y-102756504D01*
X115999466Y-102756504D02*
X116189942Y-102708885D01*
X116189942Y-102708885D02*
X116285180Y-102661266D01*
X116285180Y-102661266D02*
X116332800Y-102613647D01*
X116332800Y-102613647D02*
X116380419Y-102518409D01*
X116380419Y-102518409D02*
X116380419Y-102423171D01*
X116380419Y-102423171D02*
X116332800Y-102327933D01*
X116332800Y-102327933D02*
X116285180Y-102280314D01*
X116285180Y-102280314D02*
X116189942Y-102232695D01*
X116189942Y-102232695D02*
X115999466Y-102185076D01*
X115999466Y-102185076D02*
X115761371Y-102185076D01*
X115761371Y-102185076D02*
X115570895Y-102232695D01*
X115570895Y-102232695D02*
X115475657Y-102280314D01*
X115475657Y-102280314D02*
X115428038Y-102327933D01*
X115428038Y-102327933D02*
X115380419Y-102423171D01*
X109390482Y-95295072D02*
X110040230Y-95295072D01*
X110040230Y-95295072D02*
X110116671Y-95333292D01*
X110116671Y-95333292D02*
X110154892Y-95371513D01*
X110154892Y-95371513D02*
X110193112Y-95447954D01*
X110193112Y-95447954D02*
X110193112Y-95600836D01*
X110193112Y-95600836D02*
X110154892Y-95677277D01*
X110154892Y-95677277D02*
X110116671Y-95715497D01*
X110116671Y-95715497D02*
X110040230Y-95753718D01*
X110040230Y-95753718D02*
X109390482Y-95753718D01*
X109390482Y-96059481D02*
X109390482Y-96556347D01*
X109390482Y-96556347D02*
X109696246Y-96288804D01*
X109696246Y-96288804D02*
X109696246Y-96403465D01*
X109696246Y-96403465D02*
X109734466Y-96479906D01*
X109734466Y-96479906D02*
X109772687Y-96518127D01*
X109772687Y-96518127D02*
X109849128Y-96556347D01*
X109849128Y-96556347D02*
X110040230Y-96556347D01*
X110040230Y-96556347D02*
X110116671Y-96518127D01*
X110116671Y-96518127D02*
X110154892Y-96479906D01*
X110154892Y-96479906D02*
X110193112Y-96403465D01*
X110193112Y-96403465D02*
X110193112Y-96174142D01*
X110193112Y-96174142D02*
X110154892Y-96097701D01*
X110154892Y-96097701D02*
X110116671Y-96059481D01*
X100537180Y-94469933D02*
X100584800Y-94422314D01*
X100584800Y-94422314D02*
X100632419Y-94279457D01*
X100632419Y-94279457D02*
X100632419Y-94184219D01*
X100632419Y-94184219D02*
X100584800Y-94041362D01*
X100584800Y-94041362D02*
X100489561Y-93946124D01*
X100489561Y-93946124D02*
X100394323Y-93898505D01*
X100394323Y-93898505D02*
X100203847Y-93850886D01*
X100203847Y-93850886D02*
X100060990Y-93850886D01*
X100060990Y-93850886D02*
X99870514Y-93898505D01*
X99870514Y-93898505D02*
X99775276Y-93946124D01*
X99775276Y-93946124D02*
X99680038Y-94041362D01*
X99680038Y-94041362D02*
X99632419Y-94184219D01*
X99632419Y-94184219D02*
X99632419Y-94279457D01*
X99632419Y-94279457D02*
X99680038Y-94422314D01*
X99680038Y-94422314D02*
X99727657Y-94469933D01*
X99632419Y-95327076D02*
X99632419Y-95136600D01*
X99632419Y-95136600D02*
X99680038Y-95041362D01*
X99680038Y-95041362D02*
X99727657Y-94993743D01*
X99727657Y-94993743D02*
X99870514Y-94898505D01*
X99870514Y-94898505D02*
X100060990Y-94850886D01*
X100060990Y-94850886D02*
X100441942Y-94850886D01*
X100441942Y-94850886D02*
X100537180Y-94898505D01*
X100537180Y-94898505D02*
X100584800Y-94946124D01*
X100584800Y-94946124D02*
X100632419Y-95041362D01*
X100632419Y-95041362D02*
X100632419Y-95231838D01*
X100632419Y-95231838D02*
X100584800Y-95327076D01*
X100584800Y-95327076D02*
X100537180Y-95374695D01*
X100537180Y-95374695D02*
X100441942Y-95422314D01*
X100441942Y-95422314D02*
X100203847Y-95422314D01*
X100203847Y-95422314D02*
X100108609Y-95374695D01*
X100108609Y-95374695D02*
X100060990Y-95327076D01*
X100060990Y-95327076D02*
X100013371Y-95231838D01*
X100013371Y-95231838D02*
X100013371Y-95041362D01*
X100013371Y-95041362D02*
X100060990Y-94946124D01*
X100060990Y-94946124D02*
X100108609Y-94898505D01*
X100108609Y-94898505D02*
X100203847Y-94850886D01*
D12*
%TO.C,R5*%
X101749570Y-77879819D02*
X101948381Y-78078630D01*
X102470819Y-77158570D02*
X102669630Y-77357381D01*
D13*
%TO.C,U5*%
X117373600Y-100322600D02*
X119973600Y-100322600D01*
X117373600Y-103092600D02*
X119973600Y-103092600D01*
D14*
X120323600Y-102707600D02*
G75*
G02*
X120223600Y-102707600I-50000J0D01*
G01*
X120223600Y-102707600D02*
G75*
G02*
X120323600Y-102707600I50000J0D01*
G01*
D12*
%TO.C,R4*%
X122019600Y-103159180D02*
X122019600Y-102878020D01*
X123039600Y-103159180D02*
X123039600Y-102878020D01*
%TO.C,R6*%
X129274180Y-120288600D02*
X128993020Y-120288600D01*
X129274180Y-121308600D02*
X128993020Y-121308600D01*
%TO.C,R12*%
X128357100Y-100969858D02*
X128357100Y-100495342D01*
X129402100Y-100969858D02*
X129402100Y-100495342D01*
%TO.C,R5*%
X114653600Y-104402020D02*
X114653600Y-104683180D01*
X115673600Y-104402020D02*
X115673600Y-104683180D01*
%TO.C,C7*%
X132677780Y-117795600D02*
X132396620Y-117795600D01*
X132677780Y-118815600D02*
X132396620Y-118815600D01*
%TO.C,C4*%
X112621600Y-104402020D02*
X112621600Y-104683180D01*
X113641600Y-104402020D02*
X113641600Y-104683180D01*
%TO.C,Green1*%
X113753020Y-94634600D02*
X114034180Y-94634600D01*
X113753020Y-95654600D02*
X114034180Y-95654600D01*
%TO.C,R4*%
X132677780Y-120081600D02*
X132396620Y-120081600D01*
X132677780Y-121101600D02*
X132396620Y-121101600D01*
%TO.C,R3*%
X113656342Y-96400100D02*
X114130858Y-96400100D01*
X113656342Y-97445100D02*
X114130858Y-97445100D01*
%TO.C,C5*%
X103112180Y-97174600D02*
X102831020Y-97174600D01*
X103112180Y-98194600D02*
X102831020Y-98194600D01*
%TO.C,R11*%
X125563100Y-102239858D02*
X125563100Y-101765342D01*
X126608100Y-102239858D02*
X126608100Y-101765342D01*
%TO.C,U4*%
X119929600Y-87838600D02*
X119929600Y-85178600D01*
X140309600Y-85178600D02*
X119929600Y-85178600D01*
X140309600Y-87838600D02*
X119929600Y-87838600D01*
X140309600Y-87838600D02*
X140309600Y-85178600D01*
X141579600Y-87838600D02*
X142909600Y-87838600D01*
X142909600Y-87838600D02*
X142909600Y-86508600D01*
D15*
%TO.C,M1*%
X149936200Y-91309200D02*
X149936200Y-111680000D01*
X149936200Y-111680000D02*
X152527000Y-111680000D01*
X152527000Y-91309200D02*
X149936200Y-91309200D01*
X152527000Y-111680000D02*
X152527000Y-91309200D01*
D12*
%TO.C,R7*%
X110385570Y-84723381D02*
X110584381Y-84524570D01*
X111106819Y-85444630D02*
X111305630Y-85245819D01*
%TO.C,R10*%
X116450342Y-98686100D02*
X116924858Y-98686100D01*
X116450342Y-99731100D02*
X116924858Y-99731100D01*
D13*
%TO.C,U3*%
X105551600Y-95056600D02*
X105651600Y-95056600D01*
X105551600Y-96756600D02*
X105551600Y-95056600D01*
X105551600Y-96756600D02*
X105651600Y-96756600D01*
X108651600Y-95056600D02*
X108551600Y-95056600D01*
X108651600Y-96756600D02*
X108551600Y-96756600D01*
X108651600Y-96756600D02*
X108651600Y-95056600D01*
D14*
X106251600Y-93437600D02*
G75*
G02*
X106051600Y-93437600I-100000J0D01*
G01*
X106051600Y-93437600D02*
G75*
G02*
X106251600Y-93437600I100000J0D01*
G01*
D12*
%TO.C,C6*%
X103112180Y-94126600D02*
X102831020Y-94126600D01*
X103112180Y-95146600D02*
X102831020Y-95146600D01*
%TD*%
M02*
