%TF.GenerationSoftware,KiCad,Pcbnew,9.0.0*%
%TF.CreationDate,2025-11-19T13:49:17-06:00*%
%TF.ProjectId,FiltSure Prototype Three,46696c74-5375-4726-9520-50726f746f74,rev?*%
%TF.SameCoordinates,Original*%
%TF.FileFunction,Soldermask,Top*%
%TF.FilePolarity,Negative*%
%FSLAX46Y46*%
G04 Gerber Fmt 4.6, Leading zero omitted, Abs format (unit mm)*
G04 Created by KiCad (PCBNEW 9.0.0) date 2025-11-19 13:49:17*
%MOMM*%
%LPD*%
G01*
G04 APERTURE LIST*
G04 Aperture macros list*
%AMRoundRect*
0 Rectangle with rounded corners*
0 $1 Rounding radius*
0 $2 $3 $4 $5 $6 $7 $8 $9 X,Y pos of 4 corners*
0 Add a 4 corners polygon primitive as box body*
4,1,4,$2,$3,$4,$5,$6,$7,$8,$9,$2,$3,0*
0 Add four circle primitives for the rounded corners*
1,1,$1+$1,$2,$3*
1,1,$1+$1,$4,$5*
1,1,$1+$1,$6,$7*
1,1,$1+$1,$8,$9*
0 Add four rect primitives between the rounded corners*
20,1,$1+$1,$2,$3,$4,$5,0*
20,1,$1+$1,$4,$5,$6,$7,0*
20,1,$1+$1,$6,$7,$8,$9,0*
20,1,$1+$1,$8,$9,$2,$3,0*%
G04 Aperture macros list end*
%ADD10O,1.700000X1.700000*%
%ADD11R,1.700000X1.700000*%
%ADD12C,3.200000*%
%ADD13RoundRect,0.102000X-0.762000X0.762000X-0.762000X-0.762000X0.762000X-0.762000X0.762000X0.762000X0*%
%ADD14C,1.728000*%
%ADD15RoundRect,0.102000X-0.754000X0.754000X-0.754000X-0.754000X0.754000X-0.754000X0.754000X0.754000X0*%
%ADD16C,1.712000*%
G04 APERTURE END LIST*
D10*
%TO.C,J2*%
X113131600Y-66442600D03*
D11*
X115671600Y-66442600D03*
%TD*%
D12*
%TO.C,H4*%
X149707600Y-119383800D03*
%TD*%
%TO.C,H1*%
X149707600Y-68000000D03*
%TD*%
D11*
%TO.C,J1*%
X95605600Y-83201600D03*
D10*
X95605600Y-85741600D03*
%TD*%
D12*
%TO.C,H3*%
X97891600Y-119383800D03*
%TD*%
%TO.C,H2*%
X97891600Y-68000000D03*
%TD*%
D13*
%TO.C,U6*%
X138980600Y-90064600D03*
D14*
X136440600Y-90064600D03*
X133900600Y-90064600D03*
X131360600Y-90064600D03*
X128820600Y-90064600D03*
X126280600Y-90064600D03*
X123740600Y-90064600D03*
X121200600Y-90064600D03*
X118660600Y-90064600D03*
X116120600Y-90064600D03*
X113580600Y-90064600D03*
X111040600Y-90064600D03*
X108500600Y-90064600D03*
X105960600Y-90064600D03*
X103420600Y-90064600D03*
X100880600Y-90064600D03*
X138980600Y-112924600D03*
X136440600Y-112924600D03*
X133900600Y-112924600D03*
X131360600Y-112924600D03*
X128820600Y-112924600D03*
X126280600Y-112924600D03*
X123740600Y-112924600D03*
X121200600Y-112924600D03*
X118660600Y-112924600D03*
X116120600Y-112924600D03*
X113580600Y-112924600D03*
X111040600Y-112924600D03*
X108500600Y-112924600D03*
X105960600Y-112924600D03*
X103420600Y-112924600D03*
X100880600Y-112924600D03*
%TD*%
D11*
%TO.C,U3*%
X141579600Y-82698600D03*
D10*
X139039600Y-82698600D03*
X136499600Y-82698600D03*
X133959600Y-82698600D03*
X131419600Y-82698600D03*
X128879600Y-82698600D03*
X126339600Y-82698600D03*
X123799600Y-82698600D03*
X121259600Y-82698600D03*
%TD*%
D15*
%TO.C,M1*%
X151231600Y-92604600D03*
D16*
X151231600Y-95144600D03*
X151231600Y-97684600D03*
X151231600Y-100224600D03*
X151231600Y-102764600D03*
X151231600Y-105304600D03*
X151231600Y-107844600D03*
X151231600Y-110384600D03*
%TD*%
M02*
