%TF.GenerationSoftware,KiCad,Pcbnew,9.0.0*%
%TF.CreationDate,2025-11-19T13:49:17-06:00*%
%TF.ProjectId,FiltSure Prototype Three,46696c74-5375-4726-9520-50726f746f74,rev?*%
%TF.SameCoordinates,Original*%
%TF.FileFunction,Copper,L1,Top*%
%TF.FilePolarity,Positive*%
%FSLAX46Y46*%
G04 Gerber Fmt 4.6, Leading zero omitted, Abs format (unit mm)*
G04 Created by KiCad (PCBNEW 9.0.0) date 2025-11-19 13:49:17*
%MOMM*%
%LPD*%
G01*
G04 APERTURE LIST*
%TA.AperFunction,ComponentPad*%
%ADD10O,1.700000X1.700000*%
%TD*%
%TA.AperFunction,ComponentPad*%
%ADD11R,1.700000X1.700000*%
%TD*%
%TA.AperFunction,ComponentPad*%
%ADD12R,1.524000X1.524000*%
%TD*%
%TA.AperFunction,ComponentPad*%
%ADD13C,1.524000*%
%TD*%
%TA.AperFunction,ComponentPad*%
%ADD14R,1.508000X1.508000*%
%TD*%
%TA.AperFunction,ComponentPad*%
%ADD15C,1.508000*%
%TD*%
%TA.AperFunction,ViaPad*%
%ADD16C,0.700000*%
%TD*%
%TA.AperFunction,ViaPad*%
%ADD17C,1.000000*%
%TD*%
%TA.AperFunction,ViaPad*%
%ADD18C,0.600000*%
%TD*%
%TA.AperFunction,Conductor*%
%ADD19C,0.200000*%
%TD*%
%TA.AperFunction,Conductor*%
%ADD20C,0.500000*%
%TD*%
G04 APERTURE END LIST*
D10*
%TO.P,J2,2,Pin_2*%
%TO.N,Net-(J2-Pin_2)*%
X113131600Y-66442600D03*
D11*
%TO.P,J2,1,Pin_1*%
%TO.N,GND*%
X115671600Y-66442600D03*
%TD*%
%TO.P,J1,1,Pin_1*%
%TO.N,VCC*%
X95605600Y-83201600D03*
D10*
%TO.P,J1,2,Pin_2*%
%TO.N,GND*%
X95605600Y-85741600D03*
%TD*%
D12*
%TO.P,U6,J1_1,ESP_3V3*%
%TO.N,unconnected-(U6-ESP_3V3-PadJ1_1)*%
X138980600Y-90064600D03*
D13*
%TO.P,U6,J1_2,CHIP_PU*%
%TO.N,/Reset*%
X136440600Y-90064600D03*
%TO.P,U6,J1_3,GPIO4*%
%TO.N,/Diag_Pin*%
X133900600Y-90064600D03*
%TO.P,U6,J1_4,GPIO5*%
%TO.N,/Speed_Pin*%
X131360600Y-90064600D03*
%TO.P,U6,J1_5,GPIO6*%
%TO.N,/SCK*%
X128820600Y-90064600D03*
%TO.P,U6,J1_6,GPIO7*%
%TO.N,/MOSI*%
X126280600Y-90064600D03*
%TO.P,U6,J1_7,GPIO0*%
%TO.N,/Batt_Pin*%
X123740600Y-90064600D03*
%TO.P,U6,J1_8,GPIO1*%
%TO.N,unconnected-(U6-GPIO1-PadJ1_8)*%
X121200600Y-90064600D03*
%TO.P,U6,J1_9,GPIO8*%
%TO.N,unconnected-(U6-GPIO8-PadJ1_9)*%
X118660600Y-90064600D03*
%TO.P,U6,J1_10,GPIO10*%
%TO.N,unconnected-(U6-GPIO10-PadJ1_10)*%
X116120600Y-90064600D03*
%TO.P,U6,J1_11,GPIO11*%
%TO.N,unconnected-(U6-GPIO11-PadJ1_11)*%
X113580600Y-90064600D03*
%TO.P,U6,J1_12,GPIO2*%
%TO.N,/CS_VREG*%
X111040600Y-90064600D03*
%TO.P,U6,J1_13,GPIO3*%
%TO.N,unconnected-(U6-GPIO3-PadJ1_13)*%
X108500600Y-90064600D03*
%TO.P,U6,J1_14,VCC_5V*%
%TO.N,VCC*%
X105960600Y-90064600D03*
%TO.P,U6,J1_15,GND_J1_15*%
%TO.N,GND*%
X103420600Y-90064600D03*
%TO.P,U6,J1_16,NC_J1_16*%
%TO.N,unconnected-(U6-NC_J1_16-PadJ1_16)*%
X100880600Y-90064600D03*
%TO.P,U6,J3_1,GND_J3_1*%
%TO.N,GND*%
X138980600Y-112924600D03*
%TO.P,U6,J3_2,UART_TXD*%
%TO.N,unconnected-(U6-UART_TXD-PadJ3_2)*%
X136440600Y-112924600D03*
%TO.P,U6,J3_3,UART_RXD*%
%TO.N,unconnected-(U6-UART_RXD-PadJ3_3)*%
X133900600Y-112924600D03*
%TO.P,U6,J3_4,GPIO15*%
%TO.N,/CS_BME*%
X131360600Y-112924600D03*
%TO.P,U6,J3_5,GPIO23*%
%TO.N,/CS_RFID*%
X128820600Y-112924600D03*
%TO.P,U6,J3_6,GPIO22*%
%TO.N,/CS_LoRa*%
X126280600Y-112924600D03*
%TO.P,U6,J3_7,GPIO21*%
%TO.N,/RST_LoRa*%
X123740600Y-112924600D03*
%TO.P,U6,J3_8,GPIO20*%
%TO.N,/RFID_RST*%
X121200600Y-112924600D03*
%TO.P,U6,J3_9,GPIO19*%
%TO.N,/IRQ_LoRa*%
X118660600Y-112924600D03*
%TO.P,U6,J3_10,GPIO18*%
%TO.N,/MISO*%
X116120600Y-112924600D03*
%TO.P,U6,J3_11,GPIO9*%
%TO.N,unconnected-(U6-GPIO9-PadJ3_11)*%
X113580600Y-112924600D03*
%TO.P,U6,J3_12,GND_J3_12*%
%TO.N,GND*%
X111040600Y-112924600D03*
%TO.P,U6,J3_13,GPIO13*%
%TO.N,unconnected-(U6-GPIO13-PadJ3_13)*%
X108500600Y-112924600D03*
%TO.P,U6,J3_14,GPIO12*%
%TO.N,unconnected-(U6-GPIO12-PadJ3_14)*%
X105960600Y-112924600D03*
%TO.P,U6,J3_15,GND_J3_15*%
%TO.N,GND*%
X103420600Y-112924600D03*
%TO.P,U6,J3_16,NC_J3_16*%
%TO.N,unconnected-(U6-NC_J3_16-PadJ3_16)*%
X100880600Y-112924600D03*
%TD*%
D11*
%TO.P,U3,1,GND*%
%TO.N,/RST_LoRa*%
X141579600Y-82698600D03*
D10*
%TO.P,U3,2,MISO*%
%TO.N,/CS_LoRa*%
X139039600Y-82698600D03*
%TO.P,U3,3,MOSI*%
%TO.N,/MISO*%
X136499600Y-82698600D03*
%TO.P,U3,4,SCK*%
%TO.N,/MOSI*%
X133959600Y-82698600D03*
%TO.P,U3,5,NSS*%
%TO.N,/SCK*%
X131419600Y-82698600D03*
%TO.P,U3,6,RESET*%
%TO.N,/IRQ_LoRa*%
X128879600Y-82698600D03*
%TO.P,U3,7,DIO5*%
%TO.N,unconnected-(U3-DIO5-Pad7)*%
X126339600Y-82698600D03*
%TO.P,U3,8,GND@1*%
%TO.N,GND*%
X123799600Y-82698600D03*
%TO.P,U3,9,ANT*%
%TO.N,+3.3V*%
X121259600Y-82698600D03*
%TD*%
D14*
%TO.P,M1,1,SDA*%
%TO.N,/CS_RFID*%
X151231600Y-92604600D03*
D15*
%TO.P,M1,2,SCK*%
%TO.N,/SCK*%
X151231600Y-95144600D03*
%TO.P,M1,3,MOSI*%
%TO.N,/MOSI*%
X151231600Y-97684600D03*
%TO.P,M1,4,MISO*%
%TO.N,/MISO*%
X151231600Y-100224600D03*
%TO.P,M1,5,IRQ*%
%TO.N,unconnected-(M1-IRQ-Pad5)*%
X151231600Y-102764600D03*
%TO.P,M1,6,GND*%
%TO.N,GND*%
X151231600Y-105304600D03*
%TO.P,M1,7,RST*%
%TO.N,/RFID_RST*%
X151231600Y-107844600D03*
%TO.P,M1,8,3V3*%
%TO.N,+3.3V*%
X151231600Y-110384600D03*
%TD*%
D16*
%TO.N,+3.3V*%
X131419600Y-108352600D03*
D17*
%TO.N,GND*%
X117703600Y-109876600D03*
X132181600Y-102002600D03*
X131419600Y-106320600D03*
X113639600Y-109876600D03*
X125577600Y-107082600D03*
X117703600Y-107082600D03*
X108813600Y-92350600D03*
X145389600Y-102002600D03*
X124561600Y-96668600D03*
X136753600Y-100224600D03*
X148125914Y-95340914D03*
X142341600Y-95144600D03*
X108559600Y-109876600D03*
X127609600Y-97938600D03*
X122529600Y-111146600D03*
X131419600Y-104542600D03*
X137261600Y-102002600D03*
X103733600Y-109876600D03*
X128879600Y-106066600D03*
X137261600Y-107402600D03*
X127609600Y-92096600D03*
X124852352Y-92946759D03*
X134485462Y-105756959D03*
X121513600Y-107082600D03*
X147871914Y-92800914D03*
X121513600Y-105558600D03*
X125069600Y-111146600D03*
X142145286Y-106516914D03*
X142341600Y-89556600D03*
X130403600Y-96668600D03*
X140817600Y-107402600D03*
X138648386Y-106691386D03*
D16*
X118719600Y-102002600D03*
D17*
X130403600Y-92946759D03*
X127609600Y-95398600D03*
%TO.N,+3.3V*%
X111353600Y-103018600D03*
X107797600Y-103018600D03*
X107797600Y-101240600D03*
X109575600Y-99462600D03*
X111353600Y-99462600D03*
X106019600Y-99462600D03*
X107797600Y-99462600D03*
X109575600Y-103018600D03*
D16*
X111353600Y-108352600D03*
D17*
X111353600Y-101240600D03*
X106019600Y-103018600D03*
X106019600Y-101240600D03*
X109575600Y-101240600D03*
D16*
%TO.N,/CS_BME*%
X122529600Y-102243600D03*
D17*
%TO.N,/SCK*%
X124307600Y-99970600D03*
D16*
X128879600Y-99907600D03*
D18*
%TO.N,/MISO*%
X121259600Y-99208600D03*
D16*
%TO.N,/MOSI*%
X149199600Y-79142600D03*
X126085600Y-101177600D03*
%TO.N,/CS_RFID*%
X147294600Y-111019600D03*
X132919101Y-111654599D03*
%TD*%
D19*
%TO.N,/MOSI*%
X153771600Y-80666600D02*
X153771600Y-95144600D01*
X153771600Y-95144600D02*
X151231600Y-97684600D01*
X149199600Y-79142600D02*
X152247600Y-79142600D01*
X152247600Y-79142600D02*
X153771600Y-80666600D01*
%TO.N,/SCK*%
X147167600Y-99208600D02*
X151231600Y-95144600D01*
X129578600Y-99208600D02*
X147167600Y-99208600D01*
X128879600Y-99907600D02*
X129578600Y-99208600D01*
%TO.N,/MOSI*%
X147738600Y-101177600D02*
X151231600Y-97684600D01*
X140626600Y-101177600D02*
X147738600Y-101177600D01*
%TO.N,/MISO*%
X148437600Y-103018600D02*
X151231600Y-100224600D01*
X141579600Y-103018600D02*
X148437600Y-103018600D01*
%TO.N,/CS_RFID*%
X146659600Y-111654600D02*
X147294600Y-111019600D01*
X132919101Y-111654599D02*
X146659600Y-111654600D01*
D20*
%TO.N,+3.3V*%
X149199600Y-108352600D02*
X151231600Y-110384600D01*
X131419600Y-108352600D02*
X149199600Y-108352600D01*
X140795441Y-93896759D02*
X146659600Y-88032600D01*
X143357600Y-77110600D02*
X126847600Y-77110600D01*
X117449600Y-99462600D02*
X123015441Y-93896759D01*
X111353600Y-99462600D02*
X117449600Y-99462600D01*
X146659600Y-88032600D02*
X146659600Y-80412600D01*
X109575600Y-106574600D02*
X111353600Y-108352600D01*
X146659600Y-80412600D02*
X143357600Y-77110600D01*
X126847600Y-77110600D02*
X121259600Y-82698600D01*
X123015441Y-93896759D02*
X140795441Y-93896759D01*
X109575600Y-103018600D02*
X109575600Y-106574600D01*
D19*
%TO.N,/CS_BME*%
X131360600Y-111074600D02*
X122529600Y-102243600D01*
X131360600Y-112924600D02*
X131360600Y-111074600D01*
%TO.N,/SCK*%
X128820600Y-85297600D02*
X131419600Y-82698600D01*
X128816600Y-99970600D02*
X128879600Y-99907600D01*
X124307600Y-99970600D02*
X128816600Y-99970600D01*
X128820600Y-90064600D02*
X128820600Y-85297600D01*
%TO.N,/MISO*%
X121259600Y-99208600D02*
X121259600Y-100986600D01*
X123799600Y-100986600D02*
X121259600Y-100986600D01*
X125831600Y-103018600D02*
X123799600Y-100986600D01*
X116120600Y-106887600D02*
X116120600Y-112924600D01*
X121259600Y-100986600D02*
X121259600Y-101748600D01*
X141579600Y-103018600D02*
X125831600Y-103018600D01*
X121259600Y-101748600D02*
X116120600Y-106887600D01*
%TO.N,/MOSI*%
X126085600Y-101177600D02*
X140626600Y-101177600D01*
%TD*%
%TA.AperFunction,Conductor*%
%TO.N,VCC*%
G36*
X105487219Y-90260681D02*
G01*
X105554098Y-90376520D01*
X105648680Y-90471102D01*
X105764519Y-90537981D01*
X105824657Y-90554094D01*
X105261883Y-91116868D01*
X105262336Y-91122625D01*
X105295484Y-91165613D01*
X105301462Y-91235227D01*
X105268855Y-91297021D01*
X105208016Y-91331378D01*
X105179932Y-91334600D01*
X104873600Y-91334600D01*
X104806561Y-91314915D01*
X104760806Y-91262111D01*
X104749600Y-91210600D01*
X104749600Y-90884966D01*
X104769285Y-90817927D01*
X104822089Y-90772172D01*
X104883329Y-90761348D01*
X104908331Y-90763315D01*
X105471104Y-90200541D01*
X105487219Y-90260681D01*
G37*
%TD.AperFunction*%
%TA.AperFunction,Conductor*%
G36*
X107012868Y-90763315D02*
G01*
X107039964Y-90726022D01*
X107055115Y-90696288D01*
X107103089Y-90645491D01*
X107170910Y-90628696D01*
X107237045Y-90651233D01*
X107280497Y-90705948D01*
X107289600Y-90752582D01*
X107289600Y-91210600D01*
X107269915Y-91277639D01*
X107217111Y-91323394D01*
X107165600Y-91334600D01*
X106741267Y-91334600D01*
X106674228Y-91314915D01*
X106628473Y-91262111D01*
X106618529Y-91192953D01*
X106647554Y-91129397D01*
X106659169Y-91118736D01*
X106659316Y-91116868D01*
X106096542Y-90554094D01*
X106156681Y-90537981D01*
X106272520Y-90471102D01*
X106367102Y-90376520D01*
X106433981Y-90260681D01*
X106450095Y-90200542D01*
X107012868Y-90763315D01*
G37*
%TD.AperFunction*%
%TA.AperFunction,Conductor*%
G36*
X107232639Y-81448285D02*
G01*
X107278394Y-81501089D01*
X107289600Y-81552600D01*
X107289600Y-89376618D01*
X107269915Y-89443657D01*
X107217111Y-89489412D01*
X107147953Y-89499356D01*
X107084397Y-89470331D01*
X107055116Y-89432914D01*
X107039960Y-89403170D01*
X107039960Y-89403169D01*
X107012868Y-89365883D01*
X106450094Y-89928657D01*
X106433981Y-89868519D01*
X106367102Y-89752680D01*
X106272520Y-89658098D01*
X106156681Y-89591219D01*
X106096542Y-89575104D01*
X106659316Y-89012331D01*
X106659315Y-89012330D01*
X106622032Y-88985241D01*
X106445037Y-88895057D01*
X106256122Y-88833675D01*
X106059921Y-88802600D01*
X105861279Y-88802600D01*
X105665079Y-88833675D01*
X105665076Y-88833675D01*
X105476162Y-88895057D01*
X105299164Y-88985243D01*
X105261883Y-89012329D01*
X105261882Y-89012330D01*
X105824658Y-89575104D01*
X105764519Y-89591219D01*
X105648680Y-89658098D01*
X105554098Y-89752680D01*
X105487219Y-89868519D01*
X105471104Y-89928657D01*
X104908330Y-89365882D01*
X104883328Y-89367850D01*
X104869718Y-89364990D01*
X104855953Y-89366970D01*
X104836199Y-89357949D01*
X104814951Y-89353485D01*
X104805048Y-89343722D01*
X104792397Y-89337945D01*
X104780656Y-89319676D01*
X104765194Y-89304433D01*
X104761367Y-89289662D01*
X104754623Y-89279167D01*
X104749600Y-89244232D01*
X104749600Y-87778600D01*
X97761600Y-87778600D01*
X97694561Y-87758915D01*
X97648806Y-87706111D01*
X97637600Y-87654600D01*
X97637600Y-84222600D01*
X97079600Y-84222600D01*
X97012561Y-84202915D01*
X96966806Y-84150111D01*
X96955600Y-84098600D01*
X96955600Y-83451600D01*
X96038612Y-83451600D01*
X96071525Y-83394593D01*
X96105600Y-83267426D01*
X96105600Y-83135774D01*
X96071525Y-83008607D01*
X96038612Y-82951600D01*
X96955600Y-82951600D01*
X96955600Y-82303772D01*
X96955599Y-82303755D01*
X96949198Y-82244227D01*
X96949196Y-82244220D01*
X96898954Y-82109513D01*
X96898950Y-82109506D01*
X96812790Y-81994412D01*
X96812787Y-81994409D01*
X96697693Y-81908249D01*
X96697686Y-81908245D01*
X96562979Y-81858003D01*
X96562972Y-81858001D01*
X96503444Y-81851600D01*
X95855600Y-81851600D01*
X95855600Y-82768588D01*
X95798593Y-82735675D01*
X95671426Y-82701600D01*
X95539774Y-82701600D01*
X95412607Y-82735675D01*
X95355600Y-82768588D01*
X95355600Y-81851600D01*
X94707755Y-81851600D01*
X94648227Y-81858001D01*
X94648220Y-81858003D01*
X94513513Y-81908245D01*
X94513506Y-81908249D01*
X94398412Y-81994409D01*
X94398409Y-81994412D01*
X94312249Y-82109506D01*
X94312245Y-82109513D01*
X94262003Y-82244220D01*
X94262001Y-82244227D01*
X94255600Y-82303755D01*
X94255600Y-82951600D01*
X95172588Y-82951600D01*
X95139675Y-83008607D01*
X95105600Y-83135774D01*
X95105600Y-83267426D01*
X95139675Y-83394593D01*
X95172588Y-83451600D01*
X94255600Y-83451600D01*
X94255600Y-84098600D01*
X94235915Y-84165639D01*
X94183111Y-84211394D01*
X94131600Y-84222600D01*
X93697600Y-84222600D01*
X93630561Y-84202915D01*
X93584806Y-84150111D01*
X93573600Y-84098600D01*
X93573600Y-81552600D01*
X93593285Y-81485561D01*
X93646089Y-81439806D01*
X93697600Y-81428600D01*
X107165600Y-81428600D01*
X107232639Y-81448285D01*
G37*
%TD.AperFunction*%
%TD*%
%TA.AperFunction,Conductor*%
%TO.N,+3.3V*%
G36*
X115868639Y-98212285D02*
G01*
X115914394Y-98265089D01*
X115925600Y-98316600D01*
X115925600Y-104672600D01*
X115905915Y-104739639D01*
X115853111Y-104785394D01*
X115801600Y-104796600D01*
X105381600Y-104796600D01*
X105314561Y-104776915D01*
X105268806Y-104724111D01*
X105257600Y-104672600D01*
X105257600Y-98316600D01*
X105277285Y-98249561D01*
X105330089Y-98203806D01*
X105381600Y-98192600D01*
X115801600Y-98192600D01*
X115868639Y-98212285D01*
G37*
%TD.AperFunction*%
%TD*%
%TA.AperFunction,Conductor*%
%TO.N,GND*%
G36*
X149710852Y-63387242D02*
G01*
X150100234Y-63404242D01*
X150113178Y-63405374D01*
X150496378Y-63455824D01*
X150509159Y-63458077D01*
X150886521Y-63541737D01*
X150899053Y-63545095D01*
X151196402Y-63638849D01*
X151267677Y-63661322D01*
X151279891Y-63665768D01*
X151636963Y-63813671D01*
X151648743Y-63819163D01*
X151991593Y-63997640D01*
X152002835Y-64004131D01*
X152328812Y-64211801D01*
X152339447Y-64219247D01*
X152646094Y-64454546D01*
X152656036Y-64462889D01*
X152706446Y-64509080D01*
X152940999Y-64724009D01*
X152950190Y-64733200D01*
X153211304Y-65018155D01*
X153219655Y-65028107D01*
X153418732Y-65287550D01*
X153454947Y-65334746D01*
X153462401Y-65345392D01*
X153465662Y-65350511D01*
X153670063Y-65671356D01*
X153676563Y-65682613D01*
X153855035Y-66025454D01*
X153860528Y-66037236D01*
X154008431Y-66394308D01*
X154012877Y-66406522D01*
X154129101Y-66775135D01*
X154132465Y-66787690D01*
X154216119Y-67165028D01*
X154218376Y-67177830D01*
X154268824Y-67561020D01*
X154269957Y-67573969D01*
X154286958Y-67963347D01*
X154287100Y-67969846D01*
X154287100Y-79973147D01*
X154267138Y-80047647D01*
X154212600Y-80102185D01*
X154138100Y-80122147D01*
X154063600Y-80102185D01*
X154032741Y-80078506D01*
X152736615Y-78782380D01*
X152736613Y-78782377D01*
X152616316Y-78662080D01*
X152509548Y-78600438D01*
X152490423Y-78589396D01*
X152479384Y-78583022D01*
X152326657Y-78542099D01*
X152168543Y-78542099D01*
X152159414Y-78542099D01*
X152159398Y-78542100D01*
X149863606Y-78542100D01*
X149789106Y-78522138D01*
X149758247Y-78498459D01*
X149741765Y-78481977D01*
X149741762Y-78481974D01*
X149741758Y-78481971D01*
X149602470Y-78388901D01*
X149602458Y-78388894D01*
X149479736Y-78338061D01*
X149447682Y-78324784D01*
X149447680Y-78324783D01*
X149447679Y-78324783D01*
X149283367Y-78292100D01*
X149115833Y-78292100D01*
X148951520Y-78324783D01*
X148796741Y-78388894D01*
X148796729Y-78388901D01*
X148657441Y-78481971D01*
X148657434Y-78481977D01*
X148538977Y-78600434D01*
X148538971Y-78600441D01*
X148445901Y-78739729D01*
X148445894Y-78739741D01*
X148381783Y-78894520D01*
X148349100Y-79058832D01*
X148349100Y-79226367D01*
X148381783Y-79390679D01*
X148445894Y-79545458D01*
X148445901Y-79545470D01*
X148538971Y-79684758D01*
X148538974Y-79684762D01*
X148657438Y-79803226D01*
X148657441Y-79803228D01*
X148796729Y-79896298D01*
X148796733Y-79896300D01*
X148796737Y-79896303D01*
X148796738Y-79896303D01*
X148796741Y-79896305D01*
X148842072Y-79915081D01*
X148951518Y-79960416D01*
X149115833Y-79993100D01*
X149283367Y-79993100D01*
X149447682Y-79960416D01*
X149602463Y-79896303D01*
X149741762Y-79803226D01*
X149758247Y-79786741D01*
X149825042Y-79748177D01*
X149863606Y-79743100D01*
X151937147Y-79743100D01*
X152011647Y-79763062D01*
X152042506Y-79786741D01*
X153127459Y-80871694D01*
X153166023Y-80938489D01*
X153171100Y-80977053D01*
X153171100Y-94834146D01*
X153151138Y-94908646D01*
X153127459Y-94939505D01*
X152740459Y-95326505D01*
X152673664Y-95365069D01*
X152596536Y-95365069D01*
X152529741Y-95326505D01*
X152491177Y-95259710D01*
X152486100Y-95221146D01*
X152486100Y-95045872D01*
X152469253Y-94939505D01*
X152455210Y-94850837D01*
X152455209Y-94850836D01*
X152455209Y-94850831D01*
X152411478Y-94716245D01*
X152394191Y-94663039D01*
X152394189Y-94663036D01*
X152394189Y-94663034D01*
X152325866Y-94528945D01*
X152304544Y-94487099D01*
X152188479Y-94327348D01*
X152048852Y-94187721D01*
X151965776Y-94127363D01*
X151917238Y-94067423D01*
X151905172Y-93991244D01*
X151932812Y-93919239D01*
X151992752Y-93870701D01*
X152037423Y-93858674D01*
X152093083Y-93852691D01*
X152160507Y-93827543D01*
X152227929Y-93802397D01*
X152227933Y-93802395D01*
X152285538Y-93759271D01*
X152343146Y-93716146D01*
X152429396Y-93600931D01*
X152479691Y-93466083D01*
X152481423Y-93449970D01*
X152486099Y-93406485D01*
X152486099Y-93406482D01*
X152486100Y-93406473D01*
X152486099Y-91802728D01*
X152479691Y-91743117D01*
X152465188Y-91704233D01*
X152429397Y-91608270D01*
X152429395Y-91608266D01*
X152343147Y-91493055D01*
X152343144Y-91493052D01*
X152227933Y-91406804D01*
X152227929Y-91406802D01*
X152093082Y-91356508D01*
X152033476Y-91350100D01*
X150429736Y-91350100D01*
X150429711Y-91350102D01*
X150370121Y-91356508D01*
X150370115Y-91356509D01*
X150235270Y-91406802D01*
X150235266Y-91406804D01*
X150120055Y-91493052D01*
X150120052Y-91493055D01*
X150033804Y-91608266D01*
X150033802Y-91608270D01*
X149983508Y-91743117D01*
X149977100Y-91802714D01*
X149977100Y-93406463D01*
X149977102Y-93406488D01*
X149983508Y-93466078D01*
X149983509Y-93466084D01*
X150033802Y-93600929D01*
X150033804Y-93600933D01*
X150120052Y-93716144D01*
X150120055Y-93716147D01*
X150235266Y-93802395D01*
X150235270Y-93802397D01*
X150370114Y-93852690D01*
X150370117Y-93852691D01*
X150425767Y-93858674D01*
X150497707Y-93886485D01*
X150546103Y-93946539D01*
X150557987Y-94022746D01*
X150530176Y-94094686D01*
X150497422Y-94127363D01*
X150414352Y-94187717D01*
X150414346Y-94187722D01*
X150274722Y-94327346D01*
X150274720Y-94327349D01*
X150158657Y-94487096D01*
X150158654Y-94487102D01*
X150069010Y-94663034D01*
X150007991Y-94850831D01*
X150007990Y-94850831D01*
X149993946Y-94939505D01*
X149977100Y-95045869D01*
X149977100Y-95243331D01*
X149993640Y-95347761D01*
X150007135Y-95432968D01*
X149999072Y-95509674D01*
X149965328Y-95561635D01*
X146962506Y-98564459D01*
X146895711Y-98603023D01*
X146857147Y-98608100D01*
X129499542Y-98608100D01*
X129346810Y-98649024D01*
X129296696Y-98677959D01*
X129296695Y-98677960D01*
X129209883Y-98728080D01*
X129116124Y-98821840D01*
X129098080Y-98839884D01*
X129098078Y-98839886D01*
X128998865Y-98939100D01*
X128924506Y-99013459D01*
X128857711Y-99052023D01*
X128819147Y-99057100D01*
X128795833Y-99057100D01*
X128631520Y-99089783D01*
X128476741Y-99153894D01*
X128476729Y-99153901D01*
X128337441Y-99246971D01*
X128337434Y-99246977D01*
X128257953Y-99326459D01*
X128191158Y-99365023D01*
X128152594Y-99370100D01*
X125183739Y-99370100D01*
X125109239Y-99350138D01*
X125078380Y-99326459D01*
X124945385Y-99193464D01*
X124945382Y-99193461D01*
X124850044Y-99129758D01*
X124781515Y-99083968D01*
X124781512Y-99083967D01*
X124599436Y-99008549D01*
X124599434Y-99008548D01*
X124444589Y-98977747D01*
X124406141Y-98970100D01*
X124209059Y-98970100D01*
X124176989Y-98976478D01*
X124015765Y-99008548D01*
X124015763Y-99008549D01*
X123833687Y-99083967D01*
X123833684Y-99083968D01*
X123669819Y-99193460D01*
X123669814Y-99193464D01*
X123530464Y-99332814D01*
X123530460Y-99332819D01*
X123420968Y-99496684D01*
X123420967Y-99496687D01*
X123345549Y-99678763D01*
X123345548Y-99678765D01*
X123307100Y-99872060D01*
X123307100Y-100069141D01*
X123334727Y-100208032D01*
X123329683Y-100284995D01*
X123286832Y-100349124D01*
X123217658Y-100383237D01*
X123188590Y-100386100D01*
X122009100Y-100386100D01*
X121934600Y-100366138D01*
X121880062Y-100311600D01*
X121860100Y-100237100D01*
X121860100Y-99795948D01*
X121880062Y-99721448D01*
X121885212Y-99713167D01*
X121901280Y-99689120D01*
X121968994Y-99587779D01*
X122029337Y-99442097D01*
X122060100Y-99287442D01*
X122060100Y-99129758D01*
X122029337Y-98975103D01*
X121968994Y-98829421D01*
X121881389Y-98698311D01*
X121769889Y-98586811D01*
X121638779Y-98499206D01*
X121638778Y-98499205D01*
X121638776Y-98499204D01*
X121493098Y-98438863D01*
X121493094Y-98438862D01*
X121338442Y-98408100D01*
X121180758Y-98408100D01*
X121026105Y-98438862D01*
X121026101Y-98438863D01*
X120880423Y-98499204D01*
X120749307Y-98586814D01*
X120637814Y-98698307D01*
X120637811Y-98698310D01*
X120637811Y-98698311D01*
X120617920Y-98728080D01*
X120550204Y-98829423D01*
X120489863Y-98975101D01*
X120489862Y-98975105D01*
X120459100Y-99129757D01*
X120459100Y-99287442D01*
X120489862Y-99442094D01*
X120489863Y-99442098D01*
X120550205Y-99587777D01*
X120550208Y-99587783D01*
X120633988Y-99713167D01*
X120658781Y-99786202D01*
X120659100Y-99795948D01*
X120659100Y-101438146D01*
X120639138Y-101512646D01*
X120615459Y-101543505D01*
X115640079Y-106518884D01*
X115612577Y-106566521D01*
X115598964Y-106590100D01*
X115569020Y-106641964D01*
X115561023Y-106655815D01*
X115561022Y-106655817D01*
X115520099Y-106808542D01*
X115520099Y-106978661D01*
X115520100Y-106978674D01*
X115520100Y-111724434D01*
X115500138Y-111798934D01*
X115458682Y-111844975D01*
X115380027Y-111902122D01*
X115298139Y-111961616D01*
X115157616Y-112102139D01*
X115040814Y-112262904D01*
X114983360Y-112375663D01*
X114931751Y-112432980D01*
X114858397Y-112456814D01*
X114782955Y-112440778D01*
X114725638Y-112389169D01*
X114717840Y-112375663D01*
X114708887Y-112358092D01*
X114660387Y-112262906D01*
X114543581Y-112102136D01*
X114403064Y-111961619D01*
X114242294Y-111844813D01*
X114152252Y-111798934D01*
X114065234Y-111754595D01*
X113876241Y-111693188D01*
X113876241Y-111693187D01*
X113767194Y-111675916D01*
X113679961Y-111662100D01*
X113481239Y-111662100D01*
X113402729Y-111674534D01*
X113284958Y-111693187D01*
X113284958Y-111693188D01*
X113095965Y-111754595D01*
X112918904Y-111844814D01*
X112758139Y-111961616D01*
X112617616Y-112102139D01*
X112500814Y-112262904D01*
X112500810Y-112262909D01*
X112443077Y-112376215D01*
X112391468Y-112433532D01*
X112318114Y-112457365D01*
X112242672Y-112441328D01*
X112185355Y-112389719D01*
X112177558Y-112376213D01*
X112119960Y-112263171D01*
X112119956Y-112263164D01*
X112092869Y-112225883D01*
X111530094Y-112788657D01*
X111513981Y-112728519D01*
X111447102Y-112612680D01*
X111352520Y-112518098D01*
X111236681Y-112451219D01*
X111176540Y-112435104D01*
X111739315Y-111872330D01*
X111739315Y-111872329D01*
X111702035Y-111845243D01*
X111702033Y-111845242D01*
X111525045Y-111755061D01*
X111525030Y-111755055D01*
X111336121Y-111693675D01*
X111139917Y-111662600D01*
X110941283Y-111662600D01*
X110745078Y-111693675D01*
X110556169Y-111755055D01*
X110556154Y-111755061D01*
X110379166Y-111845242D01*
X110379157Y-111845247D01*
X110341883Y-111872328D01*
X110341883Y-111872330D01*
X110904657Y-112435104D01*
X110844519Y-112451219D01*
X110728680Y-112518098D01*
X110634098Y-112612680D01*
X110567219Y-112728519D01*
X110551104Y-112788657D01*
X109988330Y-112225883D01*
X109988328Y-112225883D01*
X109961247Y-112263157D01*
X109961242Y-112263166D01*
X109903641Y-112376214D01*
X109852032Y-112433531D01*
X109778679Y-112457365D01*
X109703236Y-112441329D01*
X109645919Y-112389720D01*
X109638121Y-112376214D01*
X109620488Y-112341609D01*
X109580387Y-112262906D01*
X109463581Y-112102136D01*
X109323064Y-111961619D01*
X109162294Y-111844813D01*
X109072252Y-111798934D01*
X108985234Y-111754595D01*
X108796241Y-111693188D01*
X108796241Y-111693187D01*
X108687194Y-111675916D01*
X108599961Y-111662100D01*
X108401239Y-111662100D01*
X108322729Y-111674534D01*
X108204958Y-111693187D01*
X108204958Y-111693188D01*
X108015965Y-111754595D01*
X107838904Y-111844814D01*
X107678139Y-111961616D01*
X107537616Y-112102139D01*
X107420814Y-112262904D01*
X107363360Y-112375663D01*
X107311751Y-112432980D01*
X107238397Y-112456814D01*
X107162955Y-112440778D01*
X107105638Y-112389169D01*
X107097840Y-112375663D01*
X107088887Y-112358092D01*
X107040387Y-112262906D01*
X106923581Y-112102136D01*
X106783064Y-111961619D01*
X106622294Y-111844813D01*
X106532252Y-111798934D01*
X106445234Y-111754595D01*
X106256241Y-111693188D01*
X106256241Y-111693187D01*
X106147194Y-111675916D01*
X106059961Y-111662100D01*
X105861239Y-111662100D01*
X105782729Y-111674534D01*
X105664958Y-111693187D01*
X105664958Y-111693188D01*
X105475965Y-111754595D01*
X105298904Y-111844814D01*
X105138139Y-111961616D01*
X104997616Y-112102139D01*
X104880814Y-112262904D01*
X104880810Y-112262909D01*
X104823077Y-112376215D01*
X104771468Y-112433532D01*
X104698114Y-112457365D01*
X104622672Y-112441328D01*
X104565355Y-112389719D01*
X104557558Y-112376213D01*
X104499960Y-112263171D01*
X104499956Y-112263164D01*
X104472869Y-112225883D01*
X103910094Y-112788657D01*
X103893981Y-112728519D01*
X103827102Y-112612680D01*
X103732520Y-112518098D01*
X103616681Y-112451219D01*
X103556540Y-112435104D01*
X104119315Y-111872330D01*
X104119315Y-111872329D01*
X104082035Y-111845243D01*
X104082033Y-111845242D01*
X103905045Y-111755061D01*
X103905030Y-111755055D01*
X103716121Y-111693675D01*
X103519917Y-111662600D01*
X103321283Y-111662600D01*
X103125078Y-111693675D01*
X102936169Y-111755055D01*
X102936154Y-111755061D01*
X102759166Y-111845242D01*
X102759157Y-111845247D01*
X102721883Y-111872328D01*
X102721883Y-111872330D01*
X103284657Y-112435104D01*
X103224519Y-112451219D01*
X103108680Y-112518098D01*
X103014098Y-112612680D01*
X102947219Y-112728519D01*
X102931104Y-112788657D01*
X102368330Y-112225883D01*
X102368328Y-112225883D01*
X102341247Y-112263157D01*
X102341242Y-112263166D01*
X102283641Y-112376214D01*
X102232032Y-112433531D01*
X102158679Y-112457365D01*
X102083236Y-112441329D01*
X102025919Y-112389720D01*
X102018121Y-112376214D01*
X102000488Y-112341609D01*
X101960387Y-112262906D01*
X101843581Y-112102136D01*
X101703064Y-111961619D01*
X101542294Y-111844813D01*
X101452252Y-111798934D01*
X101365234Y-111754595D01*
X101176241Y-111693188D01*
X101176241Y-111693187D01*
X101067194Y-111675916D01*
X100979961Y-111662100D01*
X100781239Y-111662100D01*
X100702729Y-111674534D01*
X100584958Y-111693187D01*
X100584958Y-111693188D01*
X100395965Y-111754595D01*
X100218904Y-111844814D01*
X100058139Y-111961616D01*
X99917616Y-112102139D01*
X99800814Y-112262904D01*
X99710595Y-112439965D01*
X99649188Y-112628958D01*
X99649187Y-112628958D01*
X99633419Y-112728519D01*
X99618100Y-112825239D01*
X99618100Y-113023961D01*
X99631916Y-113111194D01*
X99649187Y-113220241D01*
X99710595Y-113409234D01*
X99771500Y-113528764D01*
X99800813Y-113586294D01*
X99917619Y-113747064D01*
X100058136Y-113887581D01*
X100218906Y-114004387D01*
X100333964Y-114063012D01*
X100395965Y-114094604D01*
X100584958Y-114156011D01*
X100584958Y-114156012D01*
X100584963Y-114156012D01*
X100584964Y-114156013D01*
X100781239Y-114187100D01*
X100781243Y-114187100D01*
X100979957Y-114187100D01*
X100979961Y-114187100D01*
X101176236Y-114156013D01*
X101176237Y-114156012D01*
X101176241Y-114156012D01*
X101176241Y-114156011D01*
X101365232Y-114094605D01*
X101542294Y-114004387D01*
X101703064Y-113887581D01*
X101843581Y-113747064D01*
X101960387Y-113586294D01*
X102018121Y-113472984D01*
X102069730Y-113415668D01*
X102143083Y-113391834D01*
X102218526Y-113407870D01*
X102275843Y-113459479D01*
X102283641Y-113472985D01*
X102341242Y-113586033D01*
X102341243Y-113586035D01*
X102368329Y-113623315D01*
X102368330Y-113623315D01*
X102931104Y-113060541D01*
X102947219Y-113120681D01*
X103014098Y-113236520D01*
X103108680Y-113331102D01*
X103224519Y-113397981D01*
X103284657Y-113414095D01*
X102721883Y-113976869D01*
X102759164Y-114003956D01*
X102759166Y-114003957D01*
X102936154Y-114094138D01*
X102936169Y-114094144D01*
X103125078Y-114155524D01*
X103321283Y-114186600D01*
X103519917Y-114186600D01*
X103716121Y-114155524D01*
X103905030Y-114094144D01*
X103905050Y-114094135D01*
X104082023Y-114003963D01*
X104082035Y-114003956D01*
X104119315Y-113976869D01*
X104119316Y-113976869D01*
X103556542Y-113414095D01*
X103616681Y-113397981D01*
X103732520Y-113331102D01*
X103827102Y-113236520D01*
X103893981Y-113120681D01*
X103910095Y-113060542D01*
X104472869Y-113623316D01*
X104472869Y-113623315D01*
X104499956Y-113586035D01*
X104499963Y-113586023D01*
X104557559Y-113472986D01*
X104609167Y-113415668D01*
X104682520Y-113391834D01*
X104757963Y-113407870D01*
X104815281Y-113459478D01*
X104823078Y-113472983D01*
X104880813Y-113586294D01*
X104997619Y-113747064D01*
X105138136Y-113887581D01*
X105298906Y-114004387D01*
X105413964Y-114063012D01*
X105475965Y-114094604D01*
X105664958Y-114156011D01*
X105664958Y-114156012D01*
X105664963Y-114156012D01*
X105664964Y-114156013D01*
X105861239Y-114187100D01*
X105861243Y-114187100D01*
X106059957Y-114187100D01*
X106059961Y-114187100D01*
X106256236Y-114156013D01*
X106256237Y-114156012D01*
X106256241Y-114156012D01*
X106256241Y-114156011D01*
X106445232Y-114094605D01*
X106622294Y-114004387D01*
X106783064Y-113887581D01*
X106923581Y-113747064D01*
X107040387Y-113586294D01*
X107097840Y-113473535D01*
X107149449Y-113416219D01*
X107222802Y-113392385D01*
X107298245Y-113408421D01*
X107355562Y-113460030D01*
X107363357Y-113473531D01*
X107420813Y-113586294D01*
X107537619Y-113747064D01*
X107678136Y-113887581D01*
X107838906Y-114004387D01*
X107953964Y-114063012D01*
X108015965Y-114094604D01*
X108204958Y-114156011D01*
X108204958Y-114156012D01*
X108204963Y-114156012D01*
X108204964Y-114156013D01*
X108401239Y-114187100D01*
X108401243Y-114187100D01*
X108599957Y-114187100D01*
X108599961Y-114187100D01*
X108796236Y-114156013D01*
X108796237Y-114156012D01*
X108796241Y-114156012D01*
X108796241Y-114156011D01*
X108985232Y-114094605D01*
X109162294Y-114004387D01*
X109323064Y-113887581D01*
X109463581Y-113747064D01*
X109580387Y-113586294D01*
X109638121Y-113472984D01*
X109689730Y-113415668D01*
X109763083Y-113391834D01*
X109838526Y-113407870D01*
X109895843Y-113459479D01*
X109903641Y-113472985D01*
X109961242Y-113586033D01*
X109961243Y-113586035D01*
X109988329Y-113623315D01*
X109988330Y-113623315D01*
X110551104Y-113060541D01*
X110567219Y-113120681D01*
X110634098Y-113236520D01*
X110728680Y-113331102D01*
X110844519Y-113397981D01*
X110904657Y-113414095D01*
X110341883Y-113976869D01*
X110379164Y-114003956D01*
X110379166Y-114003957D01*
X110556154Y-114094138D01*
X110556169Y-114094144D01*
X110745078Y-114155524D01*
X110941283Y-114186600D01*
X111139917Y-114186600D01*
X111336121Y-114155524D01*
X111525030Y-114094144D01*
X111525050Y-114094135D01*
X111702023Y-114003963D01*
X111702035Y-114003956D01*
X111739315Y-113976869D01*
X111739316Y-113976869D01*
X111176542Y-113414095D01*
X111236681Y-113397981D01*
X111352520Y-113331102D01*
X111447102Y-113236520D01*
X111513981Y-113120681D01*
X111530095Y-113060542D01*
X112092869Y-113623316D01*
X112092869Y-113623315D01*
X112119956Y-113586035D01*
X112119963Y-113586023D01*
X112177559Y-113472986D01*
X112229167Y-113415668D01*
X112302520Y-113391834D01*
X112377963Y-113407870D01*
X112435281Y-113459478D01*
X112443078Y-113472983D01*
X112500813Y-113586294D01*
X112617619Y-113747064D01*
X112758136Y-113887581D01*
X112918906Y-114004387D01*
X113033964Y-114063012D01*
X113095965Y-114094604D01*
X113284958Y-114156011D01*
X113284958Y-114156012D01*
X113284963Y-114156012D01*
X113284964Y-114156013D01*
X113481239Y-114187100D01*
X113481243Y-114187100D01*
X113679957Y-114187100D01*
X113679961Y-114187100D01*
X113876236Y-114156013D01*
X113876237Y-114156012D01*
X113876241Y-114156012D01*
X113876241Y-114156011D01*
X114065232Y-114094605D01*
X114242294Y-114004387D01*
X114403064Y-113887581D01*
X114543581Y-113747064D01*
X114660387Y-113586294D01*
X114717840Y-113473535D01*
X114769449Y-113416219D01*
X114842802Y-113392385D01*
X114918245Y-113408421D01*
X114975562Y-113460030D01*
X114983357Y-113473531D01*
X115040813Y-113586294D01*
X115157619Y-113747064D01*
X115298136Y-113887581D01*
X115458906Y-114004387D01*
X115573964Y-114063012D01*
X115635965Y-114094604D01*
X115824958Y-114156011D01*
X115824958Y-114156012D01*
X115824963Y-114156012D01*
X115824964Y-114156013D01*
X116021239Y-114187100D01*
X116021243Y-114187100D01*
X116219957Y-114187100D01*
X116219961Y-114187100D01*
X116416236Y-114156013D01*
X116416237Y-114156012D01*
X116416241Y-114156012D01*
X116416241Y-114156011D01*
X116605232Y-114094605D01*
X116782294Y-114004387D01*
X116943064Y-113887581D01*
X117083581Y-113747064D01*
X117200387Y-113586294D01*
X117257840Y-113473535D01*
X117309449Y-113416219D01*
X117382802Y-113392385D01*
X117458245Y-113408421D01*
X117515562Y-113460030D01*
X117523357Y-113473531D01*
X117580813Y-113586294D01*
X117697619Y-113747064D01*
X117838136Y-113887581D01*
X117998906Y-114004387D01*
X118113964Y-114063012D01*
X118175965Y-114094604D01*
X118364958Y-114156011D01*
X118364958Y-114156012D01*
X118364963Y-114156012D01*
X118364964Y-114156013D01*
X118561239Y-114187100D01*
X118561243Y-114187100D01*
X118759957Y-114187100D01*
X118759961Y-114187100D01*
X118956236Y-114156013D01*
X118956237Y-114156012D01*
X118956241Y-114156012D01*
X118956241Y-114156011D01*
X119145232Y-114094605D01*
X119322294Y-114004387D01*
X119483064Y-113887581D01*
X119623581Y-113747064D01*
X119740387Y-113586294D01*
X119797840Y-113473535D01*
X119849449Y-113416219D01*
X119922802Y-113392385D01*
X119998245Y-113408421D01*
X120055562Y-113460030D01*
X120063357Y-113473531D01*
X120120813Y-113586294D01*
X120237619Y-113747064D01*
X120378136Y-113887581D01*
X120538906Y-114004387D01*
X120653964Y-114063012D01*
X120715965Y-114094604D01*
X120904958Y-114156011D01*
X120904958Y-114156012D01*
X120904963Y-114156012D01*
X120904964Y-114156013D01*
X121101239Y-114187100D01*
X121101243Y-114187100D01*
X121299957Y-114187100D01*
X121299961Y-114187100D01*
X121496236Y-114156013D01*
X121496237Y-114156012D01*
X121496241Y-114156012D01*
X121496241Y-114156011D01*
X121685232Y-114094605D01*
X121862294Y-114004387D01*
X122023064Y-113887581D01*
X122163581Y-113747064D01*
X122280387Y-113586294D01*
X122337840Y-113473535D01*
X122389449Y-113416219D01*
X122462802Y-113392385D01*
X122538245Y-113408421D01*
X122595562Y-113460030D01*
X122603357Y-113473531D01*
X122660813Y-113586294D01*
X122777619Y-113747064D01*
X122918136Y-113887581D01*
X123078906Y-114004387D01*
X123193964Y-114063012D01*
X123255965Y-114094604D01*
X123444958Y-114156011D01*
X123444958Y-114156012D01*
X123444963Y-114156012D01*
X123444964Y-114156013D01*
X123641239Y-114187100D01*
X123641243Y-114187100D01*
X123839957Y-114187100D01*
X123839961Y-114187100D01*
X124036236Y-114156013D01*
X124036237Y-114156012D01*
X124036241Y-114156012D01*
X124036241Y-114156011D01*
X124225232Y-114094605D01*
X124402294Y-114004387D01*
X124563064Y-113887581D01*
X124703581Y-113747064D01*
X124820387Y-113586294D01*
X124877840Y-113473535D01*
X124929449Y-113416219D01*
X125002802Y-113392385D01*
X125078245Y-113408421D01*
X125135562Y-113460030D01*
X125143357Y-113473531D01*
X125200813Y-113586294D01*
X125317619Y-113747064D01*
X125458136Y-113887581D01*
X125618906Y-114004387D01*
X125733964Y-114063012D01*
X125795965Y-114094604D01*
X125984958Y-114156011D01*
X125984958Y-114156012D01*
X125984963Y-114156012D01*
X125984964Y-114156013D01*
X126181239Y-114187100D01*
X126181243Y-114187100D01*
X126379957Y-114187100D01*
X126379961Y-114187100D01*
X126576236Y-114156013D01*
X126576237Y-114156012D01*
X126576241Y-114156012D01*
X126576241Y-114156011D01*
X126765232Y-114094605D01*
X126942294Y-114004387D01*
X127103064Y-113887581D01*
X127243581Y-113747064D01*
X127360387Y-113586294D01*
X127417840Y-113473535D01*
X127469449Y-113416219D01*
X127542802Y-113392385D01*
X127618245Y-113408421D01*
X127675562Y-113460030D01*
X127683357Y-113473531D01*
X127740813Y-113586294D01*
X127857619Y-113747064D01*
X127998136Y-113887581D01*
X128158906Y-114004387D01*
X128273964Y-114063012D01*
X128335965Y-114094604D01*
X128524958Y-114156011D01*
X128524958Y-114156012D01*
X128524963Y-114156012D01*
X128524964Y-114156013D01*
X128721239Y-114187100D01*
X128721243Y-114187100D01*
X128919957Y-114187100D01*
X128919961Y-114187100D01*
X129116236Y-114156013D01*
X129116237Y-114156012D01*
X129116241Y-114156012D01*
X129116241Y-114156011D01*
X129305232Y-114094605D01*
X129482294Y-114004387D01*
X129643064Y-113887581D01*
X129783581Y-113747064D01*
X129900387Y-113586294D01*
X129957840Y-113473535D01*
X130009449Y-113416219D01*
X130082802Y-113392385D01*
X130158245Y-113408421D01*
X130215562Y-113460030D01*
X130223357Y-113473531D01*
X130280813Y-113586294D01*
X130397619Y-113747064D01*
X130538136Y-113887581D01*
X130698906Y-114004387D01*
X130813964Y-114063012D01*
X130875965Y-114094604D01*
X131064958Y-114156011D01*
X131064958Y-114156012D01*
X131064963Y-114156012D01*
X131064964Y-114156013D01*
X131261239Y-114187100D01*
X131261243Y-114187100D01*
X131459957Y-114187100D01*
X131459961Y-114187100D01*
X131656236Y-114156013D01*
X131656237Y-114156012D01*
X131656241Y-114156012D01*
X131656241Y-114156011D01*
X131845232Y-114094605D01*
X132022294Y-114004387D01*
X132183064Y-113887581D01*
X132323581Y-113747064D01*
X132440387Y-113586294D01*
X132497840Y-113473535D01*
X132549449Y-113416219D01*
X132622802Y-113392385D01*
X132698245Y-113408421D01*
X132755562Y-113460030D01*
X132763357Y-113473531D01*
X132820813Y-113586294D01*
X132937619Y-113747064D01*
X133078136Y-113887581D01*
X133238906Y-114004387D01*
X133353964Y-114063012D01*
X133415965Y-114094604D01*
X133604958Y-114156011D01*
X133604958Y-114156012D01*
X133604963Y-114156012D01*
X133604964Y-114156013D01*
X133801239Y-114187100D01*
X133801243Y-114187100D01*
X133999957Y-114187100D01*
X133999961Y-114187100D01*
X134196236Y-114156013D01*
X134196237Y-114156012D01*
X134196241Y-114156012D01*
X134196241Y-114156011D01*
X134385232Y-114094605D01*
X134562294Y-114004387D01*
X134723064Y-113887581D01*
X134863581Y-113747064D01*
X134980387Y-113586294D01*
X135037840Y-113473535D01*
X135089449Y-113416219D01*
X135162802Y-113392385D01*
X135238245Y-113408421D01*
X135295562Y-113460030D01*
X135303357Y-113473531D01*
X135360813Y-113586294D01*
X135477619Y-113747064D01*
X135618136Y-113887581D01*
X135778906Y-114004387D01*
X135893964Y-114063012D01*
X135955965Y-114094604D01*
X136144958Y-114156011D01*
X136144958Y-114156012D01*
X136144963Y-114156012D01*
X136144964Y-114156013D01*
X136341239Y-114187100D01*
X136341243Y-114187100D01*
X136539957Y-114187100D01*
X136539961Y-114187100D01*
X136736236Y-114156013D01*
X136736237Y-114156012D01*
X136736241Y-114156012D01*
X136736241Y-114156011D01*
X136925232Y-114094605D01*
X137102294Y-114004387D01*
X137263064Y-113887581D01*
X137403581Y-113747064D01*
X137520387Y-113586294D01*
X137578121Y-113472984D01*
X137629730Y-113415668D01*
X137703083Y-113391834D01*
X137778526Y-113407870D01*
X137835843Y-113459479D01*
X137843641Y-113472985D01*
X137901242Y-113586033D01*
X137901243Y-113586035D01*
X137928329Y-113623315D01*
X137928330Y-113623315D01*
X138491104Y-113060541D01*
X138507219Y-113120681D01*
X138574098Y-113236520D01*
X138668680Y-113331102D01*
X138784519Y-113397981D01*
X138844657Y-113414094D01*
X138281882Y-113976869D01*
X138319164Y-114003956D01*
X138319166Y-114003957D01*
X138496154Y-114094138D01*
X138496169Y-114094144D01*
X138685078Y-114155524D01*
X138881283Y-114186600D01*
X139079917Y-114186600D01*
X139276121Y-114155524D01*
X139465030Y-114094144D01*
X139465050Y-114094135D01*
X139642023Y-114003963D01*
X139642035Y-114003956D01*
X139679315Y-113976869D01*
X139679316Y-113976869D01*
X139116542Y-113414095D01*
X139176681Y-113397981D01*
X139292520Y-113331102D01*
X139387102Y-113236520D01*
X139453981Y-113120681D01*
X139470095Y-113060542D01*
X140032869Y-113623316D01*
X140032869Y-113623315D01*
X140059956Y-113586035D01*
X140059963Y-113586023D01*
X140150135Y-113409050D01*
X140150144Y-113409030D01*
X140211524Y-113220121D01*
X140242600Y-113023917D01*
X140242600Y-112825282D01*
X140211524Y-112629080D01*
X140153384Y-112450143D01*
X140149347Y-112373120D01*
X140184362Y-112304399D01*
X140249047Y-112262392D01*
X140295091Y-112255099D01*
X146563186Y-112255099D01*
X146563202Y-112255101D01*
X146580543Y-112255101D01*
X146738652Y-112255101D01*
X146738657Y-112255101D01*
X146891385Y-112214177D01*
X146910413Y-112203190D01*
X146941500Y-112185242D01*
X146941504Y-112185239D01*
X147028316Y-112135120D01*
X147140120Y-112023316D01*
X147140120Y-112023314D01*
X147152383Y-112011052D01*
X147152386Y-112011047D01*
X147249695Y-111913740D01*
X147316490Y-111875177D01*
X147355053Y-111870100D01*
X147378367Y-111870100D01*
X147542682Y-111837416D01*
X147697463Y-111773303D01*
X147836762Y-111680226D01*
X147955226Y-111561762D01*
X148048303Y-111422463D01*
X148112416Y-111267682D01*
X148145100Y-111103367D01*
X148145100Y-110935833D01*
X148138151Y-110900900D01*
X148112416Y-110771518D01*
X148112415Y-110771516D01*
X148048305Y-110616741D01*
X148048298Y-110616729D01*
X147955228Y-110477441D01*
X147955226Y-110477438D01*
X147836762Y-110358974D01*
X147727358Y-110285872D01*
X147697470Y-110265901D01*
X147697458Y-110265894D01*
X147548937Y-110204375D01*
X147542682Y-110201784D01*
X147542680Y-110201783D01*
X147542679Y-110201783D01*
X147378367Y-110169100D01*
X147210833Y-110169100D01*
X147046520Y-110201783D01*
X146891741Y-110265894D01*
X146891729Y-110265901D01*
X146752441Y-110358971D01*
X146752434Y-110358977D01*
X146633977Y-110477434D01*
X146633971Y-110477441D01*
X146540901Y-110616729D01*
X146540894Y-110616741D01*
X146476785Y-110771516D01*
X146476784Y-110771518D01*
X146444431Y-110934167D01*
X146410318Y-111003341D01*
X146346189Y-111046192D01*
X146298294Y-111054099D01*
X133583107Y-111054099D01*
X133508607Y-111034137D01*
X133477748Y-111010458D01*
X133461266Y-110993976D01*
X133461263Y-110993973D01*
X133461259Y-110993970D01*
X133321971Y-110900900D01*
X133321959Y-110900893D01*
X133181745Y-110842815D01*
X133167183Y-110836783D01*
X133167181Y-110836782D01*
X133167180Y-110836782D01*
X133002868Y-110804099D01*
X132835334Y-110804099D01*
X132671021Y-110836782D01*
X132516242Y-110900893D01*
X132516230Y-110900900D01*
X132376942Y-110993970D01*
X132376935Y-110993976D01*
X132258478Y-111112433D01*
X132258472Y-111112440D01*
X132233989Y-111149082D01*
X132176000Y-111199936D01*
X132100354Y-111214982D01*
X132027320Y-111190189D01*
X131976466Y-111132200D01*
X131961101Y-111066301D01*
X131961101Y-110995547D01*
X131961101Y-110995543D01*
X131920177Y-110842815D01*
X131879013Y-110771518D01*
X131841120Y-110705884D01*
X131729316Y-110594080D01*
X131729313Y-110594078D01*
X123423741Y-102288506D01*
X123385177Y-102221711D01*
X123380100Y-102183147D01*
X123380100Y-102159832D01*
X123369205Y-102105061D01*
X123347416Y-101995518D01*
X123283303Y-101840737D01*
X123283300Y-101840731D01*
X123268699Y-101818880D01*
X123267089Y-101814139D01*
X123263550Y-101810600D01*
X123254788Y-101777899D01*
X123243907Y-101745845D01*
X123244883Y-101740935D01*
X123243588Y-101736100D01*
X123252349Y-101703399D01*
X123258954Y-101670199D01*
X123262254Y-101666435D01*
X123263550Y-101661600D01*
X123287488Y-101637661D01*
X123309808Y-101612211D01*
X123314548Y-101610601D01*
X123318088Y-101607062D01*
X123350788Y-101598300D01*
X123382843Y-101587419D01*
X123392588Y-101587100D01*
X123489147Y-101587100D01*
X123563647Y-101607062D01*
X123594506Y-101630741D01*
X125351078Y-103387313D01*
X125351078Y-103387314D01*
X125462879Y-103499116D01*
X125462881Y-103499117D01*
X125462884Y-103499120D01*
X125536703Y-103541739D01*
X125536705Y-103541740D01*
X125536706Y-103541741D01*
X125599812Y-103578176D01*
X125599814Y-103578176D01*
X125599815Y-103578177D01*
X125752543Y-103619101D01*
X125752548Y-103619101D01*
X125919786Y-103619101D01*
X125919802Y-103619100D01*
X141500543Y-103619100D01*
X148349398Y-103619100D01*
X148349414Y-103619101D01*
X148358543Y-103619101D01*
X148516652Y-103619101D01*
X148516657Y-103619101D01*
X148669385Y-103578177D01*
X148732497Y-103541739D01*
X148806316Y-103499120D01*
X148918120Y-103387316D01*
X148918121Y-103387313D01*
X149722742Y-102582692D01*
X149789536Y-102544129D01*
X149866664Y-102544129D01*
X149933459Y-102582693D01*
X149972023Y-102649488D01*
X149977100Y-102688052D01*
X149977100Y-102863331D01*
X149990828Y-102950011D01*
X150007990Y-103058368D01*
X150069010Y-103246165D01*
X150132226Y-103370230D01*
X150158656Y-103422101D01*
X150274721Y-103581852D01*
X150414348Y-103721479D01*
X150542431Y-103814536D01*
X150574096Y-103837542D01*
X150574097Y-103837543D01*
X150700835Y-103902120D01*
X150758152Y-103953730D01*
X150781986Y-104027083D01*
X150765950Y-104102525D01*
X150714340Y-104159842D01*
X150700836Y-104167639D01*
X150574362Y-104232082D01*
X150538610Y-104258056D01*
X150538610Y-104258057D01*
X151102190Y-104821637D01*
X151038607Y-104838675D01*
X150924593Y-104904501D01*
X150831501Y-104997593D01*
X150765675Y-105111607D01*
X150748637Y-105175190D01*
X150185056Y-104611610D01*
X150159083Y-104647360D01*
X150069472Y-104823228D01*
X150008478Y-105010948D01*
X150008477Y-105010948D01*
X149977600Y-105205912D01*
X149977600Y-105403287D01*
X150008477Y-105598251D01*
X150069472Y-105785971D01*
X150159084Y-105961840D01*
X150185057Y-105997588D01*
X150748637Y-105434008D01*
X150765675Y-105497593D01*
X150831501Y-105611607D01*
X150924593Y-105704699D01*
X151038607Y-105770525D01*
X151102190Y-105787562D01*
X150538610Y-106351142D01*
X150574359Y-106377115D01*
X150574359Y-106377116D01*
X150700835Y-106441559D01*
X150758152Y-106493168D01*
X150781986Y-106566521D01*
X150765950Y-106641964D01*
X150714341Y-106699281D01*
X150700836Y-106707078D01*
X150574102Y-106771653D01*
X150574096Y-106771657D01*
X150414349Y-106887720D01*
X150414346Y-106887722D01*
X150274722Y-107027346D01*
X150274720Y-107027349D01*
X150158657Y-107187096D01*
X150158654Y-107187102D01*
X150069010Y-107363034D01*
X150007991Y-107550831D01*
X150007990Y-107550831D01*
X149989763Y-107665917D01*
X149978701Y-107735760D01*
X149963125Y-107770744D01*
X149947734Y-107805718D01*
X149947466Y-107805914D01*
X149947331Y-107806218D01*
X149916461Y-107828645D01*
X149885533Y-107851322D01*
X149885200Y-107851358D01*
X149884933Y-107851553D01*
X149846947Y-107855545D01*
X149808863Y-107859715D01*
X149808592Y-107859577D01*
X149808228Y-107859616D01*
X149738268Y-107828648D01*
X149731923Y-107823555D01*
X149678016Y-107769648D01*
X149604329Y-107720413D01*
X149598919Y-107716798D01*
X149555097Y-107687517D01*
X149555095Y-107687516D01*
X149418513Y-107630942D01*
X149418511Y-107630941D01*
X149418512Y-107630941D01*
X149273521Y-107602100D01*
X149273518Y-107602100D01*
X131859834Y-107602100D01*
X131802814Y-107590758D01*
X131706437Y-107550837D01*
X131667682Y-107534784D01*
X131667680Y-107534783D01*
X131667679Y-107534783D01*
X131503367Y-107502100D01*
X131335833Y-107502100D01*
X131171520Y-107534783D01*
X131016741Y-107598894D01*
X131016729Y-107598901D01*
X130877441Y-107691971D01*
X130877434Y-107691977D01*
X130758977Y-107810434D01*
X130758971Y-107810441D01*
X130665901Y-107949729D01*
X130665894Y-107949741D01*
X130601783Y-108104520D01*
X130569100Y-108268832D01*
X130569100Y-108436367D01*
X130601783Y-108600679D01*
X130665894Y-108755458D01*
X130665901Y-108755470D01*
X130758971Y-108894758D01*
X130758974Y-108894762D01*
X130877438Y-109013226D01*
X130877441Y-109013228D01*
X131016729Y-109106298D01*
X131016733Y-109106300D01*
X131016737Y-109106303D01*
X131016738Y-109106303D01*
X131016741Y-109106305D01*
X131036386Y-109114442D01*
X131171518Y-109170416D01*
X131335833Y-109203100D01*
X131503367Y-109203100D01*
X131667682Y-109170416D01*
X131802814Y-109114442D01*
X131859834Y-109103100D01*
X148827014Y-109103100D01*
X148901514Y-109123062D01*
X148932373Y-109146741D01*
X149936324Y-110150692D01*
X149974888Y-110217487D01*
X149978132Y-110279350D01*
X149977100Y-110285869D01*
X149977100Y-110483331D01*
X149990828Y-110570011D01*
X150007990Y-110678368D01*
X150069010Y-110866165D01*
X150142533Y-111010458D01*
X150158656Y-111042101D01*
X150274721Y-111201852D01*
X150414348Y-111341479D01*
X150574099Y-111457544D01*
X150660509Y-111501573D01*
X150750034Y-111547189D01*
X150750036Y-111547189D01*
X150750039Y-111547191D01*
X150937831Y-111608208D01*
X150937831Y-111608209D01*
X150937836Y-111608209D01*
X150937837Y-111608210D01*
X151132869Y-111639100D01*
X151132873Y-111639100D01*
X151330327Y-111639100D01*
X151330331Y-111639100D01*
X151525363Y-111608210D01*
X151525364Y-111608209D01*
X151525368Y-111608209D01*
X151525368Y-111608208D01*
X151713161Y-111547191D01*
X151889101Y-111457544D01*
X152048852Y-111341479D01*
X152188479Y-111201852D01*
X152304544Y-111042101D01*
X152394191Y-110866161D01*
X152455208Y-110678368D01*
X152455209Y-110678368D01*
X152464970Y-110616741D01*
X152486100Y-110483331D01*
X152486100Y-110285869D01*
X152455210Y-110090837D01*
X152455209Y-110090836D01*
X152455209Y-110090831D01*
X152394189Y-109903034D01*
X152348573Y-109813509D01*
X152304544Y-109727099D01*
X152188479Y-109567348D01*
X152048852Y-109427721D01*
X151889101Y-109311656D01*
X151762913Y-109247359D01*
X151705597Y-109195751D01*
X151681763Y-109122397D01*
X151697799Y-109046955D01*
X151749408Y-108989638D01*
X151762909Y-108981842D01*
X151889101Y-108917544D01*
X152048852Y-108801479D01*
X152188479Y-108661852D01*
X152304544Y-108502101D01*
X152394191Y-108326161D01*
X152455208Y-108138368D01*
X152455209Y-108138368D01*
X152460570Y-108104520D01*
X152486100Y-107943331D01*
X152486100Y-107745869D01*
X152455210Y-107550837D01*
X152455209Y-107550836D01*
X152455209Y-107550831D01*
X152394189Y-107363034D01*
X152348573Y-107273509D01*
X152304544Y-107187099D01*
X152188479Y-107027348D01*
X152048852Y-106887721D01*
X151919182Y-106793511D01*
X151889103Y-106771657D01*
X151889097Y-106771653D01*
X151762363Y-106707078D01*
X151705046Y-106655469D01*
X151681213Y-106582116D01*
X151697250Y-106506673D01*
X151748859Y-106449356D01*
X151762365Y-106441559D01*
X151888830Y-106377121D01*
X151888833Y-106377120D01*
X151924587Y-106351141D01*
X151361009Y-105787562D01*
X151424593Y-105770525D01*
X151538607Y-105704699D01*
X151631699Y-105611607D01*
X151697525Y-105497593D01*
X151714562Y-105434008D01*
X152278141Y-105997587D01*
X152304119Y-105961834D01*
X152393727Y-105785971D01*
X152454721Y-105598251D01*
X152454722Y-105598251D01*
X152485600Y-105403287D01*
X152485600Y-105205912D01*
X152454722Y-105010948D01*
X152393727Y-104823228D01*
X152304115Y-104647359D01*
X152278142Y-104611610D01*
X151714562Y-105175189D01*
X151697525Y-105111607D01*
X151631699Y-104997593D01*
X151538607Y-104904501D01*
X151424593Y-104838675D01*
X151361007Y-104821637D01*
X151924588Y-104258057D01*
X151924588Y-104258056D01*
X151888840Y-104232084D01*
X151888840Y-104232083D01*
X151762364Y-104167640D01*
X151705047Y-104116030D01*
X151681213Y-104042677D01*
X151697249Y-103967235D01*
X151748859Y-103909918D01*
X151762356Y-103902124D01*
X151889101Y-103837544D01*
X152048852Y-103721479D01*
X152188479Y-103581852D01*
X152304544Y-103422101D01*
X152394191Y-103246161D01*
X152455208Y-103058368D01*
X152455209Y-103058368D01*
X152455210Y-103058363D01*
X152486100Y-102863331D01*
X152486100Y-102665869D01*
X152455210Y-102470837D01*
X152455209Y-102470836D01*
X152455209Y-102470831D01*
X152394189Y-102283034D01*
X152343293Y-102183147D01*
X152304544Y-102107099D01*
X152188479Y-101947348D01*
X152048852Y-101807721D01*
X151951756Y-101737177D01*
X151889103Y-101691657D01*
X151889102Y-101691657D01*
X151889101Y-101691656D01*
X151762913Y-101627359D01*
X151705597Y-101575751D01*
X151681763Y-101502397D01*
X151697799Y-101426955D01*
X151749408Y-101369638D01*
X151762909Y-101361842D01*
X151889101Y-101297544D01*
X152048852Y-101181479D01*
X152188479Y-101041852D01*
X152304544Y-100882101D01*
X152394191Y-100706161D01*
X152455208Y-100518368D01*
X152455209Y-100518368D01*
X152455210Y-100518363D01*
X152486100Y-100323331D01*
X152486100Y-100125869D01*
X152455210Y-99930837D01*
X152455209Y-99930836D01*
X152455209Y-99930831D01*
X152394189Y-99743034D01*
X152315080Y-99587777D01*
X152304544Y-99567099D01*
X152188479Y-99407348D01*
X152048852Y-99267721D01*
X151889101Y-99151656D01*
X151762913Y-99087359D01*
X151705597Y-99035751D01*
X151681763Y-98962397D01*
X151697799Y-98886955D01*
X151749408Y-98829638D01*
X151762909Y-98821842D01*
X151889101Y-98757544D01*
X152048852Y-98641479D01*
X152188479Y-98501852D01*
X152304544Y-98342101D01*
X152394191Y-98166161D01*
X152455208Y-97978368D01*
X152455209Y-97978368D01*
X152462227Y-97934057D01*
X152486100Y-97783331D01*
X152486100Y-97585869D01*
X152456064Y-97396228D01*
X152464127Y-97319524D01*
X152497869Y-97267564D01*
X154032741Y-95732693D01*
X154099536Y-95694129D01*
X154176664Y-95694129D01*
X154243459Y-95732693D01*
X154282023Y-95799488D01*
X154287100Y-95838052D01*
X154287100Y-119380553D01*
X154286958Y-119387052D01*
X154269957Y-119776430D01*
X154268824Y-119789379D01*
X154218376Y-120172569D01*
X154216119Y-120185371D01*
X154132465Y-120562709D01*
X154129101Y-120575264D01*
X154012877Y-120943877D01*
X154008431Y-120956091D01*
X153860528Y-121313163D01*
X153855035Y-121324945D01*
X153676563Y-121667786D01*
X153670063Y-121679043D01*
X153462402Y-122005006D01*
X153454947Y-122015653D01*
X153219660Y-122322286D01*
X153211304Y-122332244D01*
X152950190Y-122617199D01*
X152940999Y-122626390D01*
X152656044Y-122887504D01*
X152646086Y-122895860D01*
X152339453Y-123131147D01*
X152328806Y-123138602D01*
X152002843Y-123346263D01*
X151991586Y-123352763D01*
X151648745Y-123531235D01*
X151636963Y-123536728D01*
X151279891Y-123684631D01*
X151267677Y-123689077D01*
X150899064Y-123805301D01*
X150886509Y-123808665D01*
X150509171Y-123892319D01*
X150496369Y-123894576D01*
X150113179Y-123945024D01*
X150100230Y-123946157D01*
X149710852Y-123963158D01*
X149704353Y-123963300D01*
X97894715Y-123963300D01*
X97888216Y-123963158D01*
X97498972Y-123946163D01*
X97486023Y-123945030D01*
X97102833Y-123894583D01*
X97090031Y-123892326D01*
X96712695Y-123808672D01*
X96700140Y-123805308D01*
X96331520Y-123689083D01*
X96319306Y-123684637D01*
X95962241Y-123536737D01*
X95950459Y-123531244D01*
X95607608Y-123352767D01*
X95596361Y-123346273D01*
X95270381Y-123138602D01*
X95259755Y-123131161D01*
X94953113Y-122895865D01*
X94943156Y-122887511D01*
X94658192Y-122626391D01*
X94649001Y-122617199D01*
X94529289Y-122486557D01*
X94387885Y-122332242D01*
X94379543Y-122322300D01*
X94144246Y-122015653D01*
X94136794Y-122005010D01*
X94032961Y-121842026D01*
X93929125Y-121679038D01*
X93922628Y-121667785D01*
X93744162Y-121324953D01*
X93738669Y-121313173D01*
X93685287Y-121184299D01*
X93590762Y-120956095D01*
X93586316Y-120943880D01*
X93470092Y-120575264D01*
X93466728Y-120562709D01*
X93427608Y-120386250D01*
X93383070Y-120185352D01*
X93380819Y-120172587D01*
X93330368Y-119789379D01*
X93329236Y-119776431D01*
X93327462Y-119735806D01*
X93312242Y-119387189D01*
X93312100Y-119380690D01*
X93312100Y-119265783D01*
X96091100Y-119265783D01*
X96091100Y-119501816D01*
X96121905Y-119735806D01*
X96121906Y-119735812D01*
X96121907Y-119735814D01*
X96182994Y-119963793D01*
X96272145Y-120179023D01*
X96273319Y-120181856D01*
X96376063Y-120359813D01*
X96391327Y-120386250D01*
X96535008Y-120573499D01*
X96701901Y-120740392D01*
X96889150Y-120884073D01*
X96916295Y-120899745D01*
X97093543Y-121002080D01*
X97093546Y-121002081D01*
X97093551Y-121002084D01*
X97311607Y-121092406D01*
X97539586Y-121153493D01*
X97539592Y-121153493D01*
X97539593Y-121153494D01*
X97603203Y-121161868D01*
X97773589Y-121184300D01*
X98009611Y-121184300D01*
X98243614Y-121153493D01*
X98471593Y-121092406D01*
X98689649Y-121002084D01*
X98894050Y-120884073D01*
X99081299Y-120740392D01*
X99248192Y-120573499D01*
X99391873Y-120386250D01*
X99509884Y-120181849D01*
X99600206Y-119963793D01*
X99661293Y-119735814D01*
X99692100Y-119501811D01*
X99692100Y-119265789D01*
X99692099Y-119265783D01*
X147907100Y-119265783D01*
X147907100Y-119501816D01*
X147937905Y-119735806D01*
X147937906Y-119735812D01*
X147937907Y-119735814D01*
X147998994Y-119963793D01*
X148088145Y-120179023D01*
X148089319Y-120181856D01*
X148192063Y-120359813D01*
X148207327Y-120386250D01*
X148351008Y-120573499D01*
X148517901Y-120740392D01*
X148705150Y-120884073D01*
X148732295Y-120899745D01*
X148909543Y-121002080D01*
X148909546Y-121002081D01*
X148909551Y-121002084D01*
X149127607Y-121092406D01*
X149355586Y-121153493D01*
X149355592Y-121153493D01*
X149355593Y-121153494D01*
X149419203Y-121161868D01*
X149589589Y-121184300D01*
X149825611Y-121184300D01*
X150059614Y-121153493D01*
X150287593Y-121092406D01*
X150505649Y-121002084D01*
X150710050Y-120884073D01*
X150897299Y-120740392D01*
X151064192Y-120573499D01*
X151207873Y-120386250D01*
X151325884Y-120181849D01*
X151416206Y-119963793D01*
X151477293Y-119735814D01*
X151508100Y-119501811D01*
X151508100Y-119265789D01*
X151477293Y-119031786D01*
X151416206Y-118803807D01*
X151325884Y-118585751D01*
X151325881Y-118585746D01*
X151325880Y-118585743D01*
X151264831Y-118480005D01*
X151207873Y-118381350D01*
X151064192Y-118194101D01*
X150897299Y-118027208D01*
X150710050Y-117883527D01*
X150683613Y-117868263D01*
X150505656Y-117765519D01*
X150287596Y-117675195D01*
X150287594Y-117675194D01*
X150287593Y-117675194D01*
X150059614Y-117614107D01*
X150059612Y-117614106D01*
X150059606Y-117614105D01*
X149825616Y-117583300D01*
X149825611Y-117583300D01*
X149589589Y-117583300D01*
X149589583Y-117583300D01*
X149355593Y-117614105D01*
X149127603Y-117675195D01*
X148909543Y-117765519D01*
X148705151Y-117883526D01*
X148705150Y-117883527D01*
X148517901Y-118027208D01*
X148517899Y-118027209D01*
X148517895Y-118027213D01*
X148351013Y-118194095D01*
X148207326Y-118381351D01*
X148089319Y-118585743D01*
X147998995Y-118803803D01*
X147937905Y-119031793D01*
X147907100Y-119265783D01*
X99692099Y-119265783D01*
X99661293Y-119031786D01*
X99600206Y-118803807D01*
X99509884Y-118585751D01*
X99509881Y-118585746D01*
X99509880Y-118585743D01*
X99448831Y-118480005D01*
X99391873Y-118381350D01*
X99248192Y-118194101D01*
X99081299Y-118027208D01*
X98894050Y-117883527D01*
X98867613Y-117868263D01*
X98689656Y-117765519D01*
X98471596Y-117675195D01*
X98471594Y-117675194D01*
X98471593Y-117675194D01*
X98243614Y-117614107D01*
X98243612Y-117614106D01*
X98243606Y-117614105D01*
X98009616Y-117583300D01*
X98009611Y-117583300D01*
X97773589Y-117583300D01*
X97773583Y-117583300D01*
X97539593Y-117614105D01*
X97311603Y-117675195D01*
X97093543Y-117765519D01*
X96889151Y-117883526D01*
X96889150Y-117883527D01*
X96701901Y-118027208D01*
X96701899Y-118027209D01*
X96701895Y-118027213D01*
X96535013Y-118194095D01*
X96391326Y-118381351D01*
X96273319Y-118585743D01*
X96182995Y-118803803D01*
X96121905Y-119031793D01*
X96091100Y-119265783D01*
X93312100Y-119265783D01*
X93312100Y-84835288D01*
X93332062Y-84760788D01*
X93386600Y-84706250D01*
X93461100Y-84686288D01*
X93503074Y-84692323D01*
X93555180Y-84707623D01*
X93555184Y-84707624D01*
X93555187Y-84707624D01*
X93555189Y-84707625D01*
X93555193Y-84707626D01*
X93697585Y-84728098D01*
X93697589Y-84728098D01*
X93697600Y-84728100D01*
X93697604Y-84728100D01*
X94131594Y-84728100D01*
X94131600Y-84728100D01*
X94175083Y-84723424D01*
X94239052Y-84716548D01*
X94239056Y-84716547D01*
X94290567Y-84705341D01*
X94376672Y-84676681D01*
X94453662Y-84672094D01*
X94522633Y-84706617D01*
X94565101Y-84771000D01*
X94569689Y-84847991D01*
X94544271Y-84905635D01*
X94450982Y-85034037D01*
X94450978Y-85034044D01*
X94354506Y-85223377D01*
X94288844Y-85425463D01*
X94288842Y-85425471D01*
X94278369Y-85491600D01*
X95172588Y-85491600D01*
X95139675Y-85548607D01*
X95105600Y-85675774D01*
X95105600Y-85807426D01*
X95139675Y-85934593D01*
X95172588Y-85991600D01*
X94278369Y-85991600D01*
X94288842Y-86057728D01*
X94288844Y-86057736D01*
X94354506Y-86259822D01*
X94450978Y-86449155D01*
X94450978Y-86449156D01*
X94575877Y-86621064D01*
X94575879Y-86621067D01*
X94726132Y-86771320D01*
X94726135Y-86771322D01*
X94898044Y-86896221D01*
X95087377Y-86992693D01*
X95289463Y-87058355D01*
X95289471Y-87058357D01*
X95355600Y-87068830D01*
X95355600Y-86174612D01*
X95412607Y-86207525D01*
X95539774Y-86241600D01*
X95671426Y-86241600D01*
X95798593Y-86207525D01*
X95855600Y-86174612D01*
X95855600Y-87068830D01*
X95921728Y-87058357D01*
X95921736Y-87058355D01*
X96123822Y-86992693D01*
X96313155Y-86896221D01*
X96313156Y-86896221D01*
X96485064Y-86771322D01*
X96485067Y-86771320D01*
X96635320Y-86621067D01*
X96635322Y-86621064D01*
X96760221Y-86449156D01*
X96760221Y-86449155D01*
X96850340Y-86272290D01*
X96901949Y-86214973D01*
X96975302Y-86191139D01*
X97050745Y-86207175D01*
X97108062Y-86258784D01*
X97131896Y-86332137D01*
X97132100Y-86339935D01*
X97132100Y-87654594D01*
X97132101Y-87654615D01*
X97143651Y-87762052D01*
X97143652Y-87762056D01*
X97154858Y-87813563D01*
X97188987Y-87916105D01*
X97266775Y-88037143D01*
X97312529Y-88089946D01*
X97312531Y-88089948D01*
X97421265Y-88184168D01*
X97481870Y-88211845D01*
X97552141Y-88243938D01*
X97590257Y-88255130D01*
X97619176Y-88263622D01*
X97619178Y-88263622D01*
X97619180Y-88263623D01*
X97619184Y-88263624D01*
X97619185Y-88263624D01*
X97619189Y-88263625D01*
X97619193Y-88263626D01*
X97761585Y-88284098D01*
X97761589Y-88284098D01*
X97761600Y-88284100D01*
X104095100Y-88284100D01*
X104169600Y-88304062D01*
X104224138Y-88358600D01*
X104244100Y-88433100D01*
X104244100Y-88824672D01*
X104224138Y-88899172D01*
X104169600Y-88953710D01*
X104095100Y-88973672D01*
X104027456Y-88957432D01*
X103905051Y-88895064D01*
X103905030Y-88895055D01*
X103716121Y-88833675D01*
X103519917Y-88802600D01*
X103321283Y-88802600D01*
X103125078Y-88833675D01*
X102936169Y-88895055D01*
X102936154Y-88895061D01*
X102759166Y-88985242D01*
X102759157Y-88985247D01*
X102721883Y-89012328D01*
X102721883Y-89012330D01*
X103284657Y-89575104D01*
X103224519Y-89591219D01*
X103108680Y-89658098D01*
X103014098Y-89752680D01*
X102947219Y-89868519D01*
X102931104Y-89928657D01*
X102368330Y-89365883D01*
X102368328Y-89365883D01*
X102341247Y-89403157D01*
X102341242Y-89403166D01*
X102283641Y-89516214D01*
X102232032Y-89573531D01*
X102158679Y-89597365D01*
X102083236Y-89581329D01*
X102025919Y-89529720D01*
X102018121Y-89516214D01*
X101991354Y-89463682D01*
X101960387Y-89402906D01*
X101843581Y-89242136D01*
X101703064Y-89101619D01*
X101542294Y-88984813D01*
X101452252Y-88938934D01*
X101365234Y-88894595D01*
X101176241Y-88833188D01*
X101176241Y-88833187D01*
X101067194Y-88815916D01*
X100979961Y-88802100D01*
X100781239Y-88802100D01*
X100702729Y-88814534D01*
X100584958Y-88833187D01*
X100584958Y-88833188D01*
X100395965Y-88894595D01*
X100218904Y-88984814D01*
X100058139Y-89101616D01*
X99917616Y-89242139D01*
X99800814Y-89402904D01*
X99710595Y-89579965D01*
X99649188Y-89768958D01*
X99649187Y-89768958D01*
X99640026Y-89826802D01*
X99618100Y-89965239D01*
X99618100Y-90163961D01*
X99631048Y-90245711D01*
X99649187Y-90360241D01*
X99710595Y-90549234D01*
X99771500Y-90668764D01*
X99800813Y-90726294D01*
X99917619Y-90887064D01*
X100058136Y-91027581D01*
X100218906Y-91144387D01*
X100333964Y-91203012D01*
X100395965Y-91234604D01*
X100395967Y-91234604D01*
X100395968Y-91234605D01*
X100506125Y-91270397D01*
X100584958Y-91296011D01*
X100584958Y-91296012D01*
X100584963Y-91296012D01*
X100584964Y-91296013D01*
X100781239Y-91327100D01*
X100781243Y-91327100D01*
X100979957Y-91327100D01*
X100979961Y-91327100D01*
X101176236Y-91296013D01*
X101176237Y-91296012D01*
X101176241Y-91296012D01*
X101176241Y-91296011D01*
X101365232Y-91234605D01*
X101542294Y-91144387D01*
X101703064Y-91027581D01*
X101843581Y-90887064D01*
X101960387Y-90726294D01*
X102018121Y-90612984D01*
X102069730Y-90555668D01*
X102143083Y-90531834D01*
X102218526Y-90547870D01*
X102275843Y-90599479D01*
X102283641Y-90612985D01*
X102341242Y-90726033D01*
X102341243Y-90726035D01*
X102368329Y-90763315D01*
X102368330Y-90763315D01*
X102931104Y-90200541D01*
X102947219Y-90260681D01*
X103014098Y-90376520D01*
X103108680Y-90471102D01*
X103224519Y-90537981D01*
X103284656Y-90554094D01*
X102721883Y-91116868D01*
X102721883Y-91116869D01*
X102759164Y-91143956D01*
X102759166Y-91143957D01*
X102936154Y-91234138D01*
X102936169Y-91234144D01*
X103125078Y-91295524D01*
X103321283Y-91326600D01*
X103519917Y-91326600D01*
X103716121Y-91295524D01*
X103905030Y-91234144D01*
X103905050Y-91234136D01*
X104036213Y-91167304D01*
X104111656Y-91151267D01*
X104185009Y-91175100D01*
X104236618Y-91232417D01*
X104252005Y-91284134D01*
X104255652Y-91318055D01*
X104255652Y-91318056D01*
X104266857Y-91369559D01*
X104266857Y-91369562D01*
X104300987Y-91472105D01*
X104378775Y-91593143D01*
X104424529Y-91645946D01*
X104424531Y-91645948D01*
X104533265Y-91740168D01*
X104593870Y-91767845D01*
X104664141Y-91799938D01*
X104673643Y-91802728D01*
X104731176Y-91819622D01*
X104731178Y-91819622D01*
X104731180Y-91819623D01*
X104731184Y-91819624D01*
X104731185Y-91819624D01*
X104731189Y-91819625D01*
X104731193Y-91819626D01*
X104873585Y-91840098D01*
X104873589Y-91840098D01*
X104873600Y-91840100D01*
X104873604Y-91840100D01*
X105179932Y-91840100D01*
X105179951Y-91840099D01*
X105195723Y-91839197D01*
X105237549Y-91836806D01*
X105237559Y-91836804D01*
X105237569Y-91836804D01*
X105256271Y-91834658D01*
X105265633Y-91833584D01*
X105322508Y-91823742D01*
X105456585Y-91771541D01*
X105517424Y-91737184D01*
X105631358Y-91649331D01*
X105715931Y-91532931D01*
X105748538Y-91471137D01*
X105748539Y-91471135D01*
X105764635Y-91426026D01*
X105772396Y-91414790D01*
X105775931Y-91401600D01*
X105793972Y-91383558D01*
X105808474Y-91362567D01*
X105820813Y-91356717D01*
X105830469Y-91347062D01*
X105855113Y-91340458D01*
X105878168Y-91329530D01*
X105904969Y-91327100D01*
X106014537Y-91327100D01*
X106089037Y-91347062D01*
X106143575Y-91401600D01*
X106157501Y-91434121D01*
X106168652Y-91472100D01*
X106168656Y-91472109D01*
X106246438Y-91593138D01*
X106246442Y-91593143D01*
X106292196Y-91645946D01*
X106292198Y-91645948D01*
X106400932Y-91740168D01*
X106461537Y-91767845D01*
X106531808Y-91799938D01*
X106541310Y-91802728D01*
X106598843Y-91819622D01*
X106598845Y-91819622D01*
X106598847Y-91819623D01*
X106598851Y-91819624D01*
X106598852Y-91819624D01*
X106598856Y-91819625D01*
X106598860Y-91819626D01*
X106741252Y-91840098D01*
X106741256Y-91840098D01*
X106741267Y-91840100D01*
X106741271Y-91840100D01*
X107165594Y-91840100D01*
X107165600Y-91840100D01*
X107209083Y-91835424D01*
X107273052Y-91828548D01*
X107273056Y-91828547D01*
X107324567Y-91817341D01*
X107427104Y-91783213D01*
X107548143Y-91705425D01*
X107600947Y-91659670D01*
X107695167Y-91550936D01*
X107754938Y-91420059D01*
X107774623Y-91353020D01*
X107774624Y-91353016D01*
X107777331Y-91334184D01*
X107807690Y-91263285D01*
X107869433Y-91217062D01*
X107946016Y-91207903D01*
X107992461Y-91222628D01*
X108015963Y-91234603D01*
X108015965Y-91234603D01*
X108015968Y-91234605D01*
X108168404Y-91284134D01*
X108204958Y-91296011D01*
X108204958Y-91296012D01*
X108204963Y-91296012D01*
X108204964Y-91296013D01*
X108401239Y-91327100D01*
X108401243Y-91327100D01*
X108599957Y-91327100D01*
X108599961Y-91327100D01*
X108796236Y-91296013D01*
X108796237Y-91296012D01*
X108796241Y-91296012D01*
X108796241Y-91296011D01*
X108985232Y-91234605D01*
X109162294Y-91144387D01*
X109323064Y-91027581D01*
X109463581Y-90887064D01*
X109580387Y-90726294D01*
X109637840Y-90613535D01*
X109689449Y-90556219D01*
X109762802Y-90532385D01*
X109838245Y-90548421D01*
X109895562Y-90600030D01*
X109903357Y-90613531D01*
X109960813Y-90726294D01*
X110077619Y-90887064D01*
X110218136Y-91027581D01*
X110378906Y-91144387D01*
X110493964Y-91203012D01*
X110555965Y-91234604D01*
X110555967Y-91234604D01*
X110555968Y-91234605D01*
X110666125Y-91270397D01*
X110744958Y-91296011D01*
X110744958Y-91296012D01*
X110744963Y-91296012D01*
X110744964Y-91296013D01*
X110941239Y-91327100D01*
X110941243Y-91327100D01*
X111139957Y-91327100D01*
X111139961Y-91327100D01*
X111336236Y-91296013D01*
X111336237Y-91296012D01*
X111336241Y-91296012D01*
X111336241Y-91296011D01*
X111525232Y-91234605D01*
X111702294Y-91144387D01*
X111863064Y-91027581D01*
X112003581Y-90887064D01*
X112120387Y-90726294D01*
X112177840Y-90613535D01*
X112229449Y-90556219D01*
X112302802Y-90532385D01*
X112378245Y-90548421D01*
X112435562Y-90600030D01*
X112443357Y-90613531D01*
X112500813Y-90726294D01*
X112617619Y-90887064D01*
X112758136Y-91027581D01*
X112918906Y-91144387D01*
X113033964Y-91203012D01*
X113095965Y-91234604D01*
X113095967Y-91234604D01*
X113095968Y-91234605D01*
X113206125Y-91270397D01*
X113284958Y-91296011D01*
X113284958Y-91296012D01*
X113284963Y-91296012D01*
X113284964Y-91296013D01*
X113481239Y-91327100D01*
X113481243Y-91327100D01*
X113679957Y-91327100D01*
X113679961Y-91327100D01*
X113876236Y-91296013D01*
X113876237Y-91296012D01*
X113876241Y-91296012D01*
X113876241Y-91296011D01*
X114065232Y-91234605D01*
X114242294Y-91144387D01*
X114403064Y-91027581D01*
X114543581Y-90887064D01*
X114660387Y-90726294D01*
X114717840Y-90613535D01*
X114769449Y-90556219D01*
X114842802Y-90532385D01*
X114918245Y-90548421D01*
X114975562Y-90600030D01*
X114983357Y-90613531D01*
X115040813Y-90726294D01*
X115157619Y-90887064D01*
X115298136Y-91027581D01*
X115458906Y-91144387D01*
X115573964Y-91203012D01*
X115635965Y-91234604D01*
X115635967Y-91234604D01*
X115635968Y-91234605D01*
X115746125Y-91270397D01*
X115824958Y-91296011D01*
X115824958Y-91296012D01*
X115824963Y-91296012D01*
X115824964Y-91296013D01*
X116021239Y-91327100D01*
X116021243Y-91327100D01*
X116219957Y-91327100D01*
X116219961Y-91327100D01*
X116416236Y-91296013D01*
X116416237Y-91296012D01*
X116416241Y-91296012D01*
X116416241Y-91296011D01*
X116605232Y-91234605D01*
X116782294Y-91144387D01*
X116943064Y-91027581D01*
X117083581Y-90887064D01*
X117200387Y-90726294D01*
X117257840Y-90613535D01*
X117309449Y-90556219D01*
X117382802Y-90532385D01*
X117458245Y-90548421D01*
X117515562Y-90600030D01*
X117523357Y-90613531D01*
X117580813Y-90726294D01*
X117697619Y-90887064D01*
X117838136Y-91027581D01*
X117998906Y-91144387D01*
X118113964Y-91203012D01*
X118175965Y-91234604D01*
X118175967Y-91234604D01*
X118175968Y-91234605D01*
X118286125Y-91270397D01*
X118364958Y-91296011D01*
X118364958Y-91296012D01*
X118364963Y-91296012D01*
X118364964Y-91296013D01*
X118561239Y-91327100D01*
X118561243Y-91327100D01*
X118759957Y-91327100D01*
X118759961Y-91327100D01*
X118956236Y-91296013D01*
X118956237Y-91296012D01*
X118956241Y-91296012D01*
X118956241Y-91296011D01*
X119145232Y-91234605D01*
X119322294Y-91144387D01*
X119483064Y-91027581D01*
X119623581Y-90887064D01*
X119740387Y-90726294D01*
X119797840Y-90613535D01*
X119849449Y-90556219D01*
X119922802Y-90532385D01*
X119998245Y-90548421D01*
X120055562Y-90600030D01*
X120063357Y-90613531D01*
X120120813Y-90726294D01*
X120237619Y-90887064D01*
X120378136Y-91027581D01*
X120538906Y-91144387D01*
X120653964Y-91203012D01*
X120715965Y-91234604D01*
X120715967Y-91234604D01*
X120715968Y-91234605D01*
X120826125Y-91270397D01*
X120904958Y-91296011D01*
X120904958Y-91296012D01*
X120904963Y-91296012D01*
X120904964Y-91296013D01*
X121101239Y-91327100D01*
X121101243Y-91327100D01*
X121299957Y-91327100D01*
X121299961Y-91327100D01*
X121496236Y-91296013D01*
X121496237Y-91296012D01*
X121496241Y-91296012D01*
X121496241Y-91296011D01*
X121685232Y-91234605D01*
X121862294Y-91144387D01*
X122023064Y-91027581D01*
X122163581Y-90887064D01*
X122280387Y-90726294D01*
X122337840Y-90613535D01*
X122389449Y-90556219D01*
X122462802Y-90532385D01*
X122538245Y-90548421D01*
X122595562Y-90600030D01*
X122603357Y-90613531D01*
X122660813Y-90726294D01*
X122777619Y-90887064D01*
X122918136Y-91027581D01*
X123078906Y-91144387D01*
X123193964Y-91203012D01*
X123255965Y-91234604D01*
X123255967Y-91234604D01*
X123255968Y-91234605D01*
X123366125Y-91270397D01*
X123444958Y-91296011D01*
X123444958Y-91296012D01*
X123444963Y-91296012D01*
X123444964Y-91296013D01*
X123641239Y-91327100D01*
X123641243Y-91327100D01*
X123839957Y-91327100D01*
X123839961Y-91327100D01*
X124036236Y-91296013D01*
X124036237Y-91296012D01*
X124036241Y-91296012D01*
X124036241Y-91296011D01*
X124225232Y-91234605D01*
X124402294Y-91144387D01*
X124563064Y-91027581D01*
X124703581Y-90887064D01*
X124820387Y-90726294D01*
X124877840Y-90613535D01*
X124929449Y-90556219D01*
X125002802Y-90532385D01*
X125078245Y-90548421D01*
X125135562Y-90600030D01*
X125143357Y-90613531D01*
X125200813Y-90726294D01*
X125317619Y-90887064D01*
X125458136Y-91027581D01*
X125618906Y-91144387D01*
X125733964Y-91203012D01*
X125795965Y-91234604D01*
X125795967Y-91234604D01*
X125795968Y-91234605D01*
X125906125Y-91270397D01*
X125984958Y-91296011D01*
X125984958Y-91296012D01*
X125984963Y-91296012D01*
X125984964Y-91296013D01*
X126181239Y-91327100D01*
X126181243Y-91327100D01*
X126379957Y-91327100D01*
X126379961Y-91327100D01*
X126576236Y-91296013D01*
X126576237Y-91296012D01*
X126576241Y-91296012D01*
X126576241Y-91296011D01*
X126765232Y-91234605D01*
X126942294Y-91144387D01*
X127103064Y-91027581D01*
X127243581Y-90887064D01*
X127360387Y-90726294D01*
X127417840Y-90613535D01*
X127469449Y-90556219D01*
X127542802Y-90532385D01*
X127618245Y-90548421D01*
X127675562Y-90600030D01*
X127683357Y-90613531D01*
X127740813Y-90726294D01*
X127857619Y-90887064D01*
X127998136Y-91027581D01*
X128158906Y-91144387D01*
X128273964Y-91203012D01*
X128335965Y-91234604D01*
X128335967Y-91234604D01*
X128335968Y-91234605D01*
X128446125Y-91270397D01*
X128524958Y-91296011D01*
X128524958Y-91296012D01*
X128524963Y-91296012D01*
X128524964Y-91296013D01*
X128721239Y-91327100D01*
X128721243Y-91327100D01*
X128919957Y-91327100D01*
X128919961Y-91327100D01*
X129116236Y-91296013D01*
X129116237Y-91296012D01*
X129116241Y-91296012D01*
X129116241Y-91296011D01*
X129305232Y-91234605D01*
X129482294Y-91144387D01*
X129643064Y-91027581D01*
X129783581Y-90887064D01*
X129900387Y-90726294D01*
X129957840Y-90613535D01*
X130009449Y-90556219D01*
X130082802Y-90532385D01*
X130158245Y-90548421D01*
X130215562Y-90600030D01*
X130223357Y-90613531D01*
X130280813Y-90726294D01*
X130397619Y-90887064D01*
X130538136Y-91027581D01*
X130698906Y-91144387D01*
X130813964Y-91203012D01*
X130875965Y-91234604D01*
X130875967Y-91234604D01*
X130875968Y-91234605D01*
X130986125Y-91270397D01*
X131064958Y-91296011D01*
X131064958Y-91296012D01*
X131064963Y-91296012D01*
X131064964Y-91296013D01*
X131261239Y-91327100D01*
X131261243Y-91327100D01*
X131459957Y-91327100D01*
X131459961Y-91327100D01*
X131656236Y-91296013D01*
X131656237Y-91296012D01*
X131656241Y-91296012D01*
X131656241Y-91296011D01*
X131845232Y-91234605D01*
X132022294Y-91144387D01*
X132183064Y-91027581D01*
X132323581Y-90887064D01*
X132440387Y-90726294D01*
X132497840Y-90613535D01*
X132549449Y-90556219D01*
X132622802Y-90532385D01*
X132698245Y-90548421D01*
X132755562Y-90600030D01*
X132763357Y-90613531D01*
X132820813Y-90726294D01*
X132937619Y-90887064D01*
X133078136Y-91027581D01*
X133238906Y-91144387D01*
X133353964Y-91203012D01*
X133415965Y-91234604D01*
X133415967Y-91234604D01*
X133415968Y-91234605D01*
X133526125Y-91270397D01*
X133604958Y-91296011D01*
X133604958Y-91296012D01*
X133604963Y-91296012D01*
X133604964Y-91296013D01*
X133801239Y-91327100D01*
X133801243Y-91327100D01*
X133999957Y-91327100D01*
X133999961Y-91327100D01*
X134196236Y-91296013D01*
X134196237Y-91296012D01*
X134196241Y-91296012D01*
X134196241Y-91296011D01*
X134385232Y-91234605D01*
X134562294Y-91144387D01*
X134723064Y-91027581D01*
X134863581Y-90887064D01*
X134980387Y-90726294D01*
X135037840Y-90613535D01*
X135089449Y-90556219D01*
X135162802Y-90532385D01*
X135238245Y-90548421D01*
X135295562Y-90600030D01*
X135303357Y-90613531D01*
X135360813Y-90726294D01*
X135477619Y-90887064D01*
X135618136Y-91027581D01*
X135778906Y-91144387D01*
X135893964Y-91203012D01*
X135955965Y-91234604D01*
X135955967Y-91234604D01*
X135955968Y-91234605D01*
X136066125Y-91270397D01*
X136144958Y-91296011D01*
X136144958Y-91296012D01*
X136144963Y-91296012D01*
X136144964Y-91296013D01*
X136341239Y-91327100D01*
X136341243Y-91327100D01*
X136539957Y-91327100D01*
X136539961Y-91327100D01*
X136736236Y-91296013D01*
X136736237Y-91296012D01*
X136736241Y-91296012D01*
X136736241Y-91296011D01*
X136925232Y-91234605D01*
X137102294Y-91144387D01*
X137263064Y-91027581D01*
X137403581Y-90887064D01*
X137451394Y-90821254D01*
X137511331Y-90772718D01*
X137587509Y-90760652D01*
X137659515Y-90788291D01*
X137708054Y-90848231D01*
X137720082Y-90892908D01*
X137724508Y-90934079D01*
X137724509Y-90934084D01*
X137774802Y-91068929D01*
X137774804Y-91068933D01*
X137861052Y-91184144D01*
X137861055Y-91184147D01*
X137976266Y-91270395D01*
X137976270Y-91270397D01*
X138111117Y-91320691D01*
X138170714Y-91327099D01*
X138170718Y-91327099D01*
X138170727Y-91327100D01*
X139790472Y-91327099D01*
X139850083Y-91320691D01*
X139946047Y-91284898D01*
X139984929Y-91270397D01*
X139984933Y-91270395D01*
X140064808Y-91210600D01*
X140100146Y-91184146D01*
X140186396Y-91068931D01*
X140236691Y-90934083D01*
X140243100Y-90874473D01*
X140243099Y-89254728D01*
X140236691Y-89195117D01*
X140201819Y-89101619D01*
X140186397Y-89060270D01*
X140186395Y-89060266D01*
X140100147Y-88945055D01*
X140100144Y-88945052D01*
X139984933Y-88858804D01*
X139984929Y-88858802D01*
X139850082Y-88808508D01*
X139790476Y-88802100D01*
X138170736Y-88802100D01*
X138170711Y-88802102D01*
X138111121Y-88808508D01*
X138111115Y-88808509D01*
X137976270Y-88858802D01*
X137976266Y-88858804D01*
X137861055Y-88945052D01*
X137861052Y-88945055D01*
X137774804Y-89060266D01*
X137774802Y-89060270D01*
X137724508Y-89195116D01*
X137720081Y-89236293D01*
X137692268Y-89308231D01*
X137632212Y-89356625D01*
X137556004Y-89368508D01*
X137484066Y-89340695D01*
X137451391Y-89307941D01*
X137403585Y-89242141D01*
X137403583Y-89242139D01*
X137403581Y-89242136D01*
X137263064Y-89101619D01*
X137102294Y-88984813D01*
X137012252Y-88938934D01*
X136925234Y-88894595D01*
X136736241Y-88833188D01*
X136736241Y-88833187D01*
X136627194Y-88815916D01*
X136539961Y-88802100D01*
X136341239Y-88802100D01*
X136262729Y-88814534D01*
X136144958Y-88833187D01*
X136144958Y-88833188D01*
X135955965Y-88894595D01*
X135778904Y-88984814D01*
X135618139Y-89101616D01*
X135477616Y-89242139D01*
X135360814Y-89402904D01*
X135303360Y-89515663D01*
X135251751Y-89572980D01*
X135178397Y-89596814D01*
X135102955Y-89580778D01*
X135045638Y-89529169D01*
X135037840Y-89515663D01*
X135011354Y-89463682D01*
X134980387Y-89402906D01*
X134863581Y-89242136D01*
X134723064Y-89101619D01*
X134562294Y-88984813D01*
X134472252Y-88938934D01*
X134385234Y-88894595D01*
X134196241Y-88833188D01*
X134196241Y-88833187D01*
X134087194Y-88815916D01*
X133999961Y-88802100D01*
X133801239Y-88802100D01*
X133722729Y-88814534D01*
X133604958Y-88833187D01*
X133604958Y-88833188D01*
X133415965Y-88894595D01*
X133238904Y-88984814D01*
X133078139Y-89101616D01*
X132937616Y-89242139D01*
X132820814Y-89402904D01*
X132763360Y-89515663D01*
X132711751Y-89572980D01*
X132638397Y-89596814D01*
X132562955Y-89580778D01*
X132505638Y-89529169D01*
X132497840Y-89515663D01*
X132471354Y-89463682D01*
X132440387Y-89402906D01*
X132323581Y-89242136D01*
X132183064Y-89101619D01*
X132022294Y-88984813D01*
X131932252Y-88938934D01*
X131845234Y-88894595D01*
X131656241Y-88833188D01*
X131656241Y-88833187D01*
X131547194Y-88815916D01*
X131459961Y-88802100D01*
X131261239Y-88802100D01*
X131182729Y-88814534D01*
X131064958Y-88833187D01*
X131064958Y-88833188D01*
X130875965Y-88894595D01*
X130698904Y-88984814D01*
X130538139Y-89101616D01*
X130397616Y-89242139D01*
X130280814Y-89402904D01*
X130223360Y-89515663D01*
X130171751Y-89572980D01*
X130098397Y-89596814D01*
X130022955Y-89580778D01*
X129965638Y-89529169D01*
X129957840Y-89515663D01*
X129931354Y-89463682D01*
X129900387Y-89402906D01*
X129783581Y-89242136D01*
X129643064Y-89101619D01*
X129482518Y-88984976D01*
X129433982Y-88925038D01*
X129421100Y-88864434D01*
X129421100Y-85608052D01*
X129441062Y-85533552D01*
X129464737Y-85502697D01*
X130924245Y-84043188D01*
X130991038Y-84004626D01*
X131068166Y-84004626D01*
X131075636Y-84006839D01*
X131103357Y-84015846D01*
X131313313Y-84049100D01*
X131313318Y-84049100D01*
X131525882Y-84049100D01*
X131525887Y-84049100D01*
X131735843Y-84015846D01*
X131938012Y-83950157D01*
X132127416Y-83853651D01*
X132299392Y-83728704D01*
X132449704Y-83578392D01*
X132569056Y-83414117D01*
X132628996Y-83365579D01*
X132705174Y-83353513D01*
X132777180Y-83381153D01*
X132810144Y-83414117D01*
X132929496Y-83578392D01*
X133079808Y-83728704D01*
X133251784Y-83853651D01*
X133441188Y-83950157D01*
X133643357Y-84015846D01*
X133853313Y-84049100D01*
X133853318Y-84049100D01*
X134065882Y-84049100D01*
X134065887Y-84049100D01*
X134275843Y-84015846D01*
X134478012Y-83950157D01*
X134667416Y-83853651D01*
X134839392Y-83728704D01*
X134989704Y-83578392D01*
X135109056Y-83414117D01*
X135168996Y-83365579D01*
X135245174Y-83353513D01*
X135317180Y-83381153D01*
X135350144Y-83414117D01*
X135469496Y-83578392D01*
X135619808Y-83728704D01*
X135791784Y-83853651D01*
X135981188Y-83950157D01*
X136183357Y-84015846D01*
X136393313Y-84049100D01*
X136393318Y-84049100D01*
X136605882Y-84049100D01*
X136605887Y-84049100D01*
X136815843Y-84015846D01*
X137018012Y-83950157D01*
X137207416Y-83853651D01*
X137379392Y-83728704D01*
X137529704Y-83578392D01*
X137649056Y-83414117D01*
X137708996Y-83365579D01*
X137785174Y-83353513D01*
X137857180Y-83381153D01*
X137890144Y-83414117D01*
X138009496Y-83578392D01*
X138159808Y-83728704D01*
X138331784Y-83853651D01*
X138521188Y-83950157D01*
X138723357Y-84015846D01*
X138933313Y-84049100D01*
X138933318Y-84049100D01*
X139145882Y-84049100D01*
X139145887Y-84049100D01*
X139355843Y-84015846D01*
X139558012Y-83950157D01*
X139747416Y-83853651D01*
X139919392Y-83728704D01*
X140005419Y-83642677D01*
X140072213Y-83604112D01*
X140149341Y-83604112D01*
X140216136Y-83642676D01*
X140250384Y-83695966D01*
X140285802Y-83790929D01*
X140285804Y-83790933D01*
X140372052Y-83906144D01*
X140372055Y-83906147D01*
X140487266Y-83992395D01*
X140487270Y-83992397D01*
X140622117Y-84042691D01*
X140681714Y-84049099D01*
X140681718Y-84049099D01*
X140681727Y-84049100D01*
X142477472Y-84049099D01*
X142537083Y-84042691D01*
X142639141Y-84004626D01*
X142671929Y-83992397D01*
X142671933Y-83992395D01*
X142729538Y-83949271D01*
X142787146Y-83906146D01*
X142873396Y-83790931D01*
X142923691Y-83656083D01*
X142930100Y-83596473D01*
X142930099Y-81800728D01*
X142923691Y-81741117D01*
X142896605Y-81668495D01*
X142873397Y-81606270D01*
X142873395Y-81606266D01*
X142787147Y-81491055D01*
X142787144Y-81491052D01*
X142671933Y-81404804D01*
X142671929Y-81404802D01*
X142537082Y-81354508D01*
X142477476Y-81348100D01*
X140681736Y-81348100D01*
X140681711Y-81348102D01*
X140622121Y-81354508D01*
X140622115Y-81354509D01*
X140487270Y-81404802D01*
X140487266Y-81404804D01*
X140372055Y-81491052D01*
X140372052Y-81491055D01*
X140285804Y-81606266D01*
X140285803Y-81606268D01*
X140250384Y-81701234D01*
X140205645Y-81764061D01*
X140135487Y-81796101D01*
X140058708Y-81788770D01*
X140005419Y-81754523D01*
X139919393Y-81668497D01*
X139919392Y-81668496D01*
X139747416Y-81543549D01*
X139558012Y-81447043D01*
X139355843Y-81381354D01*
X139145887Y-81348100D01*
X138933313Y-81348100D01*
X138758349Y-81375811D01*
X138723356Y-81381354D01*
X138527032Y-81445144D01*
X138521188Y-81447043D01*
X138521182Y-81447045D01*
X138521182Y-81447046D01*
X138331782Y-81543550D01*
X138331781Y-81543550D01*
X138159809Y-81668495D01*
X138159806Y-81668497D01*
X138009497Y-81818806D01*
X138009495Y-81818809D01*
X137890144Y-81983082D01*
X137830204Y-82031620D01*
X137754025Y-82043686D01*
X137682020Y-82016046D01*
X137649056Y-81983082D01*
X137586836Y-81897444D01*
X137529704Y-81818808D01*
X137379392Y-81668496D01*
X137207416Y-81543549D01*
X137018012Y-81447043D01*
X136815843Y-81381354D01*
X136605887Y-81348100D01*
X136393313Y-81348100D01*
X136218349Y-81375811D01*
X136183356Y-81381354D01*
X135987032Y-81445144D01*
X135981188Y-81447043D01*
X135981182Y-81447045D01*
X135981182Y-81447046D01*
X135791782Y-81543550D01*
X135791781Y-81543550D01*
X135619809Y-81668495D01*
X135619806Y-81668497D01*
X135469497Y-81818806D01*
X135469495Y-81818809D01*
X135350144Y-81983082D01*
X135290204Y-82031620D01*
X135214025Y-82043686D01*
X135142020Y-82016046D01*
X135109056Y-81983082D01*
X135046836Y-81897444D01*
X134989704Y-81818808D01*
X134839392Y-81668496D01*
X134667416Y-81543549D01*
X134478012Y-81447043D01*
X134275843Y-81381354D01*
X134065887Y-81348100D01*
X133853313Y-81348100D01*
X133678349Y-81375811D01*
X133643356Y-81381354D01*
X133447032Y-81445144D01*
X133441188Y-81447043D01*
X133441182Y-81447045D01*
X133441182Y-81447046D01*
X133251782Y-81543550D01*
X133251781Y-81543550D01*
X133079809Y-81668495D01*
X133079806Y-81668497D01*
X132929497Y-81818806D01*
X132929495Y-81818809D01*
X132810144Y-81983082D01*
X132750204Y-82031620D01*
X132674025Y-82043686D01*
X132602020Y-82016046D01*
X132569056Y-81983082D01*
X132506836Y-81897444D01*
X132449704Y-81818808D01*
X132299392Y-81668496D01*
X132127416Y-81543549D01*
X131938012Y-81447043D01*
X131735843Y-81381354D01*
X131525887Y-81348100D01*
X131313313Y-81348100D01*
X131138349Y-81375811D01*
X131103356Y-81381354D01*
X130907032Y-81445144D01*
X130901188Y-81447043D01*
X130901182Y-81447045D01*
X130901182Y-81447046D01*
X130711782Y-81543550D01*
X130711781Y-81543550D01*
X130539809Y-81668495D01*
X130539806Y-81668497D01*
X130389497Y-81818806D01*
X130389495Y-81818809D01*
X130270144Y-81983082D01*
X130210204Y-82031620D01*
X130134025Y-82043686D01*
X130062020Y-82016046D01*
X130029056Y-81983082D01*
X129966836Y-81897444D01*
X129909704Y-81818808D01*
X129759392Y-81668496D01*
X129587416Y-81543549D01*
X129398012Y-81447043D01*
X129195843Y-81381354D01*
X128985887Y-81348100D01*
X128773313Y-81348100D01*
X128598349Y-81375811D01*
X128563356Y-81381354D01*
X128367032Y-81445144D01*
X128361188Y-81447043D01*
X128361182Y-81447045D01*
X128361182Y-81447046D01*
X128171782Y-81543550D01*
X128171781Y-81543550D01*
X127999809Y-81668495D01*
X127999806Y-81668497D01*
X127849497Y-81818806D01*
X127849495Y-81818809D01*
X127730144Y-81983082D01*
X127670204Y-82031620D01*
X127594025Y-82043686D01*
X127522020Y-82016046D01*
X127489056Y-81983082D01*
X127426836Y-81897444D01*
X127369704Y-81818808D01*
X127219392Y-81668496D01*
X127047416Y-81543549D01*
X126858012Y-81447043D01*
X126655843Y-81381354D01*
X126445887Y-81348100D01*
X126233313Y-81348100D01*
X126058349Y-81375811D01*
X126023356Y-81381354D01*
X125827032Y-81445144D01*
X125821188Y-81447043D01*
X125821182Y-81447045D01*
X125821182Y-81447046D01*
X125631782Y-81543550D01*
X125631781Y-81543550D01*
X125459809Y-81668495D01*
X125459806Y-81668497D01*
X125309497Y-81818806D01*
X125309488Y-81818817D01*
X125189833Y-81983508D01*
X125129893Y-82032046D01*
X125053715Y-82044112D01*
X124981710Y-82016471D01*
X124948746Y-81983508D01*
X124829322Y-81819135D01*
X124829320Y-81819132D01*
X124679067Y-81668879D01*
X124679064Y-81668877D01*
X124507155Y-81543978D01*
X124317820Y-81447506D01*
X124115728Y-81381842D01*
X124115715Y-81381839D01*
X123991909Y-81362230D01*
X123921449Y-81330859D01*
X123876114Y-81268461D01*
X123868053Y-81191756D01*
X123899424Y-81121296D01*
X123909840Y-81109726D01*
X127114826Y-77904741D01*
X127181621Y-77866177D01*
X127220185Y-77861100D01*
X142985014Y-77861100D01*
X143059514Y-77881062D01*
X143090373Y-77904741D01*
X145865459Y-80679826D01*
X145904023Y-80746621D01*
X145909100Y-80785185D01*
X145909100Y-87660014D01*
X145889138Y-87734514D01*
X145865459Y-87765373D01*
X140528214Y-93102618D01*
X140461419Y-93141182D01*
X140422855Y-93146259D01*
X122941519Y-93146259D01*
X122796528Y-93175100D01*
X122796526Y-93175101D01*
X122659950Y-93231672D01*
X122643917Y-93242385D01*
X122537026Y-93313806D01*
X117182373Y-98668459D01*
X117115578Y-98707023D01*
X117077014Y-98712100D01*
X116580100Y-98712100D01*
X116505600Y-98692138D01*
X116451062Y-98637600D01*
X116431100Y-98563100D01*
X116431100Y-98316605D01*
X116431098Y-98316584D01*
X116419548Y-98209147D01*
X116419547Y-98209143D01*
X116416745Y-98196266D01*
X116408341Y-98157633D01*
X116374213Y-98055096D01*
X116370728Y-98049674D01*
X116296424Y-97934056D01*
X116250670Y-97881253D01*
X116250668Y-97881251D01*
X116141934Y-97787031D01*
X116011061Y-97727263D01*
X116011059Y-97727262D01*
X116011054Y-97727260D01*
X116011047Y-97727258D01*
X115944023Y-97707577D01*
X115944010Y-97707574D01*
X115944006Y-97707573D01*
X115801614Y-97687101D01*
X115801602Y-97687100D01*
X115801600Y-97687100D01*
X105381600Y-97687100D01*
X105381595Y-97687100D01*
X105381584Y-97687101D01*
X105274147Y-97698651D01*
X105274143Y-97698652D01*
X105222636Y-97709858D01*
X105120094Y-97743987D01*
X104999056Y-97821775D01*
X104946253Y-97867529D01*
X104946251Y-97867531D01*
X104852031Y-97976265D01*
X104792263Y-98107138D01*
X104792258Y-98107152D01*
X104772577Y-98174176D01*
X104772574Y-98174189D01*
X104772573Y-98174193D01*
X104752101Y-98316585D01*
X104752100Y-98316603D01*
X104752100Y-104672594D01*
X104752101Y-104672615D01*
X104763651Y-104780052D01*
X104763652Y-104780056D01*
X104774858Y-104831563D01*
X104808987Y-104934105D01*
X104886775Y-105055143D01*
X104932529Y-105107946D01*
X104932531Y-105107948D01*
X105041265Y-105202168D01*
X105101870Y-105229845D01*
X105172141Y-105261938D01*
X105210257Y-105273130D01*
X105239176Y-105281622D01*
X105239178Y-105281622D01*
X105239180Y-105281623D01*
X105239184Y-105281624D01*
X105239185Y-105281624D01*
X105239189Y-105281625D01*
X105239193Y-105281626D01*
X105381585Y-105302098D01*
X105381589Y-105302098D01*
X105381600Y-105302100D01*
X108676100Y-105302100D01*
X108750600Y-105322062D01*
X108805138Y-105376600D01*
X108825100Y-105451100D01*
X108825100Y-106648521D01*
X108853941Y-106793511D01*
X108910513Y-106930089D01*
X108910514Y-106930091D01*
X108910516Y-106930095D01*
X108929140Y-106957968D01*
X108975497Y-107027348D01*
X108992647Y-107053014D01*
X108992648Y-107053016D01*
X110511623Y-108571991D01*
X110543922Y-108620330D01*
X110599894Y-108755458D01*
X110599901Y-108755470D01*
X110692971Y-108894758D01*
X110692974Y-108894762D01*
X110811438Y-109013226D01*
X110811441Y-109013228D01*
X110950729Y-109106298D01*
X110950733Y-109106300D01*
X110950737Y-109106303D01*
X110950738Y-109106303D01*
X110950741Y-109106305D01*
X110970386Y-109114442D01*
X111105518Y-109170416D01*
X111269833Y-109203100D01*
X111437367Y-109203100D01*
X111601682Y-109170416D01*
X111756463Y-109106303D01*
X111895762Y-109013226D01*
X112014226Y-108894762D01*
X112107303Y-108755463D01*
X112171416Y-108600682D01*
X112204100Y-108436367D01*
X112204100Y-108268833D01*
X112171416Y-108104518D01*
X112107303Y-107949737D01*
X112014226Y-107810438D01*
X111895762Y-107691974D01*
X111889092Y-107687517D01*
X111756470Y-107598901D01*
X111756458Y-107598894D01*
X111621330Y-107542922D01*
X111572991Y-107510623D01*
X110369741Y-106307373D01*
X110331177Y-106240578D01*
X110326100Y-106202014D01*
X110326100Y-105451100D01*
X110346062Y-105376600D01*
X110400600Y-105322062D01*
X110475100Y-105302100D01*
X115801594Y-105302100D01*
X115801600Y-105302100D01*
X115845083Y-105297424D01*
X115909052Y-105290548D01*
X115909056Y-105290547D01*
X115960567Y-105279341D01*
X116063104Y-105245213D01*
X116184143Y-105167425D01*
X116236947Y-105121670D01*
X116331167Y-105012936D01*
X116390938Y-104882059D01*
X116410623Y-104815020D01*
X116410624Y-104815016D01*
X116410625Y-104815010D01*
X116410626Y-104815006D01*
X116431098Y-104672614D01*
X116431100Y-104672596D01*
X116431100Y-100362100D01*
X116451062Y-100287600D01*
X116505600Y-100233062D01*
X116580100Y-100213100D01*
X117523514Y-100213100D01*
X117523517Y-100213100D01*
X117523518Y-100213100D01*
X117668513Y-100184258D01*
X117805095Y-100127684D01*
X117869891Y-100084389D01*
X117928016Y-100045552D01*
X123282668Y-94690900D01*
X123349463Y-94652336D01*
X123388027Y-94647259D01*
X140869355Y-94647259D01*
X140869358Y-94647259D01*
X140869359Y-94647259D01*
X141014354Y-94618417D01*
X141150936Y-94561843D01*
X141200170Y-94528945D01*
X141273857Y-94479711D01*
X147242551Y-88511016D01*
X147324684Y-88388095D01*
X147381258Y-88251513D01*
X147410100Y-88106518D01*
X147410100Y-87958683D01*
X147410100Y-80338682D01*
X147381258Y-80193687D01*
X147324684Y-80057105D01*
X147324683Y-80057102D01*
X147268585Y-79973147D01*
X147242551Y-79934184D01*
X147138016Y-79829649D01*
X143836016Y-76527648D01*
X143836015Y-76527647D01*
X143836010Y-76527643D01*
X143762329Y-76478412D01*
X143762328Y-76478412D01*
X143713097Y-76445517D01*
X143713095Y-76445516D01*
X143576513Y-76388942D01*
X143576511Y-76388941D01*
X143576512Y-76388941D01*
X143431521Y-76360100D01*
X143431518Y-76360100D01*
X126921517Y-76360100D01*
X126773682Y-76360100D01*
X126773678Y-76360100D01*
X126628688Y-76388941D01*
X126492102Y-76445516D01*
X126369185Y-76527648D01*
X126369180Y-76527652D01*
X121577414Y-81319416D01*
X121510619Y-81357980D01*
X121448748Y-81361223D01*
X121387901Y-81351586D01*
X121365887Y-81348100D01*
X121153313Y-81348100D01*
X120978349Y-81375811D01*
X120943356Y-81381354D01*
X120747032Y-81445144D01*
X120741188Y-81447043D01*
X120741182Y-81447045D01*
X120741182Y-81447046D01*
X120551782Y-81543550D01*
X120551781Y-81543550D01*
X120379809Y-81668495D01*
X120379806Y-81668497D01*
X120229497Y-81818806D01*
X120229495Y-81818809D01*
X120104550Y-81990781D01*
X120104550Y-81990782D01*
X120008046Y-82180182D01*
X120008041Y-82180194D01*
X119969601Y-82298501D01*
X119942354Y-82382357D01*
X119909100Y-82592313D01*
X119909100Y-82804887D01*
X119942354Y-83014843D01*
X120008043Y-83217012D01*
X120083524Y-83365153D01*
X120104550Y-83406417D01*
X120104550Y-83406418D01*
X120109835Y-83413692D01*
X120229496Y-83578392D01*
X120379808Y-83728704D01*
X120551784Y-83853651D01*
X120741188Y-83950157D01*
X120943357Y-84015846D01*
X121153313Y-84049100D01*
X121153318Y-84049100D01*
X121365882Y-84049100D01*
X121365887Y-84049100D01*
X121575843Y-84015846D01*
X121778012Y-83950157D01*
X121967416Y-83853651D01*
X122139392Y-83728704D01*
X122289704Y-83578392D01*
X122409365Y-83413692D01*
X122469305Y-83365153D01*
X122545483Y-83353087D01*
X122617488Y-83380727D01*
X122650453Y-83413691D01*
X122769877Y-83578064D01*
X122769879Y-83578067D01*
X122920132Y-83728320D01*
X122920135Y-83728322D01*
X123092044Y-83853221D01*
X123281377Y-83949693D01*
X123483463Y-84015355D01*
X123483471Y-84015357D01*
X123549600Y-84025830D01*
X123549600Y-83131612D01*
X123606607Y-83164525D01*
X123733774Y-83198600D01*
X123865426Y-83198600D01*
X123992593Y-83164525D01*
X124049600Y-83131612D01*
X124049600Y-84025830D01*
X124115728Y-84015357D01*
X124115736Y-84015355D01*
X124317822Y-83949693D01*
X124507155Y-83853221D01*
X124507156Y-83853221D01*
X124679064Y-83728322D01*
X124679067Y-83728320D01*
X124829320Y-83578067D01*
X124829327Y-83578059D01*
X124948746Y-83413692D01*
X125008686Y-83365153D01*
X125084864Y-83353087D01*
X125156869Y-83380727D01*
X125189834Y-83413691D01*
X125189835Y-83413692D01*
X125309496Y-83578392D01*
X125459808Y-83728704D01*
X125631784Y-83853651D01*
X125821188Y-83950157D01*
X126023357Y-84015846D01*
X126233313Y-84049100D01*
X126233318Y-84049100D01*
X126445882Y-84049100D01*
X126445887Y-84049100D01*
X126655843Y-84015846D01*
X126858012Y-83950157D01*
X127047416Y-83853651D01*
X127219392Y-83728704D01*
X127369704Y-83578392D01*
X127489056Y-83414117D01*
X127548996Y-83365579D01*
X127625174Y-83353513D01*
X127697180Y-83381153D01*
X127730144Y-83414117D01*
X127849496Y-83578392D01*
X127999808Y-83728704D01*
X128171784Y-83853651D01*
X128361188Y-83950157D01*
X128563357Y-84015846D01*
X128773313Y-84049100D01*
X128773318Y-84049100D01*
X128860146Y-84049100D01*
X128934646Y-84069062D01*
X128989184Y-84123600D01*
X129009146Y-84198100D01*
X128989184Y-84272600D01*
X128965505Y-84303459D01*
X128340080Y-84928883D01*
X128289960Y-85015695D01*
X128289959Y-85015696D01*
X128261023Y-85065812D01*
X128220099Y-85218542D01*
X128220099Y-85388661D01*
X128220100Y-85388674D01*
X128220100Y-88864434D01*
X128200138Y-88938934D01*
X128158682Y-88984975D01*
X128079332Y-89042626D01*
X127998139Y-89101616D01*
X127857616Y-89242139D01*
X127740814Y-89402904D01*
X127683360Y-89515663D01*
X127631751Y-89572980D01*
X127558397Y-89596814D01*
X127482955Y-89580778D01*
X127425638Y-89529169D01*
X127417840Y-89515663D01*
X127391354Y-89463682D01*
X127360387Y-89402906D01*
X127243581Y-89242136D01*
X127103064Y-89101619D01*
X126942294Y-88984813D01*
X126852252Y-88938934D01*
X126765234Y-88894595D01*
X126576241Y-88833188D01*
X126576241Y-88833187D01*
X126467194Y-88815916D01*
X126379961Y-88802100D01*
X126181239Y-88802100D01*
X126102729Y-88814534D01*
X125984958Y-88833187D01*
X125984958Y-88833188D01*
X125795965Y-88894595D01*
X125618904Y-88984814D01*
X125458139Y-89101616D01*
X125317616Y-89242139D01*
X125200814Y-89402904D01*
X125143360Y-89515663D01*
X125091751Y-89572980D01*
X125018397Y-89596814D01*
X124942955Y-89580778D01*
X124885638Y-89529169D01*
X124877840Y-89515663D01*
X124851354Y-89463682D01*
X124820387Y-89402906D01*
X124703581Y-89242136D01*
X124563064Y-89101619D01*
X124402294Y-88984813D01*
X124312252Y-88938934D01*
X124225234Y-88894595D01*
X124036241Y-88833188D01*
X124036241Y-88833187D01*
X123927194Y-88815916D01*
X123839961Y-88802100D01*
X123641239Y-88802100D01*
X123562729Y-88814534D01*
X123444958Y-88833187D01*
X123444958Y-88833188D01*
X123255965Y-88894595D01*
X123078904Y-88984814D01*
X122918139Y-89101616D01*
X122777616Y-89242139D01*
X122660814Y-89402904D01*
X122603360Y-89515663D01*
X122551751Y-89572980D01*
X122478397Y-89596814D01*
X122402955Y-89580778D01*
X122345638Y-89529169D01*
X122337840Y-89515663D01*
X122311354Y-89463682D01*
X122280387Y-89402906D01*
X122163581Y-89242136D01*
X122023064Y-89101619D01*
X121862294Y-88984813D01*
X121772252Y-88938934D01*
X121685234Y-88894595D01*
X121496241Y-88833188D01*
X121496241Y-88833187D01*
X121387194Y-88815916D01*
X121299961Y-88802100D01*
X121101239Y-88802100D01*
X121022729Y-88814534D01*
X120904958Y-88833187D01*
X120904958Y-88833188D01*
X120715965Y-88894595D01*
X120538904Y-88984814D01*
X120378139Y-89101616D01*
X120237616Y-89242139D01*
X120120814Y-89402904D01*
X120063360Y-89515663D01*
X120011751Y-89572980D01*
X119938397Y-89596814D01*
X119862955Y-89580778D01*
X119805638Y-89529169D01*
X119797840Y-89515663D01*
X119771354Y-89463682D01*
X119740387Y-89402906D01*
X119623581Y-89242136D01*
X119483064Y-89101619D01*
X119322294Y-88984813D01*
X119232252Y-88938934D01*
X119145234Y-88894595D01*
X118956241Y-88833188D01*
X118956241Y-88833187D01*
X118847194Y-88815916D01*
X118759961Y-88802100D01*
X118561239Y-88802100D01*
X118482729Y-88814534D01*
X118364958Y-88833187D01*
X118364958Y-88833188D01*
X118175965Y-88894595D01*
X117998904Y-88984814D01*
X117838139Y-89101616D01*
X117697616Y-89242139D01*
X117580814Y-89402904D01*
X117523360Y-89515663D01*
X117471751Y-89572980D01*
X117398397Y-89596814D01*
X117322955Y-89580778D01*
X117265638Y-89529169D01*
X117257840Y-89515663D01*
X117231354Y-89463682D01*
X117200387Y-89402906D01*
X117083581Y-89242136D01*
X116943064Y-89101619D01*
X116782294Y-88984813D01*
X116692252Y-88938934D01*
X116605234Y-88894595D01*
X116416241Y-88833188D01*
X116416241Y-88833187D01*
X116307194Y-88815916D01*
X116219961Y-88802100D01*
X116021239Y-88802100D01*
X115942729Y-88814534D01*
X115824958Y-88833187D01*
X115824958Y-88833188D01*
X115635965Y-88894595D01*
X115458904Y-88984814D01*
X115298139Y-89101616D01*
X115157616Y-89242139D01*
X115040814Y-89402904D01*
X114983360Y-89515663D01*
X114931751Y-89572980D01*
X114858397Y-89596814D01*
X114782955Y-89580778D01*
X114725638Y-89529169D01*
X114717840Y-89515663D01*
X114691354Y-89463682D01*
X114660387Y-89402906D01*
X114543581Y-89242136D01*
X114403064Y-89101619D01*
X114242294Y-88984813D01*
X114152252Y-88938934D01*
X114065234Y-88894595D01*
X113876241Y-88833188D01*
X113876241Y-88833187D01*
X113767194Y-88815916D01*
X113679961Y-88802100D01*
X113481239Y-88802100D01*
X113402729Y-88814534D01*
X113284958Y-88833187D01*
X113284958Y-88833188D01*
X113095965Y-88894595D01*
X112918904Y-88984814D01*
X112758139Y-89101616D01*
X112617616Y-89242139D01*
X112500814Y-89402904D01*
X112443360Y-89515663D01*
X112391751Y-89572980D01*
X112318397Y-89596814D01*
X112242955Y-89580778D01*
X112185638Y-89529169D01*
X112177840Y-89515663D01*
X112151354Y-89463682D01*
X112120387Y-89402906D01*
X112003581Y-89242136D01*
X111863064Y-89101619D01*
X111702294Y-88984813D01*
X111612252Y-88938934D01*
X111525234Y-88894595D01*
X111336241Y-88833188D01*
X111336241Y-88833187D01*
X111227194Y-88815916D01*
X111139961Y-88802100D01*
X110941239Y-88802100D01*
X110862729Y-88814534D01*
X110744958Y-88833187D01*
X110744958Y-88833188D01*
X110555965Y-88894595D01*
X110378904Y-88984814D01*
X110218139Y-89101616D01*
X110077616Y-89242139D01*
X109960814Y-89402904D01*
X109903360Y-89515663D01*
X109851751Y-89572980D01*
X109778397Y-89596814D01*
X109702955Y-89580778D01*
X109645638Y-89529169D01*
X109637840Y-89515663D01*
X109611354Y-89463682D01*
X109580387Y-89402906D01*
X109463581Y-89242136D01*
X109323064Y-89101619D01*
X109162294Y-88984813D01*
X109072252Y-88938934D01*
X108985234Y-88894595D01*
X108796241Y-88833188D01*
X108796241Y-88833187D01*
X108687194Y-88815916D01*
X108599961Y-88802100D01*
X108401239Y-88802100D01*
X108322729Y-88814534D01*
X108204958Y-88833187D01*
X108204958Y-88833188D01*
X108015961Y-88894597D01*
X108011740Y-88896748D01*
X107936297Y-88912782D01*
X107862944Y-88888945D01*
X107811338Y-88831626D01*
X107795100Y-88763986D01*
X107795100Y-81552605D01*
X107795098Y-81552584D01*
X107783548Y-81445147D01*
X107783547Y-81445143D01*
X107774771Y-81404804D01*
X107772341Y-81393633D01*
X107738213Y-81291096D01*
X107660425Y-81170057D01*
X107614670Y-81117253D01*
X107605961Y-81109706D01*
X107505934Y-81023031D01*
X107375061Y-80963263D01*
X107375059Y-80963262D01*
X107375054Y-80963260D01*
X107375047Y-80963258D01*
X107308023Y-80943577D01*
X107308010Y-80943574D01*
X107308006Y-80943573D01*
X107165614Y-80923101D01*
X107165602Y-80923100D01*
X107165600Y-80923100D01*
X93697600Y-80923100D01*
X93697595Y-80923100D01*
X93697584Y-80923101D01*
X93590147Y-80934651D01*
X93590143Y-80934652D01*
X93538634Y-80945858D01*
X93538631Y-80945859D01*
X93508154Y-80956003D01*
X93431162Y-80960589D01*
X93362192Y-80926065D01*
X93319725Y-80861682D01*
X93312100Y-80814628D01*
X93312100Y-67969846D01*
X93312242Y-67963347D01*
X93315795Y-67881983D01*
X96091100Y-67881983D01*
X96091100Y-68118016D01*
X96121905Y-68352006D01*
X96182995Y-68579996D01*
X96273319Y-68798056D01*
X96376063Y-68976013D01*
X96391327Y-69002450D01*
X96535008Y-69189699D01*
X96701901Y-69356592D01*
X96889150Y-69500273D01*
X96987805Y-69557231D01*
X97093543Y-69618280D01*
X97093546Y-69618281D01*
X97093551Y-69618284D01*
X97311607Y-69708606D01*
X97539586Y-69769693D01*
X97539592Y-69769693D01*
X97539593Y-69769694D01*
X97603203Y-69778068D01*
X97773589Y-69800500D01*
X98009611Y-69800500D01*
X98243614Y-69769693D01*
X98471593Y-69708606D01*
X98689649Y-69618284D01*
X98894050Y-69500273D01*
X99081299Y-69356592D01*
X99248192Y-69189699D01*
X99391873Y-69002450D01*
X99509884Y-68798049D01*
X99600206Y-68579993D01*
X99661293Y-68352014D01*
X99692100Y-68118011D01*
X99692100Y-67881989D01*
X99692099Y-67881983D01*
X147907100Y-67881983D01*
X147907100Y-68118016D01*
X147937905Y-68352006D01*
X147998995Y-68579996D01*
X148089319Y-68798056D01*
X148192063Y-68976013D01*
X148207327Y-69002450D01*
X148351008Y-69189699D01*
X148517901Y-69356592D01*
X148705150Y-69500273D01*
X148803805Y-69557231D01*
X148909543Y-69618280D01*
X148909546Y-69618281D01*
X148909551Y-69618284D01*
X149127607Y-69708606D01*
X149355586Y-69769693D01*
X149355592Y-69769693D01*
X149355593Y-69769694D01*
X149419203Y-69778068D01*
X149589589Y-69800500D01*
X149825611Y-69800500D01*
X150059614Y-69769693D01*
X150287593Y-69708606D01*
X150505649Y-69618284D01*
X150710050Y-69500273D01*
X150897299Y-69356592D01*
X151064192Y-69189699D01*
X151207873Y-69002450D01*
X151325884Y-68798049D01*
X151416206Y-68579993D01*
X151477293Y-68352014D01*
X151508100Y-68118011D01*
X151508100Y-67881989D01*
X151477293Y-67647986D01*
X151416206Y-67420007D01*
X151325884Y-67201951D01*
X151325881Y-67201946D01*
X151325880Y-67201943D01*
X151264831Y-67096205D01*
X151207873Y-66997550D01*
X151064192Y-66810301D01*
X150897299Y-66643408D01*
X150710050Y-66499727D01*
X150640370Y-66459497D01*
X150505656Y-66381719D01*
X150287596Y-66291395D01*
X150287594Y-66291394D01*
X150287593Y-66291394D01*
X150059614Y-66230307D01*
X150059612Y-66230306D01*
X150059606Y-66230305D01*
X149825616Y-66199500D01*
X149825611Y-66199500D01*
X149589589Y-66199500D01*
X149589583Y-66199500D01*
X149355593Y-66230305D01*
X149127603Y-66291395D01*
X148909543Y-66381719D01*
X148705151Y-66499726D01*
X148705150Y-66499727D01*
X148517901Y-66643408D01*
X148517899Y-66643409D01*
X148517895Y-66643413D01*
X148351013Y-66810295D01*
X148207326Y-66997551D01*
X148089319Y-67201943D01*
X147998995Y-67420003D01*
X147937905Y-67647993D01*
X147907100Y-67881983D01*
X99692099Y-67881983D01*
X99661293Y-67647986D01*
X99600206Y-67420007D01*
X99509884Y-67201951D01*
X99509881Y-67201946D01*
X99509880Y-67201943D01*
X99448831Y-67096205D01*
X99391873Y-66997550D01*
X99248192Y-66810301D01*
X99081299Y-66643408D01*
X98894050Y-66499727D01*
X98790229Y-66439785D01*
X98689656Y-66381719D01*
X98580037Y-66336313D01*
X111781100Y-66336313D01*
X111781100Y-66548887D01*
X111814354Y-66758843D01*
X111880043Y-66961012D01*
X111880046Y-66961017D01*
X111976550Y-67150417D01*
X111976550Y-67150418D01*
X111996466Y-67177830D01*
X112101496Y-67322392D01*
X112251808Y-67472704D01*
X112423784Y-67597651D01*
X112613188Y-67694157D01*
X112815357Y-67759846D01*
X113025313Y-67793100D01*
X113025318Y-67793100D01*
X113237882Y-67793100D01*
X113237887Y-67793100D01*
X113447843Y-67759846D01*
X113650012Y-67694157D01*
X113839416Y-67597651D01*
X114011392Y-67472704D01*
X114097807Y-67386289D01*
X114164601Y-67347724D01*
X114241729Y-67347724D01*
X114308524Y-67386288D01*
X114342771Y-67439576D01*
X114378246Y-67534686D01*
X114378250Y-67534694D01*
X114464409Y-67649787D01*
X114464412Y-67649790D01*
X114579505Y-67735949D01*
X114579515Y-67735954D01*
X114714223Y-67786198D01*
X114714221Y-67786198D01*
X114773757Y-67792598D01*
X114773777Y-67792600D01*
X115421600Y-67792600D01*
X115421600Y-66875612D01*
X115478607Y-66908525D01*
X115605774Y-66942600D01*
X115737426Y-66942600D01*
X115864593Y-66908525D01*
X115921600Y-66875612D01*
X115921600Y-67792600D01*
X116569423Y-67792600D01*
X116569442Y-67792598D01*
X116628977Y-67786198D01*
X116759521Y-67737507D01*
X116759525Y-67737506D01*
X116763686Y-67735953D01*
X116763694Y-67735949D01*
X116878787Y-67649790D01*
X116878790Y-67649787D01*
X116964949Y-67534694D01*
X116964954Y-67534684D01*
X117015198Y-67399977D01*
X117021598Y-67340442D01*
X117021600Y-67340422D01*
X117021600Y-66692600D01*
X116104612Y-66692600D01*
X116137525Y-66635593D01*
X116171600Y-66508426D01*
X116171600Y-66376774D01*
X116137525Y-66249607D01*
X116104612Y-66192600D01*
X117021600Y-66192600D01*
X117021600Y-65544777D01*
X117021598Y-65544757D01*
X117015198Y-65485222D01*
X116964954Y-65350515D01*
X116964949Y-65350505D01*
X116878790Y-65235412D01*
X116878787Y-65235409D01*
X116763694Y-65149250D01*
X116763684Y-65149245D01*
X116628976Y-65099001D01*
X116628978Y-65099001D01*
X116569442Y-65092601D01*
X116569423Y-65092600D01*
X115921600Y-65092600D01*
X115921600Y-66009588D01*
X115864593Y-65976675D01*
X115737426Y-65942600D01*
X115605774Y-65942600D01*
X115478607Y-65976675D01*
X115421600Y-66009588D01*
X115421600Y-65092600D01*
X114773777Y-65092600D01*
X114773757Y-65092601D01*
X114714222Y-65099001D01*
X114579515Y-65149245D01*
X114579505Y-65149250D01*
X114464412Y-65235409D01*
X114464409Y-65235412D01*
X114378250Y-65350505D01*
X114378247Y-65350511D01*
X114342771Y-65445624D01*
X114298032Y-65508450D01*
X114227873Y-65540489D01*
X114151094Y-65533157D01*
X114097807Y-65498911D01*
X114011393Y-65412497D01*
X114011392Y-65412496D01*
X113839416Y-65287549D01*
X113650012Y-65191043D01*
X113447843Y-65125354D01*
X113237887Y-65092100D01*
X113025313Y-65092100D01*
X112850349Y-65119811D01*
X112815356Y-65125354D01*
X112613194Y-65191041D01*
X112613188Y-65191043D01*
X112613182Y-65191045D01*
X112613182Y-65191046D01*
X112423782Y-65287550D01*
X112423781Y-65287550D01*
X112251809Y-65412495D01*
X112251806Y-65412497D01*
X112101497Y-65562806D01*
X112101495Y-65562809D01*
X111976550Y-65734781D01*
X111976550Y-65734782D01*
X111880046Y-65924182D01*
X111880041Y-65924194D01*
X111841601Y-66042501D01*
X111814354Y-66126357D01*
X111781100Y-66336313D01*
X98580037Y-66336313D01*
X98471596Y-66291395D01*
X98471594Y-66291394D01*
X98471593Y-66291394D01*
X98243614Y-66230307D01*
X98243612Y-66230306D01*
X98243606Y-66230305D01*
X98009616Y-66199500D01*
X98009611Y-66199500D01*
X97773589Y-66199500D01*
X97773583Y-66199500D01*
X97539593Y-66230305D01*
X97311603Y-66291395D01*
X97093543Y-66381719D01*
X96889151Y-66499726D01*
X96889150Y-66499727D01*
X96701901Y-66643408D01*
X96701899Y-66643409D01*
X96701895Y-66643413D01*
X96535013Y-66810295D01*
X96391326Y-66997551D01*
X96273319Y-67201943D01*
X96182995Y-67420003D01*
X96121905Y-67647993D01*
X96091100Y-67881983D01*
X93315795Y-67881983D01*
X93316291Y-67870612D01*
X93329242Y-67573969D01*
X93330375Y-67561020D01*
X93342002Y-67472704D01*
X93380825Y-67177817D01*
X93383077Y-67165044D01*
X93466738Y-66787672D01*
X93470093Y-66775151D01*
X93586323Y-66406517D01*
X93590768Y-66394308D01*
X93683490Y-66170453D01*
X93738671Y-66037233D01*
X93744158Y-66025465D01*
X93922645Y-65682596D01*
X93929125Y-65671373D01*
X94136808Y-65345376D01*
X94144239Y-65334763D01*
X94379555Y-65028093D01*
X94387879Y-65018174D01*
X94649012Y-64733196D01*
X94658200Y-64724009D01*
X94943174Y-64462879D01*
X94953093Y-64454555D01*
X95259763Y-64219239D01*
X95270376Y-64211808D01*
X95596373Y-64004125D01*
X95607596Y-63997645D01*
X95950465Y-63819158D01*
X95962236Y-63813671D01*
X96319308Y-63665768D01*
X96331517Y-63661323D01*
X96700151Y-63545093D01*
X96712672Y-63541738D01*
X97090044Y-63458077D01*
X97102817Y-63455825D01*
X97486023Y-63405374D01*
X97498963Y-63404242D01*
X97888348Y-63387242D01*
X97894847Y-63387100D01*
X97957492Y-63387100D01*
X149641708Y-63387100D01*
X149704353Y-63387100D01*
X149710852Y-63387242D01*
G37*
%TD.AperFunction*%
%TA.AperFunction,Conductor*%
G36*
X121667978Y-102400173D02*
G01*
X121706542Y-102466968D01*
X121708755Y-102476459D01*
X121711782Y-102491677D01*
X121711783Y-102491679D01*
X121775894Y-102646458D01*
X121775901Y-102646470D01*
X121868971Y-102785758D01*
X121868974Y-102785762D01*
X121987438Y-102904226D01*
X121987441Y-102904228D01*
X122126729Y-102997298D01*
X122126733Y-102997300D01*
X122126737Y-102997303D01*
X122126738Y-102997303D01*
X122126741Y-102997305D01*
X122172072Y-103016081D01*
X122281518Y-103061416D01*
X122445833Y-103094100D01*
X122469147Y-103094100D01*
X122543647Y-103114062D01*
X122574506Y-103137741D01*
X130716459Y-111279694D01*
X130755023Y-111346489D01*
X130760100Y-111385053D01*
X130760100Y-111724434D01*
X130740138Y-111798934D01*
X130698682Y-111844975D01*
X130620027Y-111902122D01*
X130538139Y-111961616D01*
X130397616Y-112102139D01*
X130280814Y-112262904D01*
X130223360Y-112375663D01*
X130171751Y-112432980D01*
X130098397Y-112456814D01*
X130022955Y-112440778D01*
X129965638Y-112389169D01*
X129957840Y-112375663D01*
X129948887Y-112358092D01*
X129900387Y-112262906D01*
X129783581Y-112102136D01*
X129643064Y-111961619D01*
X129482294Y-111844813D01*
X129392252Y-111798934D01*
X129305234Y-111754595D01*
X129116241Y-111693188D01*
X129116241Y-111693187D01*
X129007194Y-111675916D01*
X128919961Y-111662100D01*
X128721239Y-111662100D01*
X128642729Y-111674534D01*
X128524958Y-111693187D01*
X128524958Y-111693188D01*
X128335965Y-111754595D01*
X128158904Y-111844814D01*
X127998139Y-111961616D01*
X127857616Y-112102139D01*
X127740814Y-112262904D01*
X127683360Y-112375663D01*
X127631751Y-112432980D01*
X127558397Y-112456814D01*
X127482955Y-112440778D01*
X127425638Y-112389169D01*
X127417840Y-112375663D01*
X127408887Y-112358092D01*
X127360387Y-112262906D01*
X127243581Y-112102136D01*
X127103064Y-111961619D01*
X126942294Y-111844813D01*
X126852252Y-111798934D01*
X126765234Y-111754595D01*
X126576241Y-111693188D01*
X126576241Y-111693187D01*
X126467194Y-111675916D01*
X126379961Y-111662100D01*
X126181239Y-111662100D01*
X126102729Y-111674534D01*
X125984958Y-111693187D01*
X125984958Y-111693188D01*
X125795965Y-111754595D01*
X125618904Y-111844814D01*
X125458139Y-111961616D01*
X125317616Y-112102139D01*
X125200814Y-112262904D01*
X125143360Y-112375663D01*
X125091751Y-112432980D01*
X125018397Y-112456814D01*
X124942955Y-112440778D01*
X124885638Y-112389169D01*
X124877840Y-112375663D01*
X124868887Y-112358092D01*
X124820387Y-112262906D01*
X124703581Y-112102136D01*
X124563064Y-111961619D01*
X124402294Y-111844813D01*
X124312252Y-111798934D01*
X124225234Y-111754595D01*
X124036241Y-111693188D01*
X124036241Y-111693187D01*
X123927194Y-111675916D01*
X123839961Y-111662100D01*
X123641239Y-111662100D01*
X123562729Y-111674534D01*
X123444958Y-111693187D01*
X123444958Y-111693188D01*
X123255965Y-111754595D01*
X123078904Y-111844814D01*
X122918139Y-111961616D01*
X122777616Y-112102139D01*
X122660814Y-112262904D01*
X122603360Y-112375663D01*
X122551751Y-112432980D01*
X122478397Y-112456814D01*
X122402955Y-112440778D01*
X122345638Y-112389169D01*
X122337840Y-112375663D01*
X122328887Y-112358092D01*
X122280387Y-112262906D01*
X122163581Y-112102136D01*
X122023064Y-111961619D01*
X121862294Y-111844813D01*
X121772252Y-111798934D01*
X121685234Y-111754595D01*
X121496241Y-111693188D01*
X121496241Y-111693187D01*
X121387194Y-111675916D01*
X121299961Y-111662100D01*
X121101239Y-111662100D01*
X121022729Y-111674534D01*
X120904958Y-111693187D01*
X120904958Y-111693188D01*
X120715965Y-111754595D01*
X120538904Y-111844814D01*
X120378139Y-111961616D01*
X120237616Y-112102139D01*
X120120814Y-112262904D01*
X120063360Y-112375663D01*
X120011751Y-112432980D01*
X119938397Y-112456814D01*
X119862955Y-112440778D01*
X119805638Y-112389169D01*
X119797840Y-112375663D01*
X119788887Y-112358092D01*
X119740387Y-112262906D01*
X119623581Y-112102136D01*
X119483064Y-111961619D01*
X119322294Y-111844813D01*
X119232252Y-111798934D01*
X119145234Y-111754595D01*
X118956241Y-111693188D01*
X118956241Y-111693187D01*
X118847194Y-111675916D01*
X118759961Y-111662100D01*
X118561239Y-111662100D01*
X118482729Y-111674534D01*
X118364958Y-111693187D01*
X118364958Y-111693188D01*
X118175965Y-111754595D01*
X117998904Y-111844814D01*
X117838139Y-111961616D01*
X117697616Y-112102139D01*
X117580814Y-112262904D01*
X117523360Y-112375663D01*
X117471751Y-112432980D01*
X117398397Y-112456814D01*
X117322955Y-112440778D01*
X117265638Y-112389169D01*
X117257840Y-112375663D01*
X117248887Y-112358092D01*
X117200387Y-112262906D01*
X117083581Y-112102136D01*
X116943064Y-111961619D01*
X116782518Y-111844976D01*
X116733982Y-111785038D01*
X116721100Y-111724434D01*
X116721100Y-107198052D01*
X116741062Y-107123552D01*
X116764737Y-107092697D01*
X121457262Y-102400171D01*
X121524055Y-102361609D01*
X121601183Y-102361609D01*
X121667978Y-102400173D01*
G37*
%TD.AperFunction*%
%TA.AperFunction,Conductor*%
G36*
X149933459Y-100042693D02*
G01*
X149972023Y-100109488D01*
X149977100Y-100148052D01*
X149977100Y-100323331D01*
X149983880Y-100366138D01*
X150007135Y-100512967D01*
X149999072Y-100589673D01*
X149965328Y-100641634D01*
X148232506Y-102374459D01*
X148165711Y-102413023D01*
X148127147Y-102418100D01*
X126142053Y-102418100D01*
X126123105Y-102413023D01*
X126103489Y-102413023D01*
X126086501Y-102403215D01*
X126067553Y-102398138D01*
X126036694Y-102374459D01*
X125944694Y-102282459D01*
X125906130Y-102215664D01*
X125906130Y-102138536D01*
X125944694Y-102071741D01*
X126011489Y-102033177D01*
X126050053Y-102028100D01*
X126169367Y-102028100D01*
X126333682Y-101995416D01*
X126488463Y-101931303D01*
X126627762Y-101838226D01*
X126644247Y-101821741D01*
X126711042Y-101783177D01*
X126749606Y-101778100D01*
X140547543Y-101778100D01*
X147650398Y-101778100D01*
X147650414Y-101778101D01*
X147659543Y-101778101D01*
X147817652Y-101778101D01*
X147817657Y-101778101D01*
X147970385Y-101737177D01*
X147972251Y-101736100D01*
X148000548Y-101719762D01*
X148049229Y-101691656D01*
X148107316Y-101658120D01*
X148219120Y-101546316D01*
X148219121Y-101546313D01*
X149722741Y-100042693D01*
X149789536Y-100004129D01*
X149866664Y-100004129D01*
X149933459Y-100042693D01*
G37*
%TD.AperFunction*%
%TA.AperFunction,Conductor*%
G36*
X149933459Y-97502693D02*
G01*
X149972023Y-97569488D01*
X149977100Y-97608052D01*
X149977100Y-97783331D01*
X149983189Y-97821775D01*
X150007135Y-97972968D01*
X149999072Y-98049674D01*
X149965328Y-98101635D01*
X147533506Y-100533459D01*
X147466711Y-100572023D01*
X147428147Y-100577100D01*
X129733901Y-100577100D01*
X129659401Y-100557138D01*
X129604863Y-100502600D01*
X129584901Y-100428100D01*
X129604863Y-100353600D01*
X129610005Y-100345329D01*
X129633303Y-100310463D01*
X129697416Y-100155682D01*
X129730100Y-99991367D01*
X129730100Y-99968053D01*
X129735177Y-99949105D01*
X129735177Y-99929489D01*
X129744984Y-99912501D01*
X129750062Y-99893553D01*
X129773741Y-99862694D01*
X129783694Y-99852741D01*
X129850489Y-99814177D01*
X129889053Y-99809100D01*
X147079398Y-99809100D01*
X147079414Y-99809101D01*
X147088543Y-99809101D01*
X147246652Y-99809101D01*
X147246657Y-99809101D01*
X147399385Y-99768177D01*
X147453206Y-99737103D01*
X147536316Y-99689120D01*
X147648120Y-99577316D01*
X147648120Y-99577314D01*
X147660382Y-99565053D01*
X147660386Y-99565048D01*
X149722741Y-97502693D01*
X149789536Y-97464129D01*
X149866664Y-97464129D01*
X149933459Y-97502693D01*
G37*
%TD.AperFunction*%
%TD*%
M02*
